<?xml version="1.0" encoding="iso-8859-1"?>
<!-- Generator: Adobe Illustrator 24.1.0, SVG Export Plug-In . SVG Version: 6.00 Build 0)  -->
<svg version="1.1" id="Layer_1" xmlns="http://www.w3.org/2000/svg" xmlns:xlink="http://www.w3.org/1999/xlink" x="0px" y="0px"
	 viewBox="0 0 566.667 271.717" style="enable-background:new 0 0 566.667 271.717;" xml:space="preserve">
<g>
	<defs>
		<rect id="SVGID_1_" x="5.675" y="7.659" width="554.306" height="257.41"/>
	</defs>
	<clipPath id="SVGID_2_">
		<use xlink:href="#SVGID_1_"  style="overflow:visible;"/>
	</clipPath>
	<path style="clip-path:url(#SVGID_2_);fill:#29A6DC;" d="M35.248,149.463c0-1.091-0.884-1.885-1.977-1.885h-6.176
		c-1.09,0-1.976,0.794-1.976,1.885L24,157.07c0,1.092,0.885,2.018,1.977,2.018h0.616l1.521,15.151c0,0.663,0.54,1.122,1.205,1.122
		h1.73c0.666,0,1.205-0.459,1.205-1.122l1.521-15.151h0.618c1.091,0,1.976-0.926,1.976-2.018L35.248,149.463z"/>
	<path style="clip-path:url(#SVGID_2_);fill:#29A6DC;" d="M30.185,139.627c1.829,0,3.313,1.484,3.313,3.313
		c0,1.83-1.484,3.314-3.313,3.314c-1.829,0-3.313-1.484-3.313-3.314C26.872,141.111,28.356,139.627,30.185,139.627"/>
	<path style="clip-path:url(#SVGID_2_);fill:#29A6DC;" d="M53.574,149.463c0-1.091-0.884-1.885-1.978-1.885h-6.174
		c-1.091,0-1.977,0.794-1.977,1.885l-1.119,7.607c0,1.092,0.884,2.018,1.977,2.018h0.615l1.521,15.151
		c0,0.663,0.54,1.122,1.205,1.122h1.73c0.666,0,1.206-0.459,1.206-1.122l1.521-15.151h0.617c1.092,0,1.976-0.926,1.976-2.018
		L53.574,149.463z"/>
	<path style="clip-path:url(#SVGID_2_);fill:#29A6DC;" d="M48.51,139.627c1.829,0,3.313,1.484,3.313,3.313
		c0,1.83-1.484,3.314-3.313,3.314c-1.829,0-3.313-1.484-3.313-3.314C45.197,141.111,46.681,139.627,48.51,139.627"/>
	<path style="clip-path:url(#SVGID_2_);fill:#29A6DC;" d="M71.898,149.463c0-1.091-0.884-1.885-1.977-1.885h-6.175
		c-1.091,0-1.976,0.794-1.976,1.885l-1.12,7.607c0,1.092,0.885,2.018,1.977,2.018h0.616l1.521,15.151
		c0,0.663,0.54,1.122,1.204,1.122h1.731c0.665,0,1.205-0.459,1.205-1.122l1.521-15.151h0.617c1.093,0,1.977-0.926,1.977-2.018
		L71.898,149.463z"/>
	<path style="clip-path:url(#SVGID_2_);fill:#29A6DC;" d="M66.834,139.627c1.829,0,3.313,1.484,3.313,3.313
		c0,1.83-1.484,3.314-3.313,3.314c-1.829,0-3.313-1.484-3.313-3.314C63.521,141.111,65.005,139.627,66.834,139.627"/>
	<path style="clip-path:url(#SVGID_2_);fill:#29A6DC;" d="M90.222,149.463c0-1.091-0.883-1.885-1.976-1.885h-6.175
		c-1.092,0-1.977,0.794-1.977,1.885l-1.119,7.607c0,1.092,0.883,2.018,1.977,2.018h0.615l1.521,15.151
		c0,0.663,0.54,1.122,1.206,1.122h1.729c0.666,0,1.205-0.459,1.205-1.122l1.521-15.151h0.618c1.092,0,1.976-0.926,1.976-2.018
		L90.222,149.463z"/>
	<path style="clip-path:url(#SVGID_2_);fill:#29A6DC;" d="M85.157,139.627c1.829,0,3.313,1.484,3.313,3.313
		c0,1.83-1.484,3.314-3.313,3.314c-1.829,0-3.313-1.484-3.313-3.314C81.844,141.111,83.328,139.627,85.157,139.627"/>
	<path style="clip-path:url(#SVGID_2_);fill:#29A6DC;" d="M108.547,149.463c0-1.091-0.884-1.885-1.977-1.885h-6.175
		c-1.091,0-1.977,0.794-1.977,1.885l-1.119,7.607c0,1.092,0.884,2.018,1.978,2.018h0.615l1.521,15.151
		c0,0.663,0.54,1.122,1.206,1.122h1.73c0.666,0,1.205-0.459,1.205-1.122l1.521-15.151h0.617c1.093,0,1.977-0.926,1.977-2.018
		L108.547,149.463z"/>
	<path style="clip-path:url(#SVGID_2_);fill:#29A6DC;" d="M103.482,139.627c1.829,0,3.313,1.484,3.313,3.313
		c0,1.83-1.484,3.314-3.313,3.314c-1.829,0-3.313-1.484-3.313-3.314C100.169,141.111,101.653,139.627,103.482,139.627"/>
	<path style="clip-path:url(#SVGID_2_);fill:#29A6DC;" d="M35.248,107.774c0-1.091-0.884-1.885-1.977-1.885h-6.176
		c-1.09,0-1.976,0.794-1.976,1.885L24,115.381c0,1.091,0.885,2.018,1.977,2.018h0.616l1.521,15.151c0,0.663,0.54,1.122,1.205,1.122
		h1.73c0.666,0,1.205-0.459,1.205-1.122l1.521-15.151h0.618c1.091,0,1.976-0.927,1.976-2.018L35.248,107.774z"/>
	<path style="clip-path:url(#SVGID_2_);fill:#29A6DC;" d="M30.185,97.938c1.829,0,3.313,1.484,3.313,3.313
		c0,1.83-1.484,3.314-3.313,3.314c-1.829,0-3.313-1.484-3.313-3.314C26.872,99.422,28.356,97.938,30.185,97.938"/>
	<path style="clip-path:url(#SVGID_2_);fill:#29A6DC;" d="M16.923,107.774c0-1.091-0.884-1.885-1.977-1.885H8.77
		c-1.09,0-1.976,0.794-1.976,1.885l-1.119,7.607c0,1.091,0.885,2.018,1.977,2.018h0.616l1.521,15.151
		c0,0.663,0.54,1.122,1.205,1.122h1.73c0.666,0,1.205-0.459,1.205-1.122l1.521-15.151h0.618c1.091,0,1.976-0.927,1.976-2.018
		L16.923,107.774z"/>
	<path style="clip-path:url(#SVGID_2_);fill:#29A6DC;" d="M11.86,97.938c1.829,0,3.313,1.484,3.313,3.313
		c0,1.83-1.484,3.314-3.313,3.314c-1.83,0-3.313-1.484-3.313-3.314C8.547,99.422,10.03,97.938,11.86,97.938"/>
	<path style="clip-path:url(#SVGID_2_);fill:#29A6DC;" d="M53.574,107.774c0-1.091-0.884-1.885-1.978-1.885h-6.174
		c-1.091,0-1.977,0.794-1.977,1.885l-1.119,7.607c0,1.091,0.884,2.018,1.977,2.018h0.615l1.521,15.151
		c0,0.663,0.54,1.122,1.205,1.122h1.73c0.666,0,1.206-0.459,1.206-1.122l1.521-15.151h0.617c1.092,0,1.976-0.927,1.976-2.018
		L53.574,107.774z"/>
	<path style="clip-path:url(#SVGID_2_);fill:#29A6DC;" d="M48.51,97.938c1.829,0,3.313,1.484,3.313,3.313
		c0,1.83-1.484,3.314-3.313,3.314c-1.829,0-3.313-1.484-3.313-3.314C45.197,99.422,46.681,97.938,48.51,97.938"/>
	<path style="clip-path:url(#SVGID_2_);fill:#29A6DC;" d="M71.898,107.774c0-1.091-0.884-1.885-1.977-1.885h-6.175
		c-1.091,0-1.976,0.794-1.976,1.885l-1.12,7.607c0,1.091,0.885,2.018,1.977,2.018h0.616l1.521,15.151
		c0,0.663,0.54,1.122,1.204,1.122h1.731c0.665,0,1.205-0.459,1.205-1.122l1.521-15.151h0.617c1.093,0,1.977-0.927,1.977-2.018
		L71.898,107.774z"/>
	<path style="clip-path:url(#SVGID_2_);fill:#29A6DC;" d="M66.834,97.938c1.829,0,3.313,1.484,3.313,3.313
		c0,1.83-1.484,3.314-3.313,3.314c-1.829,0-3.313-1.484-3.313-3.314C63.521,99.422,65.005,97.938,66.834,97.938"/>
	<path style="clip-path:url(#SVGID_2_);fill:#29A6DC;" d="M90.222,107.774c0-1.091-0.883-1.885-1.976-1.885h-6.175
		c-1.092,0-1.977,0.794-1.977,1.885l-1.119,7.607c0,1.091,0.883,2.018,1.977,2.018h0.615l1.521,15.151
		c0,0.663,0.54,1.122,1.206,1.122h1.729c0.666,0,1.205-0.459,1.205-1.122l1.521-15.151h0.618c1.092,0,1.976-0.927,1.976-2.018
		L90.222,107.774z"/>
	<path style="clip-path:url(#SVGID_2_);fill:#29A6DC;" d="M85.157,97.938c1.829,0,3.313,1.484,3.313,3.313
		c0,1.83-1.484,3.314-3.313,3.314c-1.829,0-3.313-1.484-3.313-3.314C81.844,99.422,83.328,97.938,85.157,97.938"/>
	<path style="clip-path:url(#SVGID_2_);fill:#29A6DC;" d="M108.547,107.774c0-1.091-0.884-1.885-1.977-1.885h-6.175
		c-1.091,0-1.977,0.794-1.977,1.885l-1.119,7.607c0,1.091,0.884,2.018,1.978,2.018h0.615l1.521,15.151
		c0,0.663,0.54,1.122,1.206,1.122h1.73c0.666,0,1.205-0.459,1.205-1.122l1.521-15.151h0.617c1.093,0,1.977-0.927,1.977-2.018
		L108.547,107.774z"/>
	<path style="clip-path:url(#SVGID_2_);fill:#29A6DC;" d="M103.482,97.938c1.829,0,3.313,1.484,3.313,3.313
		c0,1.83-1.484,3.314-3.313,3.314c-1.829,0-3.313-1.484-3.313-3.314C100.169,99.422,101.653,97.938,103.482,97.938"/>
	<path style="clip-path:url(#SVGID_2_);fill:#29A6DC;" d="M126.873,107.774c0-1.091-0.884-1.885-1.977-1.885h-6.175
		c-1.091,0-1.977,0.794-1.977,1.885l-1.119,7.607c0,1.091,0.884,2.018,1.978,2.018h0.615l1.521,15.151
		c0,0.663,0.54,1.122,1.206,1.122h1.73c0.666,0,1.205-0.459,1.205-1.122l1.521-15.151h0.617c1.093,0,1.977-0.927,1.977-2.018
		L126.873,107.774z"/>
	<path style="clip-path:url(#SVGID_2_);fill:#29A6DC;" d="M121.808,97.938c1.829,0,3.313,1.484,3.313,3.313
		c0,1.83-1.484,3.314-3.313,3.314c-1.829,0-3.313-1.484-3.313-3.314C118.495,99.422,119.979,97.938,121.808,97.938"/>
	<path style="clip-path:url(#SVGID_2_);fill:#29A6DC;" d="M44.044,191.151c0-1.091-0.884-1.884-1.977-1.884h-6.175
		c-1.091,0-1.976,0.793-1.976,1.884l-1.12,7.607c0,1.092,0.885,2.019,1.977,2.019h0.616l1.521,15.152
		c0,0.664,0.54,1.121,1.205,1.121h1.73c0.665,0,1.205-0.457,1.205-1.121l1.521-15.152h0.617c1.092,0,1.976-0.927,1.976-2.019
		L44.044,191.151z"/>
	<path style="clip-path:url(#SVGID_2_);fill:#29A6DC;" d="M38.98,181.316c1.83,0,3.314,1.485,3.314,3.314
		c0,1.831-1.484,3.316-3.314,3.316c-1.83,0-3.314-1.485-3.314-3.316C35.666,182.801,37.15,181.316,38.98,181.316"/>
	<path style="clip-path:url(#SVGID_2_);fill:#29A6DC;" d="M62.369,191.151c0-1.091-0.884-1.884-1.977-1.884h-6.176
		c-1.09,0-1.976,0.793-1.976,1.884l-1.119,7.607c0,1.092,0.885,2.019,1.976,2.019h0.616l1.521,15.152
		c0,0.664,0.54,1.121,1.205,1.121h1.73c0.666,0,1.206-0.457,1.206-1.121l1.521-15.152h0.617c1.092,0,1.976-0.927,1.976-2.019
		L62.369,191.151z"/>
	<path style="clip-path:url(#SVGID_2_);fill:#29A6DC;" d="M57.305,181.316c1.83,0,3.314,1.485,3.314,3.314
		c0,1.831-1.484,3.316-3.314,3.316c-1.83,0-3.314-1.485-3.314-3.316C53.991,182.801,55.475,181.316,57.305,181.316"/>
	<path style="clip-path:url(#SVGID_2_);fill:#29A6DC;" d="M80.694,191.151c0-1.091-0.885-1.884-1.978-1.884h-6.175
		c-1.091,0-1.977,0.793-1.977,1.884l-1.119,7.607c0,1.092,0.885,2.019,1.978,2.019h0.615l1.52,15.152
		c0,0.664,0.54,1.121,1.206,1.121h1.73c0.665,0,1.206-0.457,1.206-1.121l1.521-15.152h0.617c1.092,0,1.975-0.927,1.975-2.019
		L80.694,191.151z"/>
	<path style="clip-path:url(#SVGID_2_);fill:#29A6DC;" d="M75.629,181.316c1.83,0,3.314,1.485,3.314,3.314
		c0,1.831-1.484,3.316-3.314,3.316c-1.83,0-3.314-1.485-3.314-3.316C72.315,182.801,73.799,181.316,75.629,181.316"/>
	<path style="clip-path:url(#SVGID_2_);fill:#29A6DC;" d="M99.018,191.151c0-1.091-0.885-1.884-1.977-1.884h-6.175
		c-1.091,0-1.978,0.793-1.978,1.884l-1.119,7.607c0,1.092,0.885,2.019,1.978,2.019h0.615l1.52,15.152
		c0,0.664,0.54,1.121,1.206,1.121h1.73c0.666,0,1.206-0.457,1.206-1.121l1.521-15.152h0.617c1.092,0,1.976-0.927,1.976-2.019
		L99.018,191.151z"/>
	<path style="clip-path:url(#SVGID_2_);fill:#29A6DC;" d="M93.953,181.316c1.83,0,3.314,1.485,3.314,3.314
		c0,1.831-1.484,3.316-3.314,3.316c-1.83,0-3.314-1.485-3.314-3.316C90.639,182.801,92.123,181.316,93.953,181.316"/>
	<path style="clip-path:url(#SVGID_2_);fill:#DC2768;" d="M92.94,99.715l-14.698,32.572c-0.108,0.24-0.39,0.347-0.629,0.238
		c-0.24-0.108-0.346-0.39-0.238-0.629l14.697-32.572c0.109-0.24,0.39-0.347,0.63-0.239C92.942,99.194,93.048,99.475,92.94,99.715"/>
	<path style="clip-path:url(#SVGID_2_);fill:#DC2768;" d="M78.242,99.323l14.698,32.572c0.108,0.24,0.001,0.522-0.238,0.63
		c-0.24,0.108-0.522,0.001-0.63-0.238L77.374,99.714c-0.108-0.239-0.001-0.521,0.238-0.629
		C77.852,98.977,78.134,99.083,78.242,99.323"/>
	<path style="clip-path:url(#SVGID_2_);fill:#DC2768;" d="M74.617,141.404l-14.698,32.572c-0.108,0.24-0.39,0.347-0.629,0.239
		c-0.24-0.109-0.346-0.39-0.238-0.63l14.697-32.572c0.108-0.24,0.39-0.347,0.63-0.239C74.619,140.883,74.725,141.164,74.617,141.404
		"/>
	<path style="clip-path:url(#SVGID_2_);fill:#DC2768;" d="M59.919,141.012l14.698,32.572c0.108,0.24,0.001,0.522-0.238,0.63
		c-0.24,0.108-0.522,0.002-0.63-0.238l-14.698-32.573c-0.108-0.239-0.001-0.521,0.238-0.629
		C59.529,140.666,59.811,140.772,59.919,141.012"/>
	<path style="clip-path:url(#SVGID_2_);fill:#DC2768;" d="M65.088,183.223L50.39,215.794c-0.108,0.24-0.39,0.347-0.629,0.239
		c-0.24-0.109-0.346-0.39-0.238-0.63l14.697-32.572c0.109-0.239,0.39-0.346,0.63-0.238C65.09,182.702,65.196,182.983,65.088,183.223
		"/>
	<path style="clip-path:url(#SVGID_2_);fill:#DC2768;" d="M50.39,182.832l14.698,32.572c0.108,0.239,0.001,0.521-0.238,0.629
		c-0.24,0.108-0.522,0.002-0.63-0.238l-14.698-32.571c-0.108-0.24-0.001-0.522,0.238-0.63C50,182.486,50.282,182.592,50.39,182.832"
		/>
	<path style="clip-path:url(#SVGID_2_);fill:#DC2768;" d="M55.71,141.404l-14.698,32.572c-0.108,0.24-0.39,0.347-0.629,0.239
		c-0.24-0.109-0.346-0.39-0.238-0.63l14.697-32.572c0.108-0.24,0.39-0.347,0.63-0.239C55.712,140.883,55.818,141.164,55.71,141.404"
		/>
	<path style="clip-path:url(#SVGID_2_);fill:#DC2768;" d="M41.012,141.012l14.698,32.572c0.108,0.24,0.001,0.522-0.238,0.63
		c-0.24,0.108-0.522,0.002-0.63-0.238l-14.698-32.573c-0.108-0.239-0.001-0.521,0.238-0.629
		C40.622,140.666,40.904,140.772,41.012,141.012"/>
	<path style="clip-path:url(#SVGID_2_);fill:#DC2768;" d="M37.968,99.715L23.27,132.287c-0.108,0.24-0.39,0.347-0.629,0.238
		c-0.24-0.108-0.346-0.39-0.238-0.629L37.1,99.324c0.108-0.24,0.39-0.347,0.63-0.239C37.97,99.194,38.076,99.475,37.968,99.715"/>
	<path style="clip-path:url(#SVGID_2_);fill:#DC2768;" d="M23.27,99.323l14.698,32.572c0.108,0.24,0.001,0.522-0.238,0.63
		c-0.24,0.108-0.522,0.001-0.63-0.238L22.402,99.714c-0.108-0.239-0.001-0.521,0.238-0.629C22.88,98.977,23.162,99.083,23.27,99.323
		"/>
	<path style="clip-path:url(#SVGID_2_);fill:#29A6DC;" d="M467.235,149.463c0-1.091-0.884-1.885-1.977-1.885h-6.176
		c-1.09,0-1.976,0.794-1.976,1.885l-1.119,7.607c0,1.092,0.885,2.018,1.977,2.018h0.616l1.521,15.151
		c0,0.663,0.54,1.122,1.205,1.122h1.73c0.666,0,1.205-0.459,1.205-1.122l1.521-15.151h0.618c1.091,0,1.976-0.926,1.976-2.018
		L467.235,149.463z"/>
	<path style="clip-path:url(#SVGID_2_);fill:#DC2768;" d="M467.235,149.463h-0.476c-0.001-0.415-0.162-0.753-0.428-1.004
		c-0.266-0.249-0.642-0.405-1.073-0.405h-6.176c-0.861,0.011-1.496,0.594-1.5,1.409v0.035l-1.124,7.642l-0.471-0.07h0.476
		c0,0.416,0.169,0.804,0.444,1.087c0.276,0.283,0.648,0.455,1.057,0.455h0.616h0.43l1.567,15.603v0.024
		c0.002,0.201,0.073,0.342,0.196,0.457c0.124,0.113,0.309,0.189,0.533,0.189h1.73c0.224,0,0.409-0.076,0.533-0.189
		c0.123-0.115,0.194-0.256,0.196-0.457v-0.025l1.567-15.602h1.048c0.409,0,0.78-0.172,1.056-0.455
		c0.275-0.283,0.445-0.671,0.444-1.087h0.476l-0.471,0.07l-1.126-7.642v-0.035H467.235l0.471-0.069l1.126,7.641v0.035
		c-0.002,1.35-1.083,2.488-2.452,2.494h-0.187l-1.478,14.722l-0.474-0.047h0.476c0.002,0.462-0.196,0.882-0.509,1.162
		c-0.312,0.283-0.73,0.436-1.172,0.436h-1.73c-0.442,0-0.859-0.153-1.172-0.436c-0.313-0.28-0.511-0.7-0.509-1.162h0.476
		l-0.474,0.047l-1.478-14.722h-0.185c-1.37-0.006-2.45-1.144-2.453-2.494v-0.035l1.124-7.641l0.471,0.069h-0.476
		c-0.001-0.676,0.28-1.28,0.73-1.699c0.449-0.42,1.061-0.662,1.722-0.662h6.176c0.662,0,1.274,0.242,1.723,0.662
		c0.45,0.419,0.731,1.024,0.73,1.699H467.235l0.471-0.069L467.235,149.463z"/>
	<path style="clip-path:url(#SVGID_2_);fill:#29A6DC;" d="M462.171,139.627c1.83,0,3.313,1.484,3.313,3.313
		c0,1.83-1.483,3.314-3.313,3.314c-1.83,0-3.313-1.484-3.313-3.314C458.858,141.111,460.341,139.627,462.171,139.627"/>
	<path style="clip-path:url(#SVGID_2_);fill:#DC2768;" d="M462.171,139.627v-0.476c2.093,0,3.789,1.697,3.789,3.789
		c0,2.093-1.696,3.789-3.789,3.79c-2.093-0.001-3.789-1.697-3.789-3.79c0-2.092,1.696-3.789,3.789-3.789V139.627v0.476
		c-1.566,0.003-2.835,1.271-2.838,2.837c0.003,1.567,1.272,2.835,2.838,2.838c1.567-0.003,2.835-1.271,2.837-2.838
		c-0.002-1.566-1.27-2.834-2.837-2.837V139.627z"/>
	<path style="clip-path:url(#SVGID_2_);fill:#DC2768;" d="M485.56,149.463c0-1.091-0.884-1.885-1.978-1.885h-6.174
		c-1.091,0-1.977,0.794-1.977,1.885l-1.119,7.607c0,1.092,0.884,2.018,1.977,2.018h0.615l1.521,15.151
		c0,0.663,0.54,1.122,1.205,1.122h1.73c0.666,0,1.206-0.459,1.206-1.122l1.521-15.151h0.617c1.092,0,1.976-0.926,1.976-2.018
		L485.56,149.463z"/>
	<path style="clip-path:url(#SVGID_2_);fill:#DC2768;" d="M480.496,139.627c1.83,0,3.313,1.484,3.313,3.313
		c0,1.83-1.483,3.314-3.313,3.314c-1.829,0-3.313-1.484-3.313-3.314C477.183,141.111,478.667,139.627,480.496,139.627"/>
	<path style="clip-path:url(#SVGID_2_);fill:#DC2768;" d="M503.885,149.463c0-1.091-0.884-1.885-1.977-1.885h-6.175
		c-1.092,0-1.976,0.794-1.976,1.885l-1.12,7.607c0,1.092,0.885,2.018,1.977,2.018h0.616l1.521,15.151
		c0,0.663,0.54,1.122,1.204,1.122h1.731c0.665,0,1.205-0.459,1.205-1.122l1.521-15.151h0.617c1.093,0,1.977-0.926,1.977-2.018
		L503.885,149.463z"/>
	<path style="clip-path:url(#SVGID_2_);fill:#DC2768;" d="M498.82,139.627c1.83,0,3.313,1.484,3.313,3.313
		c0,1.83-1.483,3.314-3.313,3.314c-1.83,0-3.313-1.484-3.313-3.314C495.507,141.111,496.99,139.627,498.82,139.627"/>
	<path style="clip-path:url(#SVGID_2_);fill:#DC2768;" d="M522.209,149.463c0-1.091-0.883-1.885-1.976-1.885h-6.175
		c-1.092,0-1.977,0.794-1.977,1.885l-1.119,7.607c0,1.092,0.883,2.018,1.977,2.018h0.615l1.521,15.151
		c0,0.663,0.54,1.122,1.206,1.122h1.729c0.666,0,1.205-0.459,1.205-1.122l1.521-15.151h0.618c1.092,0,1.976-0.926,1.976-2.018
		L522.209,149.463z"/>
	<path style="clip-path:url(#SVGID_2_);fill:#DC2768;" d="M517.144,139.627c1.83,0,3.313,1.484,3.313,3.313
		c0,1.83-1.483,3.314-3.313,3.314c-1.829,0-3.313-1.484-3.313-3.314C513.831,141.111,515.315,139.627,517.144,139.627"/>
	<path style="clip-path:url(#SVGID_2_);fill:#29A6DC;" d="M540.534,149.463c0-1.091-0.884-1.885-1.977-1.885h-6.175
		c-1.092,0-1.977,0.794-1.977,1.885l-1.119,7.607c0,1.092,0.884,2.018,1.978,2.018h0.615l1.521,15.151
		c0,0.663,0.54,1.122,1.206,1.122h1.73c0.666,0,1.205-0.459,1.205-1.122l1.521-15.151h0.617c1.093,0,1.977-0.926,1.977-2.018
		L540.534,149.463z"/>
	<path style="clip-path:url(#SVGID_2_);fill:#DC2768;" d="M540.534,149.463h-0.476c-0.002-0.415-0.162-0.753-0.428-1.004
		c-0.266-0.249-0.642-0.405-1.073-0.405h-6.175c-0.863,0.012-1.497,0.594-1.501,1.409v0.035l-1.124,7.642l-0.471-0.07h0.476
		c0,0.416,0.169,0.804,0.444,1.087c0.276,0.283,0.647,0.455,1.058,0.455h0.615h0.43l1.567,15.603v0.024
		c0.002,0.201,0.073,0.342,0.196,0.457c0.124,0.112,0.309,0.189,0.534,0.189h1.73c0.224,0,0.409-0.076,0.533-0.189
		c0.123-0.115,0.194-0.256,0.196-0.457v-0.025l1.567-15.602h1.047c0.41,0,0.781-0.172,1.057-0.455
		c0.275-0.283,0.444-0.671,0.444-1.087h0.476l-0.471,0.07l-1.127-7.642v-0.035H540.534l0.471-0.069l1.127,7.641v0.035
		c-0.002,1.35-1.082,2.489-2.453,2.494h-0.186l-1.478,14.722l-0.474-0.047h0.476c0.002,0.462-0.196,0.882-0.509,1.162
		c-0.313,0.283-0.73,0.436-1.172,0.436h-1.73c-0.442,0-0.86-0.153-1.173-0.435c-0.313-0.281-0.511-0.701-0.509-1.163h0.476
		l-0.474,0.047l-1.478-14.722h-0.184c-1.371-0.005-2.452-1.144-2.454-2.494v-0.034l1.124-7.642l0.471,0.069h-0.476
		c-0.001-0.676,0.28-1.28,0.73-1.699c0.449-0.42,1.062-0.662,1.723-0.662h6.175c0.662,0,1.274,0.242,1.723,0.662
		c0.45,0.419,0.731,1.024,0.73,1.699H540.534l0.471-0.069L540.534,149.463z"/>
	<path style="clip-path:url(#SVGID_2_);fill:#29A6DC;" d="M535.469,139.627c1.829,0,3.313,1.484,3.313,3.313
		c0,1.83-1.484,3.314-3.313,3.314c-1.831,0-3.313-1.484-3.313-3.314C532.156,141.111,533.638,139.627,535.469,139.627"/>
	<path style="clip-path:url(#SVGID_2_);fill:#DC2768;" d="M535.469,139.627v-0.476c2.092,0,3.789,1.697,3.789,3.789
		c0,2.093-1.697,3.789-3.789,3.79c-2.094-0.001-3.789-1.697-3.789-3.79c0-2.092,1.695-3.789,3.789-3.789V139.627v0.476
		c-1.568,0.003-2.835,1.271-2.838,2.837c0.003,1.567,1.27,2.835,2.838,2.838c1.566-0.003,2.835-1.271,2.837-2.838
		c-0.002-1.566-1.271-2.834-2.837-2.837V139.627z"/>
	<path style="clip-path:url(#SVGID_2_);fill:#DC2768;" d="M467.235,107.774c0-1.091-0.884-1.885-1.977-1.885h-6.176
		c-1.09,0-1.976,0.794-1.976,1.885l-1.119,7.607c0,1.091,0.885,2.018,1.977,2.018h0.616l1.521,15.151
		c0,0.663,0.54,1.122,1.205,1.122h1.73c0.666,0,1.205-0.459,1.205-1.122l1.521-15.151h0.618c1.091,0,1.976-0.927,1.976-2.018
		L467.235,107.774z"/>
	<path style="clip-path:url(#SVGID_2_);fill:#DC2768;" d="M462.171,97.938c1.83,0,3.313,1.484,3.313,3.313
		c0,1.83-1.483,3.314-3.313,3.314c-1.83,0-3.313-1.484-3.313-3.314C458.858,99.422,460.341,97.938,462.171,97.938"/>
	<path style="clip-path:url(#SVGID_2_);fill:#DC2768;" d="M448.91,107.774c0-1.091-0.884-1.885-1.977-1.885h-6.176
		c-1.091,0-1.976,0.794-1.976,1.885l-1.119,7.607c0,1.091,0.885,2.018,1.977,2.018h0.616l1.521,15.151
		c0,0.663,0.54,1.122,1.205,1.122h1.73c0.666,0,1.205-0.459,1.205-1.122l1.521-15.151h0.618c1.091,0,1.976-0.927,1.976-2.018
		L448.91,107.774z"/>
	<path style="clip-path:url(#SVGID_2_);fill:#DC2768;" d="M443.846,97.938c1.83,0,3.313,1.484,3.313,3.313
		c0,1.83-1.483,3.314-3.313,3.314c-1.829,0-3.313-1.484-3.313-3.314C440.533,99.422,442.017,97.938,443.846,97.938"/>
	<path style="clip-path:url(#SVGID_2_);fill:#29A6DC;" d="M485.56,107.774c0-1.091-0.884-1.885-1.978-1.885h-6.174
		c-1.091,0-1.977,0.794-1.977,1.885l-1.119,7.607c0,1.091,0.884,2.018,1.977,2.018h0.615l1.521,15.151
		c0,0.663,0.54,1.122,1.205,1.122h1.73c0.666,0,1.206-0.459,1.206-1.122l1.521-15.151h0.617c1.092,0,1.976-0.927,1.976-2.018
		L485.56,107.774z"/>
	<path style="clip-path:url(#SVGID_2_);fill:#DC2768;" d="M485.56,107.774h-0.476c-0.002-0.415-0.162-0.753-0.428-1.004
		c-0.267-0.249-0.642-0.404-1.074-0.405h-6.174c-0.862,0.012-1.497,0.594-1.501,1.409v0.035l-1.124,7.642l-0.471-0.07h0.476
		c0,0.416,0.169,0.803,0.444,1.087c0.276,0.283,0.647,0.455,1.057,0.455h0.615h0.43l1.567,15.603v0.024
		c0.002,0.201,0.073,0.342,0.196,0.457c0.124,0.113,0.309,0.189,0.533,0.189h1.73c0.224,0,0.409-0.077,0.533-0.189
		c0.124-0.115,0.195-0.256,0.198-0.457v-0.024l1.565-15.603h1.048c0.409,0,0.78-0.172,1.056-0.455
		c0.275-0.284,0.445-0.671,0.444-1.087h0.476l-0.471,0.07l-1.125-7.642v-0.035H485.56l0.471-0.069l1.125,7.641v0.035
		c-0.002,1.349-1.082,2.488-2.452,2.494h-0.187l-1.477,14.722l-0.474-0.047h0.476c0.002,0.462-0.196,0.882-0.51,1.163
		c-0.312,0.282-0.73,0.435-1.172,0.435h-1.73c-0.442,0-0.859-0.153-1.172-0.436c-0.313-0.28-0.511-0.7-0.509-1.162h0.476
		l-0.474,0.047l-1.478-14.722h-0.184c-1.371-0.006-2.451-1.145-2.453-2.494v-0.035l1.124-7.641l0.471,0.069h-0.476
		c-0.001-0.676,0.28-1.28,0.73-1.699c0.449-0.42,1.062-0.662,1.723-0.662h6.174c0.662,0,1.275,0.242,1.724,0.662
		c0.45,0.419,0.731,1.024,0.73,1.699H485.56l0.471-0.069L485.56,107.774z"/>
	<path style="clip-path:url(#SVGID_2_);fill:#29A6DC;" d="M480.496,97.938c1.83,0,3.313,1.484,3.313,3.313
		c0,1.83-1.483,3.314-3.313,3.314c-1.829,0-3.313-1.484-3.313-3.314C477.183,99.422,478.667,97.938,480.496,97.938"/>
	<path style="clip-path:url(#SVGID_2_);fill:#DC2768;" d="M480.496,97.938v-0.476c2.094,0,3.789,1.697,3.789,3.789
		c0,2.093-1.695,3.789-3.789,3.79c-2.093-0.001-3.789-1.697-3.789-3.79c0-2.092,1.696-3.789,3.789-3.789V97.938v0.476
		c-1.566,0.003-2.835,1.271-2.838,2.837c0.003,1.567,1.272,2.835,2.838,2.838c1.567-0.003,2.835-1.271,2.837-2.838
		c-0.002-1.566-1.27-2.834-2.837-2.837V97.938z"/>
	<path style="clip-path:url(#SVGID_2_);fill:#DC2768;" d="M503.885,107.774c0-1.091-0.884-1.885-1.977-1.885h-6.175
		c-1.092,0-1.976,0.794-1.976,1.885l-1.12,7.607c0,1.091,0.885,2.018,1.977,2.018h0.616l1.521,15.151
		c0,0.663,0.54,1.122,1.204,1.122h1.731c0.665,0,1.205-0.459,1.205-1.122l1.521-15.151h0.617c1.093,0,1.977-0.927,1.977-2.018
		L503.885,107.774z"/>
	<path style="clip-path:url(#SVGID_2_);fill:#DC2768;" d="M498.82,97.938c1.83,0,3.313,1.484,3.313,3.313
		c0,1.83-1.483,3.314-3.313,3.314c-1.83,0-3.313-1.484-3.313-3.314C495.507,99.422,496.99,97.938,498.82,97.938"/>
	<path style="clip-path:url(#SVGID_2_);fill:#29A6DC;" d="M522.209,107.774c0-1.091-0.883-1.885-1.976-1.885h-6.175
		c-1.092,0-1.977,0.794-1.977,1.885l-1.119,7.607c0,1.091,0.883,2.018,1.977,2.018h0.615l1.521,15.151
		c0,0.663,0.54,1.122,1.206,1.122h1.729c0.666,0,1.205-0.459,1.205-1.122l1.521-15.151h0.618c1.092,0,1.976-0.927,1.976-2.018
		L522.209,107.774z"/>
	<path style="clip-path:url(#SVGID_2_);fill:#DC2768;" d="M522.209,107.774h-0.476c-0.002-0.416-0.162-0.753-0.428-1.004
		c-0.266-0.249-0.641-0.404-1.072-0.405h-6.175c-0.863,0.012-1.497,0.594-1.501,1.409v0.035l-1.124,7.642l-0.471-0.07h0.476
		c-0.001,0.416,0.169,0.804,0.444,1.087s0.646,0.455,1.057,0.455h0.615h0.43l1.567,15.603v0.024
		c0.002,0.201,0.073,0.342,0.196,0.457c0.124,0.112,0.31,0.189,0.534,0.189h1.729c0.224,0,0.409-0.076,0.533-0.189
		c0.123-0.115,0.194-0.256,0.196-0.457v-0.025l1.567-15.602h1.048c0.409,0,0.78-0.172,1.056-0.455
		c0.275-0.284,0.445-0.671,0.444-1.087h0.476l-0.471,0.07l-1.126-7.642v-0.035H522.209l0.471-0.069l1.126,7.641v0.035
		c-0.003,1.349-1.082,2.488-2.452,2.494h-0.187l-1.478,14.722l-0.474-0.047h0.476c0.002,0.462-0.196,0.882-0.509,1.162
		c-0.312,0.283-0.73,0.436-1.172,0.436h-1.729c-0.442,0-0.86-0.153-1.173-0.436c-0.313-0.28-0.511-0.7-0.509-1.162h0.476
		l-0.474,0.047l-1.478-14.722h-0.184c-1.372-0.006-2.451-1.146-2.453-2.494v-0.034l1.124-7.642l0.471,0.069h-0.476
		c-0.001-0.676,0.28-1.28,0.73-1.699c0.449-0.42,1.062-0.662,1.723-0.662h6.175c0.662,0,1.274,0.242,1.723,0.662
		c0.45,0.419,0.73,1.024,0.729,1.699H522.209l0.471-0.069L522.209,107.774z"/>
	<path style="clip-path:url(#SVGID_2_);fill:#29A6DC;" d="M517.144,97.938c1.83,0,3.313,1.484,3.313,3.313
		c0,1.83-1.483,3.314-3.313,3.314c-1.829,0-3.313-1.484-3.313-3.314C513.831,99.422,515.315,97.938,517.144,97.938"/>
	<path style="clip-path:url(#SVGID_2_);fill:#DC2768;" d="M517.144,97.938v-0.476c2.094,0,3.789,1.697,3.789,3.789
		c0,2.093-1.695,3.789-3.789,3.79c-2.093-0.001-3.789-1.697-3.789-3.79c0-2.092,1.696-3.789,3.789-3.789V97.938v0.476
		c-1.566,0.003-2.835,1.271-2.838,2.837c0.003,1.567,1.272,2.835,2.838,2.838c1.567-0.003,2.835-1.271,2.837-2.838
		c-0.002-1.566-1.27-2.834-2.837-2.837V97.938z"/>
	<path style="clip-path:url(#SVGID_2_);fill:#DC2768;" d="M540.534,107.774c0-1.091-0.884-1.885-1.977-1.885h-6.175
		c-1.092,0-1.977,0.794-1.977,1.885l-1.119,7.607c0,1.091,0.884,2.018,1.978,2.018h0.615l1.521,15.151
		c0,0.663,0.54,1.122,1.206,1.122h1.73c0.666,0,1.205-0.459,1.205-1.122l1.521-15.151h0.617c1.093,0,1.977-0.927,1.977-2.018
		L540.534,107.774z"/>
	<path style="clip-path:url(#SVGID_2_);fill:#DC2768;" d="M535.469,97.938c1.829,0,3.313,1.484,3.313,3.313
		c0,1.83-1.484,3.314-3.313,3.314c-1.831,0-3.313-1.484-3.313-3.314C532.156,99.422,533.638,97.938,535.469,97.938"/>
	<path style="clip-path:url(#SVGID_2_);fill:#DC2768;" d="M558.86,107.774c0-1.091-0.884-1.885-1.977-1.885h-6.175
		c-1.092,0-1.977,0.794-1.977,1.885l-1.119,7.607c0,1.091,0.884,2.018,1.978,2.018h0.615l1.521,15.151
		c0,0.663,0.54,1.122,1.206,1.122h1.73c0.666,0,1.205-0.459,1.205-1.122l1.521-15.151h0.617c1.093,0,1.977-0.927,1.977-2.018
		L558.86,107.774z"/>
	<path style="clip-path:url(#SVGID_2_);fill:#DC2768;" d="M553.795,97.938c1.829,0,3.313,1.484,3.313,3.313
		c0,1.83-1.484,3.314-3.313,3.314c-1.83,0-3.313-1.484-3.313-3.314C550.482,99.422,551.965,97.938,553.795,97.938"/>
	<path style="clip-path:url(#SVGID_2_);fill:#DC2768;" d="M476.03,191.151c0-1.091-0.884-1.884-1.977-1.884h-6.175
		c-1.092,0-1.976,0.793-1.976,1.884l-1.12,7.607c0,1.092,0.885,2.019,1.977,2.019h0.616l1.521,15.152
		c0,0.664,0.54,1.121,1.205,1.121h1.73c0.665,0,1.205-0.457,1.205-1.121l1.521-15.152h0.617c1.092,0,1.976-0.927,1.976-2.019
		L476.03,191.151z"/>
	<path style="clip-path:url(#SVGID_2_);fill:#DC2768;" d="M470.967,181.316c1.83,0,3.314,1.485,3.314,3.314
		c0,1.831-1.484,3.316-3.314,3.316c-1.83,0-3.314-1.485-3.314-3.316C467.653,182.801,469.137,181.316,470.967,181.316"/>
	<path style="clip-path:url(#SVGID_2_);fill:#DC2768;" d="M494.355,191.151c0-1.091-0.884-1.884-1.977-1.884h-6.176
		c-1.091,0-1.976,0.793-1.976,1.884l-1.119,7.607c0,1.092,0.885,2.019,1.976,2.019h0.616l1.521,15.152
		c0,0.664,0.54,1.121,1.205,1.121h1.73c0.666,0,1.206-0.457,1.206-1.121l1.52-15.152h0.618c1.092,0,1.976-0.927,1.976-2.019
		L494.355,191.151z"/>
	<path style="clip-path:url(#SVGID_2_);fill:#DC2768;" d="M489.292,181.316c1.83,0,3.314,1.485,3.314,3.314
		c0,1.831-1.484,3.316-3.314,3.316c-1.83,0-3.314-1.485-3.314-3.316C485.978,182.801,487.462,181.316,489.292,181.316"/>
	<path style="clip-path:url(#SVGID_2_);fill:#29A6DC;" d="M512.68,191.151c0-1.091-0.885-1.884-1.978-1.884h-6.175
		c-1.091,0-1.977,0.793-1.977,1.884l-1.119,7.607c0,1.092,0.885,2.019,1.978,2.019h0.615l1.52,15.152
		c0,0.664,0.54,1.121,1.206,1.121h1.73c0.665,0,1.206-0.457,1.206-1.121l1.52-15.152h0.618c1.092,0,1.975-0.927,1.975-2.019
		L512.68,191.151z"/>
	<path style="clip-path:url(#SVGID_2_);fill:#DC2768;" d="M512.68,191.152h-0.476c-0.002-0.415-0.162-0.752-0.428-1.003
		c-0.267-0.249-0.643-0.405-1.074-0.405h-6.175c-0.43,0-0.806,0.156-1.072,0.405c-0.266,0.251-0.427,0.588-0.429,1.003v0.035
		l-1.124,7.642l-0.471-0.07h0.476c0,0.416,0.169,0.804,0.444,1.087c0.277,0.284,0.648,0.456,1.058,0.456h0.615h0.43l1.566,15.603
		v0.025c0.002,0.202,0.073,0.342,0.196,0.456c0.124,0.112,0.309,0.189,0.534,0.189h1.73c0.224,0,0.41-0.076,0.534-0.189
		c0.123-0.114,0.194-0.255,0.197-0.456v-0.024l1.565-15.604h1.048c0.409,0,0.78-0.172,1.056-0.455
		c0.274-0.284,0.444-0.672,0.443-1.088h0.476l-0.471,0.07l-1.124-7.642v-0.035H512.68l0.471-0.069l1.124,7.641v0.035
		c-0.002,1.349-1.081,2.489-2.451,2.495h-0.187l-1.477,14.723l-0.474-0.047h0.476c0.003,0.463-0.197,0.883-0.511,1.163
		c-0.312,0.282-0.73,0.434-1.171,0.434h-1.73c-0.442,0-0.859-0.152-1.172-0.434c-0.314-0.281-0.512-0.701-0.51-1.163h0.476
		l-0.474,0.047l-1.477-14.723h-0.184c-1.371-0.006-2.451-1.145-2.454-2.495v-0.035l1.124-7.641l0.471,0.069h-0.476
		c-0.001-0.676,0.281-1.28,0.73-1.699c0.449-0.42,1.062-0.661,1.723-0.661h6.175c0.662,0,1.275,0.241,1.724,0.661
		c0.45,0.419,0.731,1.023,0.73,1.699H512.68l0.471-0.069L512.68,191.152z"/>
	<path style="clip-path:url(#SVGID_2_);fill:#29A6DC;" d="M507.616,181.316c1.83,0,3.314,1.485,3.314,3.314
		c0,1.831-1.484,3.316-3.314,3.316c-1.83,0-3.314-1.485-3.314-3.316C504.302,182.801,505.786,181.316,507.616,181.316"/>
	<path style="clip-path:url(#SVGID_2_);fill:#DC2768;" d="M507.616,181.316v-0.476c2.094,0,3.79,1.698,3.79,3.79
		c0,2.094-1.696,3.791-3.79,3.792c-2.094-0.001-3.79-1.698-3.79-3.792c0-2.092,1.696-3.79,3.79-3.79V181.316v0.476
		c-1.567,0.003-2.836,1.272-2.839,2.838c0.003,1.568,1.272,2.837,2.839,2.84c1.567-0.003,2.836-1.272,2.838-2.84
		c-0.002-1.566-1.271-2.835-2.838-2.838V181.316z"/>
	<path style="clip-path:url(#SVGID_2_);fill:#29A6DC;" d="M531.005,191.151c0-1.091-0.885-1.884-1.977-1.884h-6.175
		c-1.092,0-1.978,0.793-1.978,1.884l-1.119,7.607c0,1.092,0.885,2.019,1.978,2.019h0.615l1.52,15.152
		c0,0.664,0.54,1.121,1.206,1.121h1.73c0.666,0,1.206-0.457,1.206-1.121l1.52-15.152h0.618c1.092,0,1.976-0.927,1.976-2.019
		L531.005,191.151z"/>
	<path style="clip-path:url(#SVGID_2_);fill:#DC2768;" d="M531.005,191.152h-0.476c-0.002-0.415-0.162-0.752-0.428-1.003
		c-0.267-0.249-0.643-0.405-1.073-0.405h-6.175c-0.43,0-0.807,0.156-1.073,0.405c-0.266,0.251-0.427,0.588-0.429,1.003v0.035
		l-1.124,7.642l-0.471-0.07h0.476c0,0.416,0.169,0.804,0.444,1.087c0.277,0.284,0.648,0.456,1.058,0.456h0.615h0.43l1.566,15.603
		v0.025c0.002,0.202,0.073,0.342,0.196,0.456c0.124,0.112,0.309,0.189,0.534,0.189h1.73c0.224,0,0.41-0.077,0.534-0.189
		c0.123-0.114,0.194-0.255,0.196-0.456v-0.024l1.566-15.604h1.048c0.409,0,0.78-0.172,1.056-0.455
		c0.275-0.284,0.445-0.672,0.444-1.088h0.476l-0.471,0.07l-1.125-7.642v-0.035H531.005l0.471-0.069l1.125,7.641v0.035
		c-0.002,1.349-1.082,2.489-2.452,2.495h-0.187l-1.477,14.723l-0.474-0.047h0.476c0.002,0.462-0.196,0.883-0.51,1.163
		c-0.313,0.282-0.73,0.434-1.172,0.434h-1.73c-0.442,0-0.859-0.152-1.172-0.434c-0.314-0.281-0.512-0.701-0.51-1.163h0.476
		l-0.474,0.047l-1.477-14.723h-0.184c-1.371-0.006-2.451-1.145-2.454-2.495v-0.035l1.124-7.641l0.471,0.069h-0.476
		c-0.001-0.676,0.281-1.28,0.731-1.699c0.449-0.42,1.062-0.661,1.723-0.661h6.175c0.661,0,1.274,0.241,1.723,0.661
		c0.45,0.419,0.731,1.023,0.73,1.699H531.005l0.471-0.069L531.005,191.152z"/>
	<path style="clip-path:url(#SVGID_2_);fill:#29A6DC;" d="M525.94,181.316c1.83,0,3.314,1.485,3.314,3.314
		c0,1.831-1.484,3.316-3.314,3.316c-1.831,0-3.314-1.485-3.314-3.316C522.626,182.801,524.109,181.316,525.94,181.316"/>
	<path style="clip-path:url(#SVGID_2_);fill:#DC2768;" d="M525.94,181.316v-0.476c2.094,0,3.79,1.698,3.79,3.79
		c0,2.094-1.696,3.791-3.79,3.792c-2.094-0.001-3.79-1.698-3.79-3.792c0-2.092,1.696-3.79,3.79-3.79V181.316v0.476
		c-1.567,0.003-2.836,1.272-2.839,2.838c0.003,1.568,1.272,2.837,2.839,2.84c1.567-0.003,2.836-1.272,2.838-2.84
		c-0.002-1.566-1.271-2.835-2.838-2.838V181.316z"/>
	<path style="clip-path:url(#SVGID_2_);fill:#29A6DC;" d="M169.6,110.459c0-2.108-0.002-4.181,0-6.255
		c0.002-1.028,0.287-1.307,1.328-1.308c2.905-0.001,5.81,0,8.715,0h0.793v-3.443c0-0.283-0.006-0.568,0.003-0.852
		c0.024-0.753,0.369-1.149,0.974-1.128c0.574,0.021,0.904,0.419,0.909,1.13c0.008,1.158,0.002,2.316,0.002,3.473v0.82h0.717
		c2.36,0,4.719-0.001,7.078,0c1.064,0.001,1.371,0.303,1.373,1.352c0.002,2.072,0,4.145,0,6.306h1.601c2.328,0,2.328,0,2.328,2.361
		c0,1.18-0.001,2.359,0.002,3.538c0.001,0.214,0.019,0.426,0.034,0.703h0.809c5.657,0,11.314,0,16.971,0.001
		c1.102,0,1.34,0.24,1.341,1.337v10.682v0.78c0.235-0.102,0.411-0.175,0.582-0.257c5.014-2.412,10.828,0.97,11.085,6.523
		c0.1,2.172,0.029,4.365-0.146,6.534c-0.126,1.562-1.023,2.842-2.093,3.984c-0.209,0.223-0.348,0.584-0.371,0.893
		c-0.05,0.65-0.037,1.311,0.013,1.963c0.062,0.828,0.441,1.139,1.269,1.174c1.523,0.065,3.075-0.015,4.564,0.251
		c3.954,0.706,6.948,4.339,6.983,8.355c0.037,4.193,0.016,8.387,0.013,12.581c0,0.773-0.293,1.063-1.06,1.1
		c-0.152,0.008-0.305,0.003-0.458,0.003h-32.763c-1.405-0.001-1.59-0.186-1.591-1.585v-4.111h-0.909h-32.568
		c-1.225,0-1.453-0.224-1.453-1.438v-53.93c0-1.243,0.198-1.438,1.447-1.442c0.742-0.003,1.486-0.005,2.228-0.013
		C169.411,110.54,169.472,110.503,169.6,110.459 M167.547,165.434h25.917V112.48h-25.917V165.434z M195.448,119.038v46.392h5.157
		v-0.756c0-1.615-0.013-3.231,0.003-4.848c0.048-4.523,2.933-8.078,7.35-8.88c1.359-0.248,2.784-0.136,4.179-0.175
		c0.968-0.028,1.349-0.371,1.389-1.336c0.021-0.544-0.019-1.093,0.014-1.636c0.028-0.467-0.106-0.802-0.454-1.141
		c-1.246-1.209-2.05-2.688-2.167-4.425c-0.122-1.847-0.111-3.707-0.109-5.561c0.002-1.727,0.533-3.294,1.562-4.697
		c0.2-0.274,0.34-0.662,0.342-0.998c0.023-3.757,0.016-7.513,0.014-11.27c0-0.212-0.018-0.425-0.03-0.669H195.448z M222.385,151.495
		c-0.276,0.304-0.627,0.532-0.75,0.85c-0.599,1.548-1.185,3.045-0.752,4.835c0.624,2.578,0.955,5.226,1.422,7.842
		c0.099,0.553-0.003,1.001-0.399,1.436c-0.881,0.97-1.706,1.99-2.565,2.98c-0.527,0.608-1.097,0.621-1.609,0.022
		c-0.894-1.045-1.794-2.087-2.63-3.178c-0.216-0.283-0.331-0.769-0.268-1.12c0.561-3.085,1.175-6.161,1.764-9.24
		c0.034-0.178,0.024-0.384-0.033-0.554c-0.29-0.866-0.577-1.736-0.921-2.582c-0.189-0.466-0.489-0.886-0.781-1.403
		c-0.886,1.087-1.946,1.352-3.14,1.298c-0.697-0.03-1.398-0.007-2.096-0.004c-4.092,0.014-7.112,3.025-7.119,7.109
		c-0.006,3.562-0.001,7.121-0.001,10.682v0.684h32.071l0.053-0.209c0.002-3.844,0.056-7.69-0.018-11.533
		c-0.059-3.113-2.205-5.79-5.237-6.488c-1.253-0.287-2.598-0.229-3.901-0.23C224.287,152.689,223.215,152.495,222.385,151.495
		 M212.642,138.94l0.076,0.005c0,0.829-0.017,1.659,0.003,2.487c0.081,3.215,2.697,5.664,5.999,5.628
		c3.096-0.033,5.676-2.633,5.695-5.754c0.01-1.593,0.011-3.185,0-4.779c-0.021-2.928-2.284-5.377-5.265-5.712
		c-2.852-0.322-5.684,1.614-6.254,4.418C212.653,136.437,212.717,137.703,212.642,138.94 M189.546,104.846h-18.057v5.672h18.057
		V104.846z M218.807,156.068l-0.23,0.018c-0.054,0.111-0.136,0.218-0.159,0.336c-0.56,2.862-1.114,5.724-1.664,8.588
		c-0.023,0.119-0.044,0.288,0.018,0.366c0.569,0.704,1.155,1.393,1.76,2.114c0.518-0.6,0.949-1.151,1.439-1.646
		c0.38-0.386,0.447-0.788,0.355-1.299c-0.402-2.205-0.774-4.416-1.163-6.624C219.055,157.301,218.925,156.685,218.807,156.068
		 M221.633,148.323c-2.059,0.839-4.136,0.779-6.348-0.047c0.108,0.504,0.093,0.912,0.276,1.189c0.579,0.88,1.29,1.548,2.508,1.32
		c0.548-0.102,1.132-0.016,1.699-0.017C221.055,150.767,221.926,149.667,221.633,148.323 M217.709,152.701
		c0.141,1.157,0.339,1.479,0.892,1.467c0.453-0.012,0.727-0.518,0.781-1.467H217.709z"/>
	<path style="clip-path:url(#SVGID_2_);fill:#29A6DC;" d="M180.496,157.948c2.356,0,4.712-0.003,7.068,0.004
		c0.234,0.001,0.541-0.019,0.686,0.113c0.251,0.228,0.576,0.584,0.548,0.854c-0.032,0.306-0.375,0.633-0.661,0.842
		c-0.179,0.132-0.505,0.079-0.765,0.079c-4.558,0.004-9.118,0.003-13.676,0.003c-0.131,0-0.262,0.005-0.393-0.003
		c-0.706-0.042-1.077-0.382-1.061-0.975c0.017-0.568,0.421-0.912,1.122-0.914C175.741,157.944,178.118,157.948,180.496,157.948"/>
	<path style="clip-path:url(#SVGID_2_);fill:#29A6DC;" d="M180.574,134.739c2.378,0,4.755-0.004,7.131,0.002
		c0.808,0.002,1.274,0.509,1.089,1.161c-0.16,0.563-0.576,0.703-1.106,0.701c-1.941-0.009-3.882-0.003-5.823-0.003
		c-2.77,0-5.54,0.003-8.31-0.005c-0.277-0.001-0.653,0.03-0.809-0.127c-0.244-0.244-0.47-0.639-0.466-0.968
		c0.006-0.479,0.401-0.751,0.901-0.757c0.981-0.011,1.963-0.004,2.944-0.004H180.574z"/>
	<path style="clip-path:url(#SVGID_2_);fill:#29A6DC;" d="M180.556,150.212c2.334,0,4.668-0.002,7.001,0.003
		c0.216,0,0.514-0.043,0.629,0.075c0.264,0.27,0.624,0.646,0.597,0.947c-0.028,0.297-0.456,0.593-0.764,0.814
		c-0.149,0.106-0.423,0.044-0.641,0.044c-4.559,0.001-9.117,0.001-13.675,0.001c-1.067,0-1.476-0.273-1.461-0.965
		c0.016-0.649,0.439-0.919,1.444-0.919H180.556z"/>
	<path style="clip-path:url(#SVGID_2_);fill:#29A6DC;" d="M180.499,121.113c-2.36,0-4.719,0.003-7.078-0.001
		c-0.795-0.001-1.169-0.296-1.178-0.904c-0.009-0.611,0.383-0.939,1.145-0.939c4.763-0.002,9.526-0.002,14.288,0
		c0.884,0,1.361,0.559,1.086,1.255c-0.191,0.482-0.576,0.595-1.054,0.593C185.305,121.108,182.902,121.113,180.499,121.113"/>
	<path style="clip-path:url(#SVGID_2_);fill:#29A6DC;" d="M180.572,127.004c2.4,0,4.798,0.004,7.197-0.003
		c0.488-0.001,0.916,0.161,0.983,0.657c0.043,0.314-0.102,0.707-0.288,0.977c-0.111,0.161-0.466,0.213-0.711,0.213
		c-4.819,0.012-9.639,0.012-14.458,0.005c-0.709,0-1.075-0.358-1.052-0.96c0.02-0.552,0.407-0.885,1.067-0.886
		C175.731,127.001,178.151,127.004,180.572,127.004"/>
	<path style="clip-path:url(#SVGID_2_);fill:#29A6DC;" d="M180.504,144.348c-2.268,0-4.537,0.001-6.805-0.001
		c-0.218,0-0.438,0.005-0.653-0.024c-0.5-0.068-0.78-0.363-0.8-0.872c-0.021-0.547,0.292-0.843,0.792-0.961
		c0.145-0.034,0.304-0.014,0.457-0.014c4.688-0.001,9.378-0.001,14.067,0c0.174,0,0.356-0.017,0.521,0.024
		c0.482,0.119,0.769,0.458,0.748,0.941c-0.02,0.47-0.289,0.819-0.804,0.881c-0.216,0.026-0.435,0.025-0.653,0.025
		C185.084,144.349,182.794,144.348,180.504,144.348"/>
	<path style="clip-path:url(#SVGID_2_);fill:#29A6DC;" d="M203.373,124.796c1.289,0,2.578-0.006,3.865,0.002
		c0.756,0.005,1.167,0.337,1.18,0.929c0.013,0.623-0.401,0.976-1.197,0.978c-2.599,0.007-5.197,0.006-7.795,0
		c-0.789-0.002-1.23-0.361-1.224-0.964c0.005-0.599,0.447-0.94,1.241-0.944C200.753,124.792,202.063,124.796,203.373,124.796"/>
	<path style="clip-path:url(#SVGID_2_);fill:#29A6DC;" d="M203.374,132.387c1.288,0,2.576-0.004,3.864,0.002
		c0.757,0.003,1.168,0.33,1.18,0.921c0.013,0.611-0.371,0.964-1.133,0.967c-2.641,0.012-5.282,0.011-7.924,0.001
		c-0.757-0.003-1.164-0.361-1.158-0.953c0.005-0.58,0.438-0.932,1.176-0.936C200.711,132.383,202.042,132.387,203.374,132.387"/>
	<path style="clip-path:url(#SVGID_2_);fill:#29A6DC;" d="M203.375,139.983c1.309,0,2.619-0.004,3.927,0.002
		c0.709,0.003,1.104,0.334,1.116,0.91c0.012,0.601-0.349,0.944-1.069,0.947c-2.684,0.01-5.368,0.009-8.053,0
		c-0.711-0.002-1.1-0.356-1.094-0.934c0.006-0.56,0.428-0.919,1.114-0.923C200.669,139.978,202.022,139.983,203.375,139.983"/>
	<path style="clip-path:url(#SVGID_2_);fill:#29A6DC;" d="M203.239,149.424c-1.309,0-2.618,0.005-3.927-0.002
		c-0.706-0.004-1.107-0.344-1.11-0.914c-0.002-0.568,0.41-0.925,1.1-0.926c2.683-0.002,5.367-0.003,8.051,0.001
		c0.7,0.001,1.079,0.351,1.064,0.948c-0.014,0.567-0.377,0.886-1.054,0.89C205.988,149.431,204.613,149.424,203.239,149.424"/>
	<path style="clip-path:url(#SVGID_2_);fill:#29A6DC;" d="M199.471,157.017c-0.844-0.001-1.29-0.338-1.269-0.959
		c0.02-0.599,0.432-0.888,1.269-0.89c0.89-0.002,1.315,0.281,1.337,0.89C200.831,156.691,200.374,157.019,199.471,157.017"/>
	<path style="clip-path:url(#SVGID_2_);fill:#29A6DC;" d="M227.545,161.207c-0.698,0-1.396,0.011-2.094-0.003
		c-0.619-0.013-1.037-0.411-1.03-0.946c0.007-0.523,0.384-0.899,0.989-0.907c1.418-0.019,2.837-0.018,4.255-0.002
		c0.585,0.007,0.994,0.404,1.006,0.903c0.012,0.525-0.42,0.938-1.031,0.952C228.941,161.219,228.243,161.207,227.545,161.207"/>
	<path style="clip-path:url(#SVGID_2_);fill:#DC2768;" d="M407.35,110.541c0.743,0.008,1.485,0.01,2.228,0.013
		c1.249,0.004,1.446,0.199,1.446,1.442v53.93c0,1.214-0.227,1.438-1.453,1.438h-32.567h-0.909c0,1.416,0,2.764-0.001,4.111
		c0,1.399-0.185,1.584-1.589,1.585h-32.764c-0.153,0-0.307,0.005-0.459-0.003c-0.766-0.037-1.058-0.327-1.059-1.1
		c-0.002-4.194-0.025-8.388,0.013-12.581c0.035-4.016,3.029-7.649,6.984-8.355c1.488-0.266,3.039-0.186,4.563-0.251
		c0.827-0.035,1.207-0.346,1.27-1.174c0.049-0.652,0.063-1.313,0.012-1.963c-0.024-0.309-0.163-0.67-0.371-0.893
		c-1.07-1.142-1.968-2.422-2.093-3.984c-0.175-2.169-0.247-4.362-0.146-6.534c0.256-5.553,6.07-8.935,11.085-6.523
		c0.171,0.082,0.347,0.155,0.581,0.257v-0.78v-10.682c0.001-1.097,0.239-1.337,1.342-1.337c5.657-0.001,11.314-0.001,16.971-0.001
		h0.81c0.013-0.277,0.032-0.489,0.032-0.703c0.003-1.179,0.002-2.358,0.002-3.538c0-2.361,0-2.361,2.329-2.361h1.6
		c0-2.161-0.001-4.234,0.001-6.306c0.001-1.049,0.309-1.351,1.373-1.352c2.359-0.001,4.718,0,7.077,0h0.718v-0.82
		c0-1.157-0.005-2.315,0.002-3.473c0.004-0.711,0.335-1.109,0.909-1.13c0.604-0.021,0.949,0.375,0.974,1.128
		c0.009,0.284,0.002,0.569,0.002,0.852c0.001,1.131,0,2.262,0,3.443h0.794c2.905,0,5.81-0.001,8.715,0
		c1.041,0.001,1.325,0.28,1.327,1.308c0.003,2.074,0.001,4.147,0.001,6.255C407.228,110.503,407.289,110.54,407.35,110.541
		 M409.153,112.48h-25.917v52.954h25.917V112.48z M364.001,119.038c-0.011,0.244-0.029,0.457-0.029,0.669
		c-0.002,3.757-0.01,7.513,0.014,11.27c0.003,0.336,0.142,0.724,0.342,0.998c1.029,1.403,1.559,2.97,1.561,4.697
		c0.003,1.854,0.015,3.714-0.109,5.561c-0.115,1.737-0.921,3.216-2.166,4.425c-0.348,0.339-0.483,0.674-0.454,1.141
		c0.033,0.543-0.008,1.092,0.014,1.636c0.04,0.965,0.421,1.308,1.389,1.336c1.395,0.039,2.82-0.073,4.178,0.175
		c4.419,0.802,7.304,4.357,7.35,8.88c0.018,1.617,0.003,3.233,0.004,4.848v0.756h5.156v-46.392H364.001z M351.225,152.692
		c-1.304,0.001-2.649-0.057-3.902,0.23c-3.031,0.698-5.177,3.375-5.237,6.488c-0.073,3.843-0.019,7.689-0.018,11.533l0.055,0.209
		h32.069v-0.684c0-3.561,0.005-7.12-0.001-10.682c-0.006-4.084-3.026-7.095-7.117-7.109c-0.699-0.003-1.4-0.026-2.097,0.004
		c-1.195,0.054-2.253-0.211-3.14-1.298c-0.293,0.517-0.593,0.937-0.781,1.403c-0.345,0.846-0.63,1.716-0.921,2.582
		c-0.058,0.17-0.067,0.376-0.034,0.554c0.589,3.079,1.203,6.155,1.764,9.24c0.064,0.351-0.051,0.837-0.267,1.12
		c-0.835,1.091-1.737,2.133-2.63,3.178c-0.512,0.599-1.082,0.586-1.609-0.022c-0.859-0.99-1.685-2.01-2.565-2.98
		c-0.395-0.435-0.497-0.883-0.399-1.436c0.467-2.616,0.798-5.264,1.421-7.842c0.433-1.79-0.151-3.287-0.752-4.835
		c-0.123-0.318-0.474-0.546-0.75-0.85C353.485,152.495,352.413,152.689,351.225,152.692 M363.803,135.233
		c-0.568-2.804-3.402-4.74-6.253-4.418c-2.981,0.335-5.245,2.784-5.265,5.712c-0.011,1.594-0.01,3.186,0,4.779
		c0.02,3.121,2.599,5.721,5.694,5.754c3.303,0.036,5.919-2.413,5.999-5.628c0.021-0.828,0.003-1.658,0.003-2.487l0.077-0.005
		C363.982,137.703,364.047,136.437,363.803,135.233 M387.154,110.518h18.057v-5.672h-18.057V110.518z M357.536,157.921
		c-0.387,2.208-0.76,4.419-1.161,6.624c-0.094,0.511-0.026,0.913,0.355,1.299c0.488,0.495,0.919,1.046,1.438,1.646
		c0.604-0.721,1.192-1.41,1.76-2.114c0.063-0.078,0.04-0.247,0.017-0.366c-0.549-2.864-1.104-5.726-1.663-8.588
		c-0.024-0.118-0.105-0.225-0.159-0.336l-0.23-0.018C357.774,156.685,357.645,157.301,357.536,157.921 M356.932,150.768
		c0.568,0.001,1.151-0.085,1.7,0.017c1.216,0.228,1.928-0.44,2.508-1.32c0.181-0.277,0.166-0.685,0.275-1.189
		c-2.212,0.826-4.289,0.886-6.348,0.047C354.775,149.667,355.646,150.767,356.932,150.768 M357.317,152.701
		c0.054,0.949,0.328,1.455,0.782,1.467c0.552,0.012,0.75-0.31,0.892-1.467H357.317z"/>
	<path style="clip-path:url(#SVGID_2_);fill:#DC2768;" d="M396.204,157.948c-2.356,0-4.712-0.003-7.068,0.004
		c-0.234,0.001-0.541-0.019-0.686,0.113c-0.25,0.228-0.576,0.584-0.548,0.854c0.032,0.306,0.375,0.633,0.661,0.842
		c0.179,0.132,0.505,0.079,0.765,0.079c4.558,0.004,9.118,0.003,13.676,0.003c0.131,0,0.262,0.005,0.393-0.003
		c0.706-0.042,1.077-0.382,1.061-0.975c-0.016-0.568-0.421-0.912-1.122-0.914C400.959,157.944,398.582,157.948,396.204,157.948"/>
	<path style="clip-path:url(#SVGID_2_);fill:#DC2768;" d="M396.126,134.739c-2.377,0-4.755-0.004-7.131,0.002
		c-0.808,0.002-1.274,0.509-1.089,1.161c0.16,0.563,0.576,0.703,1.107,0.701c1.941-0.009,3.881-0.003,5.822-0.003
		c2.77,0,5.54,0.003,8.31-0.005c0.277-0.001,0.653,0.03,0.81-0.127c0.243-0.244,0.469-0.639,0.465-0.968
		c-0.006-0.479-0.401-0.751-0.9-0.757c-0.982-0.011-1.963-0.004-2.945-0.004H396.126z"/>
	<path style="clip-path:url(#SVGID_2_);fill:#DC2768;" d="M396.144,150.212c-2.334,0-4.667-0.002-7.001,0.003
		c-0.216,0-0.514-0.043-0.629,0.075c-0.264,0.27-0.624,0.646-0.597,0.947c0.028,0.297,0.456,0.593,0.764,0.814
		c0.149,0.106,0.423,0.044,0.641,0.044c4.558,0.001,9.117,0.001,13.675,0.001c1.067,0,1.476-0.273,1.46-0.965
		c-0.014-0.649-0.437-0.919-1.443-0.919H396.144z"/>
	<path style="clip-path:url(#SVGID_2_);fill:#DC2768;" d="M396.201,121.113c2.36,0,4.719,0.003,7.079-0.001
		c0.795-0.001,1.169-0.296,1.177-0.904c0.009-0.611-0.383-0.939-1.145-0.939c-4.763-0.002-9.525-0.002-14.288,0
		c-0.884,0-1.361,0.559-1.086,1.255c0.191,0.482,0.576,0.595,1.054,0.593C391.395,121.108,393.798,121.113,396.201,121.113"/>
	<path style="clip-path:url(#SVGID_2_);fill:#DC2768;" d="M396.127,127.004c-2.399,0-4.798,0.004-7.197-0.003
		c-0.488-0.001-0.916,0.161-0.983,0.657c-0.043,0.314,0.102,0.707,0.288,0.977c0.111,0.161,0.466,0.213,0.711,0.213
		c4.819,0.012,9.639,0.012,14.459,0.005c0.708,0,1.074-0.358,1.052-0.96c-0.021-0.552-0.408-0.885-1.068-0.886
		C400.968,127.001,398.548,127.004,396.127,127.004"/>
	<path style="clip-path:url(#SVGID_2_);fill:#DC2768;" d="M396.197,144.348c2.268,0,4.536,0.001,6.805-0.001
		c0.217,0,0.438,0.005,0.652-0.024c0.501-0.068,0.78-0.363,0.8-0.872c0.022-0.547-0.291-0.843-0.792-0.961
		c-0.144-0.034-0.303-0.014-0.456-0.014c-4.688-0.001-9.378-0.001-14.068,0c-0.173,0-0.355-0.017-0.521,0.024
		c-0.481,0.119-0.768,0.458-0.747,0.941c0.02,0.47,0.289,0.819,0.803,0.881c0.217,0.026,0.435,0.025,0.653,0.025
		C391.617,144.349,393.907,144.348,396.197,144.348"/>
	<path style="clip-path:url(#SVGID_2_);fill:#DC2768;" d="M373.327,124.796c-1.289,0-2.577-0.006-3.865,0.002
		c-0.756,0.005-1.167,0.337-1.18,0.929c-0.013,0.623,0.401,0.976,1.198,0.978c2.598,0.007,5.196,0.006,7.795,0
		c0.788-0.002,1.229-0.361,1.223-0.964c-0.005-0.599-0.447-0.94-1.24-0.944C375.947,124.792,374.637,124.796,373.327,124.796"/>
	<path style="clip-path:url(#SVGID_2_);fill:#DC2768;" d="M373.326,132.387c-1.288,0-2.576-0.004-3.864,0.002
		c-0.757,0.003-1.168,0.33-1.18,0.921c-0.012,0.611,0.371,0.964,1.133,0.967c2.641,0.012,5.283,0.011,7.924,0.001
		c0.757-0.003,1.165-0.361,1.158-0.953c-0.005-0.58-0.438-0.932-1.176-0.936C375.989,132.383,374.658,132.387,373.326,132.387"/>
	<path style="clip-path:url(#SVGID_2_);fill:#DC2768;" d="M373.325,139.983c-1.309,0-2.619-0.004-3.927,0.002
		c-0.709,0.003-1.104,0.334-1.116,0.91c-0.013,0.601,0.349,0.944,1.069,0.947c2.684,0.01,5.368,0.009,8.052,0
		c0.712-0.002,1.101-0.356,1.094-0.934c-0.006-0.56-0.428-0.919-1.113-0.923C376.03,139.978,374.678,139.983,373.325,139.983"/>
	<path style="clip-path:url(#SVGID_2_);fill:#DC2768;" d="M373.461,149.424c1.309,0,2.619,0.005,3.927-0.002
		c0.706-0.004,1.108-0.344,1.11-0.914c0.003-0.568-0.41-0.925-1.1-0.926c-2.683-0.002-5.367-0.003-8.051,0.001
		c-0.7,0.001-1.079,0.351-1.064,0.948c0.014,0.567,0.377,0.886,1.055,0.89C370.712,149.431,372.087,149.424,373.461,149.424"/>
	<path style="clip-path:url(#SVGID_2_);fill:#DC2768;" d="M377.229,157.017c0.844-0.001,1.291-0.338,1.269-0.959
		c-0.02-0.599-0.432-0.888-1.269-0.89c-0.889-0.002-1.315,0.281-1.337,0.89C375.869,156.691,376.326,157.019,377.229,157.017"/>
	<path style="clip-path:url(#SVGID_2_);fill:#DC2768;" d="M349.154,161.207c0.698,0,1.396,0.011,2.094-0.003
		c0.62-0.013,1.037-0.411,1.03-0.946c-0.007-0.523-0.384-0.899-0.989-0.907c-1.418-0.019-2.837-0.018-4.255-0.002
		c-0.585,0.007-0.994,0.404-1.006,0.903c-0.012,0.525,0.42,0.938,1.032,0.952C347.758,161.219,348.456,161.207,349.154,161.207"/>
	<path style="clip-path:url(#SVGID_2_);fill:#29A6DC;" d="M64.884,83.405V59.346c0-0.251,0.102-0.496,0.279-0.673
		s0.422-0.279,0.673-0.279h430.157c0.251,0,0.496,0.102,0.673,0.279c0.178,0.177,0.279,0.422,0.279,0.673V81.34
		c0,0.526-0.426,0.952-0.952,0.952c-0.525,0-0.951-0.426-0.951-0.952l-0.001-21.042H66.788v23.107c0,0.526-0.426,0.952-0.952,0.952
		S64.884,83.931,64.884,83.405"/>
	<polygon style="clip-path:url(#SVGID_2_);fill:#29A6DC;" points="488.208,75.033 489.602,73.735 495.992,80.61 502.384,73.735 
		503.778,75.033 495.992,83.406 	"/>
	<path style="clip-path:url(#SVGID_2_);fill:#29A6DC;" d="M496.945,239.106v24.059c0,0.251-0.102,0.496-0.279,0.673
		s-0.422,0.279-0.673,0.279H65.836c-0.251,0-0.496-0.102-0.673-0.279c-0.178-0.177-0.279-0.422-0.279-0.673v-21.994
		c0-0.526,0.426-0.952,0.952-0.952c0.525,0,0.952,0.426,0.952,0.952v21.042h428.253v-23.107c0-0.526,0.426-0.952,0.952-0.952
		S496.945,238.58,496.945,239.106z"/>
	<polygon style="clip-path:url(#SVGID_2_);fill:#29A6DC;" points="73.622,247.478 72.228,248.776 65.838,241.901 59.446,248.776 
		58.053,247.478 65.838,239.106 	"/>
	<path style="clip-path:url(#SVGID_2_);fill:#29A6DC;" d="M269.875,19.398c0-1.091-0.883-1.885-1.976-1.885h-6.175
		c-1.092,0-1.977,0.794-1.977,1.885l-1.119,7.607c0,1.092,0.883,2.018,1.977,2.018h0.615l1.521,15.151
		c0,0.663,0.54,1.122,1.206,1.122h1.729c0.666,0,1.205-0.459,1.205-1.122l1.521-15.151h0.618c1.092,0,1.976-0.926,1.976-2.018
		L269.875,19.398z"/>
	<path style="clip-path:url(#SVGID_2_);fill:#FFFFFF;" d="M269.875,19.398h-0.238c-0.002-0.953-0.76-1.641-1.738-1.647h-6.175
		c-0.977,0.006-1.737,0.694-1.739,1.647v0.017l-1.122,7.625l-0.235-0.035h0.238c0,0.481,0.195,0.927,0.511,1.253
		c0.317,0.325,0.749,0.527,1.228,0.527h0.615h0.215l1.544,15.377v0.012c0.003,0.522,0.408,0.876,0.968,0.884h1.729
		c0.559-0.008,0.965-0.362,0.967-0.884v-0.012l1.544-15.377h0.833c0.478,0,0.91-0.202,1.227-0.527
		c0.316-0.326,0.511-0.772,0.511-1.253h0.238l-0.235,0.035l-1.124-7.624v-0.018H269.875l0.235-0.035l1.124,7.625v0.017
		c-0.001,1.221-0.983,2.253-2.214,2.256h-0.402l-1.5,14.937l-0.237-0.024h0.238c0.001,0.397-0.165,0.747-0.431,0.986
		c-0.265,0.24-0.624,0.374-1.012,0.374h-1.729c-0.388,0-0.747-0.134-1.013-0.374c-0.266-0.239-0.432-0.589-0.431-0.986h0.238
		l-0.237,0.024l-1.499-14.937h-0.4c-1.233-0.003-2.214-1.035-2.215-2.256v-0.017l1.122-7.625l0.235,0.035h-0.238
		c0-0.61,0.251-1.149,0.655-1.525c0.403-0.378,0.957-0.598,1.56-0.597h6.175c0.604-0.001,1.157,0.219,1.56,0.597
		c0.404,0.377,0.655,0.915,0.654,1.525H269.875l0.235-0.035L269.875,19.398z"/>
	<path style="clip-path:url(#SVGID_2_);fill:#29A6DC;" d="M264.81,9.562c1.83,0,3.313,1.484,3.313,3.313
		c0,1.831-1.483,3.315-3.313,3.315c-1.829,0-3.313-1.484-3.313-3.315C261.497,11.046,262.981,9.562,264.81,9.562"/>
	<path style="clip-path:url(#SVGID_2_);fill:#FFFFFF;" d="M264.81,9.562V9.324c1.962,0,3.551,1.591,3.551,3.551
		c0,1.962-1.589,3.553-3.551,3.553c-1.961,0-3.551-1.59-3.551-3.553c0-1.96,1.59-3.551,3.551-3.551V9.562V9.8
		c-1.698,0.003-3.072,1.378-3.075,3.075c0.003,1.699,1.377,3.074,3.075,3.077c1.699-0.003,3.072-1.378,3.075-3.077
		c-0.003-1.697-1.376-3.072-3.075-3.075V9.562z"/>
	<path style="clip-path:url(#SVGID_2_);fill:#29A6DC;" d="M254.671,21.062c0-1.091-0.885-1.884-1.978-1.884h-6.175
		c-1.091,0-1.977,0.793-1.977,1.884l-1.119,7.607c0,1.091,0.885,2.019,1.978,2.019h0.615l1.52,15.152
		c0,0.664,0.54,1.121,1.206,1.121h1.73c0.665,0,1.206-0.457,1.206-1.121l1.521-15.152h0.617c1.092,0,1.975-0.928,1.975-2.019
		L254.671,21.062z"/>
	<path style="clip-path:url(#SVGID_2_);fill:#FFFFFF;" d="M254.671,21.062h-0.238c-0.002-0.953-0.762-1.64-1.74-1.646h-6.175
		c-0.977,0.006-1.737,0.693-1.739,1.646v0.018l-1.122,7.624l-0.235-0.035h0.238c0,0.481,0.195,0.927,0.512,1.253
		c0.317,0.326,0.75,0.528,1.228,0.528h0.615h0.215l1.543,15.378v0.012c0.003,0.523,0.407,0.875,0.968,0.883h1.73
		c0.559-0.008,0.966-0.361,0.968-0.883v-0.012l1.543-15.378h0.833c0.478,0,0.91-0.202,1.226-0.528
		c0.317-0.326,0.512-0.772,0.511-1.253h0.238l-0.235,0.035l-1.122-7.624v-0.018H254.671l0.235-0.035l1.122,7.625v0.017
		c-0.001,1.22-0.982,2.254-2.213,2.257h-0.402l-1.499,14.938l-0.237-0.024h0.238c0.001,0.397-0.166,0.748-0.432,0.986
		c-0.266,0.24-0.625,0.373-1.012,0.373h-1.73c-0.387,0-0.747-0.133-1.013-0.373c-0.265-0.239-0.432-0.589-0.431-0.986h0.238
		l-0.237,0.024l-1.499-14.938H245.4c-1.232-0.003-2.215-1.037-2.216-2.257v-0.017l1.122-7.625l0.235,0.035h-0.238
		c0-0.61,0.251-1.148,0.655-1.525c0.403-0.377,0.957-0.597,1.56-0.597h6.175c0.604,0,1.158,0.22,1.561,0.597
		c0.404,0.377,0.656,0.915,0.655,1.525H254.671l0.235-0.035L254.671,21.062z"/>
	<path style="clip-path:url(#SVGID_2_);fill:#29A6DC;" d="M249.607,11.227c1.83,0,3.314,1.485,3.314,3.314
		c0,1.831-1.484,3.315-3.314,3.315c-1.83,0-3.314-1.484-3.314-3.315C246.293,12.712,247.777,11.227,249.607,11.227"/>
	<path style="clip-path:url(#SVGID_2_);fill:#FFFFFF;" d="M249.607,11.227v-0.238c1.962,0,3.552,1.591,3.552,3.552
		c0,1.962-1.59,3.552-3.552,3.553c-1.962-0.001-3.552-1.591-3.552-3.553c0-1.961,1.59-3.552,3.552-3.552V11.227v0.238
		c-1.699,0.003-3.073,1.378-3.076,3.076c0.003,1.699,1.377,3.074,3.076,3.077c1.699-0.003,3.073-1.378,3.076-3.077
		c-0.003-1.698-1.377-3.073-3.076-3.076V11.227z"/>
	<path style="clip-path:url(#SVGID_2_);fill:#29A6DC;" d="M281.961,28.133c0-1.091-0.885-1.884-1.977-1.884h-6.175
		c-1.091,0-1.978,0.792-1.978,1.884l-1.119,7.606c0,1.092,0.885,2.019,1.978,2.019h0.615l1.52,15.152
		c0,0.664,0.54,1.122,1.206,1.122h1.73c0.666,0,1.206-0.457,1.206-1.122l1.521-15.152h0.617c1.092,0,1.976-0.927,1.976-2.019
		L281.961,28.133z"/>
	<path style="clip-path:url(#SVGID_2_);fill:#FFFFFF;" d="M281.961,28.133h-0.238c-0.002-0.953-0.762-1.64-1.739-1.646h-6.175
		c-0.977,0.006-1.738,0.692-1.74,1.646v0.018l-1.122,7.623l-0.235-0.035h0.238c0,0.481,0.195,0.927,0.512,1.253
		c0.317,0.326,0.75,0.528,1.228,0.528h0.615h0.215l1.543,15.378v0.012c0.003,0.523,0.408,0.876,0.968,0.884h1.73
		c0.56-0.008,0.965-0.36,0.968-0.884v-0.012l1.543-15.378h0.833c0.478,0,0.91-0.202,1.227-0.528
		c0.316-0.325,0.511-0.772,0.511-1.253h0.238l-0.235,0.035l-1.123-7.623v-0.018H281.961l0.235-0.035l1.123,7.624v0.017
		c-0.001,1.221-0.983,2.254-2.214,2.257h-0.402l-1.499,14.938l-0.237-0.024h0.238c0.001,0.398-0.166,0.748-0.432,0.987
		c-0.265,0.24-0.625,0.373-1.012,0.373h-1.73c-0.388,0-0.747-0.133-1.013-0.374c-0.265-0.239-0.432-0.589-0.431-0.986h0.238
		l-0.237,0.024l-1.499-14.938h-0.399c-1.232-0.003-2.215-1.036-2.216-2.257v-0.017l1.122-7.624l0.235,0.035h-0.238
		c0-0.611,0.251-1.149,0.655-1.525c0.404-0.377,0.958-0.597,1.561-0.597h6.175c0.604,0,1.157,0.22,1.56,0.597
		c0.404,0.377,0.656,0.915,0.655,1.525H281.961l0.235-0.035L281.961,28.133z"/>
	<path style="clip-path:url(#SVGID_2_);fill:#29A6DC;" d="M276.896,18.298c1.83,0,3.314,1.484,3.314,3.313
		c0,1.831-1.484,3.316-3.314,3.316c-1.83,0-3.314-1.485-3.314-3.316C273.582,19.782,275.066,18.298,276.896,18.298"/>
	<path style="clip-path:url(#SVGID_2_);fill:#FFFFFF;" d="M276.896,18.298V18.06c1.962,0,3.552,1.59,3.552,3.551
		c0,1.963-1.59,3.554-3.552,3.554c-1.962,0-3.552-1.591-3.552-3.554c0-1.961,1.59-3.551,3.552-3.551V18.298v0.238
		c-1.699,0.003-3.073,1.378-3.076,3.075c0.003,1.699,1.377,3.075,3.076,3.078c1.699-0.003,3.073-1.378,3.076-3.078
		c-0.003-1.697-1.377-3.072-3.076-3.075V18.298z"/>
	<path style="clip-path:url(#SVGID_2_);fill:#29A6DC;" d="M243.341,30.613c0-1.091-0.885-1.884-1.977-1.884h-6.175
		c-1.091,0-1.978,0.792-1.978,1.884l-1.119,7.607c0,1.091,0.885,2.019,1.978,2.019h0.615l1.52,15.152
		c0,0.663,0.54,1.121,1.206,1.121h1.73c0.666,0,1.206-0.457,1.206-1.121l1.521-15.152h0.617c1.092,0,1.976-0.928,1.976-2.019
		L243.341,30.613z"/>
	<path style="clip-path:url(#SVGID_2_);fill:#FFFFFF;" d="M243.341,30.613h-0.238c-0.002-0.953-0.762-1.64-1.739-1.646h-6.175
		c-0.977,0.006-1.738,0.692-1.74,1.646v0.018l-1.122,7.624l-0.235-0.035h0.238c0,0.481,0.195,0.927,0.512,1.253
		c0.317,0.326,0.75,0.528,1.228,0.528h0.615h0.215l1.543,15.378v0.012c0.003,0.522,0.408,0.875,0.968,0.883h1.73
		c0.56-0.008,0.966-0.36,0.968-0.883v-0.012l1.543-15.378h0.833c0.478,0,0.91-0.202,1.227-0.528
		c0.316-0.326,0.511-0.772,0.511-1.253h0.238l-0.235,0.035l-1.123-7.624v-0.018H243.341l0.235-0.035l1.123,7.625v0.017
		c-0.001,1.22-0.983,2.254-2.214,2.257h-0.402l-1.499,14.938l-0.237-0.024h0.238c0.001,0.397-0.166,0.747-0.432,0.986
		c-0.265,0.24-0.625,0.373-1.012,0.373h-1.73c-0.388,0-0.747-0.133-1.013-0.373c-0.265-0.239-0.432-0.589-0.431-0.986h0.238
		l-0.237,0.024l-1.499-14.938h-0.399c-1.232-0.003-2.215-1.037-2.216-2.257v-0.017l1.122-7.625l0.235,0.035h-0.238
		c0-0.611,0.251-1.149,0.655-1.525c0.404-0.377,0.958-0.597,1.561-0.597h6.175c0.603,0,1.157,0.22,1.56,0.597
		c0.404,0.377,0.656,0.915,0.655,1.525H243.341l0.235-0.035L243.341,30.613z"/>
	<path style="clip-path:url(#SVGID_2_);fill:#29A6DC;" d="M238.277,20.778c1.83,0,3.314,1.484,3.314,3.314
		c0,1.831-1.484,3.315-3.314,3.315c-1.83,0-3.314-1.484-3.314-3.315C234.963,22.262,236.447,20.778,238.277,20.778"/>
	<path style="clip-path:url(#SVGID_2_);fill:#FFFFFF;" d="M238.277,20.778V20.54c1.962,0,3.552,1.591,3.552,3.552
		c0,1.962-1.59,3.553-3.552,3.553c-1.962,0-3.552-1.591-3.552-3.553c0-1.961,1.59-3.552,3.552-3.552V20.778v0.238
		c-1.699,0.003-3.073,1.378-3.076,3.076c0.003,1.699,1.377,3.074,3.076,3.077c1.699-0.003,3.073-1.378,3.076-3.077
		c-0.003-1.698-1.377-3.073-3.076-3.076V20.778z"/>
	<path style="clip-path:url(#SVGID_2_);fill:#29A6DC;" d="M298.348,27.392c0,0.591-0.008,1.136,0.002,1.678
		c0.019,1.184,0.797,2.192,1.893,2.467c1.61,0.405,3.127-0.762,3.169-2.444c0.013-0.552,0.002-1.105,0.002-1.679h2.815
		c0,0.567-0.006,1.127,0.001,1.687c0.017,1.084,0.703,2.036,1.706,2.379c1.64,0.563,3.327-0.632,3.357-2.384
		c0.011-0.553,0.002-1.106,0.002-1.681h2.814c0,0.556-0.009,1.106,0.003,1.656c0.017,0.87,0.362,1.586,1.083,2.085
		c0.817,0.564,1.7,0.628,2.581,0.186c0.907-0.455,1.359-1.235,1.396-2.244c0.02-0.552,0.003-1.106,0.003-1.689
		c0.554,0,1.096-0.04,1.631,0.008c1.676,0.151,2.829,1.229,3.125,2.884c0.032,0.182,0.028,0.373,0.028,0.561
		c0.002,6.556-0.018,13.114,0.014,19.672c0.008,1.702-1.286,3.5-3.475,3.498c-1.191-0.001-2.383,0-3.575,0
		c-6.604,0-13.208,0.001-19.812-0.001c-1.463,0-2.558-0.628-3.225-1.945c-0.233-0.458-0.325-0.95-0.325-1.467
		c0.004-6.566,0.022-13.133-0.01-19.7c-0.009-1.729,1.269-3.505,3.447-3.526C297.438,27.388,297.877,27.392,298.348,27.392
		 M308.748,51.754c3.902,0,7.803-0.011,11.705,0.009c0.767,0.003,1.262-0.544,1.261-1.259c-0.01-5.027-0.01-10.055,0-15.082
		c0.001-0.703-0.481-1.257-1.262-1.257c-7.784,0.015-15.57,0.016-23.354,0c-0.857-0.001-1.291,0.599-1.29,1.287
		c0.012,5.008,0.013,10.016,0,15.025c-0.002,0.689,0.442,1.292,1.29,1.287C300.982,51.741,304.864,51.754,308.748,51.754"/>
	<path style="clip-path:url(#SVGID_2_);fill:#29A6DC;" d="M314.954,27.394c0-0.572-0.003-1.143,0.001-1.714
		c0.007-0.921,0.779-1.676,1.698-1.664c0.917,0.011,1.672,0.753,1.676,1.657c0.006,1.152,0.006,2.304,0,3.457
		c-0.004,0.916-0.782,1.673-1.699,1.665c-0.911-0.009-1.667-0.755-1.675-1.659C314.95,28.555,314.954,27.975,314.954,27.394"/>
	<path style="clip-path:url(#SVGID_2_);fill:#29A6DC;" d="M310.45,27.422c0,0.572,0.003,1.143-0.001,1.714
		c-0.007,0.902-0.767,1.651-1.677,1.659c-0.919,0.009-1.694-0.749-1.697-1.665c-0.005-1.152-0.005-2.305,0-3.457
		c0.003-0.904,0.758-1.646,1.675-1.657c0.919-0.01,1.693,0.747,1.699,1.664C310.453,26.261,310.45,26.841,310.45,27.422"/>
	<path style="clip-path:url(#SVGID_2_);fill:#29A6DC;" d="M299.193,27.404c0-0.573-0.003-1.144,0.001-1.717
		c0.006-0.923,0.774-1.676,1.695-1.67c0.917,0.009,1.675,0.751,1.679,1.658c0.006,1.154,0.006,2.307,0,3.46
		c-0.004,0.905-0.771,1.655-1.681,1.66c-0.92,0.003-1.687-0.752-1.693-1.675C299.19,28.549,299.193,27.977,299.193,27.404"/>
	<path style="clip-path:url(#SVGID_2_);fill:#29A6DC;" d="M311.556,39.803c-0.366,0-0.731,0.01-1.096-0.002
		c-0.669-0.019-1.132-0.503-1.134-1.173c-0.002-0.346-0.002-0.693-0.001-1.039c0.002-0.683,0.435-1.163,1.12-1.183
		c0.757-0.023,1.516-0.025,2.274,0.001c0.683,0.023,1.107,0.504,1.108,1.194c0.001,0.337,0.002,0.674,0,1.011
		c-0.002,0.699-0.474,1.179-1.175,1.19C312.287,39.809,311.922,39.803,311.556,39.803"/>
	<path style="clip-path:url(#SVGID_2_);fill:#DC2768;" d="M305.946,39.803c-0.346,0-0.693,0.003-1.039,0
		c-0.74-0.007-1.209-0.478-1.211-1.211c-0.001-0.328-0.001-0.656,0-0.984c0.001-0.703,0.433-1.184,1.128-1.203
		c0.748-0.022,1.498-0.021,2.246,0c0.685,0.019,1.125,0.498,1.128,1.176c0.002,0.347,0.002,0.694,0,1.04
		c-0.003,0.683-0.473,1.166-1.156,1.181C306.676,39.81,306.311,39.803,305.946,39.803"/>
	<path style="clip-path:url(#SVGID_2_);fill:#29A6DC;" d="M317.192,39.803c-0.356,0-0.712,0.006-1.067-0.001
		c-0.701-0.012-1.169-0.492-1.172-1.194c-0.001-0.336-0.001-0.674,0-1.01c0.003-0.69,0.429-1.169,1.112-1.191
		c0.758-0.026,1.517-0.025,2.276,0c0.682,0.021,1.114,0.502,1.115,1.187c0.001,0.345,0.001,0.692,0,1.039
		c-0.003,0.665-0.471,1.15-1.14,1.168C317.942,39.812,317.567,39.803,317.192,39.803"/>
	<path style="clip-path:url(#SVGID_2_);fill:#29A6DC;" d="M300.327,46.125c0.356,0,0.712-0.005,1.067,0.001
		c0.701,0.01,1.174,0.491,1.176,1.191c0.001,0.336,0.001,0.674,0,1.011c-0.002,0.689-0.425,1.169-1.11,1.191
		c-0.758,0.028-1.518,0.026-2.275,0.001c-0.688-0.022-1.116-0.497-1.119-1.184c-0.001-0.345-0.001-0.692,0-1.039
		c0.004-0.681,0.477-1.159,1.165-1.171C299.596,46.12,299.961,46.125,300.327,46.125"/>
	<path style="clip-path:url(#SVGID_2_);fill:#29A6DC;" d="M305.944,46.125c0.357,0,0.713-0.004,1.07,0.001
		c0.706,0.009,1.181,0.485,1.184,1.185c0.002,0.338,0.001,0.675,0,1.014c-0.002,0.692-0.423,1.171-1.11,1.194
		c-0.759,0.028-1.52,0.027-2.279,0.001c-0.689-0.022-1.111-0.5-1.113-1.191c-0.001-0.348-0.002-0.694,0-1.042
		c0.004-0.654,0.468-1.139,1.122-1.159C305.193,46.116,305.569,46.125,305.944,46.125"/>
	<path style="clip-path:url(#SVGID_2_);fill:#29A6DC;" d="M311.576,46.125c0.365,0,0.731-0.006,1.096,0.001
		c0.682,0.014,1.153,0.497,1.156,1.18c0.001,0.366,0.003,0.731-0.001,1.097c-0.005,0.558-0.383,1.056-0.933,1.084
		c-0.876,0.046-1.758,0.046-2.634,0c-0.551-0.028-0.928-0.525-0.934-1.083c-0.003-0.375-0.002-0.75,0-1.124
		c0.004-0.65,0.471-1.134,1.127-1.153C310.827,46.116,311.201,46.125,311.576,46.125"/>
	<path style="clip-path:url(#SVGID_2_);fill:#29A6DC;" d="M311.565,44.652c-0.374,0-0.749,0.003-1.123,0
		c-0.635-0.007-1.112-0.486-1.117-1.124c-0.002-0.384-0.003-0.767,0.001-1.152c0.007-0.617,0.489-1.096,1.109-1.099
		c0.759-0.005,1.517-0.004,2.276,0c0.634,0.003,1.112,0.484,1.116,1.122c0.003,0.384,0.004,0.767,0,1.152
		c-0.007,0.615-0.491,1.094-1.11,1.101C312.333,44.656,311.949,44.652,311.565,44.652"/>
	<path style="clip-path:url(#SVGID_2_);fill:#29A6DC;" d="M300.319,41.276c0.384,0,0.768-0.004,1.152,0.001
		c0.604,0.007,1.088,0.483,1.097,1.084c0.007,0.402,0.007,0.805,0,1.208c-0.009,0.598-0.497,1.078-1.1,1.082
		c-0.768,0.005-1.536,0.006-2.304,0c-0.604-0.005-1.087-0.484-1.096-1.085c-0.006-0.403-0.006-0.805,0-1.208
		c0.009-0.6,0.493-1.074,1.099-1.081C299.551,41.272,299.935,41.276,300.319,41.276"/>
	<path style="clip-path:url(#SVGID_2_);fill:#29A6DC;" d="M305.923,44.652c-0.375,0-0.749,0.004-1.124-0.001
		c-0.617-0.007-1.096-0.488-1.101-1.108c-0.004-0.393-0.006-0.786,0-1.179c0.007-0.601,0.491-1.082,1.094-1.087
		c0.767-0.006,1.536-0.005,2.303,0c0.617,0.004,1.096,0.487,1.103,1.107c0.005,0.384,0.005,0.768,0.001,1.152
		c-0.007,0.632-0.489,1.11-1.125,1.116C306.691,44.655,306.307,44.652,305.923,44.652"/>
	<path style="clip-path:url(#SVGID_2_);fill:#29A6DC;" d="M317.206,44.652c-0.375,0-0.749,0.003-1.124,0
		c-0.639-0.005-1.12-0.478-1.127-1.112c-0.004-0.383-0.004-0.768,0-1.152c0.007-0.634,0.486-1.109,1.125-1.112
		c0.749-0.003,1.498-0.003,2.247,0c0.651,0.003,1.125,0.483,1.129,1.138c0.003,0.366,0.003,0.731,0,1.097
		c-0.004,0.666-0.481,1.138-1.154,1.141C317.937,44.654,317.572,44.652,317.206,44.652"/>
	<path style="clip-path:url(#SVGID_2_);fill:#29A6DC;" d="M261.681,30.572c0-1.092-0.884-1.886-1.977-1.886h-6.175
		c-1.091,0-1.977,0.794-1.977,1.886l-1.119,7.607c0,1.091,0.884,2.018,1.978,2.018h0.615l1.521,15.151
		c0,0.662,0.54,1.122,1.206,1.122h1.73c0.666,0,1.205-0.46,1.205-1.122l1.521-15.151h0.617c1.093,0,1.977-0.927,1.977-2.018
		L261.681,30.572z"/>
	<path style="clip-path:url(#SVGID_2_);fill:#FFFFFF;" d="M261.681,30.572h-0.238c-0.002-0.954-0.761-1.642-1.739-1.648h-6.175
		c-0.977,0.006-1.737,0.694-1.739,1.648v0.018l-1.122,7.624l-0.235-0.035h0.238c0,0.481,0.195,0.927,0.511,1.252
		c0.317,0.326,0.75,0.528,1.229,0.528h0.615h0.215l1.544,15.377v0.012c0.003,0.521,0.408,0.876,0.968,0.884h1.73
		c0.559-0.008,0.965-0.363,0.967-0.884v-0.012l1.544-15.377h0.832c0.478,0,0.911-0.202,1.228-0.528
		c0.316-0.325,0.511-0.771,0.511-1.252h0.238l-0.235,0.035l-1.125-7.624v-0.018H261.681l0.235-0.035l1.125,7.625v0.017
		c-0.001,1.22-0.983,2.253-2.215,2.256h-0.401l-1.5,14.937l-0.237-0.024h0.238c0.001,0.396-0.165,0.747-0.431,0.986
		c-0.265,0.24-0.624,0.374-1.012,0.374h-1.73c-0.388,0-0.748-0.134-1.013-0.374c-0.266-0.239-0.432-0.59-0.431-0.986h0.238
		l-0.237,0.024l-1.5-14.937h-0.399c-1.233-0.003-2.215-1.036-2.216-2.256v-0.017l1.122-7.625l0.235,0.035h-0.238
		c0-0.611,0.251-1.149,0.655-1.526c0.403-0.378,0.957-0.598,1.56-0.598h6.175c0.604,0,1.158,0.22,1.561,0.598
		c0.404,0.377,0.655,0.915,0.654,1.526H261.681l0.235-0.035L261.681,30.572z"/>
	<path style="clip-path:url(#SVGID_2_);fill:#29A6DC;" d="M256.616,20.736c1.83,0,3.313,1.484,3.313,3.313
		c0,1.83-1.483,3.314-3.313,3.314c-1.829,0-3.313-1.484-3.313-3.314C253.303,22.22,254.787,20.736,256.616,20.736"/>
	<path style="clip-path:url(#SVGID_2_);fill:#FFFFFF;" d="M256.616,20.736v-0.238c1.962,0,3.551,1.591,3.551,3.551
		c0,1.961-1.589,3.552-3.551,3.552c-1.961,0-3.551-1.59-3.551-3.552c0-1.96,1.59-3.551,3.551-3.551V20.736v0.238
		c-1.698,0.003-3.072,1.378-3.075,3.075c0.003,1.698,1.377,3.073,3.075,3.076c1.699-0.003,3.072-1.377,3.075-3.076
		c-0.003-1.697-1.376-3.072-3.075-3.075V20.736z"/>
	<path style="clip-path:url(#SVGID_2_);fill:#29A6DC;" d="M240.097,247.351c0.356,0,0.712-0.005,1.068,0.001
		c0.7,0.01,1.173,0.491,1.175,1.191c0,0.336,0,0.674,0,1.011c-0.002,0.689-0.425,1.169-1.11,1.191
		c-0.758,0.027-1.518,0.026-2.275,0.001c-0.688-0.022-1.115-0.497-1.118-1.184c-0.001-0.345-0.002-0.692,0-1.039
		c0.004-0.681,0.477-1.159,1.164-1.171C239.367,247.346,239.732,247.351,240.097,247.351"/>
	<path style="clip-path:url(#SVGID_2_);fill:#29A6DC;" d="M245.715,247.351c0.357,0,0.713-0.004,1.07,0.001
		c0.705,0.009,1.181,0.485,1.184,1.185c0.001,0.338,0.001,0.675,0,1.014c-0.002,0.692-0.423,1.171-1.11,1.194
		c-0.759,0.028-1.521,0.027-2.28,0.001c-0.688-0.023-1.11-0.5-1.112-1.192c-0.001-0.347-0.002-0.693,0-1.041
		c0.004-0.654,0.468-1.139,1.122-1.159C244.964,247.342,245.339,247.351,245.715,247.351"/>
	<path style="clip-path:url(#SVGID_2_);fill:#DC2768;" d="M251.346,247.351c0.365,0,0.73-0.006,1.096,0.001
		c0.682,0.014,1.153,0.497,1.156,1.18c0.001,0.366,0.003,0.731-0.001,1.097c-0.005,0.558-0.383,1.056-0.933,1.084
		c-0.876,0.046-1.758,0.046-2.634,0c-0.551-0.028-0.928-0.525-0.934-1.083c-0.003-0.375-0.002-0.75,0-1.124
		c0.004-0.65,0.471-1.134,1.126-1.153C250.596,247.342,250.971,247.351,251.346,247.351"/>
	<path style="clip-path:url(#SVGID_2_);fill:#29A6DC;" d="M309.538,220.625c0-1.091-0.883-1.885-1.976-1.885h-6.175
		c-1.092,0-1.977,0.794-1.977,1.885l-1.119,7.607c0,1.092,0.883,2.018,1.977,2.018h0.615l1.521,15.151
		c0,0.663,0.54,1.122,1.206,1.122h1.729c0.666,0,1.205-0.459,1.205-1.122l1.521-15.151h0.618c1.092,0,1.976-0.926,1.976-2.018
		L309.538,220.625z"/>
	<path style="clip-path:url(#SVGID_2_);fill:#FFFFFF;" d="M309.538,220.625H309.3c-0.002-0.953-0.76-1.641-1.738-1.647h-6.175
		c-0.977,0.006-1.737,0.694-1.739,1.647v0.017l-1.122,7.625l-0.235-0.035h0.238c0,0.481,0.195,0.927,0.511,1.253
		c0.317,0.325,0.749,0.527,1.228,0.527h0.615h0.215l1.544,15.377v0.012c0.003,0.522,0.408,0.876,0.968,0.884h1.729
		c0.559-0.008,0.965-0.362,0.967-0.884v-0.012l1.544-15.377h0.833c0.478,0,0.91-0.202,1.227-0.527
		c0.316-0.326,0.511-0.772,0.511-1.253h0.238l-0.235,0.035l-1.124-7.624v-0.018H309.538l0.235-0.035l1.124,7.625v0.017
		c-0.001,1.221-0.983,2.253-2.214,2.256h-0.402l-1.5,14.937l-0.237-0.024h0.238c0.001,0.397-0.165,0.747-0.431,0.986
		c-0.265,0.24-0.624,0.374-1.012,0.374h-1.729c-0.388,0-0.747-0.134-1.013-0.374c-0.266-0.239-0.432-0.589-0.431-0.986h0.238
		l-0.237,0.024l-1.5-14.937h-0.399c-1.233-0.003-2.214-1.035-2.215-2.256v-0.017l1.122-7.625l0.235,0.035h-0.238
		c0-0.61,0.251-1.148,0.655-1.525c0.403-0.378,0.957-0.598,1.56-0.598h6.175c0.604,0,1.157,0.22,1.56,0.598
		c0.404,0.377,0.655,0.915,0.654,1.525H309.538l0.235-0.035L309.538,220.625z"/>
	<path style="clip-path:url(#SVGID_2_);fill:#29A6DC;" d="M304.473,210.788c1.829,0,3.313,1.484,3.313,3.313
		c0,1.831-1.484,3.314-3.313,3.314c-1.829,0-3.313-1.483-3.313-3.314C301.16,212.272,302.644,210.788,304.473,210.788"/>
	<path style="clip-path:url(#SVGID_2_);fill:#FFFFFF;" d="M304.473,210.788v-0.238c1.961,0,3.551,1.59,3.551,3.551
		c0,1.962-1.59,3.552-3.551,3.552c-1.961,0-3.551-1.59-3.551-3.552c0-1.961,1.59-3.551,3.551-3.551V210.788v0.238
		c-1.698,0.003-3.072,1.377-3.075,3.075c0.003,1.699,1.377,3.073,3.075,3.076c1.698-0.003,3.072-1.377,3.075-3.076
		c-0.003-1.698-1.377-3.072-3.075-3.075V210.788z"/>
	<path style="clip-path:url(#SVGID_2_);fill:#29A6DC;" d="M294.335,222.289c0-1.091-0.885-1.884-1.978-1.884h-6.175
		c-1.091,0-1.977,0.793-1.977,1.884l-1.119,7.607c0,1.091,0.885,2.019,1.978,2.019h0.615l1.52,15.152
		c0,0.664,0.54,1.121,1.206,1.121h1.73c0.665,0,1.206-0.457,1.206-1.121l1.521-15.152h0.617c1.092,0,1.975-0.928,1.975-2.019
		L294.335,222.289z"/>
	<path style="clip-path:url(#SVGID_2_);fill:#FFFFFF;" d="M294.335,222.289h-0.238c-0.002-0.953-0.762-1.64-1.74-1.646h-6.175
		c-0.977,0.006-1.737,0.693-1.739,1.646v0.018l-1.122,7.624l-0.235-0.035h0.238c0,0.481,0.195,0.927,0.512,1.253
		c0.317,0.326,0.75,0.528,1.228,0.528h0.615h0.215l1.543,15.378v0.012c0.003,0.523,0.408,0.875,0.968,0.883h1.73
		c0.559-0.008,0.966-0.361,0.968-0.883v-0.013l1.543-15.377h0.833c0.478,0,0.91-0.202,1.226-0.528
		c0.316-0.326,0.512-0.772,0.511-1.253h0.238l-0.235,0.035l-1.122-7.624v-0.018H294.335l0.235-0.035l1.122,7.625v0.017
		c-0.001,1.22-0.982,2.254-2.213,2.257h-0.402l-1.499,14.937l-0.237-0.023h0.238c0.002,0.397-0.166,0.748-0.432,0.986
		c-0.266,0.24-0.625,0.373-1.012,0.373h-1.73c-0.387,0-0.747-0.133-1.013-0.373c-0.265-0.239-0.432-0.589-0.431-0.986h0.238
		l-0.237,0.023l-1.499-14.937h-0.399c-1.232-0.003-2.215-1.037-2.216-2.257v-0.017l1.122-7.625l0.235,0.035h-0.238
		c0-0.61,0.251-1.148,0.655-1.525c0.403-0.377,0.957-0.597,1.56-0.597h6.175c0.604,0,1.158,0.22,1.561,0.597
		c0.404,0.377,0.656,0.915,0.655,1.525H294.335l0.235-0.035L294.335,222.289z"/>
	<path style="clip-path:url(#SVGID_2_);fill:#29A6DC;" d="M289.27,212.453c1.83,0,3.314,1.484,3.314,3.314
		c0,1.831-1.484,3.315-3.314,3.315c-1.83,0-3.314-1.484-3.314-3.315C285.956,213.937,287.44,212.453,289.27,212.453"/>
	<path style="clip-path:url(#SVGID_2_);fill:#FFFFFF;" d="M289.27,212.453v-0.238c1.962,0,3.552,1.59,3.552,3.552
		s-1.59,3.553-3.552,3.553c-1.962,0-3.552-1.591-3.552-3.553s1.59-3.552,3.552-3.552V212.453v0.238
		c-1.699,0.003-3.073,1.377-3.076,3.076c0.003,1.699,1.377,3.074,3.076,3.077c1.699-0.003,3.073-1.378,3.076-3.077
		c-0.003-1.699-1.377-3.073-3.076-3.076V212.453z"/>
	<path style="clip-path:url(#SVGID_2_);fill:#29A6DC;" d="M321.624,229.36c0-1.091-0.885-1.884-1.977-1.884h-6.175
		c-1.091,0-1.978,0.792-1.978,1.884l-1.119,7.606c0,1.092,0.885,2.019,1.978,2.019h0.615l1.52,15.152
		c0,0.664,0.54,1.122,1.206,1.122h1.73c0.666,0,1.206-0.457,1.206-1.122l1.521-15.152h0.617c1.092,0,1.976-0.927,1.976-2.019
		L321.624,229.36z"/>
	<path style="clip-path:url(#SVGID_2_);fill:#FFFFFF;" d="M321.624,229.36h-0.238c-0.002-0.953-0.762-1.64-1.739-1.646h-6.175
		c-0.977,0.006-1.738,0.692-1.74,1.646v0.018l-1.122,7.623l-0.235-0.035h0.238c0,0.481,0.195,0.927,0.512,1.253
		c0.317,0.326,0.75,0.528,1.228,0.528h0.615h0.215l1.543,15.378v0.012c0.003,0.523,0.408,0.876,0.968,0.884h1.73
		c0.56-0.008,0.966-0.36,0.968-0.884v-0.013l1.543-15.377h0.833c0.478,0,0.91-0.202,1.227-0.528
		c0.316-0.325,0.511-0.772,0.511-1.253h0.238l-0.235,0.035l-1.123-7.623v-0.018H321.624l0.235-0.035l1.123,7.624v0.017
		c-0.001,1.221-0.983,2.254-2.214,2.257h-0.402l-1.499,14.938l-0.237-0.024h0.238c0.001,0.398-0.166,0.748-0.432,0.987
		c-0.265,0.24-0.625,0.373-1.012,0.373h-1.73c-0.388,0-0.747-0.133-1.013-0.374c-0.265-0.239-0.432-0.589-0.431-0.986h0.238
		l-0.237,0.024l-1.499-14.938h-0.399c-1.232-0.003-2.215-1.036-2.216-2.257v-0.017l1.122-7.624l0.235,0.035h-0.238
		c0-0.611,0.251-1.149,0.655-1.525c0.404-0.377,0.958-0.597,1.561-0.597h6.175c0.603,0,1.157,0.22,1.56,0.597
		c0.404,0.377,0.656,0.915,0.655,1.525H321.624l0.235-0.035L321.624,229.36z"/>
	<path style="clip-path:url(#SVGID_2_);fill:#29A6DC;" d="M316.559,219.524c1.83,0,3.314,1.484,3.314,3.313
		c0,1.831-1.484,3.316-3.314,3.316c-1.83,0-3.314-1.485-3.314-3.316C313.245,221.008,314.729,219.524,316.559,219.524"/>
	<path style="clip-path:url(#SVGID_2_);fill:#FFFFFF;" d="M316.559,219.524v-0.238c1.962,0,3.552,1.59,3.552,3.551
		c0,1.962-1.59,3.554-3.552,3.554c-1.962,0-3.552-1.592-3.552-3.554c0-1.961,1.59-3.551,3.552-3.551V219.524v0.238
		c-1.699,0.003-3.073,1.378-3.076,3.075c0.003,1.699,1.377,3.075,3.076,3.078c1.699-0.003,3.073-1.379,3.076-3.078
		c-0.003-1.697-1.377-3.072-3.076-3.075V219.524z"/>
	<path style="clip-path:url(#SVGID_2_);fill:#29A6DC;" d="M283.005,231.84c0-1.091-0.885-1.884-1.977-1.884h-6.175
		c-1.091,0-1.978,0.792-1.978,1.884l-1.119,7.607c0,1.091,0.885,2.019,1.978,2.019h0.615l1.52,15.152
		c0,0.663,0.54,1.121,1.206,1.121h1.73c0.666,0,1.206-0.457,1.206-1.121l1.521-15.152h0.617c1.092,0,1.976-0.928,1.976-2.019
		L283.005,231.84z"/>
	<path style="clip-path:url(#SVGID_2_);fill:#FFFFFF;" d="M283.005,231.84h-0.238c-0.002-0.953-0.762-1.64-1.739-1.646h-6.175
		c-0.977,0.006-1.738,0.692-1.74,1.646v0.017l-1.122,7.625l-0.235-0.035h0.238c0,0.481,0.195,0.927,0.512,1.253
		c0.317,0.326,0.75,0.528,1.228,0.528h0.615h0.215l1.543,15.378v0.012c0.003,0.522,0.408,0.875,0.968,0.883h1.73
		c0.56-0.008,0.966-0.36,0.968-0.883v-0.012l1.543-15.378h0.833c0.478,0,0.91-0.202,1.227-0.528
		c0.316-0.326,0.511-0.772,0.511-1.253h0.238l-0.235,0.035l-1.123-7.624v-0.018H283.005l0.235-0.035l1.123,7.625v0.017
		c-0.001,1.22-0.983,2.254-2.214,2.257h-0.402l-1.499,14.937l-0.237-0.023h0.238c0.001,0.397-0.166,0.747-0.432,0.986
		c-0.265,0.24-0.625,0.373-1.012,0.373h-1.73c-0.388,0-0.747-0.133-1.013-0.373c-0.265-0.239-0.432-0.589-0.431-0.986h0.238
		l-0.237,0.023l-1.498-14.937h-0.4c-1.232-0.003-2.215-1.037-2.216-2.257v-0.017l1.122-7.625l0.235,0.035h-0.238
		c0-0.611,0.251-1.149,0.655-1.525c0.404-0.377,0.958-0.597,1.561-0.597h6.175c0.603,0,1.157,0.22,1.56,0.597
		c0.404,0.377,0.656,0.915,0.655,1.525H283.005l0.235-0.035L283.005,231.84z"/>
	<path style="clip-path:url(#SVGID_2_);fill:#29A6DC;" d="M277.94,222.004c1.83,0,3.314,1.484,3.314,3.314
		c0,1.831-1.484,3.315-3.314,3.315c-1.83,0-3.314-1.484-3.314-3.315C274.626,223.488,276.11,222.004,277.94,222.004"/>
	<path style="clip-path:url(#SVGID_2_);fill:#FFFFFF;" d="M277.94,222.004v-0.238c1.962,0,3.552,1.591,3.552,3.552
		c0,1.962-1.59,3.553-3.552,3.553c-1.962,0-3.552-1.591-3.552-3.553c0-1.961,1.59-3.552,3.552-3.552V222.004v0.238
		c-1.699,0.003-3.073,1.378-3.076,3.076c0.003,1.699,1.377,3.074,3.076,3.077c1.699-0.003,3.073-1.378,3.076-3.077
		c-0.003-1.698-1.377-3.073-3.076-3.076V222.004z"/>
	<path style="clip-path:url(#SVGID_2_);fill:#29A6DC;" d="M238.118,228.618c0,0.591-0.008,1.136,0.002,1.678
		c0.02,1.184,0.797,2.191,1.893,2.467c1.61,0.405,3.128-0.762,3.169-2.444c0.013-0.552,0.002-1.105,0.002-1.679h2.815
		c0,0.566-0.006,1.127,0.001,1.687c0.017,1.084,0.704,2.036,1.706,2.379c1.64,0.563,3.327-0.633,3.357-2.384
		c0.011-0.553,0.002-1.106,0.002-1.681h2.815c0,0.556-0.009,1.106,0.002,1.656c0.017,0.87,0.362,1.586,1.083,2.085
		c0.817,0.564,1.701,0.628,2.581,0.186c0.907-0.456,1.36-1.235,1.396-2.244c0.02-0.552,0.004-1.106,0.004-1.689
		c0.554,0,1.095-0.041,1.63,0.008c1.676,0.151,2.829,1.229,3.125,2.884c0.033,0.182,0.029,0.373,0.029,0.561
		c0.001,6.556-0.018,13.114,0.014,19.672c0.007,1.702-1.287,3.5-3.475,3.498c-1.192-0.001-2.384,0-3.575,0
		c-6.604,0-13.208,0.001-19.813-0.001c-1.462,0-2.557-0.628-3.225-1.945c-0.233-0.458-0.325-0.95-0.325-1.467
		c0.004-6.567,0.022-13.133-0.01-19.7c-0.009-1.729,1.269-3.505,3.448-3.526C237.208,228.614,237.647,228.618,238.118,228.618
		 M248.518,252.979c3.903,0,7.804-0.01,11.706,0.01c0.766,0.003,1.262-0.544,1.26-1.259c-0.009-5.027-0.009-10.055,0-15.082
		c0.001-0.703-0.481-1.258-1.261-1.257c-7.785,0.015-15.57,0.016-23.355,0c-0.857-0.001-1.291,0.599-1.29,1.287
		c0.013,5.008,0.013,10.016,0,15.025c-0.002,0.689,0.442,1.292,1.291,1.286C240.752,252.967,244.635,252.98,248.518,252.979"/>
	<path style="clip-path:url(#SVGID_2_);fill:#29A6DC;" d="M254.725,228.621c0-0.572-0.004-1.143,0-1.715
		c0.008-0.92,0.781-1.675,1.698-1.663c0.918,0.011,1.673,0.753,1.677,1.657c0.006,1.152,0.006,2.304,0,3.457
		c-0.004,0.916-0.782,1.674-1.699,1.665c-0.912-0.009-1.668-0.755-1.675-1.659C254.721,229.782,254.725,229.201,254.725,228.621"/>
	<path style="clip-path:url(#SVGID_2_);fill:#29A6DC;" d="M250.22,228.648c0,0.572,0.004,1.143,0,1.714
		c-0.008,0.902-0.767,1.651-1.678,1.659c-0.918,0.009-1.694-0.749-1.697-1.665c-0.004-1.152-0.005-2.305,0-3.457
		c0.004-0.904,0.758-1.646,1.676-1.657c0.918-0.01,1.692,0.747,1.699,1.664C250.223,227.488,250.22,228.067,250.22,228.648"/>
	<path style="clip-path:url(#SVGID_2_);fill:#29A6DC;" d="M238.963,228.631c0-0.573-0.003-1.144,0.001-1.717
		c0.006-0.923,0.773-1.676,1.695-1.67c0.917,0.008,1.675,0.751,1.679,1.658c0.006,1.154,0.006,2.307,0,3.46
		c-0.005,0.905-0.772,1.655-1.681,1.66c-0.921,0.003-1.687-0.752-1.693-1.675C238.96,229.775,238.963,229.203,238.963,228.631"/>
	<path style="clip-path:url(#SVGID_2_);fill:#29A6DC;" d="M251.326,241.029c-0.366,0-0.731,0.009-1.096-0.002
		c-0.669-0.019-1.132-0.503-1.135-1.173c-0.001-0.346-0.001-0.692,0-1.039c0.002-0.683,0.435-1.163,1.119-1.183
		c0.758-0.024,1.517-0.025,2.275,0.001c0.683,0.023,1.107,0.504,1.108,1.194c0.001,0.337,0.001,0.674,0,1.011
		c-0.002,0.699-0.474,1.179-1.175,1.19C252.056,241.034,251.692,241.029,251.326,241.029"/>
	<path style="clip-path:url(#SVGID_2_);fill:#29A6DC;" d="M245.716,241.029c-0.346,0-0.693,0.003-1.039,0
		c-0.739-0.007-1.209-0.478-1.211-1.211v-0.984c0.002-0.703,0.433-1.184,1.128-1.203c0.748-0.022,1.499-0.022,2.247,0
		c0.684,0.019,1.125,0.498,1.127,1.176c0.002,0.347,0.002,0.694,0,1.04c-0.003,0.683-0.472,1.166-1.156,1.181
		C246.447,241.036,246.081,241.029,245.716,241.029"/>
	<path style="clip-path:url(#SVGID_2_);fill:#29A6DC;" d="M256.963,241.029c-0.356,0-0.712,0.006-1.068-0.001
		c-0.7-0.012-1.168-0.492-1.171-1.194c-0.001-0.336-0.001-0.674,0-1.01c0.003-0.69,0.429-1.169,1.112-1.191
		c0.758-0.026,1.517-0.025,2.275,0c0.683,0.021,1.115,0.501,1.116,1.187c0.001,0.345,0.001,0.692-0.001,1.039
		c-0.002,0.666-0.47,1.15-1.139,1.168C257.712,241.038,257.338,241.029,256.963,241.029"/>
	<path style="clip-path:url(#SVGID_2_);fill:#29A6DC;" d="M251.335,245.879c-0.375,0-0.749,0.003-1.124,0
		c-0.634-0.007-1.111-0.486-1.116-1.124c-0.002-0.384-0.003-0.767,0.001-1.152c0.007-0.617,0.489-1.096,1.109-1.099
		c0.759-0.005,1.517-0.004,2.276,0c0.634,0.003,1.111,0.484,1.116,1.122c0.003,0.384,0.004,0.767,0,1.152
		c-0.007,0.615-0.491,1.094-1.11,1.101C252.103,245.883,251.719,245.879,251.335,245.879"/>
	<path style="clip-path:url(#SVGID_2_);fill:#29A6DC;" d="M240.089,242.502c0.384,0,0.768-0.004,1.152,0.001
		c0.603,0.007,1.088,0.483,1.097,1.084c0.007,0.402,0.007,0.805,0,1.208c-0.01,0.598-0.498,1.078-1.1,1.082
		c-0.768,0.005-1.536,0.006-2.304,0c-0.604-0.004-1.087-0.484-1.096-1.086c-0.006-0.402-0.006-0.804,0-1.207
		c0.009-0.6,0.493-1.074,1.099-1.081C239.321,242.498,239.705,242.502,240.089,242.502"/>
	<path style="clip-path:url(#SVGID_2_);fill:#29A6DC;" d="M245.693,245.879c-0.375,0-0.749,0.004-1.123-0.001
		c-0.618-0.007-1.097-0.489-1.102-1.108c-0.004-0.393-0.005-0.786,0.001-1.179c0.007-0.601,0.49-1.083,1.093-1.087
		c0.767-0.006,1.536-0.005,2.303,0c0.617,0.004,1.096,0.487,1.104,1.107c0.004,0.384,0.004,0.768,0,1.151
		c-0.007,0.633-0.488,1.111-1.124,1.117C246.461,245.882,246.077,245.879,245.693,245.879"/>
	<path style="clip-path:url(#SVGID_2_);fill:#29A6DC;" d="M256.976,245.879c-0.375,0-0.749,0.003-1.124,0
		c-0.64-0.005-1.12-0.479-1.127-1.112c-0.004-0.383-0.004-0.768,0-1.152c0.007-0.634,0.486-1.109,1.125-1.112
		c0.749-0.003,1.498-0.003,2.247,0c0.651,0.003,1.125,0.483,1.129,1.138c0.003,0.366,0.003,0.731,0,1.097
		c-0.004,0.666-0.481,1.138-1.154,1.141C257.707,245.881,257.342,245.879,256.976,245.879"/>
	<path style="clip-path:url(#SVGID_2_);fill:#29A6DC;" d="M301.344,231.799c0-1.092-0.884-1.886-1.977-1.886h-6.175
		c-1.091,0-1.977,0.794-1.977,1.886l-1.119,7.607c0,1.091,0.884,2.018,1.978,2.018h0.615l1.521,15.151
		c0,0.662,0.54,1.122,1.206,1.122h1.73c0.666,0,1.205-0.46,1.205-1.122l1.521-15.151h0.617c1.093,0,1.977-0.927,1.977-2.018
		L301.344,231.799z"/>
	<path style="clip-path:url(#SVGID_2_);fill:#FFFFFF;" d="M301.344,231.799h-0.238c-0.002-0.954-0.761-1.642-1.739-1.648h-6.175
		c-0.977,0.006-1.737,0.694-1.739,1.648v0.018l-1.122,7.624l-0.235-0.035h0.238c0,0.481,0.195,0.927,0.511,1.252
		c0.317,0.326,0.75,0.528,1.229,0.528h0.615h0.215l1.544,15.377v0.012c0.002,0.521,0.408,0.876,0.968,0.884h1.73
		c0.559-0.008,0.965-0.363,0.967-0.884v-0.012l1.544-15.377h0.832c0.478,0,0.911-0.202,1.228-0.528
		c0.316-0.325,0.511-0.771,0.511-1.252h0.238l-0.235,0.035l-1.125-7.624v-0.018H301.344l0.235-0.035l1.125,7.625v0.017
		c-0.001,1.22-0.983,2.253-2.215,2.256h-0.401l-1.5,14.937l-0.237-0.024h0.238c0.001,0.396-0.165,0.747-0.431,0.986
		c-0.265,0.24-0.624,0.374-1.012,0.374h-1.73c-0.388,0-0.748-0.134-1.013-0.374c-0.266-0.239-0.432-0.59-0.431-0.986h0.238
		l-0.237,0.024l-1.5-14.937h-0.399c-1.233-0.003-2.215-1.036-2.216-2.256v-0.017l1.122-7.625l0.235,0.035h-0.238
		c0-0.611,0.251-1.149,0.655-1.526c0.403-0.378,0.957-0.598,1.56-0.598h6.175c0.604,0,1.158,0.22,1.561,0.598
		c0.404,0.377,0.655,0.915,0.654,1.526H301.344l0.235-0.035L301.344,231.799z"/>
	<path style="clip-path:url(#SVGID_2_);fill:#29A6DC;" d="M296.279,221.962c1.83,0,3.313,1.484,3.313,3.312
		c0,1.831-1.483,3.315-3.313,3.315c-1.829,0-3.313-1.484-3.313-3.315C292.966,223.446,294.45,221.962,296.279,221.962"/>
	<path style="clip-path:url(#SVGID_2_);fill:#FFFFFF;" d="M296.279,221.962v-0.238c1.962,0,3.551,1.59,3.551,3.55
		c0,1.962-1.589,3.553-3.551,3.553c-1.961,0-3.551-1.591-3.551-3.553c0-1.96,1.59-3.55,3.551-3.55V221.962v0.238
		c-1.698,0.003-3.072,1.378-3.076,3.074c0.004,1.699,1.378,3.074,3.076,3.077c1.699-0.003,3.072-1.378,3.075-3.077
		c-0.003-1.697-1.376-3.071-3.075-3.074V221.962z"/>
</g>
<g>
	<defs>
		<rect id="SVGID_3_" x="251.345" y="99.689" width="67.847" height="66.285"/>
	</defs>
	<clipPath id="SVGID_4_">
		<use xlink:href="#SVGID_3_"  style="overflow:visible;"/>
	</clipPath>
	<path style="clip-path:url(#SVGID_4_);fill:#E72174;" d="M285.156,99.688h-0.225c-4.009,0.015-7.993,0.818-11.701,2.538
		c-12.192,5.652-21.807,22.551-21.885,37.063v0.347c0.02,3.837,0.715,7.498,2.213,10.73c2.63,5.674,7.68,9.777,13.787,12.348
		c-6.197-6.16-9.998-14.832-9.998-23.873c0-17.075,14.302-32.452,31.947-32.452c8.724,0,17.795,3.478,24.738,9.058
		C307.77,105.915,296.37,99.729,285.156,99.688"/>
</g>
<g>
	<defs>
		<rect id="SVGID_5_" x="257.347" y="106.39" width="68.656" height="65.287"/>
	</defs>
	<clipPath id="SVGID_6_">
		<use xlink:href="#SVGID_5_"  style="overflow:visible;"/>
	</clipPath>
	<path style="clip-path:url(#SVGID_6_);fill:#3BA9E0;" d="M314.031,115.448c0.828,1.261,1.567,2.581,2.203,3.953
		c1.985,4.282,2.941,8.93,2.958,13.569v0.259c-0.046,12.087-6.455,24.057-17.614,29.23c-5.034,2.334-11.1,3.515-17.241,3.515
		c-5.872,0-11.812-1.078-16.993-3.259c5.506,5.472,12.903,8.962,21.203,8.962c17.645,0,37.455-16.915,37.455-33.988
		C326.002,129.057,321.129,121.154,314.031,115.448"/>
	<path style="clip-path:url(#SVGID_6_);fill:#312661;" d="M289.294,106.39L289.294,106.39c-17.645,0-31.947,15.377-31.947,32.452
		c0,9.041,3.801,17.713,9.997,23.873c5.182,2.181,11.122,3.259,16.993,3.259c6.141,0,12.207-1.181,17.241-3.515
		c11.159-5.173,17.568-17.143,17.614-29.23v-0.259c-0.017-4.638-0.973-9.287-2.958-13.569c-0.636-1.371-1.375-2.692-2.203-3.953
		C307.089,109.868,298.018,106.39,289.294,106.39"/>
</g>
<g>
	<defs>
		<rect id="SVGID_7_" x="5.675" y="7.659" width="554.306" height="257.41"/>
	</defs>
	<clipPath id="SVGID_8_">
		<use xlink:href="#SVGID_7_"  style="overflow:visible;"/>
	</clipPath>
	<path style="clip-path:url(#SVGID_8_);fill:#FFFFFF;" d="M265.016,129.711c0,0.682-0.548,1.23-1.231,1.23
		c-0.681,0-1.231-0.548-1.231-1.23c0-0.668,0.55-1.231,1.231-1.231C264.468,128.48,265.016,129.043,265.016,129.711
		 M264.824,143.932h-2.076v-11.166h2.076V143.932z"/>
	<path style="clip-path:url(#SVGID_8_);fill:#FFFFFF;" d="M273.542,136.413c0,2.254-1.542,3.869-3.826,3.869
		c-2.284,0-3.825-1.615-3.825-3.869c0-2.269,1.557-3.885,3.825-3.885C271.985,132.528,273.542,134.144,273.542,136.413
		 M267.996,136.413c0,0.979,0.653,2.031,1.72,2.031c1.068,0,1.72-1.052,1.72-2.031c0-1.009-0.652-2.046-1.72-2.046
		C268.649,134.367,267.996,135.404,267.996,136.413"/>
	<polygon style="clip-path:url(#SVGID_8_);fill:#FFFFFF;" points="277.293,136.962 279.073,132.528 280.066,132.528 281.86,137.021 
		283.402,132.765 285.657,132.765 282.275,140.195 281.222,140.195 279.666,135.761 277.931,140.195 276.863,140.195 
		273.512,132.765 275.78,132.765 	"/>
	<path style="clip-path:url(#SVGID_8_);fill:#FFFFFF;" d="M293.277,136.413c0,2.254-1.542,3.869-3.826,3.869
		c-2.284,0-3.825-1.615-3.825-3.869c0-2.269,1.557-3.885,3.825-3.885C291.72,132.528,293.277,134.144,293.277,136.413
		 M287.731,136.413c0,0.979,0.653,2.031,1.72,2.031c1.068,0,1.72-1.052,1.72-2.031c0-1.009-0.652-2.046-1.72-2.046
		C288.384,134.367,287.731,135.404,287.731,136.413"/>
	<path style="clip-path:url(#SVGID_8_);fill:#FFFFFF;" d="M296.331,133.417h0.029c0.401-0.578,1.113-0.89,1.78-0.89
		c0.905,0,1.617,0.371,2.091,1.143c0.444-0.712,1.275-1.143,2.12-1.143c1.854,0,2.313,1.395,2.313,2.981v4.538h-2.076v-3.827
		c0-0.711,0.045-2.03-0.978-2.03c-1.127,0-1.112,1.527-1.112,2.283v3.574h-2.076v-3.692c0-0.712,0.089-2.165-0.994-2.165
		c-1.156,0-1.097,1.512-1.097,2.283v3.574h-2.076v-7.282h2.076V133.417z"/>
	<path style="clip-path:url(#SVGID_8_);fill:#FFFFFF;" d="M313.294,136.413c0,2.254-1.543,3.869-3.826,3.869
		c-2.284,0-3.826-1.615-3.826-3.869c0-2.269,1.557-3.885,3.826-3.885C311.736,132.528,313.294,134.144,313.294,136.413
		 M307.748,136.413c0,0.979,0.652,2.031,1.72,2.031c1.068,0,1.72-1.052,1.72-2.031c0-1.009-0.652-2.046-1.72-2.046
		C308.4,134.367,307.748,135.404,307.748,136.413"/>
</g>
</svg>
