<svg id="Ebene_1" data-name="Ebene 1" xmlns="http://www.w3.org/2000/svg" viewBox="0 0 700.01 394.33"><defs><style>.cls-1,.cls-6,.cls-8{fill:#26a6db;}.cls-2{opacity:0.3;}.cls-3,.cls-5{fill:#db2567;}.cls-4{fill:none;stroke:#26a6db;}.cls-12,.cls-4{stroke-miterlimit:10;}.cls-5{opacity:0.3;}.cls-6{stroke:#fff;stroke-width:0.5px;}.cls-12,.cls-7{fill:#fff;}.cls-8{font-size:11px;font-family:Roboto-Bold, Roboto;font-weight:700;}.cls-9{letter-spacing:-0.01em;}.cls-10{letter-spacing:0.01em;}.cls-11{letter-spacing:-0.01em;}.cls-12{stroke:#1d1d1b;stroke-width:0.25px;}</style></defs><title>Prozessgrafik_Querformat_200418_CB</title><path class="cls-1" d="M37.35,182.51a2.4,2.4,0,0,0-2.5-2.38h-7.8a2.39,2.39,0,0,0-2.49,2.38l-1.42,9.61a2.54,2.54,0,0,0,2.5,2.54h.78l1.92,19.14a1.44,1.44,0,0,0,1.52,1.41H32a1.44,1.44,0,0,0,1.53-1.41l1.92-19.14h.78a2.54,2.54,0,0,0,2.49-2.54Z" transform="translate(0 0.25)"/><circle class="cls-1" cx="30.95" cy="174.52" r="4.18"/><g class="cls-2"><path class="cls-1" d="M60.49,182.51a2.4,2.4,0,0,0-2.5-2.38h-7.8a2.4,2.4,0,0,0-2.49,2.38l-1.42,9.61a2.54,2.54,0,0,0,2.5,2.54h.78l1.92,19.14A1.44,1.44,0,0,0,53,215.21h2.19a1.44,1.44,0,0,0,1.52-1.41l1.92-19.14h.78a2.53,2.53,0,0,0,2.49-2.54Z" transform="translate(0 0.25)"/><circle class="cls-1" cx="54.09" cy="174.52" r="4.18"/></g><g class="cls-2"><path class="cls-1" d="M83.63,182.51a2.4,2.4,0,0,0-2.5-2.38H73.34a2.4,2.4,0,0,0-2.5,2.38l-1.42,9.61a2.54,2.54,0,0,0,2.5,2.54h.78l1.92,19.14a1.44,1.44,0,0,0,1.52,1.41h2.19a1.44,1.44,0,0,0,1.52-1.41l1.92-19.14h.78a2.54,2.54,0,0,0,2.5-2.54Z" transform="translate(0 0.25)"/><circle class="cls-1" cx="77.23" cy="174.52" r="4.18"/></g><path class="cls-1" d="M106.77,182.51a2.4,2.4,0,0,0-2.5-2.38H96.48a2.4,2.4,0,0,0-2.5,2.38l-1.41,9.61a2.53,2.53,0,0,0,2.49,2.54h.78l1.92,19.14a1.44,1.44,0,0,0,1.52,1.41h2.19A1.44,1.44,0,0,0,103,213.8l1.92-19.14h.78a2.54,2.54,0,0,0,2.5-2.54Z" transform="translate(0 0.25)"/><circle class="cls-1" cx="100.37" cy="174.52" r="4.18"/><path class="cls-1" d="M129.91,182.51a2.39,2.39,0,0,0-2.49-2.38h-7.8a2.4,2.4,0,0,0-2.5,2.38l-1.41,9.61a2.54,2.54,0,0,0,2.5,2.54H119l1.92,19.14a1.44,1.44,0,0,0,1.53,1.41h2.18a1.44,1.44,0,0,0,1.52-1.41l1.92-19.14h.78a2.54,2.54,0,0,0,2.5-2.54Z" transform="translate(0 0.25)"/><circle class="cls-1" cx="123.52" cy="174.52" r="4.18"/><g class="cls-2"><path class="cls-1" d="M37.35,129.86a2.4,2.4,0,0,0-2.5-2.38h-7.8a2.39,2.39,0,0,0-2.49,2.38l-1.42,9.61a2.54,2.54,0,0,0,2.5,2.55h.78l1.92,19.13a1.44,1.44,0,0,0,1.52,1.42H32a1.45,1.45,0,0,0,1.53-1.42L35.49,142h.78a2.54,2.54,0,0,0,2.49-2.55Z" transform="translate(0 0.25)"/><circle class="cls-1" cx="30.95" cy="121.87" r="4.18"/></g><path class="cls-1" d="M14.2,129.86a2.39,2.39,0,0,0-2.49-2.38H3.91a2.4,2.4,0,0,0-2.5,2.38L0,139.47A2.54,2.54,0,0,0,2.5,142h.77L5.2,161.15a1.44,1.44,0,0,0,1.52,1.42H8.9a1.44,1.44,0,0,0,1.52-1.42L12.35,142h.78a2.54,2.54,0,0,0,2.49-2.55Z" transform="translate(0 0.25)"/><circle class="cls-1" cx="7.81" cy="121.87" r="4.18"/><path class="cls-1" d="M60.49,129.86a2.4,2.4,0,0,0-2.5-2.38h-7.8a2.4,2.4,0,0,0-2.49,2.38l-1.42,9.61a2.54,2.54,0,0,0,2.5,2.55h.78l1.92,19.13A1.44,1.44,0,0,0,53,162.57h2.19a1.44,1.44,0,0,0,1.52-1.42L58.63,142h.78a2.54,2.54,0,0,0,2.49-2.55Z" transform="translate(0 0.25)"/><circle class="cls-1" cx="54.09" cy="121.87" r="4.18"/><path class="cls-1" d="M83.63,129.86a2.4,2.4,0,0,0-2.5-2.38H73.34a2.4,2.4,0,0,0-2.5,2.38l-1.42,9.61a2.54,2.54,0,0,0,2.5,2.55h.78l1.92,19.13a1.44,1.44,0,0,0,1.52,1.42h2.19a1.44,1.44,0,0,0,1.52-1.42L81.77,142h.78a2.54,2.54,0,0,0,2.5-2.55Z" transform="translate(0 0.25)"/><circle class="cls-1" cx="77.23" cy="121.87" r="4.18"/><path class="cls-1" d="M106.77,129.86a2.4,2.4,0,0,0-2.5-2.38H96.48a2.4,2.4,0,0,0-2.5,2.38l-1.41,9.61A2.54,2.54,0,0,0,95.06,142h.78l1.92,19.13a1.44,1.44,0,0,0,1.52,1.42h2.19a1.44,1.44,0,0,0,1.52-1.42L104.91,142h.78a2.54,2.54,0,0,0,2.5-2.55Z" transform="translate(0 0.25)"/><circle class="cls-1" cx="100.37" cy="121.87" r="4.18"/><g class="cls-2"><path class="cls-1" d="M129.91,129.86a2.39,2.39,0,0,0-2.49-2.38h-7.8a2.4,2.4,0,0,0-2.5,2.38l-1.41,9.61a2.54,2.54,0,0,0,2.5,2.55H119l1.92,19.13a1.44,1.44,0,0,0,1.53,1.42h2.18a1.44,1.44,0,0,0,1.52-1.42L128.05,142h.78a2.54,2.54,0,0,0,2.5-2.55Z" transform="translate(0 0.25)"/><circle class="cls-1" cx="123.52" cy="121.87" r="4.18"/></g><path class="cls-1" d="M153.06,129.86a2.4,2.4,0,0,0-2.5-2.38h-7.8a2.4,2.4,0,0,0-2.5,2.38l-1.41,9.61a2.54,2.54,0,0,0,2.5,2.55h.78l1.92,19.13a1.44,1.44,0,0,0,1.52,1.42h2.18a1.45,1.45,0,0,0,1.53-1.42L151.2,142H152a2.54,2.54,0,0,0,2.49-2.55Z" transform="translate(0 0.25)"/><circle class="cls-1" cx="146.66" cy="121.87" r="4.18"/><path class="cls-1" d="M48.45,235.16A2.39,2.39,0,0,0,46,232.78h-7.8a2.4,2.4,0,0,0-2.5,2.38l-1.41,9.6a2.54,2.54,0,0,0,2.5,2.55h.77l1.92,19.14A1.44,1.44,0,0,0,41,267.86h2.18a1.43,1.43,0,0,0,1.52-1.41l1.92-19.14h.78a2.54,2.54,0,0,0,2.5-2.55Z" transform="translate(0 0.25)"/><circle class="cls-1" cx="42.06" cy="227.17" r="4.19"/><g class="cls-2"><path class="cls-1" d="M71.6,235.16a2.4,2.4,0,0,0-2.5-2.38H61.3a2.4,2.4,0,0,0-2.5,2.38l-1.41,9.6a2.54,2.54,0,0,0,2.5,2.55h.77l1.93,19.14a1.44,1.44,0,0,0,1.52,1.41h2.18a1.44,1.44,0,0,0,1.53-1.41l1.91-19.14h.79A2.54,2.54,0,0,0,73,244.76Z" transform="translate(0 0.25)"/><circle class="cls-1" cx="65.2" cy="227.17" r="4.19"/></g><path class="cls-1" d="M94.74,235.16a2.4,2.4,0,0,0-2.5-2.38h-7.8A2.39,2.39,0,0,0,82,235.16l-1.42,9.6a2.54,2.54,0,0,0,2.5,2.55h.78l1.92,19.14a1.44,1.44,0,0,0,1.52,1.41h2.18A1.44,1.44,0,0,0,91,266.45l1.92-19.14h.78a2.54,2.54,0,0,0,2.49-2.55Z" transform="translate(0 0.25)"/><circle class="cls-1" cx="88.34" cy="227.17" r="4.19"/><path class="cls-1" d="M117.88,235.16a2.4,2.4,0,0,0-2.5-2.38h-7.8a2.4,2.4,0,0,0-2.49,2.38l-1.42,9.6a2.54,2.54,0,0,0,2.5,2.55H107l1.92,19.14a1.44,1.44,0,0,0,1.52,1.41h2.18a1.43,1.43,0,0,0,1.53-1.41L116,247.31h.78a2.54,2.54,0,0,0,2.49-2.55Z" transform="translate(0 0.25)"/><circle class="cls-1" cx="111.48" cy="227.17" r="4.19"/><path class="cls-1" d="M582.88,182.51a2.39,2.39,0,0,0-2.49-2.38h-7.8a2.4,2.4,0,0,0-2.5,2.38l-1.41,9.61a2.54,2.54,0,0,0,2.5,2.54H572l1.92,19.14a1.44,1.44,0,0,0,1.53,1.41h2.18a1.44,1.44,0,0,0,1.52-1.41L581,194.66h.78a2.54,2.54,0,0,0,2.5-2.54Z" transform="translate(0 0.25)"/><circle class="cls-1" cx="576.49" cy="174.52" r="4.18"/><path class="cls-3" d="M606,182.51a2.4,2.4,0,0,0-2.5-2.38h-7.8a2.4,2.4,0,0,0-2.5,2.38l-1.41,9.61a2.54,2.54,0,0,0,2.5,2.54h.77L597,213.8a1.44,1.44,0,0,0,1.52,1.41h2.18a1.44,1.44,0,0,0,1.53-1.41l1.91-19.14H605a2.54,2.54,0,0,0,2.49-2.54Z" transform="translate(0 0.25)"/><circle class="cls-3" cx="599.63" cy="174.52" r="4.18"/><path class="cls-3" d="M629.17,182.51a2.4,2.4,0,0,0-2.5-2.38h-7.8a2.39,2.39,0,0,0-2.49,2.38L615,192.12a2.54,2.54,0,0,0,2.5,2.54h.78l1.92,19.14a1.44,1.44,0,0,0,1.52,1.41h2.18a1.44,1.44,0,0,0,1.53-1.41l1.92-19.14h.78a2.53,2.53,0,0,0,2.49-2.54Z" transform="translate(0 0.25)"/><circle class="cls-3" cx="622.77" cy="174.52" r="4.18"/><path class="cls-3" d="M652.31,182.51a2.4,2.4,0,0,0-2.5-2.38H642a2.4,2.4,0,0,0-2.49,2.38l-1.42,9.61a2.54,2.54,0,0,0,2.5,2.54h.78l1.92,19.14a1.44,1.44,0,0,0,1.52,1.41H647a1.44,1.44,0,0,0,1.52-1.41l1.92-19.14h.78a2.53,2.53,0,0,0,2.49-2.54Z" transform="translate(0 0.25)"/><circle class="cls-3" cx="645.91" cy="174.52" r="4.18"/><path class="cls-1" d="M675.45,182.51a2.4,2.4,0,0,0-2.5-2.38h-7.8a2.4,2.4,0,0,0-2.49,2.38l-1.42,9.61a2.54,2.54,0,0,0,2.5,2.54h.78l1.92,19.14a1.44,1.44,0,0,0,1.52,1.41h2.19a1.44,1.44,0,0,0,1.52-1.41l1.92-19.14h.78a2.54,2.54,0,0,0,2.5-2.54Z" transform="translate(0 0.25)"/><circle class="cls-1" cx="669.05" cy="174.52" r="4.18"/><path class="cls-3" d="M582.88,129.86a2.39,2.39,0,0,0-2.49-2.38h-7.8a2.4,2.4,0,0,0-2.5,2.38l-1.41,9.61a2.54,2.54,0,0,0,2.5,2.55H572l1.92,19.13a1.45,1.45,0,0,0,1.53,1.42h2.18a1.44,1.44,0,0,0,1.52-1.42L581,142h.78a2.54,2.54,0,0,0,2.5-2.55Z" transform="translate(0 0.25)"/><circle class="cls-3" cx="576.49" cy="121.87" r="4.18"/><path class="cls-3" d="M559.74,129.86a2.39,2.39,0,0,0-2.49-2.38h-7.8a2.4,2.4,0,0,0-2.5,2.38l-1.41,9.61A2.54,2.54,0,0,0,548,142h.78l1.92,19.13a1.44,1.44,0,0,0,1.52,1.42h2.19a1.44,1.44,0,0,0,1.52-1.42L557.88,142h.78a2.54,2.54,0,0,0,2.5-2.55Z" transform="translate(0 0.25)"/><circle class="cls-3" cx="553.35" cy="121.87" r="4.18"/><path class="cls-1" d="M606,129.86a2.4,2.4,0,0,0-2.5-2.38h-7.8a2.4,2.4,0,0,0-2.5,2.38l-1.41,9.61a2.54,2.54,0,0,0,2.5,2.55h.77L597,161.15a1.44,1.44,0,0,0,1.52,1.42h2.18a1.45,1.45,0,0,0,1.53-1.42L604.16,142H605a2.54,2.54,0,0,0,2.49-2.55Z" transform="translate(0 0.25)"/><circle class="cls-1" cx="599.63" cy="121.87" r="4.18"/><path class="cls-3" d="M629.17,129.86a2.4,2.4,0,0,0-2.5-2.38h-7.8a2.39,2.39,0,0,0-2.49,2.38L615,139.47a2.54,2.54,0,0,0,2.5,2.55h.78l1.92,19.13a1.44,1.44,0,0,0,1.52,1.42h2.18a1.45,1.45,0,0,0,1.53-1.42L627.31,142h.78a2.54,2.54,0,0,0,2.49-2.55Z" transform="translate(0 0.25)"/><circle class="cls-3" cx="622.77" cy="121.87" r="4.18"/><path class="cls-1" d="M652.31,129.86a2.4,2.4,0,0,0-2.5-2.38H642a2.4,2.4,0,0,0-2.49,2.38l-1.42,9.61a2.54,2.54,0,0,0,2.5,2.55h.78l1.92,19.13a1.44,1.44,0,0,0,1.52,1.42H647a1.44,1.44,0,0,0,1.52-1.42L650.45,142h.78a2.54,2.54,0,0,0,2.49-2.55Z" transform="translate(0 0.25)"/><circle class="cls-1" cx="645.91" cy="121.87" r="4.18"/><path class="cls-3" d="M675.45,129.86a2.4,2.4,0,0,0-2.5-2.38h-7.8a2.4,2.4,0,0,0-2.49,2.38l-1.42,9.61a2.54,2.54,0,0,0,2.5,2.55h.78l1.92,19.13a1.44,1.44,0,0,0,1.52,1.42h2.19a1.44,1.44,0,0,0,1.52-1.42L673.59,142h.78a2.54,2.54,0,0,0,2.5-2.55Z" transform="translate(0 0.25)"/><circle class="cls-3" cx="669.05" cy="121.87" r="4.18"/><path class="cls-3" d="M698.59,129.86a2.39,2.39,0,0,0-2.49-2.38h-7.8a2.4,2.4,0,0,0-2.5,2.38l-1.41,9.61a2.54,2.54,0,0,0,2.5,2.55h.77l1.92,19.13a1.44,1.44,0,0,0,1.53,1.42h2.18a1.44,1.44,0,0,0,1.52-1.42L696.73,142h.78a2.54,2.54,0,0,0,2.5-2.55Z" transform="translate(0 0.25)"/><circle class="cls-3" cx="692.2" cy="121.87" r="4.18"/><path class="cls-3" d="M594,235.16a2.4,2.4,0,0,0-2.5-2.38H583.7a2.4,2.4,0,0,0-2.5,2.38l-1.41,9.6a2.54,2.54,0,0,0,2.49,2.55h.78L585,266.45a1.44,1.44,0,0,0,1.52,1.41h2.19a1.43,1.43,0,0,0,1.52-1.41l1.92-19.14h.78a2.54,2.54,0,0,0,2.5-2.55Z" transform="translate(0 0.25)"/><circle class="cls-3" cx="587.6" cy="227.17" r="4.19"/><path class="cls-3" d="M617.13,235.16a2.39,2.39,0,0,0-2.49-2.38h-7.8a2.4,2.4,0,0,0-2.5,2.38l-1.41,9.6a2.54,2.54,0,0,0,2.49,2.55h.78l1.92,19.14a1.44,1.44,0,0,0,1.52,1.41h2.19a1.43,1.43,0,0,0,1.52-1.41l1.92-19.14h.78a2.54,2.54,0,0,0,2.5-2.55Z" transform="translate(0 0.25)"/><circle class="cls-3" cx="610.74" cy="227.17" r="4.19"/><path class="cls-1" d="M640.27,235.16a2.39,2.39,0,0,0-2.49-2.38H630a2.4,2.4,0,0,0-2.5,2.38l-1.41,9.6a2.54,2.54,0,0,0,2.5,2.55h.77l1.92,19.14a1.44,1.44,0,0,0,1.53,1.41H635a1.43,1.43,0,0,0,1.52-1.41l1.92-19.14h.78a2.54,2.54,0,0,0,2.5-2.55Z" transform="translate(0 0.25)"/><circle class="cls-1" cx="633.88" cy="227.17" r="4.19"/><path class="cls-1" d="M663.42,235.16a2.4,2.4,0,0,0-2.5-2.38h-7.8a2.4,2.4,0,0,0-2.5,2.38l-1.41,9.6a2.54,2.54,0,0,0,2.5,2.55h.77l1.92,19.14a1.44,1.44,0,0,0,1.53,1.41h2.18a1.44,1.44,0,0,0,1.53-1.41l1.91-19.14h.78a2.54,2.54,0,0,0,2.5-2.55Z" transform="translate(0 0.25)"/><circle class="cls-1" cx="657.02" cy="227.17" r="4.19"/><path class="cls-4" d="M76,110.42" transform="translate(0 0.25)"/><path class="cls-1" d="M76,100.29a1.2,1.2,0,0,1-1.2-1.2V70.59a3.09,3.09,0,0,1,3.09-3.09H617.32a3.08,3.08,0,0,1,3.08,3.09V96.48a1.2,1.2,0,0,1-2.4,0V71.79a1.88,1.88,0,0,0-1.88-1.88H79.06a1.88,1.88,0,0,0-1.88,1.88v27.3A1.21,1.21,0,0,1,76,100.29Z" transform="translate(0 0.25)"/><path class="cls-1" d="M610.25,87.7h0a1.19,1.19,0,0,1,1.7.06l6.37,6.85a1.2,1.2,0,0,0,1.76,0l6.37-6.85a1.19,1.19,0,0,1,1.7-.06h0a1.18,1.18,0,0,1,.06,1.69l-8.13,8.75a1.2,1.2,0,0,1-1.76,0l-8.13-8.75A1.19,1.19,0,0,1,610.25,87.7Z" transform="translate(0 0.25)"/><path class="cls-1" d="M618,327.3H77.18a2.41,2.41,0,0,1-2.41-2.4V298.32a1.21,1.21,0,0,1,2.41,0v25.37a1.2,1.2,0,0,0,1.2,1.21H616.31a1.69,1.69,0,0,0,1.69-1.69v-27.5a1.2,1.2,0,1,1,2.4,0V324.9A2.4,2.4,0,0,1,618,327.3Z" transform="translate(0 0.25)"/><path class="cls-1" d="M84.93,307.11h0a1.21,1.21,0,0,1-1.7-.06l-6.37-6.86a1.2,1.2,0,0,0-1.76,0l-6.38,6.86a1.21,1.21,0,0,1-1.7.06h0a1.21,1.21,0,0,1-.06-1.7l8.14-8.75a1.2,1.2,0,0,1,1.76,0L85,305.41A1.21,1.21,0,0,1,84.93,307.11Z" transform="translate(0 0.25)"/><path class="cls-3" d="M474.06,277.62h2a2.13,2.13,0,0,1,2.21,2.24v1.9a2.09,2.09,0,0,1-2.09,2.25c-1.43.05-2.86,0-4.28,0a2.09,2.09,0,0,1-2.11-2.23v-2a2.13,2.13,0,0,1,2.19-2.2Z" transform="translate(0 0.25)"/><path class="cls-3" d="M484.64,277.62h2a2.13,2.13,0,0,1,2.23,2.23v1.91a2.09,2.09,0,0,1-2.09,2.25q-2.15.08-4.29,0a2.09,2.09,0,0,1-2.1-2.25v-2a2.12,2.12,0,0,1,2.12-2.18C483.22,277.61,483.93,277.63,484.64,277.62Z" transform="translate(0 0.25)"/><path class="cls-5" d="M495.24,277.62c.69,0,1.37,0,2.06,0a2.13,2.13,0,0,1,2.18,2.22v2.06a2,2,0,0,1-1.76,2c-1.65.08-3.31.08-5,0a2,2,0,0,1-1.76-2V279.8a2.13,2.13,0,0,1,2.12-2.17C493.83,277.61,494.53,277.63,495.24,277.62Z" transform="translate(0 0.25)"/><path class="cls-3" d="M470.33,242.35c0,1.12,0,2.14,0,3.16a4.77,4.77,0,1,0,9.53.05c0-1,0-2.08,0-3.17h5.3c0,1.07,0,2.13,0,3.18a4.77,4.77,0,0,0,9.54,0c0-1,0-2.08,0-3.16H500c0,1,0,2.08,0,3.11a4.65,4.65,0,0,0,2,3.93,4.53,4.53,0,0,0,4.86.35,4.62,4.62,0,0,0,2.63-4.22c0-1,0-2.09,0-3.18,1,0,2.06-.08,3.07,0a6.29,6.29,0,0,1,5.88,5.43,6.18,6.18,0,0,1,0,1.06c0,12.34,0,24.69,0,37a6.49,6.49,0,0,1-6.54,6.58H468a6.33,6.33,0,0,1-6.07-3.66,6,6,0,0,1-.61-2.76c0-12.37,0-24.73,0-37.1a6.49,6.49,0,0,1,6.49-6.63Zm19.58,45.87c7.35,0,14.7,0,22,0a2.26,2.26,0,0,0,2.38-2.37q0-14.21,0-28.4a2.26,2.26,0,0,0-2.38-2.36q-22,0-44,0a2.28,2.28,0,0,0-2.43,2.42q0,14.14,0,28.29a2.29,2.29,0,0,0,2.43,2.42C475.29,288.2,482.6,288.22,489.91,288.22Z" transform="translate(0 0.25)"/><path class="cls-3" d="M501.6,242.36c0-1.08,0-2.15,0-3.23a3.18,3.18,0,0,1,6.35,0q0,3.25,0,6.51a3.18,3.18,0,0,1-6.35,0C501.59,244.54,501.6,243.45,501.6,242.36Z" transform="translate(0 0.25)"/><path class="cls-3" d="M493.12,242.41c0,1.08,0,2.15,0,3.23a3.18,3.18,0,0,1-6.36,0c0-2.17,0-4.34,0-6.51a3.18,3.18,0,0,1,6.36,0Z" transform="translate(0 0.25)"/><path class="cls-3" d="M471.92,242.38v-3.24a3.18,3.18,0,0,1,6.36,0c0,2.17,0,4.35,0,6.52a3.18,3.18,0,0,1-6.36,0Z" transform="translate(0 0.25)"/><path class="cls-3" d="M495.2,265.72c-.69,0-1.37,0-2.06,0a2.13,2.13,0,0,1-2.14-2.21v-2a2.09,2.09,0,0,1,2.11-2.23c1.43,0,2.86,0,4.28,0a2.09,2.09,0,0,1,2.09,2.25v1.9a2.14,2.14,0,0,1-2.22,2.24Z" transform="translate(0 0.25)"/><path class="cls-5" d="M484.64,265.72h-2a2.14,2.14,0,0,1-2.28-2.28v-1.85a2.1,2.1,0,0,1,2.13-2.27c1.4,0,2.82,0,4.23,0a2.1,2.1,0,0,1,2.12,2.22v2a2.14,2.14,0,0,1-2.18,2.22Z" transform="translate(0 0.25)"/><path class="cls-3" d="M505.81,265.72h-2a2.13,2.13,0,0,1-2.2-2.25v-1.9a2.07,2.07,0,0,1,2.09-2.24q2.15-.07,4.29,0a2.09,2.09,0,0,1,2.1,2.23v2a2.14,2.14,0,0,1-2.15,2.2C507.22,265.74,506.52,265.72,505.81,265.72Z" transform="translate(0 0.25)"/><path class="cls-3" d="M495.22,274.85H493.1a2.08,2.08,0,0,1-2.1-2.11c0-.73,0-1.45,0-2.17a2.07,2.07,0,0,1,2.09-2.07h4.29a2.07,2.07,0,0,1,2.1,2.11c0,.72,0,1.45,0,2.17a2.08,2.08,0,0,1-2.09,2.07Z" transform="translate(0 0.25)"/><path class="cls-3" d="M474,268.5h2.17a2.07,2.07,0,0,1,2.07,2c0,.76,0,1.51,0,2.27a2.08,2.08,0,0,1-2.07,2h-4.34a2.06,2.06,0,0,1-2.06-2q0-1.14,0-2.28a2.05,2.05,0,0,1,2.06-2Z" transform="translate(0 0.25)"/><path class="cls-3" d="M484.59,274.85h-2.11a2.08,2.08,0,0,1-2.08-2.09c0-.74,0-1.48,0-2.22a2.07,2.07,0,0,1,2.06-2h4.34a2.07,2.07,0,0,1,2.08,2.08c0,.72,0,1.45,0,2.17a2.09,2.09,0,0,1-2.12,2.1Z" transform="translate(0 0.25)"/><path class="cls-3" d="M505.84,274.85h-2.12a2.08,2.08,0,0,1-2.12-2.09c0-.72,0-1.45,0-2.17a2.07,2.07,0,0,1,2.12-2.09H508a2.07,2.07,0,0,1,2.13,2.14v2.06a2.09,2.09,0,0,1-2.18,2.15Z" transform="translate(0 0.25)"/><path class="cls-6" d="M302.11,347a2.4,2.4,0,0,0-2.5-2.38h-7.8a2.4,2.4,0,0,0-2.49,2.38l-1.42,9.6a2.54,2.54,0,0,0,2.5,2.55h.78l1.92,19.14a1.44,1.44,0,0,0,1.52,1.41h2.19a1.44,1.44,0,0,0,1.52-1.41l1.92-19.14H301a2.54,2.54,0,0,0,2.49-2.55Z" transform="translate(0 0.25)"/><circle class="cls-6" cx="295.71" cy="338.97" r="4.18"/><path class="cls-6" d="M282.91,349.06a2.4,2.4,0,0,0-2.5-2.38h-7.8a2.39,2.39,0,0,0-2.49,2.38l-1.42,9.6a2.54,2.54,0,0,0,2.5,2.55H272l1.92,19.14a1.43,1.43,0,0,0,1.52,1.41h2.19a1.44,1.44,0,0,0,1.52-1.41l1.92-19.14h.78a2.54,2.54,0,0,0,2.49-2.55Z" transform="translate(0 0.25)"/><circle class="cls-6" cx="276.51" cy="341.07" r="4.19"/><path class="cls-6" d="M317.37,358a2.4,2.4,0,0,0-2.5-2.38h-7.79a2.4,2.4,0,0,0-2.5,2.38l-1.41,9.6a2.54,2.54,0,0,0,2.49,2.55h.78l1.92,19.14a1.43,1.43,0,0,0,1.52,1.41h2.19a1.43,1.43,0,0,0,1.52-1.41l1.92-19.14h.78a2.54,2.54,0,0,0,2.5-2.55Z" transform="translate(0 0.25)"/><circle class="cls-6" cx="310.98" cy="350" r="4.19"/><path class="cls-6" d="M268.6,361.12a2.4,2.4,0,0,0-2.5-2.38h-7.79a2.4,2.4,0,0,0-2.5,2.38l-1.42,9.61a2.55,2.55,0,0,0,2.5,2.55h.78l1.92,19.13a1.44,1.44,0,0,0,1.52,1.42h2.19a1.44,1.44,0,0,0,1.52-1.42l1.92-19.13h.78a2.55,2.55,0,0,0,2.5-2.55Z" transform="translate(0 0.25)"/><circle class="cls-6" cx="262.2" cy="353.13" r="4.19"/><path class="cls-6" d="M291.76,361.07a2.4,2.4,0,0,0-2.5-2.38h-7.79a2.4,2.4,0,0,0-2.5,2.38l-1.41,9.6a2.54,2.54,0,0,0,2.49,2.55h.78l1.92,19.14a1.44,1.44,0,0,0,1.52,1.41h2.19a1.44,1.44,0,0,0,1.52-1.41l1.92-19.14h.78a2.54,2.54,0,0,0,2.5-2.55Z" transform="translate(0 0.25)"/><circle class="cls-6" cx="285.36" cy="353.08" r="4.18"/><path class="cls-3" d="M460.82,130.87v82.58a2.28,2.28,0,0,0,2.28,2.28h16.23a2.36,2.36,0,0,0,2.36-2.36V196.32a1.86,1.86,0,0,1,1.86-1.86h10.84a1.87,1.87,0,0,1,1.87,1.86v17.05a2.36,2.36,0,0,0,2.36,2.36h18.21a2.29,2.29,0,0,0,2.29-2.28V130.87a2.3,2.3,0,0,0-2.29-2.29H463.1A2.29,2.29,0,0,0,460.82,130.87Zm40.51,51.81h8.05v7.81h-8.05Zm0-15h8.05v7.81h-8.05Zm0-15h8.05v7.82h-8.05Zm0-15h8.05v7.81h-8.05ZM485,182.68h8v7.81h-8Zm0-15h8v7.81h-8Zm0-15h8v7.82h-8Zm0-15h8v7.81h-8Zm-16.23,45.08h8.05v7.81h-8.05Zm0-15h8.05v7.81h-8.05Zm0-15h8.05v7.82h-8.05Zm0-15h8.05v7.81h-8.05Z" transform="translate(0 0.25)"/><path class="cls-3" d="M478.48,117.49H483a0,0,0,0,1,0,0V127a1.62,1.62,0,0,1-1.62,1.62h-1.23a1.62,1.62,0,0,1-1.62-1.62v-9.51A0,0,0,0,1,478.48,117.49Z" transform="translate(961.44 246.36) rotate(-180)"/><path class="cls-3" d="M433.3,220.8A3.32,3.32,0,0,1,430,217l2.9-19.69a5.87,5.87,0,0,1,6.11-5.82h19.06a5.87,5.87,0,0,1,6.11,5.82l2.9,19.69a3.32,3.32,0,0,1-3.29,3.8Z" transform="translate(0 0.25)"/><circle class="cls-3" cx="448.55" cy="177.42" r="10.23"/><path class="cls-7" d="M444.35,207l2.47-9.11a1.48,1.48,0,0,0,0-.86l-1.8-5.51h7.1L450.3,197a1.48,1.48,0,0,0,0,.86l2.48,9.11h0l-3.33,4.14a1.13,1.13,0,0,1-1.76,0" transform="translate(0 0.25)"/><path class="cls-1" d="M240.41,128.58H186.68a2.29,2.29,0,0,0-2.29,2.29v82.58a2.28,2.28,0,0,0,2.29,2.28h18.21a2.36,2.36,0,0,0,2.36-2.36V196.32a1.86,1.86,0,0,1,1.87-1.86H220a1.86,1.86,0,0,1,1.86,1.86v17.05a2.36,2.36,0,0,0,2.36,2.36h16.23a2.28,2.28,0,0,0,2.28-2.28V130.87A2.29,2.29,0,0,0,240.41,128.58Zm-38.23,61.91h-8.05v-7.81h8.05Zm0-15h-8.05v-7.81h8.05Zm0-15h-8.05v-7.82h8.05Zm0-15h-8.05V137.6h8.05Zm16.35,45.08h-8.05v-7.81h8.05Zm0-15h-8.05v-7.81h8.05Zm0-15h-8.05v-7.82h8.05Zm0-15h-8.05V137.6h8.05Zm16.23,45.08H226.7v-7.81h8.06Zm0-15H226.7v-7.81h8.06Zm0-15H226.7v-7.82h8.06Zm0-15H226.7V137.6h8.06Z" transform="translate(0 0.25)"/><path class="cls-1" d="M222.17,117.74h1.23a1.62,1.62,0,0,1,1.62,1.62v9.51a0,0,0,0,1,0,0h-4.48a0,0,0,0,1,0,0v-9.51A1.62,1.62,0,0,1,222.17,117.74Z"/><path class="cls-1" d="M270.21,220.8a3.32,3.32,0,0,0,3.29-3.8l-2.9-19.69a5.87,5.87,0,0,0-6.11-5.82H245.43a5.87,5.87,0,0,0-6.11,5.82L236.42,217a3.32,3.32,0,0,0,3.29,3.8Z" transform="translate(0 0.25)"/><circle class="cls-1" cx="254.96" cy="177.42" r="10.23"/><path class="cls-7" d="M259.16,207l-2.47-9.11a1.48,1.48,0,0,1,0-.86l1.79-5.51h-7.09l1.8,5.51a1.48,1.48,0,0,1,0,.86L250.75,207h0l3.33,4.14a1.13,1.13,0,0,0,1.76,0" transform="translate(0 0.25)"/><path class="cls-3" d="M405.54,167a10,10,0,1,0,10,10A10,10,0,0,0,405.54,167Zm0,15.61a5.65,5.65,0,1,1,5.65-5.65A5.65,5.65,0,0,1,405.54,182.65Z" transform="translate(0 0.25)"/><path class="cls-1" d="M313.17,167a10,10,0,1,0,10,10A10,10,0,0,0,313.17,167Zm0,15.61a5.65,5.65,0,1,1,5.65-5.65A5.65,5.65,0,0,1,313.17,182.65Z" transform="translate(0 0.25)"/><path class="cls-1" d="M286.81,184l2.72-3a4.82,4.82,0,0,0,3.58,2c1.63,0,2.64-1,2.64-3.25V167h4.43v12.83a7.11,7.11,0,0,1-1.85,5.24,7,7,0,0,1-5.11,1.82A8,8,0,0,1,286.81,184Z" transform="translate(0 0.25)"/><path class="cls-3" d="M372.38,167h4.72l5.24,8.42,5.24-8.42h4.73V187H388V174l-5.61,8.52h-.11L376.68,174V187h-4.3Z" transform="translate(0 0.25)"/><path class="cls-1" d="M346.08,187h-4.72l-5.24-8.42L330.88,187h-4.73V167h4.36v13l5.61-8.52h.11l5.55,8.43V167h4.3Z" transform="translate(0 0.25)"/><path class="cls-1" d="M354.07,179.31a5.65,5.65,0,0,1,7.47-7.47l3.17-3.17a10,10,0,0,0-13.81,13.81Z" transform="translate(0 0.25)"/><path class="cls-3" d="M364.5,175a5.66,5.66,0,0,1-7.31,7.31l-3.2,3.2a10,10,0,0,0,13.71-13.71Z" transform="translate(0 0.25)"/><path class="cls-6" d="M302.32,12.42A2.39,2.39,0,0,0,299.83,10H292a2.4,2.4,0,0,0-2.5,2.38L288.12,22a2.54,2.54,0,0,0,2.5,2.55h.77l1.92,19.13a1.45,1.45,0,0,0,1.53,1.42H297a1.44,1.44,0,0,0,1.52-1.42l1.92-19.13h.78a2.54,2.54,0,0,0,2.5-2.55Z" transform="translate(0 0.25)"/><circle class="cls-6" cx="295.93" cy="4.43" r="4.18"/><path class="cls-6" d="M283.12,14.52a2.4,2.4,0,0,0-2.49-2.38h-7.8a2.4,2.4,0,0,0-2.5,2.38l-1.41,9.61a2.54,2.54,0,0,0,2.5,2.55h.77l1.92,19.13a1.44,1.44,0,0,0,1.53,1.42h2.18a1.44,1.44,0,0,0,1.52-1.42l1.92-19.13H282a2.54,2.54,0,0,0,2.5-2.55Z" transform="translate(0 0.25)"/><circle class="cls-6" cx="276.73" cy="6.54" r="4.19"/><path class="cls-6" d="M317.59,23.45a2.4,2.4,0,0,0-2.5-2.38h-7.8a2.39,2.39,0,0,0-2.49,2.38l-1.42,9.61a2.54,2.54,0,0,0,2.5,2.55h.78l1.92,19.13a1.44,1.44,0,0,0,1.52,1.42h2.18a1.45,1.45,0,0,0,1.53-1.42l1.92-19.13h.78A2.54,2.54,0,0,0,319,33.06Z" transform="translate(0 0.25)"/><circle class="cls-6" cx="311.19" cy="15.47" r="4.19"/><path class="cls-6" d="M268.82,26.58a2.4,2.4,0,0,0-2.5-2.37h-7.8a2.4,2.4,0,0,0-2.5,2.37l-1.41,9.61a2.54,2.54,0,0,0,2.5,2.55h.77l1.92,19.14a1.44,1.44,0,0,0,1.53,1.41h2.18A1.44,1.44,0,0,0,265,57.88L267,38.74h.78a2.54,2.54,0,0,0,2.49-2.55Z" transform="translate(0 0.25)"/><circle class="cls-6" cx="262.42" cy="18.6" r="4.19"/><path class="cls-6" d="M292,26.53a2.4,2.4,0,0,0-2.5-2.38h-7.8a2.39,2.39,0,0,0-2.49,2.38l-1.42,9.61a2.54,2.54,0,0,0,2.5,2.55h.78L283,57.82a1.44,1.44,0,0,0,1.52,1.42h2.19a1.44,1.44,0,0,0,1.52-1.42l1.92-19.13h.78a2.54,2.54,0,0,0,2.49-2.55Z" transform="translate(0 0.25)"/><circle class="cls-6" cx="285.58" cy="18.55" r="4.18"/><text class="cls-8" transform="translate(334.02 41.68)">Mitarbeiter wechseln tempo<tspan class="cls-9" x="138.58" y="0">r</tspan><tspan x="142.44" y="0">är </tspan><tspan x="0" y="13.2">zum Arbeitgeber mit Mehrbeda</tspan><tspan class="cls-10" x="154.19" y="13.2">r</tspan><tspan x="158.31" y="13.2">f</tspan></text><text class="cls-8" transform="translate(334.02 347.67)">Mitarbeiter wechseln wieder zurück <tspan x="0" y="13.2">zu ih</tspan><tspan class="cls-11" x="23.56" y="13.2">r</tspan><tspan x="27.47" y="13.2">em ursprünglichen Arbeitgeber</tspan></text><path class="cls-12" d="M779.25,117.44" transform="translate(0 0.25)"/><path class="cls-12" d="M54.09,117.44" transform="translate(0 0.25)"/></svg>