<?xml version="1.0" encoding="iso-8859-1"?>
<!-- Generator: Adobe Illustrator 24.1.2, SVG Export Plug-In . SVG Version: 6.00 Build 0)  -->
<svg version="1.1" id="Ebene_1" xmlns="http://www.w3.org/2000/svg" xmlns:xlink="http://www.w3.org/1999/xlink" x="0px" y="0px"
	 width="700.01px" height="394.33px" viewBox="0 0 700.01 394.33" style="enable-background:new 0 0 700.01 394.33;"
	 xml:space="preserve">
<path style="fill:#26A6DB;" d="M37.35,182.76c-0.01-1.325-1.092-2.392-2.418-2.382c-0.027,0-0.055,0.001-0.082,0.002h-7.8
	c-1.319-0.055-2.433,0.969-2.488,2.288c-0.001,0.031-0.002,0.061-0.002,0.092l-1.42,9.61c0,1.387,1.113,2.518,2.5,2.54h0.78
	l1.92,19.14c0.015,0.795,0.672,1.427,1.467,1.412c0.018,0,0.035-0.001,0.053-0.002H32c0.794,0.05,1.478-0.553,1.527-1.347
	c0.001-0.021,0.002-0.042,0.003-0.063l1.92-19.14h0.78c1.383-0.027,2.49-1.156,2.49-2.54L37.35,182.76z"/>
<circle style="fill:#26A6DB;" cx="30.95" cy="174.52" r="4.18"/>
<g style="opacity:0.3;">
	<path style="fill:#26A6DB;" d="M60.49,182.76c-0.01-1.325-1.092-2.392-2.418-2.382c-0.027,0-0.055,0.001-0.082,0.002h-7.8
		c-1.325-0.05-2.439,0.984-2.488,2.308c-0.001,0.024-0.001,0.048-0.002,0.072l-1.42,9.61c0,1.387,1.113,2.518,2.5,2.54h0.78
		l1.92,19.14c0.015,0.795,0.672,1.427,1.467,1.412c0.018,0,0.035-0.001,0.053-0.002h2.19c0.794,0.044,1.474-0.563,1.518-1.357
		c0.001-0.017,0.002-0.035,0.002-0.053l1.92-19.14h0.78c1.386-0.022,2.496-1.154,2.49-2.54L60.49,182.76z"/>
	<circle style="fill:#26A6DB;" cx="54.09" cy="174.52" r="4.18"/>
</g>
<g style="opacity:0.3;">
	<path style="fill:#26A6DB;" d="M83.63,182.76c-0.01-1.325-1.092-2.392-2.418-2.382c-0.027,0-0.055,0.001-0.082,0.002h-7.79
		c-1.324-0.055-2.443,0.974-2.498,2.298c-0.001,0.027-0.002,0.055-0.002,0.082l-1.42,9.61c0,1.387,1.113,2.518,2.5,2.54h0.78
		l1.92,19.14c0.015,0.795,0.672,1.427,1.467,1.412c0.018,0,0.035-0.001,0.053-0.002h2.19c0.794,0.044,1.474-0.563,1.518-1.357
		c0.001-0.017,0.002-0.035,0.002-0.053l1.92-19.14h0.78c1.387-0.022,2.5-1.153,2.5-2.54L83.63,182.76z"/>
	<circle style="fill:#26A6DB;" cx="77.23" cy="174.52" r="4.18"/>
</g>
<path style="fill:#26A6DB;" d="M106.77,182.76c-0.01-1.325-1.092-2.392-2.418-2.382c-0.027,0-0.055,0.001-0.082,0.002h-7.79
	c-1.324-0.055-2.443,0.974-2.498,2.298c-0.001,0.027-0.002,0.055-0.002,0.082l-1.41,9.61c-0.006,1.386,1.104,2.518,2.49,2.54h0.78
	l1.92,19.14c0.015,0.795,0.672,1.427,1.467,1.412c0.018,0,0.035-0.001,0.053-0.002h2.19c0.794,0.05,1.478-0.553,1.527-1.347
	c0.001-0.021,0.002-0.042,0.003-0.063l1.92-19.14h0.78c1.387-0.022,2.5-1.153,2.5-2.54L106.77,182.76z"/>
<circle style="fill:#26A6DB;" cx="100.37" cy="174.52" r="4.18"/>
<path style="fill:#26A6DB;" d="M129.91,182.76c-0.004-1.32-1.078-2.386-2.398-2.382c-0.031,0-0.061,0.001-0.092,0.002h-7.8
	c-1.324-0.055-2.443,0.974-2.498,2.298c-0.001,0.027-0.002,0.055-0.002,0.082l-1.41,9.61c0,1.387,1.113,2.518,2.5,2.54H119
	l1.92,19.14c0.015,0.795,0.672,1.428,1.467,1.413c0.021,0,0.042-0.001,0.063-0.003h2.18c0.794,0.044,1.474-0.563,1.518-1.357
	c0.001-0.017,0.002-0.035,0.002-0.053l1.92-19.14h0.78c1.387-0.022,2.5-1.153,2.5-2.54L129.91,182.76z"/>
<circle style="fill:#26A6DB;" cx="123.52" cy="174.52" r="4.18"/>
<g style="opacity:0.3;">
	<path style="fill:#26A6DB;" d="M37.35,130.11c-0.01-1.325-1.092-2.392-2.418-2.382c-0.027,0-0.055,0.001-0.082,0.002h-7.8
		c-1.319-0.055-2.433,0.969-2.488,2.288c-0.001,0.031-0.002,0.061-0.002,0.092l-1.42,9.61c-0.006,1.391,1.109,2.528,2.5,2.55h0.78
		l1.92,19.13c0.01,0.795,0.662,1.432,1.458,1.422c0.021,0,0.042-0.001,0.062-0.002H32c0.8,0.044,1.484-0.568,1.528-1.368
		c0.001-0.017,0.002-0.035,0.002-0.052l1.96-19.15h0.78c1.387-0.027,2.496-1.163,2.49-2.55L37.35,130.11z"/>
	<circle style="fill:#26A6DB;" cx="30.95" cy="121.87" r="4.18"/>
</g>
<path style="fill:#26A6DB;" d="M14.2,130.11c-0.004-1.32-1.078-2.386-2.398-2.382c-0.031,0-0.061,0.001-0.092,0.002h-7.8
	c-1.324-0.055-2.443,0.974-2.498,2.298c-0.001,0.027-0.002,0.055-0.002,0.082L0,139.72c0.005,1.383,1.117,2.508,2.5,2.53h0.77
	L5.2,161.4c0.01,0.795,0.662,1.432,1.458,1.422c0.021,0,0.042-0.001,0.062-0.002H8.9c0.794,0.044,1.474-0.564,1.518-1.358
	c0.001-0.021,0.002-0.042,0.002-0.062l1.93-19.15h0.78c1.387-0.027,2.496-1.163,2.49-2.55L14.2,130.11z"/>
<circle style="fill:#26A6DB;" cx="7.81" cy="121.87" r="4.18"/>
<path style="fill:#26A6DB;" d="M60.49,130.11c-0.01-1.325-1.092-2.392-2.418-2.382c-0.027,0-0.055,0.001-0.082,0.002h-7.8
	c-1.325-0.05-2.439,0.984-2.488,2.308c-0.001,0.024-0.001,0.048-0.002,0.072l-1.42,9.61c-0.006,1.391,1.109,2.528,2.5,2.55h0.78
	l1.92,19.13c0.01,0.795,0.662,1.432,1.458,1.422c0.021,0,0.042-0.001,0.062-0.002h2.19c0.794,0.044,1.474-0.564,1.518-1.358
	c0.001-0.021,0.002-0.042,0.002-0.062l1.92-19.15h0.78c1.387-0.027,2.496-1.163,2.49-2.55L60.49,130.11z"/>
<circle style="fill:#26A6DB;" cx="54.09" cy="121.87" r="4.18"/>
<path style="fill:#26A6DB;" d="M83.63,130.11c-0.01-1.325-1.092-2.392-2.418-2.382c-0.027,0-0.055,0.001-0.082,0.002h-7.79
	c-1.324-0.055-2.443,0.974-2.498,2.298c-0.001,0.027-0.002,0.055-0.002,0.082l-1.42,9.61c-0.006,1.391,1.109,2.528,2.5,2.55h0.78
	l1.92,19.13c0.01,0.795,0.662,1.432,1.458,1.422c0.021,0,0.042-0.001,0.062-0.002h2.19c0.794,0.044,1.474-0.564,1.518-1.358
	c0.001-0.021,0.002-0.042,0.002-0.062l1.92-19.15h0.78c1.391-0.022,2.506-1.159,2.5-2.55L83.63,130.11z"/>
<circle style="fill:#26A6DB;" cx="77.23" cy="121.87" r="4.18"/>
<path style="fill:#26A6DB;" d="M106.77,130.11c-0.01-1.325-1.092-2.392-2.418-2.382c-0.027,0-0.055,0.001-0.082,0.002h-7.79
	c-1.324-0.055-2.443,0.974-2.498,2.298c-0.001,0.027-0.002,0.055-0.002,0.082l-1.41,9.61c0.005,1.38,1.111,2.503,2.49,2.53h0.78
	l1.92,19.13c0.01,0.795,0.662,1.432,1.458,1.422c0.021,0,0.042-0.001,0.062-0.002h2.19c0.794,0.044,1.474-0.564,1.518-1.358
	c0.001-0.021,0.002-0.042,0.002-0.062l1.92-19.13h0.78c1.391-0.022,2.506-1.159,2.5-2.55L106.77,130.11z"/>
<circle style="fill:#26A6DB;" cx="100.37" cy="121.87" r="4.18"/>
<g style="opacity:0.3;">
	<path style="fill:#26A6DB;" d="M129.91,130.11c-0.004-1.32-1.078-2.386-2.398-2.382c-0.031,0-0.061,0.001-0.092,0.002h-7.8
		c-1.324-0.055-2.443,0.974-2.498,2.298c-0.001,0.027-0.002,0.055-0.002,0.082l-1.41,9.61c-0.006,1.391,1.109,2.528,2.5,2.55H119
		l1.92,19.13c0.009,0.795,0.662,1.432,1.457,1.423c0.024,0,0.049-0.001,0.073-0.003h2.18c0.794,0.044,1.474-0.564,1.518-1.358
		c0.001-0.021,0.002-0.042,0.002-0.062l1.9-19.15h0.78c1.391-0.022,2.506-1.159,2.5-2.55L129.91,130.11z"/>
	<circle style="fill:#26A6DB;" cx="123.52" cy="121.87" r="4.18"/>
</g>
<path style="fill:#26A6DB;" d="M153.06,130.11c-0.01-1.325-1.092-2.392-2.418-2.382c-0.027,0-0.055,0.001-0.082,0.002h-7.8
	c-1.324-0.055-2.443,0.974-2.498,2.298c-0.001,0.027-0.002,0.055-0.002,0.082l-1.41,9.61c-0.006,1.391,1.109,2.528,2.5,2.55h0.78
	l1.92,19.13c0.01,0.795,0.662,1.432,1.458,1.422c0.021,0,0.042-0.001,0.062-0.002h2.18c0.8,0.044,1.484-0.568,1.528-1.368
	c0.001-0.017,0.002-0.035,0.002-0.052l1.92-19.15h0.8c1.387-0.027,2.496-1.163,2.49-2.55L153.06,130.11z"/>
<circle style="fill:#26A6DB;" cx="146.66" cy="121.87" r="4.18"/>
<path style="fill:#26A6DB;" d="M48.45,235.41c-0.005-1.32-1.079-2.386-2.399-2.381c-0.017,0-0.034,0-0.051,0.001h-7.8
	c-1.324-0.055-2.443,0.974-2.498,2.298c-0.001,0.027-0.002,0.055-0.002,0.082l-1.41,9.6c-0.006,1.391,1.109,2.528,2.5,2.55h0.77
	l1.92,19.14c0.015,0.795,0.672,1.427,1.468,1.412c0.018,0,0.035-0.001,0.052-0.002h2.18c0.788,0.05,1.467-0.549,1.517-1.337
	c0.002-0.024,0.002-0.049,0.003-0.073l1.92-19.14h0.78c1.391-0.022,2.506-1.159,2.5-2.55L48.45,235.41z"/>
<circle style="fill:#26A6DB;" cx="42.06" cy="227.17" r="4.19"/>
<g style="opacity:0.3;">
	<path style="fill:#26A6DB;" d="M71.6,235.41c-0.01-1.325-1.092-2.392-2.418-2.382c-0.027,0-0.055,0.001-0.082,0.002h-7.8
		c-1.324-0.055-2.443,0.974-2.498,2.298c-0.001,0.027-0.002,0.055-0.002,0.082l-1.41,9.6c-0.006,1.391,1.109,2.528,2.5,2.55h0.77
		l1.93,19.14c0.015,0.795,0.672,1.427,1.467,1.412c0.018,0,0.035-0.001,0.053-0.002h2.18c0.794,0.05,1.478-0.553,1.527-1.347
		c0.001-0.021,0.002-0.042,0.003-0.063l1.91-19.14h0.79c1.383-0.033,2.486-1.166,2.48-2.55L71.6,235.41z"/>
	<circle style="fill:#26A6DB;" cx="65.2" cy="227.17" r="4.19"/>
</g>
<path style="fill:#26A6DB;" d="M94.74,235.41c-0.01-1.325-1.092-2.392-2.418-2.382c-0.027,0-0.055,0.001-0.082,0.002h-7.8
	c-1.32-0.028-2.412,1.02-2.439,2.339c0,0.014,0,0.027-0.001,0.041l-1.42,9.6c-0.006,1.391,1.109,2.528,2.5,2.55h0.78l1.92,19.14
	c0.015,0.795,0.672,1.427,1.467,1.412c0.018,0,0.035-0.001,0.053-0.002h2.18c0.794,0.044,1.474-0.563,1.518-1.357
	C90.999,266.735,91,266.718,91,266.7l1.92-19.14h0.78c1.387-0.027,2.496-1.163,2.49-2.55L94.74,235.41z"/>
<circle style="fill:#26A6DB;" cx="88.34" cy="227.17" r="4.19"/>
<path style="fill:#26A6DB;" d="M117.88,235.41c-0.01-1.325-1.092-2.392-2.418-2.382c-0.027,0-0.055,0.001-0.082,0.002h-7.8
	c-1.325-0.05-2.439,0.984-2.488,2.308c-0.001,0.024-0.001,0.048-0.002,0.072l-1.42,9.6c-0.006,1.391,1.109,2.528,2.5,2.55H107
	l1.92,19.14c0.015,0.795,0.672,1.427,1.467,1.412c0.018,0,0.035-0.001,0.053-0.002h2.18c0.788,0.055,1.471-0.539,1.527-1.326
	c0.002-0.028,0.003-0.056,0.003-0.084l1.85-19.14h0.78c1.387-0.027,2.496-1.163,2.49-2.55L117.88,235.41z"/>
<circle style="fill:#26A6DB;" cx="111.48" cy="227.17" r="4.19"/>
<path style="fill:#26A6DB;" d="M582.88,182.76c-0.004-1.32-1.078-2.386-2.398-2.382c-0.031,0-0.061,0.001-0.092,0.002h-7.8
	c-1.324-0.055-2.443,0.974-2.498,2.298c-0.001,0.027-0.002,0.055-0.002,0.082l-1.41,9.61c0,1.387,1.113,2.518,2.5,2.54H572
	l1.92,19.14c0.015,0.795,0.672,1.428,1.467,1.413c0.021,0,0.042-0.001,0.063-0.003h2.18c0.794,0.044,1.474-0.563,1.518-1.357
	c0.001-0.018,0.002-0.035,0.002-0.053l1.85-19.14h0.78c1.387-0.022,2.5-1.153,2.5-2.54L582.88,182.76z"/>
<circle style="fill:#26A6DB;" cx="576.49" cy="174.52" r="4.18"/>
<path style="fill:#DB2567;" d="M606,182.76c-0.01-1.325-1.092-2.392-2.418-2.382c-0.027,0-0.055,0.001-0.082,0.002h-7.8
	c-1.324-0.055-2.443,0.974-2.498,2.298c-0.001,0.027-0.002,0.055-0.002,0.082l-1.41,9.61c0,1.387,1.113,2.518,2.5,2.54h0.77
	l1.94,19.14c0.015,0.795,0.672,1.427,1.467,1.412c0.018,0,0.035-0.001,0.053-0.002h2.18c0.794,0.05,1.478-0.553,1.527-1.347
	c0.001-0.021,0.002-0.042,0.003-0.063l1.91-19.14H605c1.383-0.027,2.49-1.156,2.49-2.54L606,182.76z"/>
<circle style="fill:#DB2567;" cx="599.63" cy="174.52" r="4.18"/>
<path style="fill:#DB2567;" d="M629.17,182.76c-0.01-1.325-1.092-2.392-2.418-2.382c-0.027,0-0.055,0.001-0.082,0.002h-7.8
	c-1.319-0.055-2.433,0.969-2.488,2.288c-0.001,0.031-0.002,0.061-0.002,0.092l-1.38,9.61c0,1.387,1.113,2.518,2.5,2.54h0.78
	l1.92,19.14c0.015,0.795,0.672,1.427,1.467,1.412c0.018,0,0.035-0.001,0.053-0.002h2.18c0.794,0.05,1.478-0.553,1.527-1.347
	c0.001-0.021,0.002-0.042,0.003-0.063l1.92-19.14h0.78c1.386-0.022,2.496-1.154,2.49-2.54L629.17,182.76z"/>
<circle style="fill:#DB2567;" cx="622.77" cy="174.52" r="4.18"/>
<path style="fill:#DB2567;" d="M652.31,182.76c-0.01-1.325-1.092-2.392-2.418-2.382c-0.027,0-0.055,0.001-0.082,0.002H642
	c-1.325-0.05-2.439,0.984-2.488,2.308c-0.001,0.024-0.001,0.048-0.002,0.072l-1.42,9.61c0,1.387,1.113,2.518,2.5,2.54h0.78
	l1.92,19.14c0.015,0.795,0.672,1.427,1.467,1.412c0.018,0,0.035-0.001,0.053-0.002H647c0.794,0.044,1.474-0.563,1.518-1.357
	c0.001-0.018,0.002-0.035,0.002-0.053l1.92-19.14h0.78c1.386-0.022,2.496-1.154,2.49-2.54L652.31,182.76z"/>
<circle style="fill:#DB2567;" cx="645.91" cy="174.52" r="4.18"/>
<path style="fill:#26A6DB;" d="M675.45,182.76c-0.01-1.325-1.092-2.392-2.418-2.382c-0.027,0-0.055,0.001-0.082,0.002h-7.8
	c-1.325-0.05-2.439,0.984-2.488,2.308c-0.001,0.024-0.001,0.048-0.002,0.072l-1.42,9.61c0,1.387,1.113,2.518,2.5,2.54h0.78
	l1.92,19.14c0.015,0.795,0.672,1.427,1.467,1.412c0.018,0,0.035-0.001,0.053-0.002h2.19c0.794,0.044,1.474-0.563,1.518-1.357
	c0.001-0.018,0.002-0.035,0.002-0.053l1.92-19.14h0.78c1.387-0.022,2.5-1.153,2.5-2.54L675.45,182.76z"/>
<circle style="fill:#26A6DB;" cx="669.05" cy="174.52" r="4.18"/>
<path style="fill:#DB2567;" d="M582.88,130.11c-0.004-1.32-1.078-2.386-2.398-2.382c-0.031,0-0.061,0.001-0.092,0.002h-7.8
	c-1.324-0.055-2.443,0.974-2.498,2.298c-0.001,0.027-0.002,0.055-0.002,0.082l-1.41,9.61c-0.006,1.391,1.109,2.528,2.5,2.55H572
	l1.92,19.13c0.015,0.801,0.677,1.437,1.478,1.422c0.018,0,0.035-0.001,0.052-0.002h2.18c0.794,0.044,1.474-0.564,1.518-1.358
	c0.001-0.021,0.002-0.042,0.002-0.062l1.85-19.15h0.78c1.391-0.022,2.506-1.159,2.5-2.55L582.88,130.11z"/>
<circle style="fill:#DB2567;" cx="576.49" cy="121.87" r="4.18"/>
<path style="fill:#DB2567;" d="M559.74,130.11c-0.004-1.32-1.078-2.386-2.398-2.382c-0.031,0-0.061,0.001-0.092,0.002h-7.8
	c-1.324-0.055-2.443,0.974-2.498,2.298c-0.001,0.027-0.002,0.055-0.002,0.082l-1.41,9.61c0.005,1.368,1.092,2.487,2.46,2.53h0.78
	l1.92,19.13c0.01,0.795,0.662,1.432,1.458,1.422c0.021,0,0.042-0.001,0.062-0.002h2.19c0.794,0.044,1.474-0.564,1.518-1.358
	c0.001-0.021,0.002-0.042,0.002-0.062l1.95-19.13h0.78c1.391-0.022,2.506-1.159,2.5-2.55L559.74,130.11z"/>
<circle style="fill:#DB2567;" cx="553.35" cy="121.87" r="4.18"/>
<path style="fill:#26A6DB;" d="M606,130.11c-0.01-1.325-1.092-2.392-2.418-2.382c-0.027,0-0.055,0.001-0.082,0.002h-7.8
	c-1.324-0.055-2.443,0.974-2.498,2.298c-0.001,0.027-0.002,0.055-0.002,0.082l-1.41,9.61c-0.006,1.391,1.109,2.528,2.5,2.55h0.77
	L597,161.4c0.01,0.795,0.662,1.432,1.458,1.422c0.021,0,0.042-0.001,0.062-0.002h2.18c0.8,0.044,1.484-0.568,1.528-1.367
	c0.001-0.018,0.002-0.035,0.002-0.053l1.93-19.15H605c1.387-0.027,2.496-1.163,2.49-2.55L606,130.11z"/>
<circle style="fill:#26A6DB;" cx="599.63" cy="121.87" r="4.18"/>
<path style="fill:#DB2567;" d="M629.17,130.11c-0.01-1.325-1.092-2.392-2.418-2.382c-0.027,0-0.055,0.001-0.082,0.002h-7.8
	c-1.319-0.055-2.433,0.969-2.488,2.288c-0.001,0.031-0.002,0.061-0.002,0.092l-1.38,9.61c-0.006,1.391,1.109,2.528,2.5,2.55h0.78
	l1.92,19.13c0.01,0.795,0.662,1.432,1.458,1.422c0.021,0,0.042-0.001,0.062-0.002h2.18c0.8,0.044,1.484-0.568,1.528-1.367
	c0.001-0.018,0.002-0.035,0.002-0.053l1.88-19.15h0.78c1.387-0.027,2.496-1.163,2.49-2.55L629.17,130.11z"/>
<circle style="fill:#DB2567;" cx="622.77" cy="121.87" r="4.18"/>
<path style="fill:#26A6DB;" d="M652.31,130.11c-0.01-1.325-1.092-2.392-2.418-2.382c-0.027,0-0.055,0.001-0.082,0.002H642
	c-1.325-0.05-2.439,0.984-2.488,2.308c-0.001,0.024-0.001,0.048-0.002,0.072l-1.42,9.61c-0.006,1.391,1.109,2.528,2.5,2.55h0.78
	l1.92,19.13c0.01,0.795,0.662,1.432,1.458,1.422c0.021,0,0.042-0.001,0.062-0.002H647c0.794,0.044,1.474-0.564,1.518-1.358
	c0.001-0.021,0.002-0.042,0.002-0.062l1.93-19.15h0.78c1.387-0.027,2.496-1.163,2.49-2.55L652.31,130.11z"/>
<circle style="fill:#26A6DB;" cx="645.91" cy="121.87" r="4.18"/>
<path style="fill:#DB2567;" d="M675.45,130.11c-0.01-1.325-1.092-2.392-2.418-2.382c-0.027,0-0.055,0.001-0.082,0.002h-7.8
	c-1.325-0.05-2.439,0.984-2.488,2.308c-0.001,0.024-0.001,0.048-0.002,0.072l-1.42,9.61c-0.006,1.391,1.109,2.528,2.5,2.55h0.78
	l1.92,19.13c0.01,0.795,0.662,1.432,1.458,1.422c0.021,0,0.042-0.001,0.062-0.002h2.19c0.794,0.044,1.474-0.564,1.518-1.358
	c0.001-0.021,0.002-0.042,0.002-0.062l1.92-19.15h0.78c1.391-0.022,2.506-1.159,2.5-2.55L675.45,130.11z"/>
<circle style="fill:#DB2567;" cx="669.05" cy="121.87" r="4.18"/>
<path style="fill:#DB2567;" d="M698.59,130.11c-0.004-1.32-1.078-2.386-2.398-2.382c-0.031,0-0.061,0.001-0.092,0.002h-7.8
	c-1.324-0.055-2.443,0.974-2.498,2.298c-0.001,0.027-0.002,0.055-0.002,0.082l-1.41,9.61c-0.006,1.391,1.109,2.528,2.5,2.55h0.77
	l1.92,19.13c0.009,0.795,0.662,1.432,1.457,1.423c0.024,0,0.049-0.001,0.073-0.003h2.18c0.794,0.044,1.474-0.564,1.518-1.358
	c0.001-0.021,0.002-0.042,0.002-0.062l1.92-19.15h0.78c1.391-0.022,2.506-1.159,2.5-2.55L698.59,130.11z"/>
<circle style="fill:#DB2567;" cx="692.2" cy="121.87" r="4.18"/>
<path style="fill:#DB2567;" d="M594,235.41c-0.01-1.325-1.092-2.392-2.418-2.382c-0.027,0-0.055,0.001-0.082,0.002h-7.8
	c-1.324-0.055-2.443,0.974-2.498,2.298c-0.001,0.027-0.002,0.055-0.002,0.082l-1.41,9.6c-0.006,1.387,1.103,2.523,2.49,2.55h0.78
	L585,266.7c0.015,0.795,0.672,1.427,1.467,1.412c0.018,0,0.035-0.001,0.053-0.002h2.19c0.788,0.05,1.468-0.549,1.517-1.337
	c0.002-0.024,0.002-0.049,0.003-0.073l1.92-19.14h0.78c1.391-0.022,2.506-1.159,2.5-2.55L594,235.41z"/>
<circle style="fill:#DB2567;" cx="587.6" cy="227.17" r="4.19"/>
<path style="fill:#DB2567;" d="M617.13,235.41c-0.004-1.32-1.078-2.386-2.398-2.382c-0.031,0-0.061,0.001-0.092,0.002h-7.8
	c-1.324-0.055-2.443,0.974-2.498,2.298c-0.001,0.027-0.002,0.055-0.002,0.082l-1.41,9.6c-0.006,1.387,1.103,2.523,2.49,2.55h0.78
	l1.92,19.14c0.015,0.795,0.672,1.427,1.467,1.412c0.018,0,0.035-0.001,0.053-0.002h2.19c0.788,0.05,1.468-0.549,1.517-1.337
	c0.002-0.024,0.002-0.049,0.003-0.073l1.92-19.14h0.78c1.391-0.022,2.506-1.159,2.5-2.55L617.13,235.41z"/>
<circle style="fill:#DB2567;" cx="610.74" cy="227.17" r="4.19"/>
<path style="fill:#26A6DB;" d="M640.27,235.41c-0.004-1.32-1.078-2.386-2.398-2.382c-0.031,0-0.061,0.001-0.092,0.002H630
	c-1.324-0.055-2.443,0.974-2.498,2.298c-0.001,0.027-0.002,0.055-0.002,0.082l-1.41,9.6c-0.006,1.391,1.109,2.528,2.5,2.55h0.77
	l1.92,19.14c0.015,0.795,0.672,1.428,1.467,1.413c0.021,0,0.042-0.001,0.063-0.003H635c0.788,0.05,1.468-0.549,1.517-1.337
	c0.002-0.024,0.002-0.049,0.003-0.073l1.92-19.14h0.78c1.391-0.022,2.506-1.159,2.5-2.55L640.27,235.41z"/>
<circle style="fill:#26A6DB;" cx="633.88" cy="227.17" r="4.19"/>
<path style="fill:#26A6DB;" d="M663.42,235.41c-0.01-1.325-1.092-2.392-2.418-2.382c-0.027,0-0.055,0.001-0.082,0.002h-7.8
	c-1.324-0.055-2.443,0.974-2.498,2.298c-0.001,0.027-0.002,0.055-0.002,0.082l-1.41,9.6c-0.006,1.391,1.109,2.528,2.5,2.55h0.77
	l1.92,19.14c0.015,0.795,0.672,1.428,1.467,1.413c0.021,0,0.042-0.001,0.063-0.003h2.18c0.794,0.05,1.478-0.553,1.527-1.347
	c0.001-0.021,0.002-0.042,0.003-0.063l1.91-19.14h0.78c1.391-0.022,2.506-1.159,2.5-2.55L663.42,235.41z"/>
<circle style="fill:#26A6DB;" cx="657.02" cy="227.17" r="4.19"/>
<path style="fill:none;stroke:#26A6DB;stroke-miterlimit:10;" d="M76,110.67"/>
<path style="fill:#26A6DB;" d="M76,100.54c-0.663,0-1.2-0.537-1.2-1.2v-28.5c0-1.707,1.383-3.09,3.09-3.09h539.43
	c1.701,0,3.08,1.379,3.08,3.08c0,0.003,0,0.007,0,0.01v25.89c0,0.663-0.537,1.2-1.2,1.2s-1.2-0.537-1.2-1.2V72.04
	c0-1.038-0.842-1.88-1.88-1.88l0,0H79.06c-1.038,0-1.88,0.842-1.88,1.88v27.3C77.175,99.993,76.653,100.524,76,100.54z"/>
<path style="fill:#26A6DB;" d="M610.25,87.95L610.25,87.95c0.476-0.453,1.229-0.435,1.682,0.041
	c0.006,0.006,0.012,0.013,0.018,0.019l6.37,6.85c0.451,0.486,1.21,0.515,1.696,0.064c0.022-0.021,0.044-0.042,0.064-0.064l6.37-6.85
	c0.443-0.486,1.195-0.52,1.681-0.078c0.006,0.006,0.013,0.012,0.019,0.018l0,0c0.483,0.438,0.519,1.184,0.082,1.667
	c-0.007,0.008-0.014,0.016-0.022,0.023l-8.13,8.75c-0.451,0.486-1.21,0.515-1.696,0.064c-0.022-0.021-0.044-0.042-0.064-0.064
	l-8.13-8.75c-0.45-0.479-0.427-1.232,0.052-1.682C610.244,87.955,610.247,87.953,610.25,87.95z"/>
<path style="fill:#26A6DB;" d="M618,327.55H77.18c-1.327,0-2.404-1.073-2.41-2.4v-26.58c0.061-0.665,0.649-1.156,1.315-1.095
	c0.581,0.053,1.042,0.514,1.095,1.095v25.37c-0.006,0.663,0.527,1.204,1.19,1.21c0.003,0,0.007,0,0.01,0h537.93
	c0.933,0,1.69-0.757,1.69-1.69l0,0v-27.5c0-0.663,0.537-1.2,1.2-1.2s1.2,0.537,1.2,1.2v29.19
	C620.4,326.475,619.326,327.55,618,327.55L618,327.55z"/>
<path style="fill:#26A6DB;" d="M84.93,307.36L84.93,307.36c-0.487,0.449-1.245,0.422-1.7-0.06l-6.37-6.86
	c-0.451-0.486-1.21-0.515-1.696-0.064c-0.022,0.021-0.044,0.042-0.064,0.064l-6.38,6.86c-0.455,0.482-1.213,0.509-1.7,0.06l0,0
	c-0.482-0.455-0.509-1.213-0.06-1.7l8.14-8.75c0.451-0.486,1.21-0.515,1.696-0.064c0.022,0.021,0.044,0.042,0.064,0.064l8.14,8.75
	C85.446,306.15,85.415,306.908,84.93,307.36z"/>
<path style="fill:#DB2567;" d="M474.06,277.87h2c1.175-0.046,2.165,0.87,2.211,2.045c0.003,0.065,0.002,0.13-0.001,0.195v1.9
	c0.088,1.151-0.773,2.156-1.924,2.244c-0.055,0.004-0.111,0.006-0.166,0.006c-1.43,0.05-2.86,0-4.28,0
	c-1.154,0.014-2.101-0.911-2.115-2.065c-0.001-0.055,0.001-0.11,0.005-0.165v-2c-0.039-1.176,0.882-2.161,2.058-2.2
	c0.044-0.001,0.088-0.002,0.132,0L474.06,277.87z"/>
<path style="fill:#DB2567;" d="M484.64,277.87h2c1.175-0.057,2.173,0.85,2.23,2.025c0.003,0.068,0.003,0.137,0,0.205v1.91
	c0.088,1.151-0.773,2.156-1.924,2.244c-0.055,0.004-0.111,0.006-0.166,0.006c-1.433,0.053-2.863,0.053-4.29,0
	c-1.154,0.009-2.097-0.92-2.106-2.074c0-0.059,0.002-0.118,0.006-0.176v-2c-0.033-1.17,0.889-2.146,2.059-2.179
	c0.02-0.001,0.041-0.001,0.061-0.001C483.22,277.86,483.93,277.88,484.64,277.87z"/>
<path style="opacity:0.3;fill:#DB2567;enable-background:new    ;" d="M495.24,277.87c0.69,0,1.37,0,2.06,0
	c1.176-0.029,2.153,0.901,2.181,2.077c0.001,0.048,0.001,0.095-0.001,0.143v2.06c0.007,1.017-0.75,1.878-1.76,2
	c-1.65,0.08-3.31,0.08-5,0c-1.01-0.122-1.767-0.983-1.76-2v-2.1c-0.022-1.176,0.913-2.148,2.09-2.17c0.01,0,0.02,0,0.03,0
	C493.83,277.86,494.53,277.88,495.24,277.87z"/>
<path style="fill:#DB2567;" d="M470.33,242.6c0,1.12,0,2.14,0,3.16c-0.134,2.631,1.891,4.872,4.522,5.006s4.872-1.891,5.006-4.522
	c0.007-0.145,0.008-0.289,0.002-0.434c0-1,0-2.08,0-3.17h5.3c0,1.07,0,2.13,0,3.18c0,2.634,2.136,4.77,4.77,4.77
	c2.634,0,4.77-2.136,4.77-4.77c0-1,0-2.08,0-3.16h5.3c0,1,0,2.08,0,3.11c-0.036,1.563,0.715,3.039,2,3.93
	c1.414,1.052,3.31,1.189,4.86,0.35c1.623-0.775,2.65-2.421,2.63-4.22c0-1,0-2.09,0-3.18c1,0,2.06-0.08,3.07,0
	c3.007,0.169,5.473,2.446,5.88,5.43c0.03,0.353,0.03,0.707,0,1.06c0,12.34,0,24.69,0,37c0.05,3.584-2.815,6.53-6.399,6.58
	c-0.047,0.001-0.094,0.001-0.141,0H468c-2.581,0.133-4.983-1.315-6.07-3.66c-0.42-0.858-0.629-1.805-0.61-2.76
	c0-12.37,0-24.73,0-37.1c-0.077-3.583,2.765-6.551,6.348-6.628c0.047-0.001,0.094-0.002,0.142-0.002L470.33,242.6z M489.91,288.47
	c7.35,0,14.7,0,22,0c1.246,0.068,2.312-0.887,2.38-2.134c0.004-0.079,0.004-0.158,0-0.236c0-9.473,0-18.94,0-28.4
	c0.057-1.247-0.907-2.304-2.154-2.361c-0.075-0.003-0.151-0.003-0.226,0.001c-14.667,0-29.333,0-44,0
	c-1.256-0.085-2.344,0.864-2.429,2.12c-0.007,0.1-0.007,0.2-0.001,0.3c0,9.427,0,18.857,0,28.29
	c-0.074,1.263,0.889,2.346,2.151,2.421c0.093,0.005,0.186,0.005,0.279-0.001C475.29,288.45,482.6,288.47,489.91,288.47
	L489.91,288.47z"/>
<path style="fill:#DB2567;" d="M501.6,242.61c0-1.08,0-2.15,0-3.23c0.098-1.754,1.6-3.095,3.353-2.997
	c1.616,0.091,2.906,1.381,2.997,2.997c0,2.167,0,4.337,0,6.51c-0.098,1.754-1.6,3.095-3.353,2.997
	c-1.616-0.091-2.906-1.381-2.997-2.997C501.59,244.79,501.6,243.7,501.6,242.61z"/>
<path style="fill:#DB2567;" d="M493.12,242.66c0,1.08,0,2.15,0,3.23c-0.004,1.756-1.431,3.177-3.187,3.173
	c-1.751-0.004-3.169-1.422-3.173-3.173c0-2.17,0-4.34,0-6.51c0.004-1.756,1.431-3.177,3.187-3.173
	c1.751,0.004,3.169,1.422,3.173,3.173V242.66z"/>
<path style="fill:#DB2567;" d="M471.92,242.63v-3.24c0.004-1.756,1.431-3.177,3.187-3.173c1.751,0.004,3.169,1.422,3.173,3.173
	c0,2.17,0,4.35,0,6.52c-0.004,1.756-1.431,3.177-3.187,3.173c-1.751-0.004-3.169-1.422-3.173-3.173V242.63z"/>
<path style="fill:#DB2567;" d="M495.2,265.97c-0.69,0-1.37,0-2.06,0c-1.176,0.006-2.135-0.942-2.141-2.118
	c0-0.031,0-0.061,0.001-0.092v-2c-0.077-1.152,0.793-2.148,1.945-2.225c0.055-0.004,0.11-0.005,0.165-0.005c1.43,0,2.86,0,4.28,0
	c1.154-0.003,2.093,0.93,2.096,2.084c0,0.055-0.002,0.111-0.006,0.166v1.9c0.056,1.181-0.855,2.183-2.036,2.239
	c-0.061,0.003-0.123,0.003-0.184,0.001L495.2,265.97z"/>
<path style="opacity:0.3;fill:#DB2567;enable-background:new    ;" d="M484.64,265.97h-2c-1.179,0.08-2.2-0.811-2.28-1.99
	c-0.007-0.096-0.007-0.193,0-0.29v-1.85c-0.094-1.156,0.767-2.169,1.923-2.263c0.069-0.006,0.138-0.008,0.207-0.007
	c1.4,0,2.82,0,4.23,0c1.16-0.013,2.11,0.917,2.123,2.076c0.001,0.048-0.001,0.096-0.003,0.144v2
	c0.044,1.181-0.877,2.174-2.058,2.219c-0.041,0.002-0.081,0.002-0.122,0.001L484.64,265.97z"/>
<path style="fill:#DB2567;" d="M505.81,265.97h-2c-1.176,0.041-2.162-0.88-2.202-2.055c-0.002-0.065-0.001-0.13,0.002-0.195v-1.9
	c-0.094-1.139,0.753-2.139,1.893-2.233c0.066-0.005,0.131-0.008,0.197-0.007c1.433-0.047,2.863-0.047,4.29,0
	c1.154-0.008,2.097,0.921,2.105,2.075c0,0.052-0.001,0.103-0.005,0.155v2c0.033,1.181-0.898,2.166-2.079,2.199
	c-0.024,0.001-0.047,0.001-0.071,0.001C507.22,265.99,506.52,265.97,505.81,265.97z"/>
<path style="fill:#DB2567;" d="M495.22,275.1h-2.12c-1.149,0.011-2.089-0.911-2.1-2.06c0-0.017,0-0.034,0-0.05c0-0.73,0-1.45,0-2.17
	c0-1.143,0.927-2.07,2.07-2.07c0.007,0,0.013,0,0.02,0h4.29c1.143-0.017,2.083,0.896,2.1,2.039c0,0.024,0,0.047,0,0.071
	c0,0.72,0,1.45,0,2.17c-0.005,1.149-0.941,2.076-2.09,2.07c0,0,0,0,0,0H495.22z"/>
<path style="fill:#DB2567;" d="M474,268.75h2.17c1.116-0.001,2.032,0.884,2.07,2c0,0.76,0,1.51,0,2.27
	c-0.043,1.114-0.956,1.995-2.07,2h-4.34c-1.115,0-2.028-0.886-2.06-2c0-0.76,0-1.52,0-2.28c0.027-1.117,0.943-2.006,2.06-2
	L474,268.75z"/>
<path style="fill:#DB2567;" d="M484.59,275.1h-2.11c-1.149,0-2.08-0.931-2.08-2.08c0-0.003,0-0.007,0-0.01c0-0.74,0-1.48,0-2.22
	c0.038-1.112,0.947-1.995,2.06-2h4.34c1.143-0.006,2.074,0.917,2.08,2.06c0,0.007,0,0.013,0,0.02c0,0.72,0,1.45,0,2.17
	c0.006,1.154-0.926,2.095-2.08,2.1c-0.013,0-0.027,0-0.04,0L484.59,275.1z"/>
<path style="fill:#DB2567;" d="M505.84,275.1h-2.12c-1.149,0.022-2.098-0.891-2.12-2.04c0-0.017,0-0.034,0-0.05
	c0-0.72,0-1.45,0-2.17c-0.011-1.143,0.906-2.079,2.049-2.091c0.024,0,0.047,0,0.071,0.001H508c1.143-0.034,2.096,0.865,2.13,2.008
	c0.001,0.044,0.001,0.088,0,0.132v2.06c0.034,1.154-0.873,2.117-2.027,2.151c-0.051,0.001-0.102,0.001-0.153-0.001H505.84z"/>
<path style="fill:#26A6DB;stroke:#FFFFFF;stroke-width:0.5;" d="M302.11,347.25c-0.01-1.325-1.092-2.392-2.418-2.382
	c-0.027,0-0.055,0.001-0.082,0.002h-7.8c-1.325-0.05-2.439,0.984-2.488,2.308c-0.001,0.024-0.001,0.048-0.002,0.072l-1.42,9.6
	c-0.006,1.391,1.109,2.528,2.5,2.55h0.78l1.92,19.14c0.015,0.795,0.672,1.427,1.467,1.412c0.017,0,0.035-0.001,0.052-0.002h2.19
	c0.794,0.044,1.474-0.563,1.518-1.358c0.001-0.017,0.002-0.035,0.002-0.052l1.92-19.14H301c1.387-0.027,2.496-1.163,2.49-2.55
	L302.11,347.25z"/>
<circle style="fill:#26A6DB;stroke:#FFFFFF;stroke-width:0.5;" cx="295.71" cy="338.97" r="4.18"/>
<path style="fill:#26A6DB;stroke:#FFFFFF;stroke-width:0.5;" d="M282.91,349.31c-0.01-1.325-1.092-2.392-2.418-2.382
	c-0.027,0-0.055,0.001-0.082,0.002h-7.8c-1.319-0.055-2.433,0.969-2.488,2.288c-0.001,0.031-0.002,0.061-0.002,0.092l-1.42,9.6
	c-0.006,1.391,1.109,2.528,2.5,2.55h0.8l1.92,19.14c0.009,0.79,0.657,1.422,1.447,1.413c0.024,0,0.049-0.001,0.073-0.003h2.19
	c0.794,0.044,1.474-0.563,1.518-1.358c0.001-0.017,0.002-0.035,0.002-0.052l1.92-19.14h0.78c1.387-0.027,2.496-1.163,2.49-2.55
	L282.91,349.31z"/>
<circle style="fill:#26A6DB;stroke:#FFFFFF;stroke-width:0.5;" cx="276.51" cy="341.07" r="4.19"/>
<path style="fill:#26A6DB;stroke:#FFFFFF;stroke-width:0.5;" d="M317.37,358.25c-0.01-1.325-1.092-2.392-2.418-2.382
	c-0.027,0-0.055,0.001-0.082,0.002h-7.79c-1.324-0.055-2.443,0.974-2.498,2.298c-0.001,0.027-0.002,0.055-0.002,0.082l-1.41,9.6
	c-0.006,1.387,1.103,2.523,2.49,2.55h0.78l1.92,19.14c0.009,0.79,0.657,1.422,1.447,1.413c0.024,0,0.049-0.001,0.073-0.003h2.19
	c0.788,0.05,1.467-0.549,1.517-1.337c0.002-0.024,0.002-0.049,0.003-0.073l1.92-19.14h0.78c1.391-0.022,2.506-1.159,2.5-2.55
	L317.37,358.25z"/>
<circle style="fill:#26A6DB;stroke:#FFFFFF;stroke-width:0.5;" cx="310.98" cy="350" r="4.19"/>
<path style="fill:#26A6DB;stroke:#FFFFFF;stroke-width:0.5;" d="M268.6,361.37c-0.01-1.325-1.092-2.392-2.418-2.382
	c-0.027,0-0.055,0.001-0.082,0.002h-7.79c-1.324-0.055-2.443,0.974-2.498,2.298c-0.001,0.027-0.002,0.055-0.002,0.082l-1.42,9.61
	c0,1.389,1.111,2.523,2.5,2.55h0.78l1.92,19.13c0.01,0.795,0.662,1.432,1.458,1.422c0.021,0,0.042-0.001,0.062-0.002h2.19
	c0.794,0.044,1.474-0.564,1.518-1.358c0.001-0.021,0.002-0.042,0.002-0.062l1.92-19.13h0.78c1.389-0.027,2.5-1.161,2.5-2.55
	L268.6,361.37z"/>
<circle style="fill:#26A6DB;stroke:#FFFFFF;stroke-width:0.5;" cx="262.2" cy="353.13" r="4.19"/>
<path style="fill:#26A6DB;stroke:#FFFFFF;stroke-width:0.5;" d="M291.76,361.32c-0.01-1.325-1.092-2.392-2.418-2.382
	c-0.027,0-0.055,0.001-0.082,0.002h-7.79c-1.324-0.055-2.443,0.974-2.498,2.298c-0.001,0.027-0.002,0.055-0.002,0.082l-1.41,9.6
	c-0.006,1.387,1.103,2.523,2.49,2.55h0.78l1.92,19.14c0.015,0.795,0.672,1.427,1.467,1.412c0.017,0,0.035-0.001,0.052-0.002h2.19
	c0.794,0.044,1.474-0.563,1.518-1.358c0.001-0.017,0.002-0.035,0.002-0.052l1.92-19.14h0.78c1.391-0.022,2.506-1.159,2.5-2.55
	L291.76,361.32z"/>
<circle style="fill:#26A6DB;stroke:#FFFFFF;stroke-width:0.5;" cx="285.36" cy="353.08" r="4.18"/>
<path style="fill:#DB2567;" d="M460.82,131.12v82.58c0,1.259,1.021,2.28,2.28,2.28h16.23c1.303,0,2.36-1.057,2.36-2.36v-17.05
	c0-1.027,0.833-1.86,1.86-1.86h10.84c1.029,0,1.865,0.831,1.87,1.86v17.05c0,1.303,1.057,2.36,2.36,2.36h18.21
	c1.261,0,2.284-1.019,2.29-2.28v-82.58c-0.005-1.262-1.028-2.285-2.29-2.29H463.1C461.839,128.836,460.82,129.859,460.82,131.12z
	 M501.33,182.93h8.05v7.81h-8.05V182.93z M501.33,167.93h8.05v7.81h-8.05V167.93z M501.33,152.93h8.05v7.82h-8.05V152.93z
	 M501.33,137.93h8.05v7.81h-8.05V137.93z M485,182.93h8v7.81h-8V182.93z M485,167.93h8v7.81h-8V167.93z M485,152.93h8v7.82h-8
	V152.93z M485,137.93h8v7.81h-8V137.93z M468.77,183.01h8.05v7.81h-8.05V183.01z M468.77,168.01h8.05v7.81h-8.05V168.01z
	 M468.77,153.01h8.05v7.82h-8.05V153.01z M468.77,138.01h8.05v7.81h-8.05V138.01z"/>
<path style="fill:#DB2567;" d="M482.96,128.87h-4.52l0,0v-9.51c0-0.895,0.725-1.62,1.62-1.62h1.23c0.895,0,1.62,0.725,1.62,1.62
	v9.51L482.96,128.87z"/>
<path style="fill:#DB2567;" d="M433.3,221.05c-1.834,0.008-3.327-1.472-3.335-3.305c-0.001-0.166,0.011-0.331,0.035-0.495l2.9-19.69
	c0.025-3.242,2.673-5.85,5.915-5.825c0.065,0.001,0.13,0.002,0.195,0.005h19.06c3.239-0.133,5.973,2.386,6.105,5.625
	c0.003,0.065,0.004,0.13,0.005,0.195l2.9,19.69c0.265,1.814-0.991,3.5-2.805,3.765c-0.161,0.023-0.323,0.035-0.485,0.035H433.3z"/>
<circle style="fill:#DB2567;" cx="448.55" cy="177.42" r="10.23"/>
<path style="fill:#FFFFFF;" d="M444.35,207.25l2.47-9.11c0.085-0.28,0.085-0.58,0-0.86l-1.8-5.51h7.1l-1.82,5.48
	c-0.085,0.28-0.085,0.58,0,0.86l2.48,9.11l0,0l-3.33,4.14c-0.392,0.486-1.103,0.563-1.589,0.171
	c-0.063-0.051-0.12-0.108-0.171-0.171"/>
<path style="fill:#26A6DB;" d="M240.41,128.83h-53.73c-1.265,0-2.29,1.025-2.29,2.29v82.58c0,1.259,1.021,2.28,2.28,2.28
	c0.003,0,0.007,0,0.01,0h18.21c1.303,0,2.36-1.057,2.36-2.36l0,0v-17.05c0-1.027,0.833-1.86,1.86-1.86c0.003,0,0.007,0,0.01,0H220
	c1.027,0,1.86,0.833,1.86,1.86l0,0v17.05c0,1.303,1.057,2.36,2.36,2.36l0,0h16.23c1.259,0,2.28-1.021,2.28-2.28v-82.58
	c0-1.265-1.025-2.29-2.29-2.29C240.43,128.83,240.42,128.83,240.41,128.83z M202.18,190.74h-8.05v-7.81h8.05V190.74z M202.18,175.74
	h-8.05v-7.81h8.05V175.74z M202.18,160.74h-8.05v-7.82h8.05V160.74z M202.18,145.74h-8.05v-7.89h8.05V145.74z M218.53,190.82h-8.05
	v-7.81h8.05V190.82z M218.53,175.82h-8.05v-7.81h8.05V175.82z M218.53,160.82h-8.05V153h8.05V160.82z M218.53,145.82h-8.05v-7.97
	h8.05V145.82z M234.76,190.9h-8.06v-7.81h8.06L234.76,190.9z M234.76,175.9h-8.06v-7.81h8.06L234.76,175.9z M234.76,160.9h-8.06
	v-7.82h8.06L234.76,160.9z M234.76,145.9h-8.06v-8.05h8.06L234.76,145.9z"/>
<path style="fill:#26A6DB;" d="M222.17,117.74h1.23c0.895,0,1.62,0.725,1.62,1.62v9.51l0,0h-4.48l0,0v-9.51
	c0-0.895,0.725-1.62,1.62-1.62C222.163,117.74,222.167,117.74,222.17,117.74z"/>
<path style="fill:#26A6DB;" d="M270.21,221.05c1.834,0.003,3.322-1.482,3.325-3.315c0-0.162-0.011-0.324-0.035-0.485l-2.9-19.69
	c-0.025-3.242-2.673-5.85-5.915-5.825c-0.065,0.001-0.13,0.002-0.195,0.005h-19.06c-3.239-0.133-5.973,2.386-6.105,5.625
	c-0.003,0.065-0.004,0.13-0.005,0.195l-2.9,19.69c-0.265,1.814,0.991,3.5,2.805,3.765c0.161,0.023,0.323,0.035,0.485,0.035H270.21z"
	/>
<circle style="fill:#26A6DB;" cx="254.96" cy="177.42" r="10.23"/>
<path style="fill:#FFFFFF;" d="M259.16,207.25l-2.47-9.11c-0.085-0.28-0.085-0.58,0-0.86l1.79-5.51h-7.09l1.8,5.51
	c0.085,0.28,0.085,0.58,0,0.86l-2.44,9.11l0,0l3.33,4.14c0.391,0.486,1.103,0.563,1.589,0.171c0.063-0.051,0.12-0.108,0.171-0.171"
	/>
<path style="fill:#DB2567;" d="M405.54,167.25c-5.523,0-10,4.477-10,10s4.477,10,10,10s10-4.477,10-10S411.063,167.25,405.54,167.25
	z M405.54,182.86c-3.12,0-5.65-2.53-5.65-5.65c0-3.12,2.53-5.65,5.65-5.65c3.12,0,5.65,2.53,5.65,5.65v0
	c0.022,3.12-2.49,5.668-5.61,5.69c-0.013,0-0.027,0-0.04,0V182.86z"/>
<path style="fill:#26A6DB;" d="M313.17,167.25c-5.523,0-10,4.477-10,10s4.477,10,10,10s10-4.477,10-10S318.693,167.25,313.17,167.25
	z M313.17,182.86c-3.12,0-5.65-2.53-5.65-5.65c0-3.12,2.53-5.65,5.65-5.65c3.12,0,5.65,2.53,5.65,5.65v0
	c0.022,3.12-2.49,5.668-5.61,5.69c-0.013,0-0.027,0-0.04,0V182.86z"/>
<path style="fill:#26A6DB;" d="M286.81,184.25l2.72-3c0.836,1.166,2.148,1.9,3.58,2c1.63,0,2.64-1,2.64-3.25v-12.75h4.43v12.83
	c0.12,1.925-0.548,3.817-1.85,5.24c-1.389,1.269-3.231,1.925-5.11,1.82C290.752,187.218,288.386,186.151,286.81,184.25z"/>
<path style="fill:#DB2567;" d="M372.38,167.25h4.72l5.24,8.42l5.24-8.42h4.73v20H388v-13l-5.61,8.52h-0.11l-5.6-8.52v13h-4.3V167.25
	z"/>
<path style="fill:#26A6DB;" d="M346.08,187.25h-4.72l-5.24-8.42l-5.24,8.42h-4.73v-20h4.36v13l5.61-8.52h0.11l5.55,8.43v-12.91h4.3
	L346.08,187.25z"/>
<path style="fill:#26A6DB;" d="M354.07,179.56c-1.28-2.846-0.01-6.19,2.836-7.47c1.474-0.663,3.16-0.663,4.634,0l3.17-3.17
	c-4.655-2.972-10.838-1.608-13.81,3.047c-2.095,3.282-2.095,7.481,0,10.763L354.07,179.56z"/>
<path style="fill:#DB2567;" d="M364.5,175.25c1.118,2.919-0.342,6.192-3.261,7.31c-1.303,0.499-2.745,0.499-4.049,0l-3.2,3.2
	c4.744,2.828,10.882,1.275,13.71-3.469c1.88-3.155,1.88-7.086,0-10.241L364.5,175.25z"/>
<path style="fill:#26A6DB;stroke:#FFFFFF;stroke-width:0.5;" d="M302.32,12.67c0.018-1.32-1.038-2.404-2.358-2.422
	c-0.044-0.001-0.088,0-0.132,0.002H292c-1.324-0.055-2.443,0.974-2.498,2.298c-0.001,0.027-0.002,0.055-0.002,0.082l-1.38,9.62
	c-0.006,1.391,1.109,2.528,2.5,2.55h0.77l1.92,19.13c0.015,0.801,0.677,1.437,1.478,1.422c0.018,0,0.035-0.001,0.052-0.002H297
	c0.794,0.044,1.474-0.564,1.518-1.358c0.001-0.021,0.002-0.042,0.002-0.062l1.92-19.13h0.78c1.391-0.022,2.506-1.159,2.5-2.55
	L302.32,12.67z"/>
<circle style="fill:#26A6DB;stroke:#FFFFFF;stroke-width:0.5;" cx="295.93" cy="4.43" r="4.18"/>
<path style="fill:#26A6DB;stroke:#FFFFFF;stroke-width:0.5;" d="M283.12,14.77c-0.01-1.325-1.093-2.392-2.418-2.382
	c-0.024,0-0.048,0.001-0.072,0.002h-7.8c-1.324-0.055-2.443,0.974-2.498,2.298c-0.001,0.027-0.002,0.055-0.002,0.082l-1.41,9.61
	c-0.006,1.391,1.109,2.528,2.5,2.55h0.77l1.92,19.13c0.009,0.795,0.662,1.432,1.457,1.423c0.024,0,0.049-0.001,0.073-0.003h2.18
	c0.794,0.044,1.474-0.564,1.518-1.358c0.001-0.021,0.002-0.042,0.002-0.062l1.92-19.13H282c1.391-0.022,2.506-1.159,2.5-2.55
	L283.12,14.77z"/>
<circle style="fill:#26A6DB;stroke:#FFFFFF;stroke-width:0.5;" cx="276.73" cy="6.54" r="4.19"/>
<path style="fill:#26A6DB;stroke:#FFFFFF;stroke-width:0.5;" d="M317.59,23.7c-0.01-1.325-1.092-2.392-2.418-2.382
	c-0.027,0-0.055,0.001-0.082,0.002h-7.8c-1.319-0.055-2.433,0.969-2.488,2.288c-0.001,0.031-0.002,0.061-0.002,0.092l-1.42,9.61
	c-0.006,1.391,1.109,2.528,2.5,2.55h0.78l1.92,19.13c0.01,0.795,0.662,1.432,1.458,1.422c0.021,0,0.042-0.001,0.062-0.002h2.18
	c0.8,0.044,1.484-0.568,1.528-1.368c0.001-0.017,0.002-0.035,0.002-0.052l1.92-19.13h0.78c1.387-0.027,2.496-1.163,2.49-2.55
	L317.59,23.7z"/>
<circle style="fill:#26A6DB;stroke:#FFFFFF;stroke-width:0.5;" cx="311.19" cy="15.47" r="4.19"/>
<path style="fill:#26A6DB;stroke:#FFFFFF;stroke-width:0.5;" d="M268.82,26.83c-0.015-1.325-1.102-2.387-2.428-2.372
	c-0.024,0-0.048,0.001-0.072,0.002h-7.8c-1.324-0.055-2.443,0.973-2.498,2.298c-0.001,0.024-0.002,0.048-0.002,0.072l-1.41,9.61
	c-0.006,1.391,1.109,2.528,2.5,2.55h0.77l1.92,19.14c0.015,0.795,0.672,1.428,1.467,1.413c0.021,0,0.042-0.001,0.063-0.003h2.18
	c0.795,0.028,1.462-0.594,1.489-1.389c0-0.007,0-0.014,0.001-0.021l2-19.14h0.78c1.387-0.027,2.496-1.163,2.49-2.55L268.82,26.83z"
	/>
<circle style="fill:#26A6DB;stroke:#FFFFFF;stroke-width:0.5;" cx="262.42" cy="18.6" r="4.19"/>
<path style="fill:#26A6DB;stroke:#FFFFFF;stroke-width:0.5;" d="M292,26.78c-0.01-1.325-1.092-2.392-2.418-2.382
	c-0.027,0-0.055,0.001-0.082,0.002h-7.8c-1.319-0.055-2.433,0.969-2.488,2.288c-0.001,0.031-0.002,0.061-0.002,0.092l-1.42,9.61
	c-0.006,1.391,1.109,2.528,2.5,2.55h0.78L283,58.07c0.01,0.795,0.662,1.432,1.458,1.422c0.021,0,0.042-0.001,0.062-0.002h2.19
	c0.794,0.044,1.474-0.564,1.518-1.358c0.001-0.021,0.002-0.042,0.002-0.062l1.92-19.13h0.78c1.387-0.027,2.496-1.163,2.49-2.55
	L292,26.78z"/>
<circle style="fill:#26A6DB;stroke:#FFFFFF;stroke-width:0.5;" cx="285.58" cy="18.55" r="4.18"/>
<g style="enable-background:new    ;">
	<path style="fill:#26A6DB;" d="M336.824,33.86l2.009,5.672l1.998-5.672h2.116v7.82h-1.617v-2.138l0.161-3.69l-2.111,5.828h-1.106
		l-2.105-5.822l0.161,3.685v2.138h-1.611v-7.82H336.824z"/>
	<path style="fill:#26A6DB;" d="M344.241,34.365c0-0.232,0.078-0.425,0.234-0.575c0.155-0.15,0.368-0.225,0.636-0.225
		c0.265,0,0.476,0.074,0.634,0.225s0.236,0.343,0.236,0.575c0,0.236-0.08,0.43-0.239,0.58c-0.16,0.15-0.37,0.226-0.631,0.226
		s-0.472-0.075-0.631-0.226C344.321,34.794,344.241,34.601,344.241,34.365z M345.89,41.68h-1.558v-5.812h1.558V41.68z"/>
	<path style="fill:#26A6DB;" d="M349.027,34.44v1.429h0.994v1.139h-0.994v2.9c0,0.215,0.041,0.369,0.124,0.462s0.24,0.14,0.473,0.14
		c0.172,0,0.324-0.013,0.456-0.038v1.177c-0.304,0.093-0.617,0.14-0.939,0.14c-1.088,0-1.644-0.55-1.665-1.648v-3.132h-0.849v-1.139
		h0.849V34.44H349.027z"/>
	<path style="fill:#26A6DB;" d="M354.253,41.68c-0.072-0.14-0.124-0.313-0.156-0.521c-0.376,0.42-0.864,0.629-1.466,0.629
		c-0.569,0-1.041-0.165-1.415-0.494c-0.375-0.329-0.562-0.745-0.562-1.246c0-0.616,0.229-1.089,0.685-1.418
		c0.457-0.329,1.116-0.496,1.979-0.5h0.714v-0.332c0-0.27-0.068-0.484-0.206-0.645c-0.139-0.162-0.355-0.242-0.653-0.242
		c-0.261,0-0.466,0.062-0.614,0.188c-0.149,0.126-0.224,0.298-0.224,0.516h-1.552c0-0.336,0.104-0.647,0.312-0.934
		c0.207-0.287,0.501-0.512,0.881-0.675c0.379-0.163,0.806-0.244,1.278-0.244c0.716,0,1.284,0.18,1.705,0.54
		c0.421,0.359,0.631,0.865,0.631,1.518v2.519c0.004,0.552,0.081,0.969,0.231,1.251v0.092H354.253z M352.969,40.6
		c0.229,0,0.44-0.051,0.634-0.152c0.193-0.103,0.337-0.239,0.43-0.411v-0.999h-0.58c-0.776,0-1.19,0.269-1.24,0.806l-0.006,0.091
		c0,0.193,0.068,0.354,0.204,0.479C352.547,40.537,352.732,40.6,352.969,40.6z"/>
	<path style="fill:#26A6DB;" d="M360.048,37.325c-0.211-0.029-0.397-0.043-0.559-0.043c-0.587,0-0.972,0.198-1.154,0.596v3.803
		h-1.553v-5.812h1.467l0.043,0.692c0.312-0.533,0.743-0.8,1.294-0.8c0.172,0,0.333,0.023,0.483,0.069L360.048,37.325z"/>
	<path style="fill:#26A6DB;" d="M366.031,38.828c0,0.931-0.198,1.656-0.596,2.178c-0.397,0.521-0.953,0.781-1.665,0.781
		c-0.631,0-1.134-0.242-1.51-0.725l-0.069,0.617h-1.396v-8.25h1.552v2.959c0.358-0.418,0.829-0.628,1.413-0.628
		c0.709,0,1.265,0.261,1.667,0.781c0.403,0.521,0.604,1.255,0.604,2.2V38.828z M364.479,38.715c0-0.587-0.094-1.016-0.279-1.286
		c-0.187-0.271-0.464-0.405-0.833-0.405c-0.494,0-0.834,0.202-1.021,0.606v2.294c0.19,0.408,0.534,0.611,1.031,0.611
		c0.502,0,0.831-0.246,0.988-0.74C364.441,39.559,364.479,39.199,364.479,38.715z"/>
	<path style="fill:#26A6DB;" d="M369.662,41.787c-0.852,0-1.546-0.262-2.081-0.784s-0.803-1.22-0.803-2.089v-0.15
		c0-0.584,0.112-1.106,0.338-1.566s0.546-0.814,0.959-1.063c0.414-0.249,0.886-0.373,1.415-0.373c0.795,0,1.421,0.251,1.878,0.752
		c0.456,0.501,0.685,1.212,0.685,2.132v0.635h-3.701c0.051,0.379,0.202,0.684,0.454,0.912c0.253,0.229,0.572,0.344,0.959,0.344
		c0.598,0,1.065-0.216,1.401-0.649l0.763,0.854c-0.232,0.329-0.548,0.586-0.945,0.771S370.146,41.787,369.662,41.787z
		 M369.485,37.012c-0.309,0-0.558,0.104-0.749,0.313c-0.192,0.209-0.314,0.507-0.368,0.896h2.159v-0.124
		c-0.008-0.346-0.101-0.612-0.279-0.801C370.068,37.107,369.814,37.012,369.485,37.012z"/>
	<path style="fill:#26A6DB;" d="M372.923,34.365c0-0.232,0.077-0.425,0.233-0.575c0.155-0.15,0.368-0.225,0.637-0.225
		c0.265,0,0.476,0.074,0.634,0.225c0.157,0.15,0.236,0.343,0.236,0.575c0,0.236-0.08,0.43-0.239,0.58s-0.37,0.226-0.631,0.226
		c-0.262,0-0.472-0.075-0.632-0.226C373.002,34.794,372.923,34.601,372.923,34.365z M374.571,41.68h-1.558v-5.812h1.558V41.68z"/>
	<path style="fill:#26A6DB;" d="M377.708,34.44v1.429h0.994v1.139h-0.994v2.9c0,0.215,0.041,0.369,0.124,0.462
		c0.082,0.093,0.239,0.14,0.473,0.14c0.172,0,0.324-0.013,0.456-0.038v1.177c-0.304,0.093-0.617,0.14-0.939,0.14
		c-1.089,0-1.644-0.55-1.665-1.648v-3.132h-0.849v-1.139h0.849V34.44H377.708z"/>
	<path style="fill:#26A6DB;" d="M382.241,41.787c-0.852,0-1.546-0.262-2.081-0.784s-0.803-1.22-0.803-2.089v-0.15
		c0-0.584,0.112-1.106,0.338-1.566s0.546-0.814,0.959-1.063c0.414-0.249,0.886-0.373,1.415-0.373c0.795,0,1.421,0.251,1.878,0.752
		c0.456,0.501,0.685,1.212,0.685,2.132v0.635h-3.701c0.051,0.379,0.202,0.684,0.454,0.912c0.253,0.229,0.572,0.344,0.959,0.344
		c0.598,0,1.065-0.216,1.401-0.649l0.763,0.854c-0.232,0.329-0.548,0.586-0.945,0.771S382.725,41.787,382.241,41.787z
		 M382.064,37.012c-0.309,0-0.558,0.104-0.749,0.313c-0.192,0.209-0.314,0.507-0.368,0.896h2.159v-0.124
		c-0.008-0.346-0.101-0.612-0.279-0.801C382.647,37.107,382.394,37.012,382.064,37.012z"/>
	<path style="fill:#26A6DB;" d="M388.778,37.325c-0.212-0.029-0.397-0.043-0.559-0.043c-0.588,0-0.973,0.198-1.155,0.596v3.803
		h-1.552v-5.812h1.466l0.043,0.692c0.312-0.533,0.743-0.8,1.295-0.8c0.172,0,0.333,0.023,0.483,0.069L388.778,37.325z"/>
	<path style="fill:#26A6DB;" d="M397.318,39.569l0.763-3.7h1.498l-1.482,5.812h-1.3l-1.101-3.658l-1.102,3.658h-1.294l-1.482-5.812
		h1.498l0.758,3.695l1.063-3.695h1.122L397.318,39.569z"/>
	<path style="fill:#26A6DB;" d="M403.022,41.787c-0.853,0-1.546-0.262-2.082-0.784c-0.535-0.522-0.803-1.22-0.803-2.089v-0.15
		c0-0.584,0.113-1.106,0.339-1.566s0.545-0.814,0.958-1.063c0.414-0.249,0.886-0.373,1.416-0.373c0.795,0,1.42,0.251,1.877,0.752
		c0.456,0.501,0.685,1.212,0.685,2.132v0.635h-3.7c0.05,0.379,0.201,0.684,0.453,0.912c0.253,0.229,0.572,0.344,0.959,0.344
		c0.599,0,1.065-0.216,1.402-0.649l0.763,0.854c-0.233,0.329-0.548,0.586-0.945,0.771S403.506,41.787,403.022,41.787z
		 M402.845,37.012c-0.308,0-0.558,0.104-0.749,0.313s-0.314,0.507-0.368,0.896h2.159v-0.124c-0.007-0.346-0.1-0.612-0.279-0.801
		C403.429,37.107,403.175,37.012,402.845,37.012z"/>
	<path style="fill:#26A6DB;" d="M408.71,40.535c0.287,0,0.52-0.078,0.698-0.236c0.18-0.157,0.272-0.366,0.279-0.628h1.456
		c-0.004,0.394-0.111,0.755-0.322,1.082c-0.212,0.328-0.501,0.582-0.867,0.763c-0.367,0.181-0.773,0.271-1.217,0.271
		c-0.831,0-1.486-0.264-1.966-0.792c-0.48-0.528-0.72-1.258-0.72-2.188v-0.103c0-0.896,0.238-1.609,0.714-2.144
		c0.477-0.533,1.13-0.8,1.961-0.8c0.727,0,1.31,0.207,1.748,0.62c0.438,0.414,0.661,0.965,0.669,1.652h-1.456
		c-0.007-0.303-0.1-0.549-0.279-0.737c-0.179-0.189-0.415-0.284-0.709-0.284c-0.361,0-0.635,0.133-0.818,0.396
		c-0.185,0.264-0.277,0.691-0.277,1.283v0.161c0,0.6,0.092,1.029,0.274,1.291C408.061,40.406,408.338,40.535,408.71,40.535z"/>
	<path style="fill:#26A6DB;" d="M413.544,36.502c0.412-0.494,0.93-0.741,1.553-0.741c1.26,0,1.899,0.732,1.917,2.196v3.723h-1.552
		V38c0-0.332-0.072-0.579-0.215-0.738c-0.144-0.159-0.382-0.238-0.715-0.238c-0.454,0-0.784,0.175-0.988,0.525v4.131h-1.552v-8.25
		h1.552V36.502z"/>
	<path style="fill:#26A6DB;" d="M421.332,40.075c0-0.19-0.094-0.34-0.281-0.449c-0.188-0.109-0.49-0.207-0.905-0.293
		c-1.383-0.289-2.073-0.877-2.073-1.762c0-0.516,0.214-0.945,0.642-1.291s0.987-0.519,1.679-0.519c0.737,0,1.327,0.174,1.77,0.521
		c0.442,0.348,0.663,0.799,0.663,1.354h-1.552c0-0.222-0.072-0.405-0.215-0.55c-0.144-0.146-0.367-0.218-0.672-0.218
		c-0.261,0-0.464,0.059-0.606,0.178c-0.144,0.117-0.215,0.268-0.215,0.451c0,0.172,0.081,0.311,0.244,0.416s0.438,0.196,0.824,0.273
		s0.713,0.164,0.978,0.261c0.82,0.301,1.23,0.821,1.23,1.563c0,0.529-0.228,0.958-0.683,1.286c-0.454,0.327-1.042,0.491-1.762,0.491
		c-0.486,0-0.919-0.087-1.297-0.261s-0.674-0.411-0.889-0.714s-0.322-0.63-0.322-0.98h1.472c0.014,0.275,0.116,0.487,0.306,0.634
		c0.19,0.146,0.444,0.22,0.763,0.22c0.298,0,0.522-0.056,0.675-0.169C421.256,40.405,421.332,40.256,421.332,40.075z"/>
	<path style="fill:#26A6DB;" d="M426.516,41.787c-0.853,0-1.546-0.262-2.082-0.784c-0.535-0.522-0.803-1.22-0.803-2.089v-0.15
		c0-0.584,0.113-1.106,0.339-1.566s0.545-0.814,0.958-1.063c0.414-0.249,0.886-0.373,1.416-0.373c0.795,0,1.42,0.251,1.877,0.752
		c0.456,0.501,0.685,1.212,0.685,2.132v0.635h-3.7c0.05,0.379,0.201,0.684,0.453,0.912c0.253,0.229,0.572,0.344,0.959,0.344
		c0.598,0,1.065-0.216,1.402-0.649l0.762,0.854c-0.232,0.329-0.547,0.586-0.945,0.771C427.439,41.696,426.998,41.787,426.516,41.787
		z M426.338,37.012c-0.308,0-0.558,0.104-0.749,0.313s-0.314,0.507-0.368,0.896h2.159v-0.124c-0.007-0.346-0.101-0.612-0.279-0.801
		C426.922,37.107,426.667,37.012,426.338,37.012z"/>
	<path style="fill:#26A6DB;" d="M431.424,41.68h-1.558v-8.25h1.558V41.68z"/>
	<path style="fill:#26A6DB;" d="M434.132,35.868l0.048,0.671c0.415-0.519,0.972-0.778,1.671-0.778c0.615,0,1.074,0.181,1.375,0.542
		c0.301,0.362,0.454,0.902,0.461,1.623v3.754h-1.552v-3.717c0-0.329-0.071-0.568-0.215-0.717s-0.382-0.223-0.714-0.223
		c-0.438,0-0.765,0.186-0.983,0.559v4.098h-1.552v-5.812H434.132z"/>
	<path style="fill:#26A6DB;" d="M443.461,34.44v1.429h0.993v1.139h-0.993v2.9c0,0.215,0.041,0.369,0.123,0.462s0.24,0.14,0.473,0.14
		c0.172,0,0.324-0.013,0.457-0.038v1.177c-0.305,0.093-0.618,0.14-0.94,0.14c-1.089,0-1.644-0.55-1.665-1.648v-3.132h-0.849v-1.139
		h0.849V34.44H443.461z"/>
	<path style="fill:#26A6DB;" d="M447.994,41.787c-0.853,0-1.547-0.262-2.082-0.784s-0.803-1.22-0.803-2.089v-0.15
		c0-0.584,0.113-1.106,0.338-1.566c0.227-0.46,0.546-0.814,0.959-1.063c0.414-0.249,0.886-0.373,1.416-0.373
		c0.795,0,1.42,0.251,1.877,0.752c0.456,0.501,0.685,1.212,0.685,2.132v0.635h-3.7c0.05,0.379,0.201,0.684,0.453,0.912
		c0.253,0.229,0.572,0.344,0.959,0.344c0.598,0,1.065-0.216,1.402-0.649l0.762,0.854c-0.232,0.329-0.547,0.586-0.945,0.771
		C448.918,41.696,448.477,41.787,447.994,41.787z M447.816,37.012c-0.308,0-0.558,0.104-0.749,0.313s-0.314,0.507-0.368,0.896h2.159
		v-0.124c-0.007-0.346-0.101-0.612-0.279-0.801C448.4,37.107,448.146,37.012,447.816,37.012z"/>
	<path style="fill:#26A6DB;" d="M452.721,35.868l0.048,0.649c0.412-0.504,0.969-0.757,1.671-0.757c0.748,0,1.263,0.296,1.542,0.886
		c0.408-0.59,0.989-0.886,1.745-0.886c0.63,0,1.1,0.184,1.407,0.551s0.462,0.919,0.462,1.657v3.711h-1.558v-3.706
		c0-0.329-0.064-0.57-0.193-0.723s-0.356-0.228-0.682-0.228c-0.466,0-0.788,0.222-0.967,0.666l0.005,3.99h-1.552v-3.701
		c0-0.336-0.066-0.58-0.199-0.73s-0.358-0.225-0.677-0.225c-0.44,0-0.759,0.182-0.956,0.547v4.109h-1.553v-5.812H452.721z"/>
	<path style="fill:#26A6DB;" d="M466.02,38.828c0,0.895-0.204,1.611-0.61,2.15s-0.955,0.809-1.646,0.809
		c-0.588,0-1.062-0.204-1.424-0.612v2.739h-1.553v-8.046h1.439l0.055,0.569c0.375-0.451,0.866-0.677,1.471-0.677
		c0.717,0,1.273,0.265,1.671,0.795s0.597,1.261,0.597,2.191V38.828z M464.467,38.715c0-0.541-0.096-0.958-0.287-1.252
		c-0.191-0.293-0.471-0.439-0.836-0.439c-0.486,0-0.821,0.186-1.004,0.559v2.379c0.189,0.383,0.528,0.574,1.016,0.574
		C464.096,40.535,464.467,39.929,464.467,38.715z"/>
	<path style="fill:#26A6DB;" d="M466.739,38.721c0-0.577,0.111-1.091,0.333-1.542s0.542-0.8,0.959-1.048
		c0.417-0.246,0.901-0.37,1.453-0.37c0.783,0,1.424,0.24,1.92,0.72s0.772,1.132,0.83,1.955l0.01,0.397
		c0,0.892-0.248,1.606-0.746,2.146s-1.166,0.809-2.004,0.809s-1.506-0.269-2.006-0.806c-0.499-0.537-0.749-1.268-0.749-2.191V38.721
		z M468.291,38.83c0,0.553,0.104,0.975,0.312,1.268c0.207,0.292,0.504,0.438,0.891,0.438c0.377,0,0.67-0.144,0.881-0.433
		c0.212-0.289,0.317-0.75,0.317-1.385c0-0.542-0.105-0.961-0.317-1.259c-0.211-0.298-0.508-0.447-0.891-0.447
		c-0.38,0-0.674,0.148-0.881,0.444C468.396,37.752,468.291,38.21,468.291,38.83z"/>
</g>
<g style="enable-background:new    ;">
	<path style="fill:#26A6DB;" d="M476.462,37.325c-0.212-0.029-0.397-0.043-0.559-0.043c-0.588,0-0.973,0.198-1.155,0.596v3.803
		h-1.552v-5.812h1.466l0.043,0.692c0.312-0.533,0.743-0.8,1.295-0.8c0.172,0,0.333,0.023,0.483,0.069L476.462,37.325z"/>
</g>
<g style="enable-background:new    ;">
	<path style="fill:#26A6DB;" d="M480.424,41.68c-0.071-0.14-0.123-0.313-0.155-0.521c-0.376,0.42-0.865,0.629-1.467,0.629
		c-0.569,0-1.041-0.165-1.415-0.494s-0.562-0.745-0.562-1.246c0-0.616,0.229-1.089,0.685-1.418c0.457-0.329,1.117-0.496,1.979-0.5
		h0.715v-0.332c0-0.27-0.069-0.484-0.207-0.645c-0.138-0.162-0.355-0.242-0.652-0.242c-0.262,0-0.467,0.062-0.615,0.188
		c-0.148,0.126-0.223,0.298-0.223,0.516h-1.553c0-0.336,0.104-0.647,0.312-0.934c0.208-0.287,0.502-0.512,0.881-0.675
		c0.38-0.163,0.806-0.244,1.278-0.244c0.717,0,1.285,0.18,1.705,0.54c0.421,0.359,0.632,0.865,0.632,1.518v2.519
		c0.003,0.552,0.08,0.969,0.23,1.251v0.092H480.424z M478.855,34.346c0,0.19-0.069,0.352-0.209,0.482s-0.319,0.197-0.537,0.197
		c-0.223,0-0.401-0.067-0.537-0.2c-0.137-0.133-0.204-0.293-0.204-0.479c0-0.188,0.067-0.348,0.204-0.482
		c0.136-0.135,0.314-0.203,0.537-0.203c0.222,0,0.401,0.068,0.539,0.203C478.787,33.998,478.855,34.159,478.855,34.346z
		 M479.141,40.6c0.229,0,0.44-0.051,0.634-0.152c0.193-0.103,0.336-0.239,0.43-0.411v-0.999h-0.58c-0.777,0-1.19,0.269-1.241,0.806
		l-0.005,0.091c0,0.193,0.067,0.354,0.204,0.479C478.718,40.537,478.904,40.6,479.141,40.6z M479.983,34.346
		c0-0.194,0.072-0.357,0.218-0.488c0.145-0.131,0.321-0.197,0.529-0.197c0.211,0,0.388,0.067,0.528,0.2
		c0.142,0.133,0.213,0.295,0.213,0.485c0,0.187-0.068,0.348-0.204,0.482c-0.137,0.135-0.315,0.202-0.537,0.202
		c-0.223,0-0.402-0.067-0.54-0.202S479.983,34.533,479.983,34.346z"/>
	<path style="fill:#26A6DB;" d="M486.22,37.325c-0.212-0.029-0.397-0.043-0.559-0.043c-0.588,0-0.973,0.198-1.155,0.596v3.803
		h-1.552v-5.812h1.466l0.043,0.692c0.312-0.533,0.743-0.8,1.295-0.8c0.172,0,0.333,0.023,0.483,0.069L486.22,37.325z"/>
</g>
<g style="enable-background:new    ;">
	<path style="fill:#26A6DB;" d="M336.399,53.628h2.841v1.252h-4.823v-0.945l2.734-3.615h-2.653v-1.251h4.657v0.914L336.399,53.628z"
		/>
	<path style="fill:#26A6DB;" d="M343.693,54.289c-0.383,0.466-0.913,0.698-1.59,0.698c-0.623,0-1.098-0.179-1.426-0.537
		c-0.327-0.358-0.495-0.883-0.502-1.574v-3.808h1.552v3.759c0,0.605,0.276,0.908,0.827,0.908c0.526,0,0.888-0.183,1.085-0.548
		v-4.119h1.558v5.812h-1.461L343.693,54.289z"/>
	<path style="fill:#26A6DB;" d="M347.824,49.069l0.048,0.649c0.412-0.504,0.969-0.757,1.67-0.757c0.749,0,1.262,0.296,1.542,0.886
		c0.408-0.59,0.99-0.886,1.745-0.886c0.631,0,1.1,0.184,1.407,0.551c0.309,0.367,0.462,0.919,0.462,1.657v3.711h-1.558v-3.706
		c0-0.329-0.064-0.57-0.193-0.723s-0.356-0.228-0.682-0.228c-0.466,0-0.788,0.222-0.967,0.666l0.005,3.99h-1.552v-3.701
		c0-0.336-0.066-0.58-0.199-0.73s-0.358-0.225-0.677-0.225c-0.44,0-0.759,0.182-0.956,0.547v4.109h-1.552v-5.812H347.824z"/>
	<path style="fill:#26A6DB;" d="M363.147,53.269h-2.825l-0.537,1.611h-1.714l2.911-7.82h1.493l2.928,7.82h-1.714L363.147,53.269z
		 M360.757,51.964h1.955l-0.982-2.928L360.757,51.964z"/>
	<path style="fill:#26A6DB;" d="M369.297,50.525c-0.211-0.029-0.397-0.043-0.559-0.043c-0.587,0-0.972,0.198-1.154,0.596v3.803
		h-1.553v-5.812h1.467l0.043,0.692c0.312-0.533,0.743-0.8,1.294-0.8c0.172,0,0.333,0.023,0.483,0.069L369.297,50.525z"/>
	<path style="fill:#26A6DB;" d="M375.28,52.029c0,0.931-0.198,1.656-0.596,2.178c-0.397,0.521-0.953,0.781-1.665,0.781
		c-0.631,0-1.134-0.242-1.51-0.725l-0.069,0.617h-1.396v-8.25h1.552v2.959c0.358-0.418,0.829-0.628,1.413-0.628
		c0.709,0,1.265,0.261,1.667,0.781c0.403,0.521,0.604,1.255,0.604,2.2V52.029z M373.729,51.915c0-0.587-0.094-1.016-0.279-1.286
		c-0.187-0.271-0.464-0.405-0.833-0.405c-0.494,0-0.834,0.202-1.021,0.606v2.294c0.19,0.408,0.534,0.611,1.031,0.611
		c0.502,0,0.831-0.246,0.988-0.74C373.69,52.759,373.729,52.399,373.729,51.915z"/>
	<path style="fill:#26A6DB;" d="M378.911,54.988c-0.852,0-1.546-0.262-2.081-0.784s-0.803-1.22-0.803-2.089v-0.15
		c0-0.584,0.112-1.106,0.338-1.566s0.546-0.814,0.959-1.063c0.414-0.249,0.886-0.373,1.415-0.373c0.795,0,1.421,0.251,1.878,0.752
		c0.456,0.501,0.685,1.212,0.685,2.132v0.635h-3.701c0.051,0.379,0.202,0.684,0.454,0.912c0.253,0.229,0.572,0.344,0.959,0.344
		c0.598,0,1.065-0.216,1.401-0.649l0.763,0.854c-0.232,0.329-0.548,0.586-0.945,0.771S379.395,54.988,378.911,54.988z
		 M378.734,50.212c-0.309,0-0.558,0.104-0.749,0.313c-0.192,0.209-0.314,0.507-0.368,0.896h2.159v-0.124
		c-0.008-0.346-0.101-0.612-0.279-0.801C379.317,50.307,379.063,50.212,378.734,50.212z"/>
	<path style="fill:#26A6DB;" d="M382.172,47.565c0-0.232,0.077-0.425,0.233-0.575c0.155-0.15,0.368-0.225,0.637-0.225
		c0.265,0,0.476,0.074,0.634,0.225c0.157,0.15,0.236,0.343,0.236,0.575c0,0.236-0.08,0.43-0.239,0.58s-0.37,0.226-0.631,0.226
		c-0.262,0-0.472-0.075-0.632-0.226C382.251,47.994,382.172,47.801,382.172,47.565z M383.82,54.88h-1.558v-5.812h1.558V54.88z"/>
	<path style="fill:#26A6DB;" d="M386.957,47.64v1.429h0.994v1.139h-0.994v2.9c0,0.215,0.041,0.369,0.124,0.462
		c0.082,0.093,0.239,0.14,0.473,0.14c0.172,0,0.324-0.013,0.456-0.038v1.177c-0.304,0.093-0.617,0.14-0.939,0.14
		c-1.089,0-1.644-0.55-1.665-1.648v-3.132h-0.849v-1.139h0.849V47.64H386.957z"/>
	<path style="fill:#26A6DB;" d="M388.59,51.931c0-0.891,0.213-1.609,0.637-2.153c0.425-0.544,0.996-0.816,1.716-0.816
		c0.638,0,1.134,0.219,1.488,0.655l0.064-0.548h1.407v5.618c0,0.509-0.115,0.951-0.347,1.326c-0.23,0.377-0.556,0.663-0.975,0.859
		c-0.419,0.197-0.91,0.296-1.472,0.296c-0.427,0-0.842-0.085-1.246-0.255c-0.405-0.17-0.711-0.39-0.919-0.658l0.688-0.945
		c0.387,0.434,0.856,0.65,1.407,0.65c0.412,0,0.732-0.11,0.962-0.331c0.229-0.22,0.344-0.532,0.344-0.937V54.38
		c-0.358,0.405-0.829,0.607-1.413,0.607c-0.698,0-1.263-0.273-1.694-0.819s-0.647-1.271-0.647-2.173V51.931z M390.143,52.047
		c0,0.527,0.105,0.94,0.316,1.24c0.212,0.299,0.502,0.448,0.87,0.448c0.473,0,0.812-0.177,1.016-0.532v-2.447
		c-0.208-0.355-0.543-0.532-1.005-0.532c-0.372,0-0.665,0.152-0.878,0.457S390.143,51.441,390.143,52.047z"/>
	<path style="fill:#26A6DB;" d="M397.77,54.988c-0.853,0-1.546-0.262-2.082-0.784c-0.535-0.522-0.803-1.22-0.803-2.089v-0.15
		c0-0.584,0.113-1.106,0.339-1.566s0.545-0.814,0.958-1.063c0.414-0.249,0.886-0.373,1.416-0.373c0.795,0,1.42,0.251,1.877,0.752
		c0.456,0.501,0.685,1.212,0.685,2.132v0.635h-3.7c0.05,0.379,0.201,0.684,0.453,0.912c0.253,0.229,0.572,0.344,0.959,0.344
		c0.599,0,1.065-0.216,1.402-0.649l0.763,0.854c-0.233,0.329-0.548,0.586-0.945,0.771S398.253,54.988,397.77,54.988z
		 M397.592,50.212c-0.308,0-0.558,0.104-0.749,0.313s-0.314,0.507-0.368,0.896h2.159v-0.124c-0.007-0.346-0.1-0.612-0.279-0.801
		C398.176,50.307,397.922,50.212,397.592,50.212z"/>
	<path style="fill:#26A6DB;" d="M406.277,52.029c0,0.931-0.199,1.656-0.597,2.178c-0.397,0.521-0.952,0.781-1.665,0.781
		c-0.63,0-1.133-0.242-1.509-0.725l-0.07,0.617h-1.396v-8.25h1.553v2.959c0.357-0.418,0.829-0.628,1.412-0.628
		c0.709,0,1.266,0.261,1.668,0.781c0.403,0.521,0.604,1.255,0.604,2.2V52.029z M404.725,51.915c0-0.587-0.093-1.016-0.279-1.286
		c-0.186-0.271-0.464-0.405-0.832-0.405c-0.494,0-0.835,0.202-1.021,0.606v2.294c0.189,0.408,0.533,0.611,1.031,0.611
		c0.501,0,0.83-0.246,0.988-0.74C404.688,52.759,404.725,52.399,404.725,51.915z"/>
	<path style="fill:#26A6DB;" d="M409.908,54.988c-0.853,0-1.546-0.262-2.082-0.784c-0.535-0.522-0.803-1.22-0.803-2.089v-0.15
		c0-0.584,0.113-1.106,0.339-1.566s0.545-0.814,0.958-1.063c0.414-0.249,0.886-0.373,1.416-0.373c0.795,0,1.42,0.251,1.877,0.752
		c0.456,0.501,0.685,1.212,0.685,2.132v0.635h-3.7c0.05,0.379,0.201,0.684,0.453,0.912c0.253,0.229,0.572,0.344,0.959,0.344
		c0.599,0,1.065-0.216,1.402-0.649l0.763,0.854c-0.233,0.329-0.548,0.586-0.945,0.771S410.392,54.988,409.908,54.988z
		 M409.73,50.212c-0.308,0-0.558,0.104-0.749,0.313s-0.314,0.507-0.368,0.896h2.159v-0.124c-0.007-0.346-0.1-0.612-0.279-0.801
		C410.314,50.307,410.061,50.212,409.73,50.212z"/>
	<path style="fill:#26A6DB;" d="M416.444,50.525c-0.211-0.029-0.397-0.043-0.559-0.043c-0.587,0-0.972,0.198-1.154,0.596v3.803
		h-1.553v-5.812h1.467l0.043,0.692c0.312-0.533,0.743-0.8,1.294-0.8c0.172,0,0.333,0.023,0.483,0.069L416.444,50.525z"/>
	<path style="fill:#26A6DB;" d="M421.386,49.069l0.049,0.649c0.411-0.504,0.969-0.757,1.67-0.757c0.749,0,1.263,0.296,1.542,0.886
		c0.408-0.59,0.989-0.886,1.745-0.886c0.63,0,1.1,0.184,1.407,0.551s0.462,0.919,0.462,1.657v3.711h-1.558v-3.706
		c0-0.329-0.064-0.57-0.193-0.723s-0.356-0.228-0.682-0.228c-0.466,0-0.788,0.222-0.967,0.666l0.005,3.99h-1.552v-3.701
		c0-0.336-0.066-0.58-0.199-0.73c-0.132-0.15-0.357-0.225-0.677-0.225c-0.44,0-0.759,0.182-0.956,0.547v4.109h-1.552v-5.812H421.386
		z"/>
	<path style="fill:#26A6DB;" d="M429.443,47.565c0-0.232,0.077-0.425,0.233-0.575c0.155-0.15,0.368-0.225,0.636-0.225
		c0.266,0,0.477,0.074,0.635,0.225c0.157,0.15,0.236,0.343,0.236,0.575c0,0.236-0.08,0.43-0.239,0.58s-0.37,0.226-0.632,0.226
		c-0.261,0-0.472-0.075-0.631-0.226S429.443,47.801,429.443,47.565z M431.092,54.88h-1.558v-5.812h1.558V54.88z"/>
	<path style="fill:#26A6DB;" d="M434.229,47.64v1.429h0.993v1.139h-0.993v2.9c0,0.215,0.041,0.369,0.123,0.462s0.24,0.14,0.473,0.14
		c0.172,0,0.324-0.013,0.457-0.038v1.177c-0.305,0.093-0.618,0.14-0.94,0.14c-1.089,0-1.644-0.55-1.665-1.648v-3.132h-0.849v-1.139
		h0.849V47.64H434.229z"/>
	<path style="fill:#26A6DB;" d="M441.033,47.06l2.009,5.672l1.998-5.672h2.116v7.82h-1.616v-2.138l0.16-3.69l-2.11,5.828h-1.106
		l-2.105-5.822l0.161,3.685v2.138h-1.611v-7.82H441.033z"/>
	<path style="fill:#26A6DB;" d="M451.137,54.988c-0.853,0-1.547-0.262-2.082-0.784s-0.803-1.22-0.803-2.089v-0.15
		c0-0.584,0.113-1.106,0.338-1.566c0.227-0.46,0.546-0.814,0.959-1.063c0.414-0.249,0.886-0.373,1.416-0.373
		c0.795,0,1.42,0.251,1.877,0.752c0.456,0.501,0.685,1.212,0.685,2.132v0.635h-3.7c0.05,0.379,0.201,0.684,0.453,0.912
		c0.253,0.229,0.572,0.344,0.959,0.344c0.598,0,1.065-0.216,1.402-0.649l0.762,0.854c-0.232,0.329-0.547,0.586-0.945,0.771
		C452.061,54.896,451.619,54.988,451.137,54.988z M450.959,50.212c-0.308,0-0.558,0.104-0.749,0.313s-0.314,0.507-0.368,0.896h2.159
		v-0.124c-0.007-0.346-0.101-0.612-0.279-0.801C451.543,50.307,451.288,50.212,450.959,50.212z"/>
	<path style="fill:#26A6DB;" d="M455.922,49.702c0.411-0.494,0.929-0.741,1.552-0.741c1.261,0,1.899,0.732,1.917,2.196v3.723h-1.552
		v-3.68c0-0.332-0.071-0.579-0.215-0.738s-0.382-0.238-0.714-0.238c-0.455,0-0.785,0.175-0.988,0.525v4.131h-1.553v-8.25h1.553
		V49.702z"/>
	<path style="fill:#26A6DB;" d="M463.828,50.525c-0.211-0.029-0.396-0.043-0.559-0.043c-0.587,0-0.972,0.198-1.154,0.596v3.803
		h-1.553v-5.812h1.467l0.043,0.692c0.312-0.533,0.743-0.8,1.295-0.8c0.172,0,0.332,0.023,0.482,0.069L463.828,50.525z"/>
	<path style="fill:#26A6DB;" d="M469.812,52.029c0,0.931-0.198,1.656-0.597,2.178c-0.396,0.521-0.952,0.781-1.664,0.781
		c-0.631,0-1.134-0.242-1.51-0.725l-0.07,0.617h-1.396v-8.25h1.553v2.959c0.358-0.418,0.829-0.628,1.412-0.628
		c0.709,0,1.266,0.261,1.668,0.781c0.403,0.521,0.604,1.255,0.604,2.2V52.029z M468.26,51.915c0-0.587-0.094-1.016-0.279-1.286
		c-0.187-0.271-0.464-0.405-0.833-0.405c-0.494,0-0.834,0.202-1.021,0.606v2.294c0.189,0.408,0.533,0.611,1.031,0.611
		c0.501,0,0.831-0.246,0.988-0.74C468.222,52.759,468.26,52.399,468.26,51.915z"/>
	<path style="fill:#26A6DB;" d="M473.443,54.988c-0.853,0-1.547-0.262-2.082-0.784s-0.803-1.22-0.803-2.089v-0.15
		c0-0.584,0.113-1.106,0.338-1.566c0.227-0.46,0.546-0.814,0.959-1.063c0.414-0.249,0.886-0.373,1.416-0.373
		c0.795,0,1.42,0.251,1.877,0.752c0.456,0.501,0.685,1.212,0.685,2.132v0.635h-3.7c0.05,0.379,0.201,0.684,0.453,0.912
		c0.253,0.229,0.572,0.344,0.959,0.344c0.598,0,1.065-0.216,1.402-0.649l0.762,0.854c-0.232,0.329-0.547,0.586-0.945,0.771
		C474.367,54.896,473.926,54.988,473.443,54.988z M473.266,50.212c-0.308,0-0.558,0.104-0.749,0.313s-0.314,0.507-0.368,0.896h2.159
		v-0.124c-0.007-0.346-0.101-0.612-0.279-0.801C473.85,50.307,473.595,50.212,473.266,50.212z"/>
	<path style="fill:#26A6DB;" d="M476.472,51.931c0-0.905,0.203-1.627,0.609-2.164s0.963-0.806,1.668-0.806
		c0.565,0,1.033,0.211,1.401,0.634V46.63h1.559v8.25h-1.402l-0.075-0.617c-0.387,0.482-0.885,0.725-1.493,0.725
		c-0.684,0-1.232-0.27-1.646-0.809C476.679,53.64,476.472,52.891,476.472,51.931z M478.023,52.047c0,0.545,0.096,0.963,0.285,1.253
		c0.189,0.291,0.466,0.436,0.827,0.436c0.479,0,0.818-0.202,1.015-0.607v-2.297c-0.193-0.405-0.527-0.607-1.004-0.607
		C478.398,50.224,478.023,50.831,478.023,52.047z"/>
	<path style="fill:#26A6DB;" d="M486.279,54.88c-0.071-0.14-0.124-0.313-0.155-0.521c-0.377,0.42-0.865,0.629-1.467,0.629
		c-0.569,0-1.041-0.165-1.415-0.494s-0.562-0.745-0.562-1.246c0-0.616,0.229-1.089,0.685-1.418c0.457-0.329,1.116-0.496,1.979-0.5
		h0.715v-0.332c0-0.27-0.069-0.484-0.207-0.645c-0.138-0.162-0.355-0.242-0.652-0.242c-0.262,0-0.467,0.062-0.615,0.188
		c-0.148,0.126-0.223,0.298-0.223,0.516h-1.553c0-0.336,0.104-0.647,0.312-0.934c0.208-0.287,0.501-0.512,0.881-0.675
		s0.806-0.244,1.278-0.244c0.716,0,1.284,0.18,1.705,0.54c0.421,0.359,0.631,0.865,0.631,1.518v2.519
		c0.004,0.552,0.081,0.969,0.231,1.251v0.092H486.279z M484.995,53.8c0.229,0,0.441-0.051,0.635-0.152
		c0.193-0.103,0.336-0.239,0.43-0.411v-0.999h-0.58c-0.777,0-1.191,0.269-1.241,0.806l-0.005,0.091c0,0.193,0.067,0.354,0.203,0.479
		C484.573,53.738,484.759,53.8,484.995,53.8z"/>
</g>
<g style="enable-background:new    ;">
	<path style="fill:#26A6DB;" d="M492.072,50.525c-0.212-0.029-0.397-0.043-0.559-0.043c-0.588,0-0.973,0.198-1.155,0.596v3.803
		h-1.552v-5.812h1.466l0.043,0.692c0.312-0.533,0.743-0.8,1.295-0.8c0.172,0,0.333,0.023,0.483,0.069L492.072,50.525z"/>
</g>
<g style="enable-background:new    ;">
	<path style="fill:#26A6DB;" d="M493.351,54.88v-4.673h-0.865v-1.139h0.865v-0.494c0-0.651,0.187-1.157,0.562-1.518
		c0.374-0.359,0.897-0.54,1.57-0.54c0.215,0,0.479,0.036,0.79,0.107l-0.017,1.203c-0.129-0.031-0.286-0.048-0.473-0.048
		c-0.583,0-0.875,0.274-0.875,0.821v0.468h1.154v1.139h-1.154v4.673H493.351z"/>
</g>
<g style="enable-background:new    ;">
	<path style="fill:#26A6DB;" d="M336.824,339.85l2.009,5.672l1.998-5.672h2.116v7.82h-1.617v-2.138l0.161-3.69l-2.111,5.828h-1.106
		l-2.105-5.822l0.161,3.685v2.138h-1.611v-7.82H336.824z"/>
	<path style="fill:#26A6DB;" d="M344.241,340.355c0-0.232,0.078-0.425,0.234-0.575c0.155-0.15,0.368-0.225,0.636-0.225
		c0.265,0,0.476,0.074,0.634,0.225s0.236,0.343,0.236,0.575c0,0.236-0.08,0.43-0.239,0.58c-0.16,0.15-0.37,0.226-0.631,0.226
		s-0.472-0.075-0.631-0.226C344.321,340.785,344.241,340.591,344.241,340.355z M345.89,347.67h-1.558v-5.812h1.558V347.67z"/>
	<path style="fill:#26A6DB;" d="M349.027,340.43v1.429h0.994v1.139h-0.994v2.9c0,0.215,0.041,0.369,0.124,0.462
		s0.24,0.14,0.473,0.14c0.172,0,0.324-0.013,0.456-0.038v1.177c-0.304,0.093-0.617,0.14-0.939,0.14c-1.088,0-1.644-0.55-1.665-1.648
		v-3.132h-0.849v-1.139h0.849v-1.429H349.027z"/>
	<path style="fill:#26A6DB;" d="M354.253,347.67c-0.072-0.14-0.124-0.313-0.156-0.521c-0.376,0.42-0.864,0.629-1.466,0.629
		c-0.569,0-1.041-0.165-1.415-0.494c-0.375-0.329-0.562-0.745-0.562-1.246c0-0.616,0.229-1.089,0.685-1.418
		c0.457-0.329,1.116-0.496,1.979-0.5h0.714v-0.332c0-0.27-0.068-0.484-0.206-0.645c-0.139-0.162-0.355-0.242-0.653-0.242
		c-0.261,0-0.466,0.062-0.614,0.188c-0.149,0.126-0.224,0.298-0.224,0.516h-1.552c0-0.336,0.104-0.647,0.312-0.934
		c0.207-0.287,0.501-0.512,0.881-0.675c0.379-0.163,0.806-0.244,1.278-0.244c0.716,0,1.284,0.18,1.705,0.54
		c0.421,0.359,0.631,0.865,0.631,1.518v2.519c0.004,0.552,0.081,0.969,0.231,1.251v0.092H354.253z M352.969,346.59
		c0.229,0,0.44-0.051,0.634-0.152c0.193-0.103,0.337-0.239,0.43-0.411v-0.999h-0.58c-0.776,0-1.19,0.269-1.24,0.806l-0.006,0.091
		c0,0.193,0.068,0.354,0.204,0.479C352.547,346.528,352.732,346.59,352.969,346.59z"/>
	<path style="fill:#26A6DB;" d="M360.048,343.315c-0.211-0.029-0.397-0.043-0.559-0.043c-0.587,0-0.972,0.198-1.154,0.596v3.803
		h-1.553v-5.812h1.467l0.043,0.692c0.312-0.533,0.743-0.8,1.294-0.8c0.172,0,0.333,0.023,0.483,0.069L360.048,343.315z"/>
	<path style="fill:#26A6DB;" d="M366.031,344.819c0,0.931-0.198,1.656-0.596,2.178c-0.397,0.521-0.953,0.781-1.665,0.781
		c-0.631,0-1.134-0.242-1.51-0.725l-0.069,0.617h-1.396v-8.25h1.552v2.959c0.358-0.418,0.829-0.628,1.413-0.628
		c0.709,0,1.265,0.261,1.667,0.781c0.403,0.521,0.604,1.255,0.604,2.2V344.819z M364.479,344.705c0-0.587-0.094-1.016-0.279-1.286
		c-0.187-0.271-0.464-0.405-0.833-0.405c-0.494,0-0.834,0.202-1.021,0.606v2.294c0.19,0.408,0.534,0.611,1.031,0.611
		c0.502,0,0.831-0.246,0.988-0.74C364.441,345.549,364.479,345.189,364.479,344.705z"/>
	<path style="fill:#26A6DB;" d="M369.662,347.778c-0.852,0-1.546-0.262-2.081-0.784s-0.803-1.22-0.803-2.089v-0.15
		c0-0.584,0.112-1.106,0.338-1.566s0.546-0.814,0.959-1.063c0.414-0.249,0.886-0.373,1.415-0.373c0.795,0,1.421,0.251,1.878,0.752
		c0.456,0.501,0.685,1.212,0.685,2.132v0.635h-3.701c0.051,0.379,0.202,0.684,0.454,0.912c0.253,0.229,0.572,0.344,0.959,0.344
		c0.598,0,1.065-0.216,1.401-0.649l0.763,0.854c-0.232,0.329-0.548,0.586-0.945,0.771S370.146,347.778,369.662,347.778z
		 M369.485,343.002c-0.309,0-0.558,0.104-0.749,0.313c-0.192,0.209-0.314,0.507-0.368,0.896h2.159v-0.124
		c-0.008-0.346-0.101-0.612-0.279-0.801C370.068,343.097,369.814,343.002,369.485,343.002z"/>
	<path style="fill:#26A6DB;" d="M372.923,340.355c0-0.232,0.077-0.425,0.233-0.575c0.155-0.15,0.368-0.225,0.637-0.225
		c0.265,0,0.476,0.074,0.634,0.225c0.157,0.15,0.236,0.343,0.236,0.575c0,0.236-0.08,0.43-0.239,0.58s-0.37,0.226-0.631,0.226
		c-0.262,0-0.472-0.075-0.632-0.226C373.002,340.785,372.923,340.591,372.923,340.355z M374.571,347.67h-1.558v-5.812h1.558V347.67z
		"/>
	<path style="fill:#26A6DB;" d="M377.708,340.43v1.429h0.994v1.139h-0.994v2.9c0,0.215,0.041,0.369,0.124,0.462
		c0.082,0.093,0.239,0.14,0.473,0.14c0.172,0,0.324-0.013,0.456-0.038v1.177c-0.304,0.093-0.617,0.14-0.939,0.14
		c-1.089,0-1.644-0.55-1.665-1.648v-3.132h-0.849v-1.139h0.849v-1.429H377.708z"/>
	<path style="fill:#26A6DB;" d="M382.241,347.778c-0.852,0-1.546-0.262-2.081-0.784s-0.803-1.22-0.803-2.089v-0.15
		c0-0.584,0.112-1.106,0.338-1.566s0.546-0.814,0.959-1.063c0.414-0.249,0.886-0.373,1.415-0.373c0.795,0,1.421,0.251,1.878,0.752
		c0.456,0.501,0.685,1.212,0.685,2.132v0.635h-3.701c0.051,0.379,0.202,0.684,0.454,0.912c0.253,0.229,0.572,0.344,0.959,0.344
		c0.598,0,1.065-0.216,1.401-0.649l0.763,0.854c-0.232,0.329-0.548,0.586-0.945,0.771S382.725,347.778,382.241,347.778z
		 M382.064,343.002c-0.309,0-0.558,0.104-0.749,0.313c-0.192,0.209-0.314,0.507-0.368,0.896h2.159v-0.124
		c-0.008-0.346-0.101-0.612-0.279-0.801C382.647,343.097,382.394,343.002,382.064,343.002z"/>
	<path style="fill:#26A6DB;" d="M388.778,343.315c-0.212-0.029-0.397-0.043-0.559-0.043c-0.588,0-0.973,0.198-1.155,0.596v3.803
		h-1.552v-5.812h1.466l0.043,0.692c0.312-0.533,0.743-0.8,1.295-0.8c0.172,0,0.333,0.023,0.483,0.069L388.778,343.315z"/>
	<path style="fill:#26A6DB;" d="M397.318,345.559l0.763-3.7h1.498l-1.482,5.812h-1.3l-1.101-3.658l-1.102,3.658h-1.294l-1.482-5.812
		h1.498l0.758,3.695l1.063-3.695h1.122L397.318,345.559z"/>
	<path style="fill:#26A6DB;" d="M403.022,347.778c-0.853,0-1.546-0.262-2.082-0.784c-0.535-0.522-0.803-1.22-0.803-2.089v-0.15
		c0-0.584,0.113-1.106,0.339-1.566s0.545-0.814,0.958-1.063c0.414-0.249,0.886-0.373,1.416-0.373c0.795,0,1.42,0.251,1.877,0.752
		c0.456,0.501,0.685,1.212,0.685,2.132v0.635h-3.7c0.05,0.379,0.201,0.684,0.453,0.912c0.253,0.229,0.572,0.344,0.959,0.344
		c0.599,0,1.065-0.216,1.402-0.649l0.763,0.854c-0.233,0.329-0.548,0.586-0.945,0.771S403.506,347.778,403.022,347.778z
		 M402.845,343.002c-0.308,0-0.558,0.104-0.749,0.313s-0.314,0.507-0.368,0.896h2.159v-0.124c-0.007-0.346-0.1-0.612-0.279-0.801
		C403.429,343.097,403.175,343.002,402.845,343.002z"/>
	<path style="fill:#26A6DB;" d="M408.71,346.526c0.287,0,0.52-0.078,0.698-0.236c0.18-0.157,0.272-0.366,0.279-0.628h1.456
		c-0.004,0.394-0.111,0.755-0.322,1.082c-0.212,0.328-0.501,0.582-0.867,0.763c-0.367,0.181-0.773,0.271-1.217,0.271
		c-0.831,0-1.486-0.264-1.966-0.792c-0.48-0.528-0.72-1.258-0.72-2.188v-0.103c0-0.896,0.238-1.609,0.714-2.144
		c0.477-0.533,1.13-0.8,1.961-0.8c0.727,0,1.31,0.207,1.748,0.62c0.438,0.414,0.661,0.965,0.669,1.652h-1.456
		c-0.007-0.303-0.1-0.549-0.279-0.737c-0.179-0.189-0.415-0.284-0.709-0.284c-0.361,0-0.635,0.133-0.818,0.396
		c-0.185,0.264-0.277,0.691-0.277,1.283v0.161c0,0.6,0.092,1.029,0.274,1.291C408.061,346.396,408.338,346.526,408.71,346.526z"/>
	<path style="fill:#26A6DB;" d="M413.544,342.493c0.412-0.494,0.93-0.741,1.553-0.741c1.26,0,1.899,0.732,1.917,2.196v3.723h-1.552
		v-3.68c0-0.332-0.072-0.579-0.215-0.738c-0.144-0.159-0.382-0.238-0.715-0.238c-0.454,0-0.784,0.175-0.988,0.525v4.131h-1.552
		v-8.25h1.552V342.493z"/>
	<path style="fill:#26A6DB;" d="M421.332,346.065c0-0.19-0.094-0.34-0.281-0.449c-0.188-0.109-0.49-0.207-0.905-0.293
		c-1.383-0.289-2.073-0.877-2.073-1.762c0-0.516,0.214-0.945,0.642-1.291s0.987-0.519,1.679-0.519c0.737,0,1.327,0.174,1.77,0.521
		c0.442,0.348,0.663,0.799,0.663,1.354h-1.552c0-0.222-0.072-0.405-0.215-0.55c-0.144-0.146-0.367-0.218-0.672-0.218
		c-0.261,0-0.464,0.059-0.606,0.178c-0.144,0.117-0.215,0.268-0.215,0.451c0,0.172,0.081,0.311,0.244,0.416s0.438,0.196,0.824,0.273
		s0.713,0.164,0.978,0.261c0.82,0.301,1.23,0.821,1.23,1.563c0,0.529-0.228,0.958-0.683,1.286c-0.454,0.327-1.042,0.491-1.762,0.491
		c-0.486,0-0.919-0.087-1.297-0.261s-0.674-0.411-0.889-0.714s-0.322-0.63-0.322-0.98h1.472c0.014,0.275,0.116,0.487,0.306,0.634
		c0.19,0.146,0.444,0.22,0.763,0.22c0.298,0,0.522-0.056,0.675-0.169C421.256,346.395,421.332,346.246,421.332,346.065z"/>
	<path style="fill:#26A6DB;" d="M426.516,347.778c-0.853,0-1.546-0.262-2.082-0.784c-0.535-0.522-0.803-1.22-0.803-2.089v-0.15
		c0-0.584,0.113-1.106,0.339-1.566s0.545-0.814,0.958-1.063c0.414-0.249,0.886-0.373,1.416-0.373c0.795,0,1.42,0.251,1.877,0.752
		c0.456,0.501,0.685,1.212,0.685,2.132v0.635h-3.7c0.05,0.379,0.201,0.684,0.453,0.912c0.253,0.229,0.572,0.344,0.959,0.344
		c0.598,0,1.065-0.216,1.402-0.649l0.762,0.854c-0.232,0.329-0.547,0.586-0.945,0.771
		C427.439,347.686,426.998,347.778,426.516,347.778z M426.338,343.002c-0.308,0-0.558,0.104-0.749,0.313s-0.314,0.507-0.368,0.896
		h2.159v-0.124c-0.007-0.346-0.101-0.612-0.279-0.801C426.922,343.097,426.667,343.002,426.338,343.002z"/>
	<path style="fill:#26A6DB;" d="M431.424,347.67h-1.558v-8.25h1.558V347.67z"/>
	<path style="fill:#26A6DB;" d="M434.132,341.859l0.048,0.671c0.415-0.519,0.972-0.778,1.671-0.778c0.615,0,1.074,0.181,1.375,0.542
		c0.301,0.362,0.454,0.902,0.461,1.623v3.754h-1.552v-3.717c0-0.329-0.071-0.568-0.215-0.717s-0.382-0.223-0.714-0.223
		c-0.438,0-0.765,0.186-0.983,0.559v4.098h-1.552v-5.812H434.132z"/>
	<path style="fill:#26A6DB;" d="M446.656,345.559l0.763-3.7h1.499l-1.482,5.812h-1.301l-1.101-3.658l-1.101,3.658h-1.295
		l-1.482-5.812h1.498l0.758,3.695l1.063-3.695h1.122L446.656,345.559z"/>
	<path style="fill:#26A6DB;" d="M449.676,340.355c0-0.232,0.077-0.425,0.233-0.575c0.155-0.15,0.368-0.225,0.636-0.225
		c0.266,0,0.477,0.074,0.635,0.225c0.157,0.15,0.236,0.343,0.236,0.575c0,0.236-0.08,0.43-0.239,0.58s-0.37,0.226-0.632,0.226
		c-0.261,0-0.472-0.075-0.631-0.226S449.676,340.591,449.676,340.355z M451.324,347.67h-1.558v-5.812h1.558V347.67z"/>
	<path style="fill:#26A6DB;" d="M455.277,347.778c-0.853,0-1.547-0.262-2.082-0.784s-0.803-1.22-0.803-2.089v-0.15
		c0-0.584,0.113-1.106,0.338-1.566c0.227-0.46,0.546-0.814,0.959-1.063c0.414-0.249,0.886-0.373,1.416-0.373
		c0.795,0,1.42,0.251,1.877,0.752c0.456,0.501,0.685,1.212,0.685,2.132v0.635h-3.7c0.05,0.379,0.201,0.684,0.453,0.912
		c0.253,0.229,0.572,0.344,0.959,0.344c0.598,0,1.065-0.216,1.402-0.649l0.762,0.854c-0.232,0.329-0.547,0.586-0.945,0.771
		C456.201,347.686,455.76,347.778,455.277,347.778z M455.1,343.002c-0.308,0-0.558,0.104-0.749,0.313s-0.314,0.507-0.368,0.896
		h2.159v-0.124c-0.007-0.346-0.101-0.612-0.279-0.801C455.684,343.097,455.429,343.002,455.1,343.002z"/>
	<path style="fill:#26A6DB;" d="M458.307,344.721c0-0.905,0.203-1.627,0.609-2.164s0.963-0.806,1.668-0.806
		c0.565,0,1.033,0.211,1.401,0.634v-2.965h1.559v8.25h-1.402l-0.075-0.617c-0.387,0.482-0.885,0.725-1.493,0.725
		c-0.684,0-1.232-0.27-1.646-0.809C458.514,346.43,458.307,345.681,458.307,344.721z M459.858,344.837
		c0,0.545,0.096,0.963,0.285,1.253c0.189,0.291,0.466,0.436,0.827,0.436c0.479,0,0.818-0.202,1.015-0.607v-2.297
		c-0.193-0.405-0.527-0.607-1.004-0.607C460.233,343.014,459.858,343.621,459.858,344.837z"/>
	<path style="fill:#26A6DB;" d="M467.422,347.778c-0.853,0-1.547-0.262-2.082-0.784s-0.803-1.22-0.803-2.089v-0.15
		c0-0.584,0.113-1.106,0.338-1.566c0.227-0.46,0.546-0.814,0.959-1.063c0.414-0.249,0.886-0.373,1.416-0.373
		c0.795,0,1.42,0.251,1.877,0.752c0.456,0.501,0.685,1.212,0.685,2.132v0.635h-3.7c0.05,0.379,0.201,0.684,0.453,0.912
		c0.253,0.229,0.572,0.344,0.959,0.344c0.598,0,1.065-0.216,1.402-0.649l0.762,0.854c-0.232,0.329-0.547,0.586-0.945,0.771
		C468.346,347.686,467.904,347.778,467.422,347.778z M467.244,343.002c-0.308,0-0.558,0.104-0.749,0.313s-0.314,0.507-0.368,0.896
		h2.159v-0.124c-0.007-0.346-0.101-0.612-0.279-0.801C467.828,343.097,467.573,343.002,467.244,343.002z"/>
	<path style="fill:#26A6DB;" d="M473.957,343.315c-0.211-0.029-0.396-0.043-0.559-0.043c-0.587,0-0.972,0.198-1.154,0.596v3.803
		h-1.553v-5.812h1.467l0.043,0.692c0.312-0.533,0.743-0.8,1.295-0.8c0.172,0,0.332,0.023,0.482,0.069L473.957,343.315z"/>
	<path style="fill:#26A6DB;" d="M479.227,346.418h2.842v1.252h-4.823v-0.945l2.733-3.615h-2.652v-1.251h4.656v0.914L479.227,346.418
		z"/>
	<path style="fill:#26A6DB;" d="M486.521,347.079c-0.383,0.466-0.912,0.698-1.59,0.698c-0.623,0-1.098-0.179-1.426-0.537
		c-0.327-0.358-0.495-0.883-0.502-1.574v-3.808h1.553v3.759c0,0.605,0.275,0.908,0.826,0.908c0.527,0,0.889-0.183,1.086-0.548
		v-4.119h1.557v5.812h-1.461L486.521,347.079z"/>
	<path style="fill:#26A6DB;" d="M492.461,343.315c-0.211-0.029-0.396-0.043-0.559-0.043c-0.587,0-0.972,0.198-1.154,0.596v3.803
		h-1.553v-5.812h1.467l0.043,0.692c0.312-0.533,0.743-0.8,1.295-0.8c0.172,0,0.332,0.023,0.482,0.069L492.461,343.315z"/>
	<path style="fill:#26A6DB;" d="M496.688,347.079c-0.383,0.466-0.912,0.698-1.59,0.698c-0.623,0-1.098-0.179-1.426-0.537
		c-0.327-0.358-0.495-0.883-0.502-1.574v-3.808h1.553v3.759c0,0.605,0.275,0.908,0.826,0.908c0.527,0,0.889-0.183,1.086-0.548
		v-4.119h1.557v5.812h-1.461L496.688,347.079z M495.119,340.336c0,0.19-0.069,0.352-0.209,0.482s-0.318,0.197-0.537,0.197
		c-0.222,0-0.401-0.067-0.537-0.2s-0.204-0.293-0.204-0.479c0-0.188,0.068-0.348,0.204-0.482s0.315-0.203,0.537-0.203
		s0.402,0.068,0.54,0.203S495.119,340.149,495.119,340.336z M496.248,340.336c0-0.194,0.072-0.357,0.217-0.488
		c0.146-0.131,0.321-0.197,0.529-0.197c0.211,0,0.388,0.067,0.529,0.2s0.212,0.295,0.212,0.485c0,0.187-0.068,0.348-0.204,0.482
		s-0.315,0.202-0.537,0.202s-0.402-0.067-0.54-0.202S496.248,340.523,496.248,340.336z"/>
	<path style="fill:#26A6DB;" d="M501.781,346.526c0.286,0,0.519-0.078,0.697-0.236c0.18-0.157,0.272-0.366,0.279-0.628h1.456
		c-0.004,0.394-0.111,0.755-0.322,1.082c-0.211,0.328-0.5,0.582-0.867,0.763s-0.772,0.271-1.217,0.271
		c-0.831,0-1.486-0.264-1.966-0.792s-0.72-1.258-0.72-2.188v-0.103c0-0.896,0.238-1.609,0.714-2.144c0.477-0.533,1.13-0.8,1.961-0.8
		c0.727,0,1.31,0.207,1.748,0.62c0.438,0.414,0.662,0.965,0.669,1.652h-1.456c-0.007-0.303-0.1-0.549-0.279-0.737
		c-0.179-0.189-0.415-0.284-0.709-0.284c-0.361,0-0.634,0.133-0.818,0.396c-0.185,0.264-0.277,0.691-0.277,1.283v0.161
		c0,0.6,0.092,1.029,0.274,1.291C501.131,346.396,501.408,346.526,501.781,346.526z"/>
	<path style="fill:#26A6DB;" d="M507.211,345.339l-0.559,0.559v1.772H505.1v-8.25h1.553v4.57l0.301-0.387l1.488-1.745h1.863
		l-2.1,2.423l2.282,3.389h-1.783L507.211,345.339z"/>
</g>
<g style="enable-background:new    ;">
	<path style="fill:#26A6DB;" d="M336.399,359.618h2.841v1.252h-4.823v-0.945l2.734-3.615h-2.653v-1.251h4.657v0.914L336.399,359.618
		z"/>
	<path style="fill:#26A6DB;" d="M343.693,360.28c-0.383,0.466-0.913,0.698-1.59,0.698c-0.623,0-1.098-0.179-1.426-0.537
		c-0.327-0.358-0.495-0.883-0.502-1.574v-3.808h1.552v3.759c0,0.605,0.276,0.908,0.827,0.908c0.526,0,0.888-0.183,1.085-0.548
		v-4.119h1.558v5.812h-1.461L343.693,360.28z"/>
	<path style="fill:#26A6DB;" d="M349.097,353.555c0-0.232,0.078-0.425,0.234-0.575c0.155-0.15,0.368-0.225,0.636-0.225
		c0.265,0,0.476,0.074,0.634,0.225c0.157,0.15,0.236,0.343,0.236,0.575c0,0.236-0.08,0.43-0.239,0.58s-0.37,0.226-0.631,0.226
		c-0.261,0-0.472-0.075-0.631-0.226C349.176,353.985,349.097,353.791,349.097,353.555z M350.745,360.87h-1.557v-5.812h1.557V360.87z
		"/>
	<path style="fill:#26A6DB;" d="M353.538,355.693c0.412-0.494,0.93-0.741,1.553-0.741c1.26,0,1.899,0.732,1.917,2.196v3.723h-1.552
		v-3.68c0-0.332-0.072-0.579-0.215-0.738c-0.144-0.159-0.382-0.238-0.715-0.238c-0.454,0-0.784,0.175-0.988,0.525v4.131h-1.552
		v-8.25h1.552V355.693z"/>
</g>
<g style="enable-background:new    ;">
	<path style="fill:#26A6DB;" d="M361.441,356.515c-0.211-0.029-0.397-0.043-0.559-0.043c-0.587,0-0.972,0.198-1.154,0.596v3.803
		h-1.553v-5.812h1.467l0.043,0.692c0.312-0.533,0.743-0.8,1.294-0.8c0.172,0,0.333,0.023,0.483,0.069L361.441,356.515z"/>
</g>
<g style="enable-background:new    ;">
	<path style="fill:#26A6DB;" d="M364.761,360.978c-0.852,0-1.546-0.262-2.081-0.784s-0.803-1.22-0.803-2.089v-0.15
		c0-0.584,0.112-1.106,0.338-1.566s0.546-0.814,0.959-1.063c0.414-0.249,0.886-0.373,1.415-0.373c0.795,0,1.421,0.251,1.878,0.752
		c0.456,0.501,0.685,1.212,0.685,2.132v0.635h-3.701c0.051,0.379,0.202,0.684,0.454,0.912c0.253,0.229,0.572,0.344,0.959,0.344
		c0.598,0,1.065-0.216,1.401-0.649l0.763,0.854c-0.232,0.329-0.548,0.586-0.945,0.771S365.244,360.978,364.761,360.978z
		 M364.584,356.202c-0.309,0-0.558,0.104-0.749,0.313c-0.192,0.209-0.314,0.507-0.368,0.896h2.159v-0.124
		c-0.008-0.346-0.101-0.612-0.279-0.801C365.167,356.297,364.913,356.202,364.584,356.202z"/>
	<path style="fill:#26A6DB;" d="M369.487,355.059l0.049,0.649c0.411-0.504,0.969-0.757,1.67-0.757c0.749,0,1.263,0.296,1.542,0.886
		c0.408-0.59,0.99-0.886,1.745-0.886c0.631,0,1.1,0.184,1.407,0.551c0.309,0.367,0.462,0.919,0.462,1.657v3.711h-1.558v-3.706
		c0-0.329-0.064-0.57-0.193-0.723s-0.356-0.228-0.682-0.228c-0.466,0-0.788,0.222-0.967,0.666l0.005,3.99h-1.552v-3.701
		c0-0.336-0.066-0.58-0.199-0.73c-0.132-0.15-0.357-0.225-0.677-0.225c-0.44,0-0.759,0.182-0.956,0.547v4.109h-1.552v-5.812H369.487
		z"/>
	<path style="fill:#26A6DB;" d="M383.774,360.28c-0.383,0.466-0.913,0.698-1.59,0.698c-0.623,0-1.098-0.179-1.426-0.537
		c-0.327-0.358-0.495-0.883-0.502-1.574v-3.808h1.552v3.759c0,0.605,0.276,0.908,0.827,0.908c0.526,0,0.889-0.183,1.085-0.548
		v-4.119h1.558v5.812h-1.461L383.774,360.28z"/>
	<path style="fill:#26A6DB;" d="M389.715,356.515c-0.211-0.029-0.397-0.043-0.559-0.043c-0.587,0-0.972,0.198-1.154,0.596v3.803
		h-1.553v-5.812h1.467l0.043,0.692c0.312-0.533,0.743-0.8,1.294-0.8c0.172,0,0.333,0.023,0.483,0.069L389.715,356.515z"/>
	<path style="fill:#26A6DB;" d="M393.609,359.265c0-0.19-0.095-0.34-0.282-0.449c-0.188-0.109-0.489-0.207-0.905-0.293
		c-1.382-0.289-2.073-0.877-2.073-1.762c0-0.516,0.214-0.945,0.642-1.291c0.429-0.346,0.988-0.519,1.679-0.519
		c0.738,0,1.328,0.174,1.77,0.521c0.442,0.348,0.664,0.799,0.664,1.354h-1.553c0-0.222-0.071-0.405-0.215-0.55
		c-0.143-0.146-0.367-0.218-0.671-0.218c-0.262,0-0.464,0.059-0.607,0.178c-0.143,0.117-0.215,0.268-0.215,0.451
		c0,0.172,0.082,0.311,0.244,0.416c0.163,0.105,0.438,0.196,0.825,0.273s0.712,0.164,0.978,0.261
		c0.819,0.301,1.229,0.821,1.229,1.563c0,0.529-0.228,0.958-0.682,1.286c-0.455,0.327-1.042,0.491-1.762,0.491
		c-0.487,0-0.92-0.087-1.298-0.261c-0.377-0.174-0.674-0.411-0.889-0.714s-0.322-0.63-0.322-0.98h1.472
		c0.015,0.275,0.116,0.487,0.307,0.634c0.189,0.146,0.443,0.22,0.763,0.22c0.297,0,0.521-0.056,0.674-0.169
		C393.533,359.595,393.609,359.447,393.609,359.265z"/>
	<path style="fill:#26A6DB;" d="M401.349,358.019c0,0.895-0.203,1.611-0.609,2.15s-0.955,0.809-1.646,0.809
		c-0.587,0-1.062-0.204-1.423-0.612v2.739h-1.553v-8.046h1.439l0.054,0.569c0.376-0.451,0.867-0.677,1.472-0.677
		c0.717,0,1.273,0.265,1.671,0.795s0.596,1.261,0.596,2.191V358.019z M399.797,357.906c0-0.541-0.096-0.958-0.287-1.252
		c-0.192-0.293-0.471-0.439-0.836-0.439c-0.486,0-0.821,0.186-1.004,0.559v2.379c0.189,0.383,0.528,0.574,1.015,0.574
		C399.426,359.726,399.797,359.119,399.797,357.906z"/>
	<path style="fill:#26A6DB;" d="M405.576,356.515c-0.212-0.029-0.397-0.043-0.559-0.043c-0.588,0-0.973,0.198-1.155,0.596v3.803
		h-1.552v-5.812h1.466l0.043,0.692c0.312-0.533,0.743-0.8,1.295-0.8c0.172,0,0.333,0.023,0.483,0.069L405.576,356.515z"/>
	<path style="fill:#26A6DB;" d="M409.803,360.28c-0.383,0.466-0.913,0.698-1.59,0.698c-0.623,0-1.098-0.179-1.426-0.537
		c-0.327-0.358-0.495-0.883-0.502-1.574v-3.808h1.552v3.759c0,0.605,0.276,0.908,0.827,0.908c0.526,0,0.889-0.183,1.085-0.548
		v-4.119h1.558v5.812h-1.461L409.803,360.28z M408.234,353.536c0,0.19-0.069,0.352-0.209,0.482s-0.319,0.197-0.537,0.197
		c-0.223,0-0.401-0.067-0.537-0.2c-0.137-0.133-0.204-0.293-0.204-0.479c0-0.188,0.067-0.348,0.204-0.482
		c0.136-0.135,0.314-0.203,0.537-0.203c0.222,0,0.401,0.068,0.54,0.203C408.166,353.189,408.234,353.349,408.234,353.536z
		 M409.362,353.536c0-0.194,0.073-0.357,0.218-0.488c0.146-0.131,0.321-0.197,0.529-0.197c0.211,0,0.388,0.067,0.529,0.2
		c0.141,0.133,0.212,0.295,0.212,0.485c0,0.187-0.068,0.348-0.204,0.482c-0.137,0.135-0.315,0.202-0.537,0.202
		c-0.223,0-0.402-0.067-0.54-0.202S409.362,353.723,409.362,353.536z"/>
	<path style="fill:#26A6DB;" d="M413.906,355.059l0.049,0.671c0.415-0.519,0.972-0.778,1.67-0.778c0.616,0,1.074,0.181,1.375,0.542
		c0.301,0.362,0.455,0.902,0.462,1.623v3.754h-1.552v-3.717c0-0.329-0.072-0.568-0.215-0.717c-0.144-0.148-0.382-0.223-0.715-0.223
		c-0.437,0-0.765,0.186-0.982,0.559v4.098h-1.553v-5.812H413.906z"/>
	<path style="fill:#26A6DB;" d="M418.413,357.921c0-0.891,0.212-1.609,0.636-2.153c0.425-0.544,0.997-0.816,1.717-0.816
		c0.637,0,1.133,0.219,1.487,0.655l0.064-0.548h1.407v5.618c0,0.509-0.115,0.951-0.347,1.326c-0.23,0.377-0.556,0.663-0.975,0.859
		c-0.419,0.197-0.909,0.296-1.472,0.296c-0.426,0-0.841-0.085-1.246-0.255c-0.404-0.17-0.711-0.39-0.918-0.658l0.688-0.945
		c0.387,0.434,0.855,0.65,1.407,0.65c0.411,0,0.732-0.11,0.961-0.331c0.229-0.22,0.344-0.532,0.344-0.937v-0.312
		c-0.357,0.405-0.829,0.607-1.412,0.607c-0.698,0-1.264-0.273-1.695-0.819c-0.431-0.546-0.646-1.271-0.646-2.173V357.921z
		 M419.965,358.037c0,0.527,0.105,0.94,0.317,1.24c0.211,0.299,0.501,0.448,0.87,0.448c0.473,0,0.811-0.177,1.015-0.532v-2.447
		c-0.207-0.355-0.542-0.532-1.004-0.532c-0.373,0-0.665,0.152-0.879,0.457C420.071,356.976,419.965,357.431,419.965,358.037z"/>
	<path style="fill:#26A6DB;" d="M426.556,360.87h-1.558v-8.25h1.558V360.87z"/>
	<path style="fill:#26A6DB;" d="M427.823,353.555c0-0.232,0.077-0.425,0.233-0.575c0.155-0.15,0.368-0.225,0.637-0.225
		c0.265,0,0.476,0.074,0.634,0.225c0.157,0.15,0.236,0.343,0.236,0.575c0,0.236-0.08,0.43-0.239,0.58s-0.37,0.226-0.631,0.226
		c-0.262,0-0.472-0.075-0.632-0.226C427.902,353.985,427.823,353.791,427.823,353.555z M429.472,360.87h-1.558v-5.812h1.558V360.87z
		"/>
	<path style="fill:#26A6DB;" d="M433.167,359.726c0.287,0,0.52-0.078,0.698-0.236c0.18-0.157,0.272-0.366,0.279-0.628h1.456
		c-0.004,0.394-0.111,0.755-0.322,1.082c-0.212,0.328-0.501,0.582-0.867,0.763c-0.367,0.181-0.773,0.271-1.217,0.271
		c-0.831,0-1.486-0.264-1.966-0.792c-0.48-0.528-0.72-1.258-0.72-2.188v-0.103c0-0.896,0.238-1.609,0.714-2.144
		c0.477-0.533,1.13-0.8,1.961-0.8c0.727,0,1.31,0.207,1.748,0.62c0.438,0.414,0.661,0.965,0.669,1.652h-1.456
		c-0.007-0.303-0.1-0.549-0.279-0.737c-0.179-0.189-0.415-0.284-0.709-0.284c-0.361,0-0.635,0.133-0.818,0.396
		c-0.185,0.264-0.277,0.691-0.277,1.283v0.161c0,0.6,0.092,1.029,0.274,1.291C432.518,359.596,432.795,359.726,433.167,359.726z"/>
	<path style="fill:#26A6DB;" d="M438.001,355.693c0.412-0.494,0.93-0.741,1.553-0.741c1.26,0,1.899,0.732,1.917,2.196v3.723h-1.552
		v-3.68c0-0.332-0.072-0.579-0.215-0.738c-0.144-0.159-0.382-0.238-0.715-0.238c-0.454,0-0.784,0.175-0.988,0.525v4.131h-1.552
		v-8.25h1.552V355.693z"/>
	<path style="fill:#26A6DB;" d="M445.316,360.978c-0.852,0-1.546-0.262-2.081-0.784s-0.803-1.22-0.803-2.089v-0.15
		c0-0.584,0.112-1.106,0.338-1.566s0.546-0.814,0.959-1.063c0.414-0.249,0.886-0.373,1.415-0.373c0.795,0,1.421,0.251,1.878,0.752
		c0.456,0.501,0.685,1.212,0.685,2.132v0.635h-3.701c0.051,0.379,0.202,0.684,0.454,0.912c0.253,0.229,0.572,0.344,0.959,0.344
		c0.598,0,1.065-0.216,1.401-0.649l0.763,0.854c-0.232,0.329-0.548,0.586-0.945,0.771S445.8,360.978,445.316,360.978z
		 M445.14,356.202c-0.309,0-0.558,0.104-0.749,0.313c-0.192,0.209-0.314,0.507-0.368,0.896h2.159v-0.124
		c-0.008-0.346-0.101-0.612-0.279-0.801C445.723,356.297,445.469,356.202,445.14,356.202z"/>
	<path style="fill:#26A6DB;" d="M450.017,355.059l0.048,0.671c0.416-0.519,0.973-0.778,1.671-0.778c0.615,0,1.074,0.181,1.376,0.542
		c0.301,0.362,0.453,0.902,0.461,1.623v3.754h-1.553v-3.717c0-0.329-0.071-0.568-0.215-0.717c-0.143-0.148-0.381-0.223-0.714-0.223
		c-0.438,0-0.765,0.186-0.983,0.559v4.098h-1.552v-5.812H450.017z"/>
	<path style="fill:#26A6DB;" d="M462.005,359.259h-2.825l-0.537,1.611h-1.714l2.912-7.82h1.492l2.928,7.82h-1.713L462.005,359.259z
		 M459.614,357.954h1.955l-0.982-2.928L459.614,357.954z"/>
	<path style="fill:#26A6DB;" d="M468.154,356.515c-0.211-0.029-0.396-0.043-0.559-0.043c-0.587,0-0.972,0.198-1.154,0.596v3.803
		h-1.553v-5.812h1.467l0.043,0.692c0.312-0.533,0.743-0.8,1.295-0.8c0.172,0,0.332,0.023,0.482,0.069L468.154,356.515z"/>
	<path style="fill:#26A6DB;" d="M474.138,358.019c0,0.931-0.198,1.656-0.597,2.178c-0.396,0.521-0.952,0.781-1.664,0.781
		c-0.631,0-1.134-0.242-1.51-0.725l-0.07,0.617H468.9v-8.25h1.553v2.959c0.358-0.418,0.829-0.628,1.412-0.628
		c0.709,0,1.266,0.261,1.668,0.781c0.403,0.521,0.604,1.255,0.604,2.2V358.019z M472.586,357.906c0-0.587-0.094-1.016-0.279-1.286
		c-0.187-0.271-0.464-0.405-0.833-0.405c-0.494,0-0.834,0.202-1.021,0.606v2.294c0.189,0.408,0.533,0.611,1.031,0.611
		c0.501,0,0.831-0.246,0.988-0.74C472.548,358.749,472.586,358.389,472.586,357.906z"/>
	<path style="fill:#26A6DB;" d="M477.77,360.978c-0.853,0-1.547-0.262-2.082-0.784s-0.803-1.22-0.803-2.089v-0.15
		c0-0.584,0.113-1.106,0.338-1.566c0.227-0.46,0.546-0.814,0.959-1.063c0.414-0.249,0.886-0.373,1.416-0.373
		c0.795,0,1.42,0.251,1.877,0.752c0.456,0.501,0.685,1.212,0.685,2.132v0.635h-3.7c0.05,0.379,0.201,0.684,0.453,0.912
		c0.253,0.229,0.572,0.344,0.959,0.344c0.598,0,1.065-0.216,1.402-0.649l0.762,0.854c-0.232,0.329-0.547,0.586-0.945,0.771
		C478.693,360.886,478.252,360.978,477.77,360.978z M477.592,356.202c-0.308,0-0.558,0.104-0.749,0.313s-0.314,0.507-0.368,0.896
		h2.159v-0.124c-0.007-0.346-0.101-0.612-0.279-0.801C478.176,356.297,477.921,356.202,477.592,356.202z"/>
	<path style="fill:#26A6DB;" d="M481.029,353.555c0-0.232,0.077-0.425,0.233-0.575c0.155-0.15,0.368-0.225,0.636-0.225
		c0.266,0,0.477,0.074,0.635,0.225c0.157,0.15,0.236,0.343,0.236,0.575c0,0.236-0.08,0.43-0.239,0.58s-0.37,0.226-0.632,0.226
		c-0.261,0-0.472-0.075-0.631-0.226S481.029,353.791,481.029,353.555z M482.678,360.87h-1.558v-5.812h1.558V360.87z"/>
	<path style="fill:#26A6DB;" d="M485.815,353.63v1.429h0.993v1.139h-0.993v2.9c0,0.215,0.041,0.369,0.123,0.462
		s0.24,0.14,0.473,0.14c0.172,0,0.324-0.013,0.457-0.038v1.177c-0.305,0.093-0.618,0.14-0.94,0.14c-1.089,0-1.644-0.55-1.665-1.648
		v-3.132h-0.849v-1.139h0.849v-1.429H485.815z"/>
	<path style="fill:#26A6DB;" d="M487.448,357.921c0-0.891,0.212-1.609,0.636-2.153c0.425-0.544,0.997-0.816,1.716-0.816
		c0.638,0,1.134,0.219,1.488,0.655l0.064-0.548h1.407v5.618c0,0.509-0.115,0.951-0.347,1.326c-0.23,0.377-0.556,0.663-0.975,0.859
		c-0.419,0.197-0.909,0.296-1.472,0.296c-0.426,0-0.842-0.085-1.246-0.255s-0.711-0.39-0.919-0.658l0.688-0.945
		c0.387,0.434,0.856,0.65,1.408,0.65c0.411,0,0.731-0.11,0.961-0.331c0.229-0.22,0.344-0.532,0.344-0.937v-0.312
		c-0.358,0.405-0.829,0.607-1.412,0.607c-0.699,0-1.264-0.273-1.695-0.819s-0.646-1.271-0.646-2.173V357.921z M489,358.037
		c0,0.527,0.105,0.94,0.317,1.24c0.211,0.299,0.501,0.448,0.869,0.448c0.473,0,0.812-0.177,1.016-0.532v-2.447
		c-0.208-0.355-0.543-0.532-1.004-0.532c-0.373,0-0.666,0.152-0.879,0.457S489,357.431,489,358.037z"/>
	<path style="fill:#26A6DB;" d="M496.627,360.978c-0.853,0-1.547-0.262-2.082-0.784s-0.803-1.22-0.803-2.089v-0.15
		c0-0.584,0.113-1.106,0.338-1.566c0.227-0.46,0.546-0.814,0.959-1.063c0.414-0.249,0.886-0.373,1.416-0.373
		c0.795,0,1.42,0.251,1.877,0.752c0.456,0.501,0.685,1.212,0.685,2.132v0.635h-3.7c0.05,0.379,0.201,0.684,0.453,0.912
		c0.253,0.229,0.572,0.344,0.959,0.344c0.598,0,1.065-0.216,1.402-0.649l0.762,0.854c-0.232,0.329-0.547,0.586-0.945,0.771
		C497.551,360.886,497.109,360.978,496.627,360.978z M496.449,356.202c-0.308,0-0.558,0.104-0.749,0.313s-0.314,0.507-0.368,0.896
		h2.159v-0.124c-0.007-0.346-0.101-0.612-0.279-0.801C497.033,356.297,496.778,356.202,496.449,356.202z"/>
	<path style="fill:#26A6DB;" d="M505.135,358.019c0,0.931-0.198,1.656-0.597,2.178c-0.396,0.521-0.952,0.781-1.664,0.781
		c-0.631,0-1.134-0.242-1.51-0.725l-0.07,0.617h-1.396v-8.25h1.553v2.959c0.358-0.418,0.829-0.628,1.412-0.628
		c0.709,0,1.266,0.261,1.668,0.781c0.403,0.521,0.604,1.255,0.604,2.2V358.019z M503.583,357.906c0-0.587-0.094-1.016-0.279-1.286
		c-0.187-0.271-0.464-0.405-0.833-0.405c-0.494,0-0.834,0.202-1.021,0.606v2.294c0.189,0.408,0.533,0.611,1.031,0.611
		c0.501,0,0.831-0.246,0.988-0.74C503.545,358.749,503.583,358.389,503.583,357.906z"/>
	<path style="fill:#26A6DB;" d="M508.766,360.978c-0.853,0-1.547-0.262-2.082-0.784s-0.803-1.22-0.803-2.089v-0.15
		c0-0.584,0.113-1.106,0.338-1.566c0.227-0.46,0.546-0.814,0.959-1.063c0.414-0.249,0.886-0.373,1.416-0.373
		c0.795,0,1.42,0.251,1.877,0.752c0.456,0.501,0.685,1.212,0.685,2.132v0.635h-3.7c0.05,0.379,0.201,0.684,0.453,0.912
		c0.253,0.229,0.572,0.344,0.959,0.344c0.598,0,1.065-0.216,1.402-0.649l0.762,0.854c-0.232,0.329-0.547,0.586-0.945,0.771
		C509.689,360.886,509.248,360.978,508.766,360.978z M508.588,356.202c-0.308,0-0.558,0.104-0.749,0.313s-0.314,0.507-0.368,0.896
		h2.159v-0.124c-0.007-0.346-0.101-0.612-0.279-0.801C509.172,356.297,508.917,356.202,508.588,356.202z"/>
	<path style="fill:#26A6DB;" d="M515.302,356.515c-0.211-0.029-0.396-0.043-0.559-0.043c-0.587,0-0.972,0.198-1.154,0.596v3.803
		h-1.553v-5.812h1.467l0.043,0.692c0.312-0.533,0.743-0.8,1.295-0.8c0.172,0,0.332,0.023,0.482,0.069L515.302,356.515z"/>
</g>
<path style="fill:#FFFFFF;stroke:#1D1D1B;stroke-width:0.25;stroke-miterlimit:10;" d="M779.25,117.69"/>
<path style="fill:#FFFFFF;stroke:#1D1D1B;stroke-width:0.25;stroke-miterlimit:10;" d="M54.09,117.69"/>
</svg>
