<svg width="24" height="22" viewBox="0 0 24 22" fill="none" xmlns="http://www.w3.org/2000/svg">
<path fill-rule="evenodd" clip-rule="evenodd" d="M6.375 2.75C4.37132 2.75 2.25 4.49632 2.25 7.25C2.25 10.4745 4.62062 13.4656 7.29705 15.7729C8.60299 16.8988 9.91443 17.8037 10.9019 18.428C11.3461 18.7088 11.7224 18.9313 12 19.0901C12.2776 18.9313 12.6539 18.7088 13.0981 18.428C14.0856 17.8037 15.397 16.8988 16.7029 15.7729C19.3794 13.4656 21.75 10.4745 21.75 7.25C21.75 4.49632 19.6287 2.75 17.625 2.75C15.5652 2.75 13.7118 4.22872 13.0817 6.43406C12.9437 6.91703 12.5023 7.25 12 7.25C11.4977 7.25 11.0563 6.91703 10.9183 6.43406C10.2882 4.22872 8.43478 2.75 6.375 2.75ZM12 20.375C11.4831 21.3743 11.4828 21.3742 11.4825 21.3739L11.479 21.3721L11.471 21.3679L11.4432 21.3533C11.4197 21.3409 11.3861 21.323 11.3432 21.2998C11.2573 21.2534 11.1338 21.1856 10.9782 21.0976C10.6671 20.9213 10.2266 20.663 9.69963 20.3299C8.64807 19.6651 7.24076 18.695 5.82795 17.4772C3.06688 15.0968 0 11.5255 0 7.25C0 3.25368 3.12868 0.5 6.375 0.5C8.69604 0.5 10.7293 1.70226 12 3.52993C13.2707 1.70226 15.3039 0.5 17.625 0.5C20.8713 0.5 24 3.25368 24 7.25C24 11.5255 20.9331 15.0968 18.1721 17.4772C16.7592 18.695 15.3519 19.6651 14.3004 20.3299C13.7734 20.663 13.3329 20.9213 13.0218 21.0976C12.8662 21.1856 12.7428 21.2534 12.6568 21.2998C12.6139 21.323 12.5803 21.3409 12.5568 21.3533L12.529 21.3679L12.521 21.3721L12.5175 21.3739C12.5172 21.3742 12.5169 21.3743 12 20.375ZM12 20.375L12.5175 21.3739C12.1933 21.5416 11.8067 21.5416 11.4825 21.3739L12 20.375Z" fill="black"/>
</svg>
