<svg id="Ebene_1" data-name="Ebene 1" xmlns="http://www.w3.org/2000/svg" viewBox="0 0 447.01 692.45"><defs><style>.cls-1,.cls-4,.cls-9{fill:#26a6db;}.cls-2,.cls-3{fill:#db2567;}.cls-3{opacity:0.3;}.cls-4{stroke:#fff;stroke-width:0.5px;}.cls-5,.cls-6{fill:#fff;}.cls-6{stroke:#1d1d1b;stroke-width:0.25px;}.cls-6,.cls-8{stroke-miterlimit:10;}.cls-7{opacity:0.3;}.cls-8{fill:none;stroke:#26a6db;}.cls-9{font-size:11px;font-family:Roboto-Bold, Roboto;font-weight:700;}.cls-10{letter-spacing:-0.01em;}.cls-11{letter-spacing:0.01em;}.cls-12{letter-spacing:-0.01em;}</style></defs><title>Prozessgrafik_Hochformat_200418_CB</title><path class="cls-1" d="M188.36,607.1a2.4,2.4,0,0,0-2.5-2.38h-7.8a2.39,2.39,0,0,0-2.49,2.38l-1.42,9.6a2.54,2.54,0,0,0,2.5,2.55h.78l1.92,19.13a1.44,1.44,0,0,0,1.52,1.42h2.18a1.45,1.45,0,0,0,1.53-1.42l1.92-19.13h.78a2.54,2.54,0,0,0,2.49-2.55Z" transform="translate(0)"/><circle class="cls-1" cx="181.96" cy="598.86" r="4.18"/><path class="cls-2" d="M211.5,607.1a2.4,2.4,0,0,0-2.5-2.38h-7.8a2.39,2.39,0,0,0-2.49,2.38l-1.42,9.6a2.54,2.54,0,0,0,2.5,2.55h.78l1.92,19.13A1.44,1.44,0,0,0,204,639.8h2.18a1.45,1.45,0,0,0,1.53-1.42l1.92-19.13h.78a2.54,2.54,0,0,0,2.49-2.55Z" transform="translate(0)"/><circle class="cls-2" cx="205.1" cy="598.86" r="4.18"/><path class="cls-2" d="M234.64,607.1a2.4,2.4,0,0,0-2.5-2.38h-7.8a2.4,2.4,0,0,0-2.49,2.38l-1.42,9.6a2.54,2.54,0,0,0,2.5,2.55h.78l1.92,19.13a1.44,1.44,0,0,0,1.52,1.42h2.19a1.44,1.44,0,0,0,1.52-1.42l1.92-19.13h.78a2.54,2.54,0,0,0,2.49-2.55Z" transform="translate(0)"/><circle class="cls-2" cx="228.24" cy="598.86" r="4.18"/><path class="cls-2" d="M257.78,607.1a2.4,2.4,0,0,0-2.5-2.38h-7.79a2.4,2.4,0,0,0-2.5,2.38l-1.41,9.6a2.54,2.54,0,0,0,2.49,2.55h.78l1.92,19.13a1.44,1.44,0,0,0,1.52,1.42h2.19a1.44,1.44,0,0,0,1.52-1.42l1.92-19.13h.78a2.54,2.54,0,0,0,2.5-2.55Z" transform="translate(0)"/><circle class="cls-2" cx="251.38" cy="598.86" r="4.18"/><path class="cls-1" d="M280.92,607.1a2.4,2.4,0,0,0-2.49-2.38h-7.8a2.4,2.4,0,0,0-2.5,2.38l-1.41,9.6a2.54,2.54,0,0,0,2.49,2.55H270l1.92,19.13a1.44,1.44,0,0,0,1.53,1.42h2.18a1.44,1.44,0,0,0,1.52-1.42l1.92-19.13h.78a2.54,2.54,0,0,0,2.5-2.55Z" transform="translate(0)"/><circle class="cls-1" cx="274.53" cy="598.86" r="4.18"/><path class="cls-2" d="M188.36,554.45a2.4,2.4,0,0,0-2.5-2.38h-7.8a2.39,2.39,0,0,0-2.49,2.38l-1.42,9.61a2.54,2.54,0,0,0,2.5,2.54h.78l1.92,19.14a1.44,1.44,0,0,0,1.52,1.41h2.18a1.44,1.44,0,0,0,1.53-1.41l1.92-19.14h.78a2.54,2.54,0,0,0,2.49-2.54Z" transform="translate(0)"/><circle class="cls-2" cx="181.96" cy="546.21" r="4.18"/><path class="cls-2" d="M165.21,554.45a2.39,2.39,0,0,0-2.49-2.38h-7.8a2.4,2.4,0,0,0-2.5,2.38L151,564.06a2.54,2.54,0,0,0,2.5,2.54h.77l1.92,19.14a1.44,1.44,0,0,0,1.53,1.41h2.18a1.44,1.44,0,0,0,1.52-1.41l1.92-19.14h.78a2.54,2.54,0,0,0,2.5-2.54Z" transform="translate(0)"/><circle class="cls-2" cx="158.82" cy="546.21" r="4.18"/><path class="cls-1" d="M211.5,554.45a2.4,2.4,0,0,0-2.5-2.38h-7.8a2.39,2.39,0,0,0-2.49,2.38l-1.42,9.61a2.54,2.54,0,0,0,2.5,2.54h.78l1.92,19.14a1.44,1.44,0,0,0,1.52,1.41h2.18a1.44,1.44,0,0,0,1.53-1.41l1.92-19.14h.78a2.53,2.53,0,0,0,2.49-2.54Z" transform="translate(0)"/><circle class="cls-1" cx="205.1" cy="546.21" r="4.18"/><path class="cls-2" d="M234.64,554.45a2.4,2.4,0,0,0-2.5-2.38h-7.8a2.4,2.4,0,0,0-2.49,2.38l-1.42,9.61a2.54,2.54,0,0,0,2.5,2.54h.78l1.92,19.14a1.44,1.44,0,0,0,1.52,1.41h2.19a1.44,1.44,0,0,0,1.52-1.41l1.92-19.14h.78a2.53,2.53,0,0,0,2.49-2.54Z" transform="translate(0)"/><circle class="cls-2" cx="228.24" cy="546.21" r="4.18"/><path class="cls-1" d="M257.78,554.45a2.4,2.4,0,0,0-2.5-2.38h-7.79a2.4,2.4,0,0,0-2.5,2.38l-1.41,9.61a2.53,2.53,0,0,0,2.49,2.54h.78l1.92,19.14a1.44,1.44,0,0,0,1.52,1.41h2.19a1.44,1.44,0,0,0,1.52-1.41l1.92-19.14h.78a2.54,2.54,0,0,0,2.5-2.54Z" transform="translate(0)"/><circle class="cls-1" cx="251.38" cy="546.21" r="4.18"/><path class="cls-2" d="M280.92,554.45a2.4,2.4,0,0,0-2.49-2.38h-7.8a2.4,2.4,0,0,0-2.5,2.38l-1.41,9.61a2.53,2.53,0,0,0,2.49,2.54H270l1.92,19.14a1.44,1.44,0,0,0,1.53,1.41h2.18a1.44,1.44,0,0,0,1.52-1.41l1.92-19.14h.78a2.54,2.54,0,0,0,2.5-2.54Z" transform="translate(0)"/><circle class="cls-2" cx="274.53" cy="546.21" r="4.18"/><path class="cls-2" d="M304.06,554.45a2.39,2.39,0,0,0-2.49-2.38h-7.8a2.4,2.4,0,0,0-2.5,2.38l-1.41,9.61a2.54,2.54,0,0,0,2.5,2.54h.77l1.93,19.14a1.44,1.44,0,0,0,1.52,1.41h2.18a1.44,1.44,0,0,0,1.53-1.41l1.92-19.14H303a2.53,2.53,0,0,0,2.49-2.54Z" transform="translate(0)"/><circle class="cls-2" cx="297.67" cy="546.21" r="4.18"/><path class="cls-2" d="M199.46,659.74a2.4,2.4,0,0,0-2.49-2.38h-7.8a2.4,2.4,0,0,0-2.5,2.38l-1.41,9.61a2.54,2.54,0,0,0,2.5,2.55h.77L190.45,691a1.45,1.45,0,0,0,1.53,1.42h2.18a1.44,1.44,0,0,0,1.52-1.42l1.92-19.13h.78a2.54,2.54,0,0,0,2.5-2.55Z" transform="translate(0)"/><circle class="cls-2" cx="193.07" cy="651.51" r="4.19"/><path class="cls-2" d="M222.61,659.74a2.41,2.41,0,0,0-2.5-2.38h-7.8a2.4,2.4,0,0,0-2.5,2.38l-1.41,9.61a2.54,2.54,0,0,0,2.5,2.55h.77L213.59,691a1.45,1.45,0,0,0,1.53,1.42h2.18a1.44,1.44,0,0,0,1.52-1.42l1.92-19.13h.78a2.54,2.54,0,0,0,2.5-2.55Z" transform="translate(0)"/><circle class="cls-2" cx="216.21" cy="651.51" r="4.19"/><path class="cls-1" d="M245.75,659.74a2.41,2.41,0,0,0-2.5-2.38h-7.8a2.4,2.4,0,0,0-2.5,2.38l-1.41,9.61a2.54,2.54,0,0,0,2.5,2.55h.78L236.74,691a1.44,1.44,0,0,0,1.52,1.42h2.18A1.45,1.45,0,0,0,242,691l1.92-19.13h.78a2.54,2.54,0,0,0,2.49-2.55Z" transform="translate(0)"/><circle class="cls-1" cx="239.35" cy="651.51" r="4.19"/><path class="cls-1" d="M268.89,659.74a2.41,2.41,0,0,0-2.5-2.38h-7.8a2.39,2.39,0,0,0-2.49,2.38l-1.42,9.61a2.54,2.54,0,0,0,2.5,2.55H258L259.88,691a1.44,1.44,0,0,0,1.52,1.42h2.18a1.45,1.45,0,0,0,1.53-1.42L267,671.9h.78a2.54,2.54,0,0,0,2.49-2.55Z" transform="translate(0)"/><circle class="cls-1" cx="262.49" cy="651.51" r="4.19"/><path class="cls-1" d="M320.61,70.44a1.2,1.2,0,0,1,1.2-1.2h28.5a3.09,3.09,0,0,1,3.09,3.08V611.78a3.09,3.09,0,0,1-3.09,3.09H324.42a1.21,1.21,0,1,1,0-2.41h24.69a1.88,1.88,0,0,0,1.88-1.88V73.53a1.88,1.88,0,0,0-1.88-1.89h-27.3A1.2,1.2,0,0,1,320.61,70.44Z" transform="translate(0)"/><path class="cls-1" d="M333.2,604.71h0a1.2,1.2,0,0,1-.06,1.7l-6.85,6.37a1.2,1.2,0,0,0,0,1.76l6.85,6.38a1.2,1.2,0,0,1,.06,1.7h0a1.21,1.21,0,0,1-1.7.06l-8.74-8.14a1.19,1.19,0,0,1,0-1.76l8.74-8.13A1.21,1.21,0,0,1,333.2,604.71Z" transform="translate(0)"/><path class="cls-1" d="M93.6,612.46V71.64a2.39,2.39,0,0,1,2.4-2.4h26.57a1.2,1.2,0,1,1,0,2.4H97.2a1.2,1.2,0,0,0-1.2,1.2V610.77a1.69,1.69,0,0,0,1.69,1.69h27.49a1.21,1.21,0,0,1,0,2.41H96A2.4,2.4,0,0,1,93.6,612.46Z" transform="translate(0)"/><path class="cls-1" d="M113.79,79.39h0a1.2,1.2,0,0,1,.06-1.7l6.85-6.37a1.19,1.19,0,0,0,0-1.76l-6.85-6.37a1.2,1.2,0,0,1-.06-1.7h0a1.2,1.2,0,0,1,1.7-.06l8.75,8.13a1.2,1.2,0,0,1,0,1.76l-8.74,8.13A1.19,1.19,0,0,1,113.79,79.39Z" transform="translate(0)"/><path class="cls-2" d="M137,485.28h2a2.13,2.13,0,0,1,2.21,2.24c0,.63,0,1.27,0,1.9a2.09,2.09,0,0,1-2.09,2.25c-1.42.05-2.85.05-4.28,0a2.08,2.08,0,0,1-2.1-2.23c0-.65,0-1.3,0-2a2.11,2.11,0,0,1,2.19-2.2Z" transform="translate(0)"/><path class="cls-2" d="M147.55,485.28h2a2.13,2.13,0,0,1,2.23,2.23c0,.63,0,1.27,0,1.91a2.08,2.08,0,0,1-2.09,2.25q-2.14.07-4.29,0a2.08,2.08,0,0,1-2.09-2.25c0-.65,0-1.3,0-2a2.11,2.11,0,0,1,2.11-2.18C146.14,485.26,146.84,485.28,147.55,485.28Z" transform="translate(0)"/><path class="cls-3" d="M158.15,485.28c.69,0,1.38,0,2.06,0a2.12,2.12,0,0,1,2.18,2.22c0,.69,0,1.38,0,2.06a2,2,0,0,1-1.76,2.05c-1.65.08-3.31.08-5,0a2,2,0,0,1-1.75-2.05c0-.7,0-1.41,0-2.11a2.11,2.11,0,0,1,2.12-2.17C156.74,485.26,157.45,485.28,158.15,485.28Z" transform="translate(0)"/><path class="cls-2" d="M133.25,450c0,1.11,0,2.13,0,3.16a4.77,4.77,0,1,0,9.53,0c0-1,0-2.08,0-3.16h5.31c0,1.06,0,2.12,0,3.17a4.77,4.77,0,0,0,9.53,0c0-1,0-2.08,0-3.16h5.3c0,1,0,2.08,0,3.12a4.61,4.61,0,0,0,2,3.92,4.76,4.76,0,0,0,7.48-3.87c0-1,0-2.09,0-3.18,1,0,2.07-.08,3.07,0a6.3,6.3,0,0,1,5.89,5.43,6.23,6.23,0,0,1,.05,1.06c0,12.34,0,24.69,0,37a6.48,6.48,0,0,1-6.54,6.58h-44a6.34,6.34,0,0,1-6.08-3.66,6.09,6.09,0,0,1-.61-2.76c0-12.37,0-24.73,0-37.09a6.5,6.5,0,0,1,6.5-6.64Zm19.58,45.86c7.34,0,14.69,0,22,0a2.26,2.26,0,0,0,2.37-2.37q0-14.19,0-28.4a2.26,2.26,0,0,0-2.37-2.36q-22,0-44,0a2.29,2.29,0,0,0-2.43,2.42q0,14.15,0,28.29a2.29,2.29,0,0,0,2.43,2.42C138.21,495.85,145.52,495.87,152.83,495.87Z" transform="translate(0)"/><path class="cls-2" d="M164.51,450v-3.23a3.18,3.18,0,0,1,6.36,0q0,3.25,0,6.51a3.18,3.18,0,0,1-6.35,0C164.51,452.2,164.51,451.1,164.51,450Z" transform="translate(0)"/><path class="cls-2" d="M156,450.06c0,1.08,0,2.15,0,3.23a3.18,3.18,0,0,1-6.35,0q0-3.25,0-6.51a3.18,3.18,0,0,1,6.35,0C156,447.87,156,449,156,450.06Z" transform="translate(0)"/><path class="cls-2" d="M134.84,450c0-1.08,0-2.16,0-3.23a3.18,3.18,0,0,1,6.35,0q0,3.27,0,6.52a3.18,3.18,0,0,1-6.35,0C134.83,452.18,134.84,451.1,134.84,450Z" transform="translate(0)"/><path class="cls-2" d="M158.12,473.37c-.69,0-1.38,0-2.07,0a2.12,2.12,0,0,1-2.13-2.21c0-.65,0-1.3,0-2A2.07,2.07,0,0,1,156,467q2.14-.08,4.29,0a2.08,2.08,0,0,1,2.08,2.25v1.9a2.13,2.13,0,0,1-2.21,2.24Z" transform="translate(0)"/><path class="cls-3" d="M147.55,473.37h-2a2.14,2.14,0,0,1-2.28-2.28v-1.85a2.1,2.1,0,0,1,2.12-2.27q2.12-.06,4.23,0a2.09,2.09,0,0,1,2.12,2.22c0,.65,0,1.3,0,2a2.13,2.13,0,0,1-2.17,2.22Z" transform="translate(0)"/><path class="cls-2" d="M168.73,473.37h-2a2.14,2.14,0,0,1-2.21-2.25v-1.9a2.09,2.09,0,0,1,2.1-2.24c1.42-.05,2.85-.05,4.28,0a2.08,2.08,0,0,1,2.1,2.23v2a2.13,2.13,0,0,1-2.15,2.2C170.14,473.39,169.43,473.37,168.73,473.37Z" transform="translate(0)"/><path class="cls-2" d="M158.13,482.5H156a2.07,2.07,0,0,1-2.1-2.11c0-.73,0-1.45,0-2.17a2.07,2.07,0,0,1,2.09-2.07h4.28a2.07,2.07,0,0,1,2.1,2.11c0,.72,0,1.45,0,2.17a2.07,2.07,0,0,1-2.09,2.07Z" transform="translate(0)"/><path class="cls-2" d="M137,476.15h2.17a2.07,2.07,0,0,1,2.06,2c0,.76,0,1.52,0,2.27a2.07,2.07,0,0,1-2.07,2h-4.34a2.07,2.07,0,0,1-2.06-2q0-1.14,0-2.28a2.07,2.07,0,0,1,2.07-2Z" transform="translate(0)"/><path class="cls-2" d="M147.51,482.5h-2.12a2.07,2.07,0,0,1-2.07-2.08c0-.75,0-1.49,0-2.23a2.06,2.06,0,0,1,2.06-2h4.34a2.07,2.07,0,0,1,2.07,2.08c0,.73,0,1.45,0,2.17a2.08,2.08,0,0,1-2.11,2.1Z" transform="translate(0)"/><path class="cls-2" d="M168.75,482.5h-2.11a2.09,2.09,0,0,1-2.13-2.09v-2.17a2.08,2.08,0,0,1,2.12-2.09h4.24a2.08,2.08,0,0,1,2.12,2.14v2.06a2.09,2.09,0,0,1-2.17,2.15Z" transform="translate(0)"/><path class="cls-4" d="M72.23,273.83a2.39,2.39,0,0,0-2.49-2.38h-7.8a2.4,2.4,0,0,0-2.5,2.38L58,283.44a2.54,2.54,0,0,0,2.5,2.55h.77l1.92,19.13a1.45,1.45,0,0,0,1.53,1.42h2.18a1.44,1.44,0,0,0,1.52-1.42L70.37,286h.78a2.54,2.54,0,0,0,2.5-2.55Z" transform="translate(0)"/><circle class="cls-4" cx="65.84" cy="265.59" r="4.18"/><path class="cls-4" d="M53,275.93a2.4,2.4,0,0,0-2.5-2.38h-7.8a2.4,2.4,0,0,0-2.5,2.38l-1.41,9.61a2.54,2.54,0,0,0,2.5,2.55h.77L44,307.22a1.44,1.44,0,0,0,1.53,1.42h2.18a1.44,1.44,0,0,0,1.52-1.42l1.92-19.13H52a2.54,2.54,0,0,0,2.5-2.55Z" transform="translate(0)"/><circle class="cls-4" cx="46.64" cy="267.7" r="4.19"/><path class="cls-4" d="M87.5,284.86a2.4,2.4,0,0,0-2.5-2.38H77.2a2.39,2.39,0,0,0-2.49,2.38l-1.42,9.61a2.54,2.54,0,0,0,2.5,2.55h.78l1.92,19.13A1.44,1.44,0,0,0,80,317.57h2.18a1.45,1.45,0,0,0,1.53-1.42L85.64,297h.78a2.54,2.54,0,0,0,2.49-2.55Z" transform="translate(0)"/><circle class="cls-4" cx="81.1" cy="276.63" r="4.19"/><path class="cls-4" d="M38.73,288a2.41,2.41,0,0,0-2.5-2.38h-7.8a2.41,2.41,0,0,0-2.5,2.38l-1.41,9.61a2.54,2.54,0,0,0,2.5,2.55h.78l1.91,19.13a1.45,1.45,0,0,0,1.53,1.42h2.18A1.45,1.45,0,0,0,35,319.28l1.92-19.13h.78a2.54,2.54,0,0,0,2.49-2.55Z" transform="translate(0)"/><circle class="cls-4" cx="32.33" cy="279.76" r="4.19"/><path class="cls-4" d="M61.89,287.94a2.4,2.4,0,0,0-2.5-2.38h-7.8a2.39,2.39,0,0,0-2.49,2.38l-1.42,9.61a2.54,2.54,0,0,0,2.5,2.55H51l1.92,19.13a1.44,1.44,0,0,0,1.52,1.42h2.19a1.44,1.44,0,0,0,1.52-1.42L60,300.1h.78a2.54,2.54,0,0,0,2.49-2.55Z" transform="translate(0)"/><circle class="cls-4" cx="55.49" cy="279.7" r="4.18"/><path class="cls-2" d="M265.13,410.74v82.58a2.28,2.28,0,0,0,2.28,2.28h16.23a2.36,2.36,0,0,0,2.36-2.36V476.19a1.87,1.87,0,0,1,1.87-1.87h10.84a1.87,1.87,0,0,1,1.86,1.87v17.05a2.36,2.36,0,0,0,2.36,2.36h18.22a2.28,2.28,0,0,0,2.28-2.28V410.74a2.28,2.28,0,0,0-2.28-2.29H267.41A2.28,2.28,0,0,0,265.13,410.74Zm40.51,51.8h8.05v7.82h-8.05Zm0-15h8.05v7.81h-8.05Zm0-15h8.05v7.82h-8.05Zm0-15h8.05v7.81h-8.05Zm-16.35,45.07h8.06v7.82h-8.06Zm0-15h8.06v7.81h-8.06Zm0-15h8.06v7.82h-8.06Zm0-15h8.06v7.81h-8.06Zm-16.23,45.07h8.06v7.82h-8.06Zm0-15h8.06v7.81h-8.06Zm0-15h8.06v7.82h-8.06Zm0-15h8.06v7.81h-8.06Z" transform="translate(0)"/><path class="cls-2" d="M282.79,397.36h4.48a0,0,0,0,1,0,0v9.51a1.62,1.62,0,0,1-1.62,1.62h-1.23a1.62,1.62,0,0,1-1.62-1.62v-9.51A0,0,0,0,1,282.79,397.36Z" transform="translate(570.07 805.85) rotate(-180)"/><path class="cls-2" d="M237.61,500.67a3.31,3.31,0,0,1-3.28-3.81l2.9-19.68a5.87,5.87,0,0,1,6.1-5.82H262.4a5.87,5.87,0,0,1,6.1,5.82l2.9,19.68a3.33,3.33,0,0,1-3.28,3.81Z" transform="translate(0)"/><circle class="cls-2" cx="252.86" cy="457.04" r="10.23"/><path class="cls-5" d="M248.66,486.83l2.48-9.11a1.57,1.57,0,0,0,0-.86l-1.79-5.5h7.09l-1.8,5.5a1.57,1.57,0,0,0,0,.86l2.48,9.11h0L253.74,491a1.11,1.11,0,0,1-1.75,0" transform="translate(0)"/><path class="cls-1" d="M179.74,202.87H126a2.28,2.28,0,0,0-2.28,2.28v82.58A2.29,2.29,0,0,0,126,290h18.21a2.37,2.37,0,0,0,2.37-2.37v-17a1.86,1.86,0,0,1,1.86-1.87h10.84a1.87,1.87,0,0,1,1.87,1.87v17a2.37,2.37,0,0,0,2.36,2.37h16.22a2.29,2.29,0,0,0,2.29-2.29V205.15A2.28,2.28,0,0,0,179.74,202.87Zm-38.22,61.9h-8.05V257h8.05Zm0-15h-8.05v-7.82h8.05Zm0-15h-8.05v-7.81h8.05Zm0-15h-8.05v-7.81h8.05Zm16.35,45.08h-8.06V257h8.06Zm0-15h-8.06v-7.82h8.06Zm0-15h-8.06v-7.81h8.06Zm0-15h-8.06v-7.81h8.06Zm16.22,45.08H166V257h8.05Zm0-15H166v-7.82h8.05Zm0-15H166v-7.81h8.05Zm0-15H166v-7.81h8.05Z" transform="translate(0)"/><path class="cls-1" d="M161.51,191.77h1.23a1.62,1.62,0,0,1,1.62,1.62v9.51a0,0,0,0,1,0,0h-4.48a0,0,0,0,1,0,0V193.4A1.62,1.62,0,0,1,161.51,191.77Z"/><path class="cls-1" d="M209.55,295.08a3.32,3.32,0,0,0,3.28-3.8l-2.9-19.69a5.86,5.86,0,0,0-6.1-5.81H184.76a5.86,5.86,0,0,0-6.1,5.81l-2.9,19.69a3.32,3.32,0,0,0,3.28,3.8Z" transform="translate(0)"/><circle class="cls-1" cx="194.29" cy="251.46" r="10.23"/><path class="cls-5" d="M198.5,281.25,196,272.14a1.57,1.57,0,0,1,0-.86l1.8-5.5h-7.09l1.79,5.5a1.57,1.57,0,0,1,0,.86l-2.48,9.11h0l3.33,4.14a1.12,1.12,0,0,0,1.75,0" transform="translate(0)"/><path class="cls-2" d="M298.28,335.66a10,10,0,1,0,10,10A10,10,0,0,0,298.28,335.66Zm0,15.61a5.65,5.65,0,1,1,5.65-5.65A5.65,5.65,0,0,1,298.28,351.27Z" transform="translate(0)"/><path class="cls-1" d="M205.91,335.66a10,10,0,1,0,10,10A10,10,0,0,0,205.91,335.66Zm0,15.61a5.65,5.65,0,1,1,5.65-5.65A5.65,5.65,0,0,1,205.91,351.27Z" transform="translate(0)"/><path class="cls-1" d="M179.55,352.61l2.72-3a4.82,4.82,0,0,0,3.59,2c1.62,0,2.63-1,2.63-3.25V335.66h4.43v12.83a7.11,7.11,0,0,1-1.85,5.24,7,7,0,0,1-5.1,1.82A8,8,0,0,1,179.55,352.61Z" transform="translate(0)"/><path class="cls-2" d="M265.12,335.66h4.73l5.23,8.42,5.24-8.42h4.73v19.92h-4.36v-13l-5.61,8.52H275l-5.55-8.43v12.92h-4.3Z" transform="translate(0)"/><path class="cls-1" d="M238.82,355.58H234.1l-5.24-8.42-5.24,8.42H218.9V335.66h4.35v13l5.61-8.52H229l5.55,8.43V335.66h4.29Z" transform="translate(0)"/><path class="cls-1" d="M246.81,347.93a5.66,5.66,0,0,1,7.47-7.47l3.17-3.17a10,10,0,0,0-13.8,13.81Z" transform="translate(0)"/><path class="cls-2" d="M257.24,343.58a5.65,5.65,0,0,1-7.31,7.31l-3.2,3.2a10,10,0,0,0,13.71-13.71Z" transform="translate(0)"/><path class="cls-4" d="M406.77,274.05a2.4,2.4,0,0,0-2.5-2.38h-7.79a2.4,2.4,0,0,0-2.5,2.38l-1.41,9.6a2.54,2.54,0,0,0,2.49,2.55h.78l1.92,19.14a1.44,1.44,0,0,0,1.52,1.41h2.19a1.44,1.44,0,0,0,1.52-1.41l1.92-19.14h.78a2.54,2.54,0,0,0,2.49-2.55Z" transform="translate(0)"/><circle class="cls-4" cx="400.37" cy="265.81" r="4.18"/><path class="cls-4" d="M387.57,276.15a2.4,2.4,0,0,0-2.5-2.38h-7.8a2.4,2.4,0,0,0-2.49,2.38l-1.42,9.61a2.54,2.54,0,0,0,2.5,2.54h.78l1.92,19.14a1.44,1.44,0,0,0,1.52,1.42h2.19a1.44,1.44,0,0,0,1.52-1.42l1.92-19.14h.78a2.53,2.53,0,0,0,2.49-2.54Z" transform="translate(0)"/><circle class="cls-4" cx="381.17" cy="267.91" r="4.19"/><path class="cls-4" d="M422,285.08a2.4,2.4,0,0,0-2.49-2.38h-7.8a2.4,2.4,0,0,0-2.5,2.38l-1.41,9.6a2.54,2.54,0,0,0,2.49,2.55h.78L413,316.37a1.43,1.43,0,0,0,1.52,1.41h2.19a1.43,1.43,0,0,0,1.52-1.41l1.92-19.14H421a2.54,2.54,0,0,0,2.5-2.55Z" transform="translate(0)"/><circle class="cls-4" cx="415.64" cy="276.84" r="4.19"/><path class="cls-4" d="M373.26,288.21a2.4,2.4,0,0,0-2.5-2.38H363a2.4,2.4,0,0,0-2.5,2.38l-1.41,9.61a2.54,2.54,0,0,0,2.49,2.55h.78l1.92,19.13a1.44,1.44,0,0,0,1.52,1.42H368a1.44,1.44,0,0,0,1.52-1.42l1.92-19.13h.78a2.55,2.55,0,0,0,2.5-2.55Z" transform="translate(0)"/><circle class="cls-4" cx="366.87" cy="279.97" r="4.19"/><path class="cls-4" d="M396.42,288.16a2.4,2.4,0,0,0-2.5-2.38h-7.79a2.4,2.4,0,0,0-2.5,2.38l-1.41,9.6a2.54,2.54,0,0,0,2.49,2.55h.78l1.92,19.14a1.44,1.44,0,0,0,1.52,1.41h2.19a1.44,1.44,0,0,0,1.52-1.41l1.92-19.14h.78a2.54,2.54,0,0,0,2.5-2.55Z" transform="translate(0)"/><circle class="cls-4" cx="390.03" cy="279.92" r="4.18"/><path class="cls-6" d="M814,348.64" transform="translate(0)"/><path class="cls-1" d="M191.87,65.07a2.4,2.4,0,0,0-2.5-2.38h-7.8a2.39,2.39,0,0,0-2.49,2.38l-1.42,9.61a2.54,2.54,0,0,0,2.5,2.54h.78l1.92,19.14a1.44,1.44,0,0,0,1.52,1.42h2.18a1.45,1.45,0,0,0,1.53-1.42L190,77.22h.78a2.54,2.54,0,0,0,2.49-2.54Z" transform="translate(0)"/><circle class="cls-1" cx="185.47" cy="56.83" r="4.18"/><g class="cls-7"><path class="cls-1" d="M215,65.07a2.4,2.4,0,0,0-2.5-2.38h-7.8a2.4,2.4,0,0,0-2.49,2.38l-1.42,9.61a2.54,2.54,0,0,0,2.5,2.54h.78L206,96.36a1.44,1.44,0,0,0,1.52,1.42h2.19a1.44,1.44,0,0,0,1.52-1.42l1.92-19.14h.78a2.53,2.53,0,0,0,2.49-2.54Z" transform="translate(0)"/><circle class="cls-1" cx="208.61" cy="56.83" r="4.18"/></g><g class="cls-7"><path class="cls-1" d="M238.15,65.07a2.4,2.4,0,0,0-2.5-2.38h-7.8a2.4,2.4,0,0,0-2.49,2.38l-1.42,9.61a2.54,2.54,0,0,0,2.5,2.54h.78l1.92,19.14a1.44,1.44,0,0,0,1.52,1.42h2.19a1.44,1.44,0,0,0,1.52-1.42l1.92-19.14h.78a2.54,2.54,0,0,0,2.5-2.54Z" transform="translate(0)"/><circle class="cls-1" cx="231.75" cy="56.83" r="4.18"/></g><path class="cls-1" d="M261.29,65.07a2.4,2.4,0,0,0-2.5-2.38H251a2.4,2.4,0,0,0-2.5,2.38l-1.41,9.61a2.53,2.53,0,0,0,2.49,2.54h.78l1.92,19.14a1.44,1.44,0,0,0,1.52,1.42H256a1.44,1.44,0,0,0,1.52-1.42l1.92-19.14h.78a2.54,2.54,0,0,0,2.5-2.54Z" transform="translate(0)"/><circle class="cls-1" cx="254.89" cy="56.83" r="4.18"/><path class="cls-1" d="M284.43,65.07a2.39,2.39,0,0,0-2.49-2.38h-7.8a2.4,2.4,0,0,0-2.5,2.38l-1.41,9.61a2.54,2.54,0,0,0,2.5,2.54h.77l1.92,19.14A1.45,1.45,0,0,0,277,97.78h2.18a1.44,1.44,0,0,0,1.52-1.42l1.92-19.14h.78a2.54,2.54,0,0,0,2.5-2.54Z" transform="translate(0)"/><circle class="cls-1" cx="278.04" cy="56.83" r="4.18"/><g class="cls-7"><path class="cls-1" d="M191.87,12.42a2.4,2.4,0,0,0-2.5-2.38h-7.8a2.39,2.39,0,0,0-2.49,2.38L177.66,22a2.54,2.54,0,0,0,2.5,2.55h.78l1.92,19.13a1.44,1.44,0,0,0,1.52,1.42h2.18a1.45,1.45,0,0,0,1.53-1.42L190,24.58h.78A2.54,2.54,0,0,0,193.28,22Z" transform="translate(0)"/><circle class="cls-1" cx="185.47" cy="4.18" r="4.18"/></g><path class="cls-1" d="M168.72,12.42A2.39,2.39,0,0,0,166.23,10h-7.8a2.4,2.4,0,0,0-2.5,2.38L154.52,22a2.54,2.54,0,0,0,2.5,2.55h.77l1.93,19.13a1.44,1.44,0,0,0,1.52,1.42h2.18a1.44,1.44,0,0,0,1.52-1.42l1.93-19.13h.78A2.54,2.54,0,0,0,170.14,22Z" transform="translate(0)"/><circle class="cls-1" cx="162.33" cy="4.18" r="4.18"/><path class="cls-1" d="M215,12.42a2.4,2.4,0,0,0-2.5-2.38h-7.8a2.4,2.4,0,0,0-2.49,2.38L200.8,22a2.54,2.54,0,0,0,2.5,2.55h.78L206,43.71a1.44,1.44,0,0,0,1.52,1.42h2.19a1.44,1.44,0,0,0,1.52-1.42l1.92-19.13h.78A2.54,2.54,0,0,0,216.42,22Z" transform="translate(0)"/><circle class="cls-1" cx="208.61" cy="4.18" r="4.18"/><path class="cls-1" d="M238.15,12.42a2.4,2.4,0,0,0-2.5-2.38h-7.8a2.4,2.4,0,0,0-2.49,2.38L223.94,22a2.54,2.54,0,0,0,2.5,2.55h.78l1.92,19.13a1.44,1.44,0,0,0,1.52,1.42h2.19a1.44,1.44,0,0,0,1.52-1.42l1.92-19.13h.78a2.54,2.54,0,0,0,2.5-2.55Z" transform="translate(0)"/><circle class="cls-1" cx="231.75" cy="4.18" r="4.18"/><path class="cls-1" d="M261.29,12.42a2.4,2.4,0,0,0-2.5-2.38H251a2.4,2.4,0,0,0-2.5,2.38L247.09,22a2.54,2.54,0,0,0,2.49,2.55h.78l1.92,19.13a1.44,1.44,0,0,0,1.52,1.42H256a1.44,1.44,0,0,0,1.52-1.42l1.92-19.13h.78a2.54,2.54,0,0,0,2.5-2.55Z" transform="translate(0)"/><circle class="cls-1" cx="254.89" cy="4.18" r="4.18"/><g class="cls-7"><path class="cls-1" d="M284.43,12.42A2.39,2.39,0,0,0,281.94,10h-7.8a2.4,2.4,0,0,0-2.5,2.38L270.23,22a2.54,2.54,0,0,0,2.5,2.55h.77l1.92,19.13A1.44,1.44,0,0,0,277,45.13h2.18a1.44,1.44,0,0,0,1.52-1.42l1.92-19.13h.78a2.54,2.54,0,0,0,2.5-2.55Z" transform="translate(0)"/><circle class="cls-1" cx="278.04" cy="4.18" r="4.18"/></g><path class="cls-1" d="M307.58,12.42a2.4,2.4,0,0,0-2.5-2.38h-7.8a2.4,2.4,0,0,0-2.5,2.38L293.37,22a2.54,2.54,0,0,0,2.5,2.55h.77l1.93,19.13a1.44,1.44,0,0,0,1.52,1.42h2.18a1.45,1.45,0,0,0,1.53-1.42l1.92-19.13h.78A2.54,2.54,0,0,0,309,22Z" transform="translate(0)"/><circle class="cls-1" cx="301.18" cy="4.18" r="4.18"/><path class="cls-1" d="M203,117.72a2.39,2.39,0,0,0-2.49-2.38h-7.8a2.4,2.4,0,0,0-2.5,2.38l-1.41,9.6a2.54,2.54,0,0,0,2.5,2.55H192L194,149a1.44,1.44,0,0,0,1.53,1.41h2.18a1.43,1.43,0,0,0,1.52-1.41l1.92-19.14h.78a2.54,2.54,0,0,0,2.5-2.55Z" transform="translate(0)"/><circle class="cls-1" cx="196.58" cy="109.48" r="4.19"/><g class="cls-7"><path class="cls-1" d="M226.12,117.72a2.4,2.4,0,0,0-2.5-2.38h-7.8a2.4,2.4,0,0,0-2.5,2.38l-1.41,9.6a2.54,2.54,0,0,0,2.5,2.55h.77L217.1,149a1.44,1.44,0,0,0,1.53,1.41h2.18a1.44,1.44,0,0,0,1.53-1.41l1.91-19.14H225a2.54,2.54,0,0,0,2.5-2.55Z" transform="translate(0)"/><circle class="cls-1" cx="219.72" cy="109.48" r="4.19"/></g><path class="cls-1" d="M249.26,117.72a2.4,2.4,0,0,0-2.5-2.38H239a2.39,2.39,0,0,0-2.49,2.38l-1.42,9.6a2.54,2.54,0,0,0,2.5,2.55h.78L240.25,149a1.44,1.44,0,0,0,1.52,1.41H244a1.44,1.44,0,0,0,1.53-1.41l1.92-19.14h.78a2.54,2.54,0,0,0,2.49-2.55Z" transform="translate(0)"/><circle class="cls-1" cx="242.86" cy="109.48" r="4.19"/><path class="cls-1" d="M272.4,117.72a2.4,2.4,0,0,0-2.5-2.38h-7.8a2.4,2.4,0,0,0-2.49,2.38l-1.42,9.6a2.54,2.54,0,0,0,2.5,2.55h.78L263.39,149a1.44,1.44,0,0,0,1.52,1.41h2.18a1.43,1.43,0,0,0,1.53-1.41l1.92-19.14h.78a2.54,2.54,0,0,0,2.49-2.55Z" transform="translate(0)"/><circle class="cls-1" cx="266" cy="109.48" r="4.19"/><path class="cls-8" d="M230.49-7" transform="translate(0)"/><path class="cls-6" d="M208.61,0" transform="translate(0)"/><text class="cls-9" transform="translate(362.1 346.73)">Mitarbeiter <tspan x="0" y="13.2">wechseln </tspan><tspan x="0" y="26.4">tempo</tspan><tspan class="cls-10" x="31.6" y="26.4">r</tspan><tspan x="35.45" y="26.4">är zum </tspan><tspan x="0" y="39.6">Arbeitgeber mit </tspan><tspan x="0" y="52.8">Mehrbeda</tspan><tspan class="cls-11" x="49.98" y="52.8">r</tspan><tspan x="54.1" y="52.8">f</tspan></text><text class="cls-9" transform="translate(0 346.73)">Mitarbeiter <tspan x="0" y="13.2">wechseln wieder </tspan><tspan x="0" y="26.4">zurück zu ih</tspan><tspan class="cls-12" x="59.83" y="26.4">r</tspan><tspan x="63.74" y="26.4">em </tspan><tspan x="0" y="39.6">ursprünglichen </tspan><tspan x="0" y="52.8">Arbeitgeber</tspan></text></svg>