<?xml version="1.0" encoding="iso-8859-1"?>
<!-- Generator: Adobe Illustrator 24.1.2, SVG Export Plug-In . SVG Version: 6.00 Build 0)  -->
<svg version="1.1" id="Ebene_1" xmlns="http://www.w3.org/2000/svg" xmlns:xlink="http://www.w3.org/1999/xlink" x="0px" y="0px"
	 width="447.01px" height="692.45px" viewBox="0 0 447.01 692.45" style="enable-background:new 0 0 447.01 692.45;"
	 xml:space="preserve">
<path style="fill:#26A6DB;" d="M188.36,607.1c-0.01-1.325-1.092-2.392-2.418-2.382c-0.027,0-0.055,0.001-0.082,0.002h-7.8
	c-1.319-0.055-2.433,0.969-2.488,2.288c-0.001,0.031-0.002,0.061-0.002,0.092l-1.42,9.6c-0.006,1.391,1.109,2.528,2.5,2.55h0.78
	l1.92,19.13c0.01,0.795,0.662,1.432,1.458,1.422c0.021,0,0.042-0.001,0.062-0.002h2.18c0.8,0.044,1.484-0.568,1.528-1.367
	c0.001-0.018,0.002-0.035,0.002-0.052l1.92-19.13h0.78c1.387-0.027,2.496-1.163,2.49-2.55L188.36,607.1z"/>
<circle style="fill:#26A6DB;" cx="181.96" cy="598.86" r="4.18"/>
<path style="fill:#DB2567;" d="M211.5,607.1c-0.01-1.325-1.092-2.392-2.418-2.382c-0.027,0-0.055,0.001-0.082,0.002h-7.8
	c-1.319-0.055-2.433,0.969-2.488,2.288c-0.001,0.031-0.002,0.061-0.002,0.092l-1.42,9.6c-0.006,1.391,1.109,2.528,2.5,2.55h0.78
	l1.92,19.13c0.01,0.795,0.663,1.432,1.458,1.422c0.017,0,0.035-0.001,0.052-0.002h2.18c0.8,0.044,1.484-0.568,1.528-1.367
	c0.001-0.018,0.002-0.035,0.002-0.052l1.92-19.13h0.78c1.387-0.027,2.496-1.163,2.49-2.55L211.5,607.1z"/>
<circle style="fill:#DB2567;" cx="205.1" cy="598.86" r="4.18"/>
<path style="fill:#DB2567;" d="M234.64,607.1c-0.01-1.325-1.092-2.392-2.418-2.382c-0.027,0-0.055,0.001-0.082,0.002h-7.8
	c-1.325-0.05-2.439,0.984-2.488,2.308c-0.001,0.024-0.001,0.048-0.002,0.072l-1.42,9.6c-0.006,1.391,1.109,2.528,2.5,2.55h0.78
	l1.92,19.13c0.01,0.795,0.662,1.432,1.458,1.422c0.021,0,0.042-0.001,0.062-0.002h2.19c0.794,0.044,1.474-0.564,1.518-1.358
	c0.001-0.021,0.002-0.042,0.002-0.062l1.92-19.13h0.78c1.387-0.027,2.496-1.163,2.49-2.55L234.64,607.1z"/>
<circle style="fill:#DB2567;" cx="228.24" cy="598.86" r="4.18"/>
<path style="fill:#DB2567;" d="M257.78,607.1c-0.01-1.325-1.092-2.392-2.418-2.382c-0.027,0-0.055,0.001-0.082,0.002h-7.79
	c-1.324-0.055-2.443,0.974-2.498,2.298c-0.001,0.027-0.002,0.055-0.002,0.082l-1.41,9.6c-0.006,1.387,1.103,2.523,2.49,2.55h0.78
	l1.92,19.13c0.01,0.795,0.662,1.432,1.458,1.422c0.021,0,0.042-0.001,0.062-0.002h2.19c0.794,0.044,1.474-0.564,1.518-1.358
	c0.001-0.021,0.002-0.042,0.002-0.062l1.92-19.13h0.78c1.391-0.022,2.506-1.159,2.5-2.55L257.78,607.1z"/>
<circle style="fill:#DB2567;" cx="251.38" cy="598.86" r="4.18"/>
<path style="fill:#26A6DB;" d="M280.92,607.1c-0.01-1.325-1.093-2.392-2.418-2.382c-0.024,0-0.048,0.001-0.072,0.002h-7.8
	c-1.324-0.055-2.443,0.974-2.498,2.298c-0.001,0.027-0.002,0.055-0.002,0.082l-1.41,9.6c-0.006,1.387,1.103,2.523,2.49,2.55H270
	l1.92,19.13c0.009,0.795,0.662,1.432,1.457,1.423c0.024,0,0.049-0.001,0.073-0.003h2.18c0.794,0.044,1.474-0.564,1.518-1.358
	c0.001-0.021,0.002-0.042,0.002-0.062l1.92-19.13h0.78c1.391-0.022,2.506-1.159,2.5-2.55L280.92,607.1z"/>
<circle style="fill:#26A6DB;" cx="274.53" cy="598.86" r="4.18"/>
<path style="fill:#DB2567;" d="M188.36,554.45c-0.01-1.325-1.092-2.392-2.418-2.382c-0.027,0-0.055,0.001-0.082,0.002h-7.8
	c-1.319-0.055-2.433,0.969-2.488,2.288c-0.001,0.031-0.002,0.061-0.002,0.092l-1.42,9.61c0,1.387,1.113,2.518,2.5,2.54h0.78
	l1.92,19.14c0.015,0.795,0.672,1.427,1.468,1.412c0.018,0,0.035-0.001,0.052-0.002h2.18c0.794,0.05,1.478-0.553,1.527-1.347
	c0.001-0.021,0.002-0.042,0.003-0.063l1.92-19.14h0.78c1.383-0.027,2.49-1.156,2.49-2.54L188.36,554.45z"/>
<circle style="fill:#DB2567;" cx="181.96" cy="546.21" r="4.18"/>
<path style="fill:#DB2567;" d="M165.21,554.45c-0.004-1.32-1.078-2.386-2.398-2.382c-0.031,0-0.061,0.001-0.092,0.002h-7.8
	c-1.324-0.055-2.443,0.974-2.498,2.298c-0.001,0.027-0.002,0.055-0.002,0.082l-1.42,9.61c0,1.387,1.113,2.518,2.5,2.54h0.77
	l1.92,19.14c0.015,0.795,0.672,1.428,1.467,1.413c0.021,0,0.042-0.001,0.063-0.003h2.18c0.794,0.044,1.474-0.563,1.518-1.357
	c0.001-0.018,0.002-0.035,0.002-0.052l1.92-19.14h0.78c1.387-0.022,2.5-1.153,2.5-2.54L165.21,554.45z"/>
<circle style="fill:#DB2567;" cx="158.82" cy="546.21" r="4.18"/>
<path style="fill:#26A6DB;" d="M211.5,554.45c-0.01-1.325-1.092-2.392-2.418-2.382c-0.027,0-0.055,0.001-0.082,0.002h-7.8
	c-1.319-0.055-2.433,0.969-2.488,2.288c-0.001,0.031-0.002,0.061-0.002,0.092l-1.42,9.61c0,1.387,1.113,2.518,2.5,2.54h0.78
	l1.92,19.14c0.015,0.795,0.672,1.427,1.468,1.412c0.018,0,0.035-0.001,0.052-0.002h2.18c0.794,0.05,1.478-0.553,1.527-1.347
	c0.001-0.021,0.002-0.042,0.003-0.063l1.92-19.14h0.78c1.386-0.022,2.496-1.154,2.49-2.54L211.5,554.45z"/>
<circle style="fill:#26A6DB;" cx="205.1" cy="546.21" r="4.18"/>
<path style="fill:#DB2567;" d="M234.64,554.45c-0.01-1.325-1.092-2.392-2.418-2.382c-0.027,0-0.055,0.001-0.082,0.002h-7.8
	c-1.325-0.05-2.439,0.984-2.488,2.308c-0.001,0.024-0.001,0.048-0.002,0.072l-1.42,9.61c0,1.387,1.113,2.518,2.5,2.54h0.78
	l1.92,19.14c0.015,0.795,0.672,1.427,1.468,1.412c0.018,0,0.035-0.001,0.052-0.002h2.19c0.794,0.044,1.474-0.563,1.518-1.357
	c0.001-0.018,0.002-0.035,0.002-0.052l1.92-19.14h0.78c1.386-0.022,2.496-1.154,2.49-2.54L234.64,554.45z"/>
<circle style="fill:#DB2567;" cx="228.24" cy="546.21" r="4.18"/>
<path style="fill:#26A6DB;" d="M257.78,554.45c-0.01-1.325-1.092-2.392-2.418-2.382c-0.027,0-0.055,0.001-0.082,0.002h-7.79
	c-1.324-0.055-2.443,0.974-2.498,2.298c-0.001,0.027-0.002,0.055-0.002,0.082l-1.41,9.61c-0.006,1.386,1.104,2.518,2.49,2.54h0.78
	l1.92,19.14c0.015,0.795,0.672,1.427,1.468,1.412c0.018,0,0.035-0.001,0.052-0.002h2.19c0.794,0.044,1.474-0.563,1.518-1.357
	c0.001-0.018,0.002-0.035,0.002-0.052l1.92-19.14h0.78c1.387-0.022,2.5-1.153,2.5-2.54L257.78,554.45z"/>
<circle style="fill:#26A6DB;" cx="251.38" cy="546.21" r="4.18"/>
<path style="fill:#DB2567;" d="M280.92,554.45c-0.01-1.325-1.093-2.392-2.418-2.382c-0.024,0-0.048,0.001-0.072,0.002h-7.8
	c-1.324-0.055-2.443,0.974-2.498,2.298c-0.001,0.027-0.002,0.055-0.002,0.082l-1.41,9.61c-0.006,1.386,1.104,2.518,2.49,2.54H270
	l1.92,19.14c0.015,0.795,0.672,1.428,1.467,1.413c0.021,0,0.042-0.001,0.063-0.003h2.18c0.794,0.044,1.474-0.563,1.518-1.357
	c0.001-0.018,0.002-0.035,0.002-0.052l1.92-19.14h0.78c1.387-0.022,2.5-1.153,2.5-2.54L280.92,554.45z"/>
<circle style="fill:#DB2567;" cx="274.53" cy="546.21" r="4.18"/>
<path style="fill:#DB2567;" d="M304.06,554.45c-0.004-1.32-1.078-2.386-2.398-2.382c-0.031,0-0.061,0.001-0.092,0.002h-7.8
	c-1.324-0.055-2.443,0.974-2.498,2.298c-0.001,0.027-0.002,0.055-0.002,0.082l-1.41,9.61c0,1.387,1.113,2.518,2.5,2.54h0.77
	l1.93,19.14c0.015,0.795,0.672,1.427,1.468,1.412c0.017,0,0.035-0.001,0.052-0.002h2.18c0.794,0.05,1.478-0.553,1.527-1.347
	c0.001-0.021,0.002-0.042,0.003-0.063l1.92-19.14H303c1.386-0.022,2.496-1.154,2.49-2.54L304.06,554.45z"/>
<circle style="fill:#DB2567;" cx="297.67" cy="546.21" r="4.18"/>
<path style="fill:#DB2567;" d="M199.46,659.74c-0.01-1.325-1.093-2.392-2.418-2.382c-0.024,0-0.048,0.001-0.072,0.002h-7.8
	c-1.324-0.055-2.443,0.974-2.498,2.298c-0.001,0.027-0.002,0.055-0.002,0.082l-1.41,9.61c-0.006,1.391,1.109,2.528,2.5,2.55h0.77
	l1.92,19.1c0.015,0.801,0.677,1.437,1.478,1.422c0.018,0,0.035-0.001,0.052-0.002h2.18c0.794,0.044,1.474-0.564,1.518-1.358
	c0.001-0.021,0.002-0.042,0.002-0.062l1.92-19.13h0.78c1.391-0.022,2.506-1.159,2.5-2.55L199.46,659.74z"/>
<circle style="fill:#DB2567;" cx="193.07" cy="651.51" r="4.19"/>
<path style="fill:#DB2567;" d="M222.61,659.74c-0.016-1.331-1.107-2.397-2.438-2.382c-0.021,0-0.041,0.001-0.062,0.002h-7.8
	c-1.324-0.055-2.443,0.974-2.498,2.298c-0.001,0.027-0.002,0.055-0.002,0.082l-1.41,9.61c-0.006,1.391,1.109,2.528,2.5,2.55h0.77
	l1.92,19.1c0.015,0.801,0.677,1.437,1.478,1.422c0.018,0,0.035-0.001,0.052-0.002h2.18c0.794,0.044,1.474-0.564,1.518-1.358
	c0.001-0.021,0.002-0.042,0.002-0.062l1.92-19.13h0.78c1.391-0.022,2.506-1.159,2.5-2.55L222.61,659.74z"/>
<circle style="fill:#DB2567;" cx="216.21" cy="651.51" r="4.19"/>
<path style="fill:#26A6DB;" d="M245.75,659.74c-0.016-1.331-1.107-2.397-2.438-2.382c-0.021,0-0.041,0.001-0.062,0.002h-7.8
	c-1.324-0.055-2.443,0.974-2.498,2.298c-0.001,0.027-0.002,0.055-0.002,0.082l-1.41,9.61c-0.006,1.391,1.109,2.528,2.5,2.55h0.78
	l1.92,19.1c0.01,0.795,0.662,1.432,1.458,1.422c0.021,0,0.042-0.001,0.062-0.002h2.18c0.798,0.061,1.495-0.537,1.556-1.336
	c0.002-0.028,0.003-0.056,0.004-0.084l1.92-19.13h0.78c1.387-0.027,2.496-1.163,2.49-2.55L245.75,659.74z"/>
<circle style="fill:#26A6DB;" cx="239.35" cy="651.51" r="4.19"/>
<path style="fill:#26A6DB;" d="M268.89,659.74c-0.016-1.331-1.107-2.397-2.438-2.382c-0.021,0-0.041,0.001-0.062,0.002h-7.8
	c-1.319-0.055-2.433,0.969-2.488,2.288c-0.001,0.031-0.002,0.061-0.002,0.092l-1.42,9.61c-0.006,1.391,1.109,2.528,2.5,2.55H258
	l1.88,19.1c0.01,0.795,0.662,1.432,1.458,1.422c0.021,0,0.042-0.001,0.062-0.002h2.18c0.8,0.044,1.484-0.568,1.528-1.367
	c0.001-0.018,0.002-0.035,0.002-0.052l1.89-19.1h0.78c1.387-0.027,2.496-1.163,2.49-2.55L268.89,659.74z"/>
<circle style="fill:#26A6DB;" cx="262.49" cy="651.51" r="4.19"/>
<path style="fill:#26A6DB;" d="M320.61,70.44c0-0.663,0.537-1.2,1.2-1.2l0,0h28.5c1.703,0,3.084,1.377,3.09,3.08v539.46
	c0,1.707-1.383,3.09-3.09,3.09h0h-25.89c-0.665,0.061-1.254-0.429-1.315-1.095c-0.061-0.665,0.429-1.254,1.095-1.315
	c0.073-0.007,0.147-0.007,0.22,0h24.69c1.038,0,1.88-0.842,1.88-1.88l0,0V73.53c0.006-1.038-0.832-1.884-1.87-1.89
	c-0.003,0-0.007,0-0.01,0h-27.3C321.147,71.64,320.61,71.103,320.61,70.44C320.61,70.44,320.61,70.44,320.61,70.44z"/>
<path style="fill:#26A6DB;" d="M333.2,604.71L333.2,604.71c0.453,0.484,0.428,1.243-0.056,1.696
	c-0.001,0.001-0.003,0.003-0.004,0.004l-6.85,6.37c-0.486,0.451-0.515,1.21-0.064,1.696c0.021,0.022,0.042,0.044,0.064,0.064
	l6.85,6.38c0.486,0.451,0.515,1.21,0.064,1.696c-0.001,0.001-0.003,0.003-0.004,0.004l0,0c-0.455,0.482-1.213,0.509-1.7,0.06
	l-8.74-8.14c-0.486-0.442-0.521-1.195-0.079-1.681c0.025-0.028,0.051-0.054,0.079-0.079l8.74-8.13
	C331.987,604.201,332.745,604.228,333.2,604.71z"/>
<path style="fill:#26A6DB;" d="M93.6,612.46V71.64c-0.006-1.32,1.06-2.394,2.38-2.4c0.007,0,0.013,0,0.02,0h26.57
	c0.663,0,1.2,0.537,1.2,1.2c0,0.663-0.537,1.2-1.2,1.2H97.2c-0.663,0-1.2,0.537-1.2,1.2v537.93c0,0.933,0.757,1.69,1.69,1.69
	c0,0,0,0,0,0h27.49c0.665,0.061,1.156,0.65,1.095,1.315c-0.053,0.581-0.514,1.042-1.095,1.095H96c-1.325,0-2.4-1.075-2.4-2.4
	C93.6,612.467,93.6,612.463,93.6,612.46z"/>
<path style="fill:#26A6DB;" d="M113.79,79.39L113.79,79.39c-0.453-0.484-0.428-1.243,0.056-1.696
	c0.001-0.001,0.003-0.003,0.004-0.004l6.85-6.37c0.486-0.442,0.521-1.195,0.079-1.681c-0.025-0.028-0.051-0.054-0.079-0.079
	l-6.85-6.37c-0.486-0.451-0.515-1.21-0.064-1.696c0.001-0.001,0.003-0.003,0.004-0.004l0,0c0.451-0.486,1.21-0.515,1.696-0.064
	c0.001,0.001,0.003,0.003,0.004,0.004l8.75,8.13c0.486,0.451,0.515,1.21,0.064,1.696c-0.021,0.022-0.042,0.044-0.064,0.064
	l-8.74,8.13c-0.473,0.456-1.226,0.442-1.683-0.031C113.808,79.41,113.799,79.4,113.79,79.39z"/>
<path style="fill:#DB2567;" d="M137,485.28h2c1.175-0.046,2.166,0.87,2.211,2.045c0.003,0.065,0.002,0.13-0.001,0.195
	c0,0.63,0,1.27,0,1.9c0.088,1.151-0.773,2.156-1.924,2.244c-0.055,0.004-0.111,0.006-0.166,0.006c-1.42,0.05-2.85,0.05-4.28,0
	c-1.149,0.014-2.091-0.906-2.105-2.054c-0.001-0.059,0.001-0.117,0.005-0.176c0-0.65,0-1.3,0-2c-0.051-1.164,0.852-2.149,2.016-2.2
	c0.058-0.003,0.116-0.003,0.174,0L137,485.28z"/>
<path style="fill:#DB2567;" d="M147.55,485.28h2c1.175-0.057,2.173,0.85,2.23,2.025c0.003,0.068,0.003,0.137,0,0.205
	c0,0.63,0,1.27,0,1.91c0.094,1.145-0.758,2.149-1.903,2.243c-0.062,0.005-0.125,0.007-0.187,0.007c-1.427,0.047-2.857,0.047-4.29,0
	c-1.149,0.009-2.088-0.914-2.097-2.063c-0.001-0.062,0.002-0.125,0.007-0.187c0-0.65,0-1.3,0-2c-0.039-1.165,0.874-2.14,2.039-2.179
	c0.024-0.001,0.047-0.001,0.071-0.001C146.14,485.26,146.84,485.28,147.55,485.28z"/>
<path style="opacity:0.3;fill:#DB2567;enable-background:new    ;" d="M158.15,485.28c0.69,0,1.38,0,2.06,0
	c1.17-0.034,2.147,0.886,2.181,2.057c0.002,0.054,0.001,0.109-0.001,0.163c0,0.69,0,1.38,0,2.06c0.033,1.036-0.731,1.926-1.76,2.05
	c-1.65,0.08-3.31,0.08-5,0c-1.025-0.129-1.784-1.017-1.75-2.05c0-0.7,0-1.41,0-2.11c-0.033-1.165,0.884-2.136,2.049-2.169
	c0.024-0.001,0.047-0.001,0.071-0.001C156.74,485.26,157.45,485.28,158.15,485.28z"/>
<path style="fill:#DB2567;" d="M133.25,450c0,1.11,0,2.13,0,3.16c-0.121,2.632,1.915,4.863,4.547,4.983
	c2.632,0.121,4.863-1.915,4.983-4.547c0.007-0.145,0.007-0.291,0-0.437c0-1,0-2.08,0-3.16h5.31c0,1.06,0,2.12,0,3.17
	c0.121,2.632,2.352,4.667,4.983,4.547c2.463-0.113,4.434-2.084,4.547-4.547c0-1,0-2.08,0-3.16h5.3c0,1,0,2.08,0,3.12
	c-0.04,1.561,0.712,3.036,2,3.92c2.157,1.502,5.124,0.971,6.626-1.186c0.549-0.788,0.846-1.724,0.854-2.684c0-1,0-2.09,0-3.18
	c1,0,2.07-0.08,3.07,0c3.01,0.168,5.478,2.444,5.89,5.43c0.047,0.351,0.064,0.706,0.05,1.06c0,12.34,0,24.69,0,37
	c0.055,3.578-2.801,6.524-6.379,6.579c-0.054,0.001-0.107,0.001-0.161,0h-44c-2.584,0.135-4.99-1.314-6.08-3.66
	c-0.417-0.859-0.626-1.805-0.61-2.76c0-12.37,0-24.73,0-37.09c-0.077-3.589,2.769-6.561,6.358-6.639
	c0.047-0.001,0.094-0.001,0.142-0.001L133.25,450z M152.83,495.86c7.34,0,14.69,0,22,0c1.247,0.062,2.308-0.898,2.37-2.144
	c0.004-0.075,0.004-0.15,0-0.226c0-9.46,0-18.927,0-28.4c0.057-1.247-0.908-2.304-2.155-2.36c-0.072-0.003-0.143-0.003-0.215,0
	c-14.667,0-29.333,0-44,0c-1.262-0.079-2.35,0.879-2.429,2.142c-0.006,0.093-0.006,0.186-0.001,0.279c0,9.433,0,18.863,0,28.29
	c-0.074,1.263,0.889,2.346,2.152,2.421c0.093,0.005,0.186,0.005,0.278-0.001c7.38-0.01,14.69,0.01,22,0.01V495.86z"/>
<path style="fill:#DB2567;" d="M164.51,450v-3.23c0-1.756,1.424-3.18,3.18-3.18c1.756,0,3.18,1.424,3.18,3.18
	c0,2.167,0,4.337,0,6.51c-0.098,1.754-1.6,3.095-3.353,2.997c-1.616-0.091-2.906-1.381-2.997-2.997
	C164.51,452.2,164.51,451.1,164.51,450z"/>
<path style="fill:#DB2567;" d="M156,450.06c0,1.08,0,2.15,0,3.23c-0.098,1.754-1.6,3.095-3.353,2.997
	c-1.616-0.091-2.906-1.381-2.997-2.997c0-2.167,0-4.337,0-6.51c0.098-1.754,1.6-3.095,3.353-2.997
	c1.616,0.091,2.906,1.381,2.997,2.997C156,447.87,156,449,156,450.06z"/>
<path style="fill:#DB2567;" d="M134.84,450c0-1.08,0-2.16,0-3.23c0.098-1.754,1.6-3.095,3.353-2.997
	c1.616,0.091,2.906,1.381,2.997,2.997c0,2.18,0,4.353,0,6.52c-0.098,1.754-1.6,3.095-3.353,2.997
	c-1.616-0.091-2.906-1.381-2.997-2.997C134.83,452.18,134.84,451.1,134.84,450z"/>
<path style="fill:#DB2567;" d="M158.12,473.37c-0.69,0-1.38,0-2.07,0c-1.171,0.007-2.125-0.937-2.132-2.108
	c0-0.034,0-0.068,0.002-0.102c0-0.65,0-1.3,0-2c-0.05-1.142,0.836-2.108,1.978-2.158C155.932,467,155.966,467,156,467
	c1.427-0.053,2.857-0.053,4.29,0c1.149-0.004,2.083,0.924,2.087,2.073c0,0.059-0.002,0.118-0.007,0.177v1.9
	c0.062,1.175-0.841,2.177-2.015,2.239c-0.065,0.003-0.13,0.004-0.195,0.001L158.12,473.37z"/>
<path style="opacity:0.3;fill:#DB2567;enable-background:new    ;" d="M147.55,473.37h-2c-1.179,0.08-2.2-0.811-2.28-1.99
	c-0.007-0.096-0.007-0.193,0-0.29v-1.85c-0.094-1.156,0.767-2.169,1.923-2.263c0.066-0.005,0.131-0.008,0.197-0.007
	c1.413-0.04,2.823-0.04,4.23,0c1.154-0.019,2.105,0.902,2.124,2.056c0.001,0.055,0,0.11-0.004,0.164c0,0.65,0,1.3,0,2
	c0.05,1.175-0.862,2.169-2.038,2.219c-0.044,0.002-0.088,0.002-0.132,0.001L147.55,473.37z"/>
<path style="fill:#DB2567;" d="M168.73,473.37h-2c-1.181,0.04-2.171-0.885-2.212-2.066c-0.002-0.061-0.002-0.123,0.002-0.184v-1.9
	c-0.083-1.151,0.783-2.152,1.935-2.235c0.055-0.004,0.11-0.006,0.165-0.005c1.42-0.05,2.85-0.05,4.28,0
	c1.149-0.014,2.091,0.906,2.105,2.054c0.001,0.059-0.001,0.117-0.005,0.176v2c0.039,1.176-0.883,2.16-2.059,2.199
	c-0.03,0.001-0.061,0.001-0.091,0.001C170.14,473.39,169.43,473.37,168.73,473.37z"/>
<path style="fill:#DB2567;" d="M158.13,482.5H156c-1.143,0.017-2.083-0.896-2.1-2.039c0-0.024,0-0.047,0-0.071c0-0.73,0-1.45,0-2.17
	c0-1.143,0.927-2.07,2.07-2.07c0.007,0,0.013,0,0.02,0h4.28c1.143-0.017,2.083,0.896,2.1,2.039c0,0.024,0,0.047,0,0.071
	c0,0.72,0,1.45,0,2.17c0,1.143-0.927,2.07-2.07,2.07c-0.007,0-0.013,0-0.02,0H158.13z"/>
<path style="fill:#DB2567;" d="M137,476.15h2.17c1.113,0.005,2.022,0.888,2.06,2c0,0.76,0,1.52,0,2.27
	c-0.038,1.116-0.954,2.001-2.07,2h-4.34c-1.113-0.005-2.022-0.888-2.06-2c0-0.76,0-1.52,0-2.28c0.038-1.116,0.954-2.001,2.07-2
	L137,476.15z"/>
<path style="fill:#DB2567;" d="M147.51,482.5h-2.12c-1.143,0-2.07-0.927-2.07-2.07c0-0.003,0-0.007,0-0.01c0-0.75,0-1.49,0-2.23
	c0.032-1.114,0.945-2,2.06-2h4.34c1.143,0,2.07,0.927,2.07,2.07c0,0.003,0,0.007,0,0.01c0,0.73,0,1.45,0,2.17
	c0.011,1.149-0.911,2.089-2.06,2.1c-0.017,0-0.034,0-0.05,0L147.51,482.5z"/>
<path style="fill:#DB2567;" d="M168.75,482.5h-2.11c-1.154,0.022-2.108-0.896-2.13-2.05c0-0.013,0-0.027,0-0.04v-2.17
	c-0.006-1.149,0.921-2.085,2.07-2.09c0.017,0,0.034,0,0.05,0h4.24c1.149-0.023,2.098,0.89,2.12,2.039
	c0.001,0.034,0.001,0.068,0,0.101v2.06c0.034,1.154-0.874,2.117-2.028,2.151c-0.047,0.001-0.095,0.001-0.142-0.001H168.75z"/>
<path style="fill:#26A6DB;stroke:#FFFFFF;stroke-width:0.5;" d="M72.23,273.83c-0.004-1.32-1.078-2.386-2.398-2.382
	c-0.031,0-0.061,0.001-0.092,0.002h-7.8c-1.324-0.055-2.443,0.974-2.498,2.298c-0.001,0.027-0.002,0.055-0.002,0.082L58,283.44
	c-0.006,1.391,1.109,2.528,2.5,2.55h0.77l1.92,19.13c0.015,0.801,0.677,1.437,1.477,1.422c0.018,0,0.035-0.001,0.053-0.002h2.18
	c0.794,0.044,1.474-0.564,1.518-1.358c0.001-0.021,0.002-0.042,0.002-0.062L70.37,286h0.78c1.391-0.022,2.506-1.159,2.5-2.55
	L72.23,273.83z"/>
<circle style="fill:#26A6DB;stroke:#FFFFFF;stroke-width:0.5;" cx="65.84" cy="265.59" r="4.18"/>
<path style="fill:#26A6DB;stroke:#FFFFFF;stroke-width:0.5;" d="M53,275.93c-0.01-1.325-1.092-2.392-2.418-2.382
	c-0.027,0-0.055,0.001-0.082,0.002h-7.8c-1.324-0.055-2.443,0.974-2.498,2.298c-0.001,0.027-0.002,0.055-0.002,0.082l-1.41,9.61
	c-0.006,1.391,1.109,2.528,2.5,2.55h0.77L44,307.22c0.009,0.795,0.662,1.432,1.457,1.423c0.024,0,0.049-0.001,0.073-0.003h2.18
	c0.794,0.044,1.474-0.564,1.518-1.358c0.001-0.021,0.002-0.042,0.002-0.062l1.92-19.13H52c1.391-0.022,2.506-1.159,2.5-2.55
	L53,275.93z"/>
<circle style="fill:#26A6DB;stroke:#FFFFFF;stroke-width:0.5;" cx="46.64" cy="267.7" r="4.19"/>
<path style="fill:#26A6DB;stroke:#FFFFFF;stroke-width:0.5;" d="M87.5,284.86c-0.01-1.325-1.092-2.392-2.418-2.382
	c-0.027,0-0.055,0.001-0.082,0.002h-7.8c-1.319-0.055-2.433,0.969-2.488,2.288c-0.001,0.031-0.002,0.061-0.002,0.092l-1.42,9.61
	c-0.006,1.391,1.109,2.528,2.5,2.55h0.78l1.92,19.13c0.01,0.795,0.663,1.432,1.458,1.422c0.017,0,0.035-0.001,0.052-0.002h2.18
	c0.8,0.044,1.484-0.568,1.528-1.368c0.001-0.017,0.002-0.035,0.002-0.052L85.64,297h0.78c1.387-0.027,2.496-1.163,2.49-2.55
	L87.5,284.86z"/>
<circle style="fill:#26A6DB;stroke:#FFFFFF;stroke-width:0.5;" cx="81.1" cy="276.63" r="4.19"/>
<path style="fill:#26A6DB;stroke:#FFFFFF;stroke-width:0.5;" d="M38.73,288c-0.016-1.331-1.107-2.397-2.438-2.382
	c-0.021,0-0.041,0.001-0.062,0.002h-7.8c-1.33-0.05-2.449,0.988-2.498,2.318c-0.001,0.021-0.001,0.041-0.002,0.062l-1.41,9.61
	c-0.006,1.391,1.109,2.528,2.5,2.55h0.78l1.91,19.13c0.015,0.801,0.677,1.437,1.477,1.422c0.018,0,0.035-0.001,0.053-0.002h2.18
	c0.798,0.072,1.502-0.517,1.574-1.314c0.003-0.039,0.005-0.077,0.006-0.116l1.92-19.13h0.78c1.387-0.027,2.496-1.163,2.49-2.55
	L38.73,288z"/>
<circle style="fill:#26A6DB;stroke:#FFFFFF;stroke-width:0.5;" cx="32.33" cy="279.76" r="4.19"/>
<path style="fill:#26A6DB;stroke:#FFFFFF;stroke-width:0.5;" d="M61.89,287.94c-0.01-1.325-1.092-2.392-2.418-2.382
	c-0.027,0-0.055,0.001-0.082,0.002h-7.8c-1.319-0.055-2.433,0.969-2.488,2.288c-0.001,0.031-0.002,0.061-0.002,0.092l-1.42,9.61
	c-0.006,1.391,1.109,2.528,2.5,2.55H51l1.92,19.13c0.01,0.795,0.662,1.432,1.458,1.422c0.021,0,0.042-0.001,0.062-0.002h2.19
	c0.794,0.044,1.474-0.564,1.518-1.358c0.001-0.021,0.002-0.042,0.002-0.062L60,300.1h0.78c1.387-0.027,2.496-1.163,2.49-2.55
	L61.89,287.94z"/>
<circle style="fill:#26A6DB;stroke:#FFFFFF;stroke-width:0.5;" cx="55.49" cy="279.7" r="4.18"/>
<path style="fill:#DB2567;" d="M265.13,410.74v82.58c0,1.259,1.021,2.28,2.28,2.28h16.23c1.303,0,2.36-1.057,2.36-2.36v-17.05
	c0-1.033,0.837-1.87,1.87-1.87h10.84c1.029,0.006,1.86,0.841,1.86,1.87v17.05c0,1.303,1.057,2.36,2.36,2.36h18.22
	c1.259,0,2.28-1.021,2.28-2.28v-82.58c0.006-1.259-1.011-2.284-2.27-2.29c-0.003,0-0.007,0-0.01,0h-53.74
	c-1.259,0-2.28,1.021-2.28,2.28C265.13,410.733,265.13,410.737,265.13,410.74z M305.64,462.54h8.05v7.82h-8.05V462.54z
	 M305.64,447.54h8.05v7.81h-8.05V447.54z M305.64,432.54h8.05v7.82h-8.05V432.54z M305.64,417.54h8.05v7.81h-8.05V417.54z
	 M289.29,462.61h8.06v7.82h-8.06V462.61z M289.29,447.61h8.06v7.81h-8.06V447.61z M289.29,432.61h8.06v7.82h-8.06V432.61z
	 M289.29,417.61h8.06v7.81h-8.06V417.61z M273.06,462.68h8.06v7.82h-8.06V462.68z M273.06,447.68h8.06v7.81h-8.06V447.68z
	 M273.06,432.68h8.06v7.82h-8.06V432.68z M273.06,417.68h8.06v7.81h-8.06V417.68z"/>
<path style="fill:#DB2567;" d="M287.28,408.49h-4.48l0,0v-9.51c0-0.895,0.725-1.62,1.62-1.62h1.23c0.895,0,1.62,0.725,1.62,1.62
	v9.51H287.28z"/>
<path style="fill:#DB2567;" d="M237.61,500.67c-1.828,0.004-3.314-1.474-3.318-3.302c0-0.17,0.012-0.34,0.038-0.508l2.9-19.68
	c0.025-3.242,2.673-5.849,5.915-5.824c0.062,0,0.123,0.002,0.185,0.004h19.07c3.239-0.127,5.969,2.396,6.096,5.635
	c0.002,0.062,0.004,0.123,0.004,0.185l2.9,19.68c0.265,1.82-0.995,3.51-2.815,3.775c-0.154,0.022-0.309,0.034-0.465,0.035H237.61z"
	/>
<circle style="fill:#DB2567;" cx="252.86" cy="457.04" r="10.23"/>
<path style="fill:#FFFFFF;" d="M248.66,486.83l2.48-9.11c0.08-0.281,0.08-0.579,0-0.86l-1.79-5.5h7.09l-1.8,5.5
	c-0.08,0.281-0.08,0.579,0,0.86l2.48,9.11l0,0l-3.38,4.17c-0.377,0.483-1.075,0.569-1.558,0.192
	c-0.072-0.056-0.136-0.12-0.192-0.192"/>
<path style="fill:#26A6DB;" d="M179.74,202.87H126c-1.259,0-2.28,1.021-2.28,2.28v82.58c0.011,1.253,1.027,2.265,2.28,2.27h18.21
	c1.309,0,2.37-1.061,2.37-2.37v-17c-0.006-1.027,0.823-1.864,1.85-1.87c0.003,0,0.007,0,0.01,0h10.84c1.033,0,1.87,0.837,1.87,1.87
	v17c0,1.305,1.055,2.365,2.36,2.37h16.22c1.265,0,2.29-1.025,2.29-2.29l0,0v-82.56C182.02,203.891,180.999,202.87,179.74,202.87z
	 M141.52,264.77h-8.05V257h8.05V264.77z M141.52,249.77h-8.05v-7.82h8.05V249.77z M141.52,234.77h-8.05v-7.81h8.05V234.77z
	 M141.52,219.77h-8.05v-7.81h8.05V219.77z M157.87,264.85h-8.06V257h8.06V264.85z M157.87,249.85h-8.06v-7.82h8.06V249.85z
	 M157.87,234.85h-8.06v-7.81h8.06V234.85z M157.87,219.85h-8.06v-7.81h8.06V219.85z M174.09,264.93H166V257h8.05L174.09,264.93z
	 M174.09,249.93H166v-7.82h8.05L174.09,249.93z M174.09,234.93H166v-7.81h8.05L174.09,234.93z M174.09,219.93H166v-7.81h8.05
	L174.09,219.93z"/>
<path style="fill:#26A6DB;" d="M161.51,191.77h1.23c0.895,0,1.62,0.725,1.62,1.62v9.51l0,0h-4.48l0,0v-9.5
	c-0.006-0.895,0.715-1.624,1.61-1.63C161.497,191.77,161.503,191.77,161.51,191.77z"/>
<path style="fill:#26A6DB;" d="M209.55,295.08c1.834-0.003,3.318-1.492,3.315-3.325c0-0.159-0.012-0.318-0.035-0.475l-2.9-19.69
	c-0.025-3.236-2.669-5.84-5.905-5.815c-0.065,0.001-0.13,0.002-0.195,0.005h-19.07c-3.234-0.133-5.963,2.381-6.095,5.615
	c-0.003,0.065-0.004,0.13-0.005,0.195l-2.9,19.69c-0.265,1.814,0.991,3.5,2.805,3.765c0.157,0.023,0.316,0.035,0.475,0.035H209.55z"
	/>
<circle style="fill:#26A6DB;" cx="194.29" cy="251.46" r="10.23"/>
<path style="fill:#FFFFFF;" d="M198.5,281.25l-2.5-9.11c-0.08-0.281-0.08-0.579,0-0.86l1.8-5.5h-7.09l1.79,5.5
	c0.08,0.281,0.08,0.579,0,0.86l-2.48,9.11l0,0l3.33,4.14c0.386,0.483,1.091,0.562,1.574,0.176c0.065-0.052,0.124-0.111,0.176-0.176"
	/>
<path style="fill:#DB2567;" d="M298.28,335.66c-5.523,0-10,4.477-10,10s4.477,10,10,10s10-4.477,10-10S303.803,335.66,298.28,335.66
	z M298.28,351.27c-3.12,0-5.65-2.53-5.65-5.65c0-3.12,2.53-5.65,5.65-5.65c3.12,0,5.65,2.53,5.65,5.65l0,0
	C303.93,348.74,301.4,351.27,298.28,351.27z"/>
<path style="fill:#26A6DB;" d="M205.91,335.66c-5.523,0-10,4.477-10,10s4.477,10,10,10s10-4.477,10-10S211.433,335.66,205.91,335.66
	z M205.91,351.27c-3.12,0-5.65-2.53-5.65-5.65s2.53-5.65,5.65-5.65c3.12,0,5.65,2.53,5.65,5.65l0,0
	C211.56,348.74,209.03,351.27,205.91,351.27z"/>
<path style="fill:#26A6DB;" d="M179.55,352.61l2.72-3c0.838,1.169,2.155,1.902,3.59,2c1.62,0,2.63-1,2.63-3.25v-12.7h4.43v12.83
	c0.12,1.925-0.548,3.817-1.85,5.24c-1.387,1.266-3.225,1.922-5.1,1.82C183.49,355.619,181.118,354.533,179.55,352.61z"/>
<path style="fill:#DB2567;" d="M265.12,335.66h4.73l5.23,8.42l5.24-8.42h4.73v19.92h-4.36v-13l-5.61,8.52H275l-5.55-8.43v12.92h-4.3
	L265.12,335.66z"/>
<path style="fill:#26A6DB;" d="M238.82,355.58h-4.72l-5.24-8.42l-5.24,8.42h-4.72v-19.92h4.35v13l5.61-8.52H229l5.55,8.43v-12.91
	h4.29L238.82,355.58z"/>
<path style="fill:#26A6DB;" d="M246.81,347.93c-1.269-2.857,0.019-6.201,2.876-7.47c1.463-0.649,3.132-0.649,4.594,0l3.17-3.17
	c-4.661-2.963-10.841-1.586-13.804,3.075c-2.082,3.276-2.081,7.461,0.004,10.735L246.81,347.93z"/>
<path style="fill:#DB2567;" d="M257.24,343.58c1.128,2.91-0.317,6.182-3.226,7.31c-1.314,0.509-2.77,0.509-4.084,0l-3.2,3.2
	c4.744,2.828,10.882,1.275,13.71-3.469c1.88-3.155,1.88-7.086,0-10.241L257.24,343.58z"/>
<path style="fill:#26A6DB;stroke:#FFFFFF;stroke-width:0.5;" d="M406.77,274.05c-0.01-1.325-1.092-2.392-2.418-2.382
	c-0.027,0-0.055,0.001-0.082,0.002h-7.79c-1.324-0.055-2.443,0.974-2.498,2.298c-0.001,0.027-0.002,0.055-0.002,0.082l-1.41,9.6
	c-0.006,1.387,1.103,2.523,2.49,2.55h0.78l1.92,19.14c0.015,0.795,0.672,1.427,1.467,1.412c0.017,0,0.035-0.001,0.052-0.002h2.19
	c0.794,0.044,1.474-0.563,1.518-1.358c0.001-0.017,0.002-0.035,0.002-0.052l1.92-19.14h0.78c1.387-0.027,2.496-1.163,2.49-2.55
	L406.77,274.05z"/>
<circle style="fill:#26A6DB;stroke:#FFFFFF;stroke-width:0.5;" cx="400.37" cy="265.81" r="4.18"/>
<path style="fill:#26A6DB;stroke:#FFFFFF;stroke-width:0.5;" d="M387.57,276.15c-0.01-1.325-1.092-2.392-2.418-2.382
	c-0.027,0-0.055,0.001-0.082,0.002h-7.8c-1.325-0.05-2.439,0.984-2.488,2.308c-0.001,0.024-0.001,0.048-0.002,0.072l-1.42,9.61
	c0,1.387,1.113,2.518,2.5,2.54h0.78l1.92,19.14c0.01,0.795,0.662,1.432,1.458,1.422c0.021,0,0.042-0.001,0.062-0.002h2.19
	c0.794,0.044,1.474-0.564,1.518-1.358c0.001-0.021,0.002-0.042,0.002-0.062l1.92-19.14h0.78c1.386-0.022,2.496-1.154,2.49-2.54
	L387.57,276.15z"/>
<circle style="fill:#26A6DB;stroke:#FFFFFF;stroke-width:0.5;" cx="381.17" cy="267.91" r="4.19"/>
<path style="fill:#26A6DB;stroke:#FFFFFF;stroke-width:0.5;" d="M422,285.08c-0.01-1.325-1.093-2.392-2.418-2.382
	c-0.024,0-0.048,0.001-0.072,0.002h-7.8c-1.324-0.055-2.443,0.974-2.498,2.298c-0.001,0.027-0.002,0.055-0.002,0.082l-1.41,9.6
	c-0.006,1.387,1.103,2.523,2.49,2.55h0.78l1.93,19.14c0.009,0.79,0.657,1.422,1.447,1.413c0.024,0,0.049-0.001,0.073-0.003h2.19
	c0.788,0.05,1.467-0.549,1.517-1.337c0.002-0.024,0.002-0.049,0.003-0.073l1.92-19.14H421c1.391-0.022,2.506-1.159,2.5-2.55
	L422,285.08z"/>
<circle style="fill:#26A6DB;stroke:#FFFFFF;stroke-width:0.5;" cx="415.64" cy="276.84" r="4.19"/>
<path style="fill:#26A6DB;stroke:#FFFFFF;stroke-width:0.5;" d="M373.26,288.21c-0.01-1.325-1.092-2.392-2.418-2.382
	c-0.027,0-0.055,0.001-0.082,0.002H363c-1.324-0.055-2.443,0.974-2.498,2.298c-0.001,0.027-0.002,0.055-0.002,0.082l-1.41,9.61
	c-0.006,1.387,1.103,2.523,2.49,2.55h0.78l1.92,19.13c0.01,0.795,0.662,1.432,1.458,1.422c0.021,0,0.042-0.001,0.062-0.002h2.2
	c0.794,0.044,1.474-0.564,1.518-1.358c0.001-0.021,0.002-0.042,0.002-0.062l1.92-19.13h0.78c1.389-0.027,2.5-1.161,2.5-2.55
	L373.26,288.21z"/>
<circle style="fill:#26A6DB;stroke:#FFFFFF;stroke-width:0.5;" cx="366.87" cy="279.97" r="4.19"/>
<path style="fill:#26A6DB;stroke:#FFFFFF;stroke-width:0.5;" d="M396.42,288.16c-0.01-1.325-1.092-2.392-2.418-2.382
	c-0.027,0-0.055,0.001-0.082,0.002h-7.79c-1.324-0.055-2.443,0.974-2.498,2.298c-0.001,0.027-0.002,0.055-0.002,0.082l-1.41,9.6
	c-0.006,1.387,1.103,2.523,2.49,2.55h0.78l1.92,19.14c0.015,0.795,0.672,1.427,1.467,1.412c0.017,0,0.035-0.001,0.052-0.002h2.19
	c0.794,0.044,1.474-0.563,1.518-1.358c0.001-0.017,0.002-0.035,0.002-0.052l1.92-19.14h0.78c1.391-0.022,2.506-1.159,2.5-2.55
	L396.42,288.16z"/>
<circle style="fill:#26A6DB;stroke:#FFFFFF;stroke-width:0.5;" cx="390.03" cy="279.92" r="4.18"/>
<path style="fill:#FFFFFF;stroke:#1D1D1B;stroke-width:0.25;stroke-miterlimit:10;" d="M814,348.64"/>
<path style="fill:#26A6DB;" d="M191.87,65.07c-0.01-1.325-1.092-2.392-2.418-2.382c-0.027,0-0.055,0.001-0.082,0.002h-7.8
	c-1.319-0.055-2.433,0.969-2.488,2.288c-0.001,0.031-0.002,0.061-0.002,0.092l-1.42,9.61c0,1.387,1.113,2.518,2.5,2.54h0.78
	l1.92,19.14c0.01,0.795,0.662,1.432,1.458,1.422c0.021,0,0.042-0.001,0.062-0.002h2.18c0.8,0.044,1.484-0.568,1.528-1.368
	c0.001-0.017,0.002-0.035,0.002-0.052L190,77.22h0.78c1.383-0.027,2.49-1.156,2.49-2.54L191.87,65.07z"/>
<circle style="fill:#26A6DB;" cx="185.47" cy="56.83" r="4.18"/>
<g style="opacity:0.3;">
	<path style="fill:#26A6DB;" d="M215,65.07c-0.01-1.325-1.092-2.392-2.418-2.382c-0.027,0-0.055,0.001-0.082,0.002h-7.8
		c-1.325-0.05-2.439,0.984-2.488,2.308c-0.001,0.024-0.001,0.048-0.002,0.072l-1.42,9.61c0,1.387,1.113,2.518,2.5,2.54h0.78
		L206,96.36c0.01,0.795,0.662,1.432,1.458,1.422c0.021,0,0.042-0.001,0.062-0.002h2.19c0.794,0.044,1.474-0.564,1.518-1.358
		c0.001-0.021,0.002-0.042,0.002-0.062l1.92-19.14h0.78c1.386-0.022,2.496-1.154,2.49-2.54L215,65.07z"/>
	<circle style="fill:#26A6DB;" cx="208.61" cy="56.83" r="4.18"/>
</g>
<g style="opacity:0.3;">
	<path style="fill:#26A6DB;" d="M238.15,65.07c-0.01-1.325-1.092-2.392-2.418-2.382c-0.027,0-0.055,0.001-0.082,0.002h-7.8
		c-1.325-0.05-2.439,0.984-2.488,2.308c-0.001,0.024-0.001,0.048-0.002,0.072l-1.42,9.61c0,1.387,1.113,2.518,2.5,2.54h0.78
		l1.92,19.14c0.01,0.795,0.662,1.432,1.458,1.422c0.021,0,0.042-0.001,0.062-0.002h2.19c0.794,0.044,1.474-0.564,1.518-1.358
		c0.001-0.021,0.002-0.042,0.002-0.062l1.92-19.14h0.78c1.387-0.022,2.5-1.153,2.5-2.54L238.15,65.07z"/>
	<circle style="fill:#26A6DB;" cx="231.75" cy="56.83" r="4.18"/>
</g>
<path style="fill:#26A6DB;" d="M261.29,65.07c-0.01-1.325-1.092-2.392-2.418-2.382c-0.027,0-0.055,0.001-0.082,0.002H251
	c-1.324-0.055-2.443,0.974-2.498,2.298c-0.001,0.027-0.002,0.055-0.002,0.082l-1.41,9.61c-0.006,1.386,1.104,2.518,2.49,2.54h0.78
	l1.92,19.14c0.01,0.795,0.662,1.432,1.458,1.422c0.021,0,0.042-0.001,0.062-0.002h2.2c0.794,0.044,1.474-0.564,1.518-1.358
	c0.001-0.021,0.002-0.042,0.002-0.062l1.92-19.14h0.78c1.387-0.022,2.5-1.153,2.5-2.54L261.29,65.07z"/>
<circle style="fill:#26A6DB;" cx="254.89" cy="56.83" r="4.18"/>
<path style="fill:#26A6DB;" d="M284.43,65.07c-0.004-1.32-1.078-2.386-2.398-2.382c-0.031,0-0.061,0.001-0.092,0.002h-7.8
	c-1.324-0.055-2.443,0.974-2.498,2.298c-0.001,0.027-0.002,0.055-0.002,0.082l-1.41,9.61c0,1.387,1.113,2.518,2.5,2.54h0.77
	l1.92,19.14c0.013,0.801,0.673,1.439,1.474,1.426c0.035-0.001,0.071-0.002,0.106-0.006h2.18c0.794,0.044,1.474-0.564,1.518-1.358
	c0.001-0.021,0.002-0.042,0.002-0.062l1.92-19.14h0.78c1.387-0.022,2.5-1.153,2.5-2.54L284.43,65.07z"/>
<circle style="fill:#26A6DB;" cx="278.04" cy="56.83" r="4.18"/>
<g style="opacity:0.3;">
	<path style="fill:#26A6DB;" d="M191.87,12.42c-0.01-1.325-1.092-2.392-2.418-2.382c-0.027,0-0.055,0.001-0.082,0.002h-7.8
		c-1.319-0.055-2.433,0.969-2.488,2.288c-0.001,0.031-0.002,0.061-0.002,0.092L177.66,22c-0.006,1.391,1.109,2.528,2.5,2.55h0.78
		l1.92,19.13c0.01,0.795,0.662,1.432,1.458,1.422c0.021,0,0.042-0.001,0.062-0.002h2.18c0.8,0.044,1.484-0.568,1.528-1.368
		c0.001-0.017,0.002-0.035,0.002-0.052l1.91-19.1h0.78c1.403-0.022,2.522-1.177,2.5-2.579c0,0,0,0,0-0.001L191.87,12.42z"/>
	<circle style="fill:#26A6DB;" cx="185.47" cy="4.18" r="4.18"/>
</g>
<path style="fill:#26A6DB;" d="M168.72,12.42c0.018-1.32-1.038-2.404-2.358-2.422c-0.044-0.001-0.088,0-0.132,0.002h-7.8
	c-1.324-0.055-2.443,0.974-2.498,2.298c-0.001,0.027-0.002,0.055-0.002,0.082L154.52,22c-0.006,1.391,1.109,2.528,2.5,2.55h0.77
	l1.93,19.13c0.01,0.795,0.662,1.432,1.458,1.422c0.021,0,0.042-0.001,0.062-0.002h2.18c0.794,0.044,1.474-0.564,1.518-1.358
	c0.001-0.021,0.002-0.042,0.002-0.062l1.93-19.13h0.78c1.387-0.027,2.496-1.163,2.49-2.55L168.72,12.42z"/>
<circle style="fill:#26A6DB;" cx="162.33" cy="4.18" r="4.18"/>
<path style="fill:#26A6DB;" d="M215,12.42c-0.01-1.325-1.092-2.392-2.418-2.382c-0.027,0-0.055,0.001-0.082,0.002h-7.8
	c-1.325-0.05-2.439,0.984-2.488,2.308c-0.001,0.024-0.001,0.048-0.002,0.072L200.8,22c-0.006,1.391,1.109,2.528,2.5,2.55h0.78
	L206,43.71c0.01,0.795,0.662,1.432,1.458,1.422c0.021,0,0.042-0.001,0.062-0.002h2.19c0.794,0.044,1.474-0.564,1.518-1.358
	c0.001-0.021,0.002-0.042,0.002-0.062l1.92-19.13h0.78c1.399-0.027,2.512-1.181,2.49-2.58L215,12.42z"/>
<circle style="fill:#26A6DB;" cx="208.61" cy="4.18" r="4.18"/>
<path style="fill:#26A6DB;" d="M238.15,12.42c-0.01-1.325-1.092-2.392-2.418-2.382c-0.027,0-0.055,0.001-0.082,0.002h-7.8
	c-1.325-0.05-2.439,0.984-2.488,2.308c-0.001,0.024-0.001,0.048-0.002,0.072L223.94,22c-0.006,1.391,1.109,2.528,2.5,2.55h0.78
	l1.92,19.13c0.01,0.795,0.662,1.432,1.458,1.422c0.021,0,0.042-0.001,0.062-0.002h2.19c0.794,0.044,1.474-0.564,1.518-1.358
	c0.001-0.021,0.002-0.042,0.002-0.062l1.92-19.13h0.78c1.391-0.022,2.506-1.159,2.5-2.55L238.15,12.42z"/>
<circle style="fill:#26A6DB;" cx="231.75" cy="4.18" r="4.18"/>
<path style="fill:#26A6DB;" d="M261.29,12.42c-0.01-1.325-1.092-2.392-2.418-2.382c-0.027,0-0.055,0.001-0.082,0.002H251
	c-1.324-0.055-2.443,0.974-2.498,2.298c-0.001,0.027-0.002,0.055-0.002,0.082L247.09,22c-0.006,1.387,1.103,2.523,2.49,2.55h0.78
	l1.92,19.13c0.01,0.795,0.662,1.432,1.458,1.422c0.021,0,0.042-0.001,0.062-0.002h2.2c0.794,0.044,1.474-0.564,1.518-1.358
	c0.001-0.021,0.002-0.042,0.002-0.062l1.92-19.13h0.78c1.391-0.022,2.506-1.159,2.5-2.55L261.29,12.42z"/>
<circle style="fill:#26A6DB;" cx="254.89" cy="4.18" r="4.18"/>
<g style="opacity:0.3;">
	<path style="fill:#26A6DB;" d="M284.43,12.42c0.018-1.32-1.038-2.404-2.358-2.422c-0.044-0.001-0.088,0-0.132,0.002h-7.8
		c-1.324-0.055-2.443,0.974-2.498,2.298c-0.001,0.027-0.002,0.055-0.002,0.082L270.23,22c-0.006,1.391,1.109,2.528,2.5,2.55h0.77
		l1.92,19.13c-0.009,0.795,0.628,1.447,1.423,1.457c0.052,0.001,0.105-0.002,0.157-0.007h2.18c0.794,0.044,1.474-0.564,1.518-1.358
		c0.001-0.021,0.002-0.042,0.002-0.062l1.92-19.13h0.78c1.391-0.022,2.506-1.159,2.5-2.55L284.43,12.42z"/>
	<circle style="fill:#26A6DB;" cx="278.04" cy="4.18" r="4.18"/>
</g>
<path style="fill:#26A6DB;" d="M307.58,12.42c-0.01-1.325-1.092-2.392-2.418-2.382c-0.027,0-0.055,0.001-0.082,0.002h-7.8
	c-1.324-0.055-2.443,0.974-2.498,2.298c-0.001,0.027-0.002,0.055-0.002,0.082L293.37,22c-0.006,1.391,1.109,2.528,2.5,2.55h0.77
	l1.93,19.13c0.01,0.795,0.662,1.432,1.458,1.422c0.021,0,0.042-0.001,0.062-0.002h2.18c0.8,0.044,1.484-0.568,1.528-1.368
	c0.001-0.017,0.002-0.035,0.002-0.052l1.92-19.13h0.78c1.391-0.022,2.506-1.159,2.5-2.55L307.58,12.42z"/>
<circle style="fill:#26A6DB;" cx="301.18" cy="4.18" r="4.18"/>
<path style="fill:#26A6DB;" d="M203,117.72c-0.004-1.32-1.078-2.386-2.398-2.382c-0.031,0-0.061,0.001-0.092,0.002h-7.8
	c-1.324-0.055-2.443,0.974-2.498,2.298c-0.001,0.027-0.002,0.055-0.002,0.082l-1.41,9.6c-0.006,1.391,1.109,2.528,2.5,2.55h0.7
	l2,19.13c0.015,0.795,0.672,1.428,1.467,1.413c0.021,0,0.042-0.001,0.063-0.003h2.18c0.788,0.05,1.467-0.549,1.517-1.337
	c0.002-0.024,0.002-0.049,0.003-0.073l1.92-19.14h0.78c1.391-0.022,2.506-1.159,2.5-2.55L203,117.72z"/>
<circle style="fill:#26A6DB;" cx="196.58" cy="109.48" r="4.19"/>
<g style="opacity:0.3;">
	<path style="fill:#26A6DB;" d="M226.12,117.72c-0.01-1.325-1.092-2.392-2.418-2.382c-0.027,0-0.055,0.001-0.082,0.002h-7.8
		c-1.324-0.055-2.443,0.974-2.498,2.298c-0.001,0.027-0.002,0.055-0.002,0.082l-1.41,9.6c-0.006,1.391,1.109,2.528,2.5,2.55h0.77
		L217.1,149c0.015,0.795,0.672,1.428,1.467,1.413c0.021,0,0.042-0.001,0.063-0.003h2.18c0.794,0.05,1.478-0.553,1.527-1.347
		c0.001-0.021,0.002-0.042,0.003-0.063l1.91-19.14H225c1.391-0.022,2.506-1.159,2.5-2.55L226.12,117.72z"/>
	<circle style="fill:#26A6DB;" cx="219.72" cy="109.48" r="4.19"/>
</g>
<path style="fill:#26A6DB;" d="M249.26,117.72c-0.01-1.325-1.092-2.392-2.418-2.382c-0.027,0-0.055,0.001-0.082,0.002H239
	c-1.319-0.055-2.433,0.969-2.488,2.288c-0.001,0.031-0.002,0.061-0.002,0.092l-1.42,9.6c-0.006,1.391,1.109,2.528,2.5,2.55h0.78
	l1.88,19.13c0.015,0.795,0.672,1.427,1.467,1.412c0.018,0,0.035-0.001,0.053-0.002H244c0.794,0.05,1.478-0.553,1.527-1.347
	c0.001-0.021,0.002-0.042,0.003-0.063l1.92-19.14h0.78c1.387-0.027,2.496-1.163,2.49-2.55L249.26,117.72z"/>
<circle style="fill:#26A6DB;" cx="242.86" cy="109.48" r="4.19"/>
<path style="fill:#26A6DB;" d="M272.4,117.72c-0.01-1.325-1.092-2.392-2.418-2.382c-0.027,0-0.055,0.001-0.082,0.002h-7.8
	c-1.325-0.05-2.439,0.984-2.488,2.308c-0.001,0.024-0.001,0.048-0.002,0.072l-1.42,9.6c-0.006,1.391,1.109,2.528,2.5,2.55h0.78
	l1.92,19.13c0.015,0.795,0.672,1.427,1.467,1.412c0.017,0,0.035-0.001,0.052-0.002h2.18c0.788,0.055,1.471-0.539,1.527-1.326
	c0.002-0.028,0.003-0.056,0.003-0.084l1.92-19.14h0.78c1.387-0.027,2.496-1.163,2.49-2.55L272.4,117.72z"/>
<circle style="fill:#26A6DB;" cx="266" cy="109.48" r="4.19"/>
<path style="fill:none;stroke:#26A6DB;stroke-miterlimit:10;" d="M230.49-7"/>
<path style="fill:#FFFFFF;stroke:#1D1D1B;stroke-width:0.25;stroke-miterlimit:10;" d="M208.61,0"/>
<g style="enable-background:new    ;">
	<path style="fill:#26A6DB;" d="M364.903,338.91l2.009,5.672l1.998-5.672h2.116v7.82h-1.616v-2.138l0.161-3.69l-2.111,5.828h-1.106
		l-2.105-5.822l0.161,3.685v2.138h-1.611v-7.82H364.903z"/>
	<path style="fill:#26A6DB;" d="M372.321,339.414c0-0.232,0.077-0.425,0.233-0.575c0.155-0.15,0.368-0.225,0.637-0.225
		c0.265,0,0.476,0.074,0.634,0.225c0.157,0.15,0.236,0.343,0.236,0.575c0,0.236-0.08,0.43-0.239,0.58s-0.37,0.226-0.631,0.226
		c-0.262,0-0.472-0.075-0.632-0.226C372.4,339.844,372.321,339.651,372.321,339.414z M373.97,346.73h-1.558v-5.812h1.558V346.73z"/>
	<path style="fill:#26A6DB;" d="M377.106,339.49v1.429h0.994v1.139h-0.994v2.9c0,0.215,0.041,0.369,0.124,0.462
		c0.082,0.093,0.239,0.14,0.473,0.14c0.172,0,0.324-0.013,0.456-0.038v1.177c-0.304,0.093-0.617,0.14-0.939,0.14
		c-1.089,0-1.644-0.55-1.665-1.648v-3.132h-0.849v-1.139h0.849v-1.429H377.106z"/>
	<path style="fill:#26A6DB;" d="M382.333,346.73c-0.072-0.14-0.124-0.313-0.156-0.521c-0.376,0.42-0.864,0.629-1.466,0.629
		c-0.569,0-1.041-0.165-1.415-0.494c-0.375-0.329-0.562-0.745-0.562-1.246c0-0.616,0.229-1.089,0.685-1.418
		c0.457-0.329,1.116-0.496,1.979-0.5h0.714v-0.332c0-0.27-0.068-0.484-0.206-0.645c-0.139-0.162-0.355-0.242-0.653-0.242
		c-0.261,0-0.466,0.062-0.614,0.188c-0.149,0.126-0.224,0.298-0.224,0.516h-1.552c0-0.336,0.104-0.647,0.312-0.934
		c0.207-0.287,0.501-0.512,0.881-0.675c0.379-0.163,0.806-0.244,1.278-0.244c0.716,0,1.284,0.18,1.705,0.54
		c0.421,0.359,0.631,0.865,0.631,1.518v2.519c0.004,0.552,0.081,0.969,0.231,1.251v0.092H382.333z M381.049,345.65
		c0.229,0,0.44-0.051,0.634-0.152c0.193-0.103,0.337-0.239,0.43-0.411v-0.999h-0.58c-0.776,0-1.19,0.269-1.24,0.806l-0.006,0.091
		c0,0.193,0.068,0.354,0.204,0.479C380.627,345.587,380.812,345.65,381.049,345.65z"/>
	<path style="fill:#26A6DB;" d="M388.128,342.374c-0.211-0.029-0.397-0.043-0.559-0.043c-0.587,0-0.972,0.198-1.154,0.596v3.803
		h-1.553v-5.812h1.467l0.043,0.692c0.312-0.533,0.743-0.8,1.294-0.8c0.172,0,0.333,0.023,0.483,0.069L388.128,342.374z"/>
	<path style="fill:#26A6DB;" d="M394.111,343.878c0,0.931-0.198,1.656-0.596,2.178c-0.397,0.521-0.953,0.781-1.665,0.781
		c-0.631,0-1.134-0.242-1.51-0.725l-0.069,0.617h-1.396v-8.25h1.552v2.959c0.358-0.418,0.829-0.628,1.413-0.628
		c0.709,0,1.265,0.261,1.667,0.781c0.403,0.521,0.604,1.255,0.604,2.2V343.878z M392.56,343.765c0-0.587-0.094-1.016-0.279-1.286
		c-0.187-0.271-0.464-0.405-0.833-0.405c-0.494,0-0.834,0.202-1.021,0.606v2.294c0.19,0.408,0.534,0.611,1.031,0.611
		c0.502,0,0.831-0.246,0.988-0.74C392.521,344.609,392.56,344.248,392.56,343.765z"/>
	<path style="fill:#26A6DB;" d="M397.742,346.837c-0.852,0-1.546-0.262-2.081-0.784s-0.803-1.22-0.803-2.089v-0.15
		c0-0.584,0.112-1.106,0.338-1.566s0.546-0.814,0.959-1.063c0.414-0.249,0.886-0.373,1.415-0.373c0.795,0,1.421,0.251,1.878,0.752
		c0.456,0.501,0.685,1.212,0.685,2.132v0.635h-3.701c0.051,0.379,0.202,0.684,0.454,0.912c0.253,0.229,0.572,0.344,0.959,0.344
		c0.598,0,1.065-0.216,1.401-0.649l0.763,0.854c-0.232,0.329-0.548,0.586-0.945,0.771S398.226,346.837,397.742,346.837z
		 M397.565,342.062c-0.309,0-0.558,0.104-0.749,0.313c-0.192,0.209-0.314,0.507-0.368,0.896h2.159v-0.124
		c-0.008-0.346-0.101-0.612-0.279-0.801C398.148,342.157,397.895,342.062,397.565,342.062z"/>
	<path style="fill:#26A6DB;" d="M401.003,339.414c0-0.232,0.077-0.425,0.233-0.575c0.155-0.15,0.368-0.225,0.637-0.225
		c0.265,0,0.476,0.074,0.634,0.225c0.157,0.15,0.236,0.343,0.236,0.575c0,0.236-0.08,0.43-0.239,0.58s-0.37,0.226-0.631,0.226
		c-0.262,0-0.472-0.075-0.632-0.226C401.082,339.844,401.003,339.651,401.003,339.414z M402.651,346.73h-1.558v-5.812h1.558V346.73z
		"/>
	<path style="fill:#26A6DB;" d="M405.788,339.49v1.429h0.994v1.139h-0.994v2.9c0,0.215,0.041,0.369,0.124,0.462
		c0.082,0.093,0.239,0.14,0.473,0.14c0.172,0,0.324-0.013,0.456-0.038v1.177c-0.304,0.093-0.617,0.14-0.939,0.14
		c-1.089,0-1.644-0.55-1.665-1.648v-3.132h-0.849v-1.139h0.849v-1.429H405.788z"/>
	<path style="fill:#26A6DB;" d="M410.321,346.837c-0.852,0-1.546-0.262-2.081-0.784s-0.803-1.22-0.803-2.089v-0.15
		c0-0.584,0.112-1.106,0.338-1.566s0.546-0.814,0.959-1.063c0.414-0.249,0.886-0.373,1.415-0.373c0.795,0,1.421,0.251,1.878,0.752
		c0.456,0.501,0.685,1.212,0.685,2.132v0.635h-3.701c0.051,0.379,0.202,0.684,0.454,0.912c0.253,0.229,0.572,0.344,0.959,0.344
		c0.598,0,1.065-0.216,1.401-0.649l0.763,0.854c-0.232,0.329-0.548,0.586-0.945,0.771S410.805,346.837,410.321,346.837z
		 M410.145,342.062c-0.309,0-0.558,0.104-0.749,0.313c-0.192,0.209-0.314,0.507-0.368,0.896h2.159v-0.124
		c-0.008-0.346-0.101-0.612-0.279-0.801C410.728,342.157,410.474,342.062,410.145,342.062z"/>
	<path style="fill:#26A6DB;" d="M416.858,342.374c-0.212-0.029-0.397-0.043-0.559-0.043c-0.588,0-0.973,0.198-1.155,0.596v3.803
		h-1.552v-5.812h1.466l0.043,0.692c0.312-0.533,0.743-0.8,1.295-0.8c0.172,0,0.333,0.023,0.483,0.069L416.858,342.374z"/>
</g>
<g style="enable-background:new    ;">
	<path style="fill:#26A6DB;" d="M367.75,357.819l0.763-3.7h1.499l-1.482,5.812h-1.3l-1.102-3.658l-1.101,3.658h-1.295l-1.482-5.812
		h1.499l0.757,3.695l1.063-3.695h1.123L367.75,357.819z"/>
	<path style="fill:#26A6DB;" d="M373.454,360.037c-0.852,0-1.546-0.262-2.081-0.784s-0.803-1.22-0.803-2.089v-0.15
		c0-0.584,0.112-1.106,0.338-1.566s0.546-0.814,0.959-1.063c0.414-0.249,0.886-0.373,1.415-0.373c0.795,0,1.421,0.251,1.878,0.752
		c0.456,0.501,0.685,1.212,0.685,2.132v0.635h-3.701c0.051,0.379,0.202,0.684,0.454,0.912c0.253,0.229,0.572,0.344,0.959,0.344
		c0.598,0,1.065-0.216,1.401-0.649l0.763,0.854c-0.232,0.329-0.548,0.586-0.945,0.771S373.938,360.037,373.454,360.037z
		 M373.277,355.262c-0.309,0-0.558,0.104-0.749,0.313c-0.192,0.209-0.314,0.507-0.368,0.896h2.159v-0.124
		c-0.008-0.346-0.101-0.612-0.279-0.801C373.86,355.357,373.606,355.262,373.277,355.262z"/>
	<path style="fill:#26A6DB;" d="M379.143,358.785c0.286,0,0.519-0.078,0.698-0.236c0.179-0.157,0.271-0.366,0.279-0.628h1.455
		c-0.003,0.394-0.11,0.755-0.322,1.082c-0.211,0.328-0.5,0.582-0.867,0.763s-0.772,0.271-1.217,0.271
		c-0.83,0-1.485-0.264-1.966-0.792c-0.479-0.528-0.72-1.258-0.72-2.188v-0.103c0-0.896,0.238-1.609,0.715-2.144
		c0.476-0.533,1.13-0.8,1.96-0.8c0.728,0,1.31,0.207,1.748,0.62c0.439,0.414,0.662,0.965,0.669,1.652h-1.455
		c-0.008-0.303-0.101-0.549-0.279-0.737c-0.18-0.189-0.416-0.284-0.709-0.284c-0.362,0-0.635,0.133-0.819,0.396
		c-0.185,0.264-0.276,0.691-0.276,1.283v0.161c0,0.6,0.091,1.029,0.273,1.291C378.492,358.656,378.77,358.785,379.143,358.785z"/>
	<path style="fill:#26A6DB;" d="M383.977,354.752c0.411-0.494,0.929-0.741,1.552-0.741c1.261,0,1.899,0.732,1.918,2.196v3.723
		h-1.553v-3.68c0-0.332-0.071-0.579-0.215-0.738c-0.143-0.159-0.381-0.238-0.714-0.238c-0.455,0-0.784,0.175-0.988,0.525v4.131
		h-1.553v-8.25h1.553V354.752z"/>
	<path style="fill:#26A6DB;" d="M391.765,358.325c0-0.19-0.095-0.34-0.282-0.449c-0.188-0.109-0.489-0.207-0.905-0.293
		c-1.382-0.289-2.073-0.877-2.073-1.762c0-0.516,0.214-0.945,0.642-1.291c0.429-0.346,0.988-0.519,1.679-0.519
		c0.738,0,1.328,0.174,1.77,0.521c0.442,0.348,0.664,0.799,0.664,1.354h-1.553c0-0.222-0.071-0.405-0.215-0.55
		c-0.143-0.146-0.367-0.218-0.671-0.218c-0.262,0-0.464,0.059-0.607,0.178c-0.143,0.117-0.215,0.268-0.215,0.451
		c0,0.172,0.082,0.311,0.244,0.416c0.163,0.105,0.438,0.196,0.825,0.273s0.712,0.164,0.978,0.261
		c0.819,0.301,1.229,0.821,1.229,1.563c0,0.529-0.228,0.958-0.682,1.286c-0.455,0.327-1.042,0.491-1.762,0.491
		c-0.487,0-0.92-0.087-1.298-0.261c-0.377-0.174-0.674-0.411-0.889-0.714s-0.322-0.63-0.322-0.98h1.472
		c0.015,0.275,0.116,0.487,0.307,0.634c0.189,0.146,0.443,0.22,0.763,0.22c0.297,0,0.521-0.056,0.674-0.169
		C391.688,358.655,391.765,358.506,391.765,358.325z"/>
	<path style="fill:#26A6DB;" d="M396.947,360.037c-0.852,0-1.546-0.262-2.081-0.784s-0.803-1.22-0.803-2.089v-0.15
		c0-0.584,0.112-1.106,0.338-1.566s0.546-0.814,0.959-1.063c0.414-0.249,0.886-0.373,1.415-0.373c0.795,0,1.421,0.251,1.878,0.752
		c0.456,0.501,0.685,1.212,0.685,2.132v0.635h-3.701c0.051,0.379,0.202,0.684,0.454,0.912c0.253,0.229,0.572,0.344,0.959,0.344
		c0.598,0,1.065-0.216,1.401-0.649l0.763,0.854c-0.232,0.329-0.548,0.586-0.945,0.771S397.431,360.037,396.947,360.037z
		 M396.771,355.262c-0.309,0-0.558,0.104-0.749,0.313c-0.192,0.209-0.314,0.507-0.368,0.896h2.159v-0.124
		c-0.008-0.346-0.101-0.612-0.279-0.801C397.354,355.357,397.1,355.262,396.771,355.262z"/>
	<path style="fill:#26A6DB;" d="M401.856,359.93h-1.558v-8.25h1.558V359.93z"/>
	<path style="fill:#26A6DB;" d="M404.563,354.118l0.049,0.671c0.415-0.519,0.972-0.778,1.67-0.778c0.616,0,1.074,0.181,1.375,0.542
		c0.301,0.362,0.455,0.902,0.462,1.623v3.754h-1.552v-3.717c0-0.329-0.072-0.568-0.215-0.717c-0.144-0.148-0.382-0.223-0.715-0.223
		c-0.437,0-0.765,0.186-0.982,0.559v4.098h-1.553v-5.812H404.563z"/>
</g>
<g style="enable-background:new    ;">
	<path style="fill:#26A6DB;" d="M364.555,365.89v1.429h0.993v1.139h-0.993v2.9c0,0.215,0.041,0.369,0.123,0.462
		c0.083,0.093,0.24,0.14,0.473,0.14c0.172,0,0.324-0.013,0.457-0.038v1.177c-0.305,0.093-0.618,0.14-0.94,0.14
		c-1.088,0-1.644-0.55-1.665-1.648v-3.132h-0.849v-1.139h0.849v-1.429H364.555z"/>
	<path style="fill:#26A6DB;" d="M369.088,373.238c-0.853,0-1.546-0.262-2.082-0.784c-0.535-0.522-0.803-1.22-0.803-2.089v-0.15
		c0-0.584,0.113-1.106,0.339-1.566s0.545-0.814,0.958-1.063c0.414-0.249,0.886-0.373,1.416-0.373c0.795,0,1.42,0.251,1.877,0.752
		c0.456,0.501,0.685,1.212,0.685,2.132v0.635h-3.7c0.05,0.379,0.201,0.684,0.453,0.912c0.253,0.229,0.572,0.344,0.959,0.344
		c0.599,0,1.065-0.216,1.402-0.649l0.763,0.854c-0.233,0.329-0.548,0.586-0.945,0.771S369.571,373.238,369.088,373.238z
		 M368.91,368.462c-0.308,0-0.558,0.104-0.749,0.313s-0.314,0.507-0.368,0.896h2.159v-0.124c-0.007-0.346-0.1-0.612-0.279-0.801
		C369.494,368.557,369.24,368.462,368.91,368.462z"/>
	<path style="fill:#26A6DB;" d="M373.814,367.319l0.048,0.649c0.412-0.504,0.969-0.757,1.671-0.757c0.748,0,1.262,0.296,1.541,0.886
		c0.408-0.59,0.99-0.886,1.746-0.886c0.63,0,1.099,0.184,1.407,0.551c0.308,0.367,0.462,0.919,0.462,1.657v3.711h-1.558v-3.706
		c0-0.329-0.064-0.57-0.193-0.723s-0.356-0.228-0.683-0.228c-0.465,0-0.787,0.222-0.967,0.666l0.006,3.99h-1.553v-3.701
		c0-0.336-0.066-0.58-0.198-0.73c-0.133-0.15-0.358-0.225-0.677-0.225c-0.44,0-0.76,0.182-0.956,0.547v4.109h-1.553v-5.812H373.814z
		"/>
	<path style="fill:#26A6DB;" d="M387.113,370.279c0,0.895-0.203,1.611-0.61,2.15c-0.406,0.539-0.955,0.809-1.646,0.809
		c-0.588,0-1.062-0.204-1.424-0.612v2.739h-1.552v-8.046h1.439l0.054,0.569c0.376-0.451,0.866-0.677,1.472-0.677
		c0.716,0,1.272,0.265,1.67,0.795s0.597,1.261,0.597,2.191V370.279z M385.561,370.165c0-0.541-0.096-0.958-0.287-1.252
		c-0.191-0.293-0.47-0.439-0.835-0.439c-0.487,0-0.822,0.186-1.005,0.559v2.379c0.19,0.383,0.528,0.574,1.016,0.574
		C385.19,371.986,385.561,371.379,385.561,370.165z"/>
	<path style="fill:#26A6DB;" d="M387.833,370.171c0-0.577,0.11-1.091,0.333-1.542c0.222-0.451,0.541-0.8,0.959-1.048
		c0.417-0.246,0.901-0.37,1.452-0.37c0.784,0,1.425,0.24,1.921,0.72c0.495,0.479,0.772,1.132,0.829,1.955l0.011,0.397
		c0,0.892-0.249,1.606-0.746,2.146c-0.498,0.539-1.166,0.809-2.004,0.809s-1.506-0.269-2.006-0.806
		c-0.499-0.537-0.749-1.268-0.749-2.191V370.171z M389.385,370.281c0,0.553,0.104,0.975,0.312,1.268
		c0.208,0.292,0.505,0.438,0.892,0.438c0.376,0,0.67-0.144,0.881-0.433c0.212-0.289,0.317-0.75,0.317-1.385
		c0-0.542-0.105-0.961-0.317-1.259c-0.211-0.298-0.508-0.447-0.892-0.447c-0.379,0-0.673,0.148-0.881,0.444
		C389.489,369.202,389.385,369.66,389.385,370.281z"/>
</g>
<g style="enable-background:new    ;">
	<path style="fill:#26A6DB;" d="M397.562,368.775c-0.211-0.029-0.397-0.043-0.559-0.043c-0.587,0-0.972,0.198-1.154,0.596v3.803
		h-1.553v-5.812h1.467l0.043,0.692c0.312-0.533,0.743-0.8,1.294-0.8c0.172,0,0.333,0.023,0.483,0.069L397.562,368.775z"/>
</g>
<g style="enable-background:new    ;">
	<path style="fill:#26A6DB;" d="M401.514,373.13c-0.071-0.14-0.123-0.313-0.155-0.521c-0.376,0.42-0.865,0.629-1.467,0.629
		c-0.569,0-1.041-0.165-1.415-0.494s-0.562-0.745-0.562-1.246c0-0.616,0.229-1.089,0.685-1.418c0.457-0.329,1.117-0.496,1.979-0.5
		h0.715v-0.332c0-0.27-0.069-0.484-0.207-0.645c-0.138-0.162-0.355-0.242-0.652-0.242c-0.262,0-0.467,0.062-0.615,0.188
		c-0.148,0.126-0.223,0.298-0.223,0.516h-1.553c0-0.336,0.104-0.647,0.312-0.934c0.208-0.287,0.502-0.512,0.881-0.675
		c0.38-0.163,0.806-0.244,1.278-0.244c0.717,0,1.285,0.18,1.705,0.54c0.421,0.359,0.632,0.865,0.632,1.518v2.519
		c0.003,0.552,0.08,0.969,0.23,1.251v0.092H401.514z M399.945,365.796c0,0.19-0.069,0.352-0.209,0.482s-0.319,0.197-0.537,0.197
		c-0.223,0-0.401-0.067-0.537-0.2c-0.137-0.133-0.204-0.293-0.204-0.479c0-0.188,0.067-0.348,0.204-0.482
		c0.136-0.135,0.314-0.203,0.537-0.203c0.222,0,0.401,0.068,0.539,0.203C399.877,365.449,399.945,365.609,399.945,365.796z
		 M400.23,372.05c0.229,0,0.44-0.051,0.634-0.152c0.193-0.103,0.336-0.239,0.43-0.411v-0.999h-0.58c-0.777,0-1.19,0.269-1.241,0.806
		l-0.005,0.091c0,0.193,0.067,0.354,0.204,0.479C399.808,371.988,399.994,372.05,400.23,372.05z M401.073,365.796
		c0-0.194,0.072-0.357,0.218-0.488c0.145-0.131,0.321-0.197,0.529-0.197c0.211,0,0.388,0.067,0.528,0.2
		c0.142,0.133,0.213,0.295,0.213,0.485c0,0.187-0.068,0.348-0.204,0.482c-0.137,0.135-0.315,0.202-0.537,0.202
		c-0.223,0-0.402-0.067-0.54-0.202S401.073,365.983,401.073,365.796z"/>
	<path style="fill:#26A6DB;" d="M407.31,368.775c-0.212-0.029-0.397-0.043-0.559-0.043c-0.588,0-0.973,0.198-1.155,0.596v3.803
		h-1.552v-5.812h1.466l0.043,0.692c0.312-0.533,0.743-0.8,1.295-0.8c0.172,0,0.333,0.023,0.483,0.069L407.31,368.775z"/>
	<path style="fill:#26A6DB;" d="M412.578,371.878h2.842v1.252h-4.823v-0.945l2.733-3.615h-2.653v-1.251h4.657v0.914L412.578,371.878
		z"/>
	<path style="fill:#26A6DB;" d="M419.872,372.539c-0.383,0.466-0.913,0.698-1.59,0.698c-0.623,0-1.098-0.179-1.426-0.537
		c-0.327-0.358-0.495-0.883-0.502-1.574v-3.808h1.552v3.759c0,0.605,0.276,0.908,0.827,0.908c0.526,0,0.889-0.183,1.085-0.548
		v-4.119h1.558v5.812h-1.461L419.872,372.539z"/>
	<path style="fill:#26A6DB;" d="M424.003,367.319l0.048,0.649c0.412-0.504,0.969-0.757,1.671-0.757c0.748,0,1.262,0.296,1.541,0.886
		c0.408-0.59,0.99-0.886,1.746-0.886c0.63,0,1.099,0.184,1.407,0.551c0.308,0.367,0.462,0.919,0.462,1.657v3.711h-1.558v-3.706
		c0-0.329-0.064-0.57-0.193-0.723s-0.356-0.228-0.683-0.228c-0.465,0-0.787,0.222-0.967,0.666l0.006,3.99h-1.553v-3.701
		c0-0.336-0.066-0.58-0.198-0.73c-0.133-0.15-0.358-0.225-0.677-0.225c-0.44,0-0.76,0.182-0.956,0.547v4.109h-1.553v-5.812H424.003z
		"/>
</g>
<g style="enable-background:new    ;">
	<path style="fill:#26A6DB;" d="M367.213,384.719h-2.825l-0.537,1.611h-1.713l2.911-7.82h1.493l2.927,7.82h-1.713L367.213,384.719z
		 M364.823,383.414h1.955l-0.983-2.928L364.823,383.414z"/>
	<path style="fill:#26A6DB;" d="M373.363,381.975c-0.212-0.029-0.397-0.043-0.559-0.043c-0.588,0-0.973,0.198-1.155,0.596v3.803
		h-1.552v-5.812h1.466l0.043,0.692c0.312-0.533,0.743-0.8,1.295-0.8c0.172,0,0.333,0.023,0.483,0.069L373.363,381.975z"/>
	<path style="fill:#26A6DB;" d="M379.347,383.479c0,0.931-0.199,1.656-0.597,2.178c-0.397,0.521-0.952,0.781-1.665,0.781
		c-0.63,0-1.133-0.242-1.509-0.725l-0.07,0.617h-1.396v-8.25h1.553v2.959c0.357-0.418,0.829-0.628,1.412-0.628
		c0.709,0,1.266,0.261,1.668,0.781c0.403,0.521,0.604,1.255,0.604,2.2V383.479z M377.794,383.366c0-0.587-0.093-1.016-0.279-1.286
		c-0.186-0.271-0.464-0.405-0.832-0.405c-0.494,0-0.835,0.202-1.021,0.606v2.294c0.189,0.408,0.533,0.611,1.031,0.611
		c0.501,0,0.83-0.246,0.988-0.74C377.757,384.209,377.794,383.849,377.794,383.366z"/>
	<path style="fill:#26A6DB;" d="M382.978,386.438c-0.853,0-1.546-0.262-2.082-0.784c-0.535-0.522-0.803-1.22-0.803-2.089v-0.15
		c0-0.584,0.113-1.106,0.339-1.566s0.545-0.814,0.958-1.063c0.414-0.249,0.886-0.373,1.416-0.373c0.795,0,1.42,0.251,1.877,0.752
		c0.456,0.501,0.685,1.212,0.685,2.132v0.635h-3.7c0.05,0.379,0.201,0.684,0.453,0.912c0.253,0.229,0.572,0.344,0.959,0.344
		c0.599,0,1.065-0.216,1.402-0.649l0.763,0.854c-0.233,0.329-0.548,0.586-0.945,0.771S383.461,386.438,382.978,386.438z
		 M382.8,381.662c-0.308,0-0.558,0.104-0.749,0.313s-0.314,0.507-0.368,0.896h2.159v-0.124c-0.007-0.346-0.1-0.612-0.279-0.801
		C383.384,381.757,383.13,381.662,382.8,381.662z"/>
	<path style="fill:#26A6DB;" d="M386.237,379.015c0-0.232,0.078-0.425,0.234-0.575c0.155-0.15,0.367-0.225,0.636-0.225
		c0.266,0,0.477,0.074,0.634,0.225c0.158,0.15,0.236,0.343,0.236,0.575c0,0.236-0.079,0.43-0.238,0.58
		c-0.16,0.15-0.37,0.226-0.632,0.226c-0.261,0-0.472-0.075-0.631-0.226S386.237,379.251,386.237,379.015z M387.887,386.33h-1.558
		v-5.812h1.558V386.33z"/>
	<path style="fill:#26A6DB;" d="M391.023,379.09v1.429h0.993v1.139h-0.993v2.9c0,0.215,0.041,0.369,0.123,0.462
		c0.083,0.093,0.24,0.14,0.473,0.14c0.172,0,0.324-0.013,0.457-0.038v1.177c-0.305,0.093-0.618,0.14-0.94,0.14
		c-1.088,0-1.644-0.55-1.665-1.648v-3.132h-0.849v-1.139h0.849v-1.429H391.023z"/>
	<path style="fill:#26A6DB;" d="M392.656,383.381c0-0.891,0.212-1.609,0.636-2.153c0.425-0.544,0.997-0.816,1.717-0.816
		c0.637,0,1.133,0.219,1.487,0.655l0.064-0.548h1.407v5.618c0,0.509-0.115,0.951-0.347,1.326c-0.23,0.377-0.556,0.663-0.975,0.859
		c-0.419,0.197-0.909,0.296-1.472,0.296c-0.426,0-0.841-0.085-1.246-0.255c-0.404-0.17-0.711-0.39-0.918-0.658l0.688-0.945
		c0.387,0.434,0.855,0.65,1.407,0.65c0.411,0,0.732-0.11,0.961-0.331c0.229-0.22,0.344-0.532,0.344-0.937v-0.312
		c-0.357,0.405-0.829,0.607-1.412,0.607c-0.698,0-1.264-0.273-1.695-0.819c-0.431-0.546-0.646-1.271-0.646-2.173V383.381z
		 M394.208,383.497c0,0.527,0.105,0.94,0.317,1.24c0.211,0.299,0.501,0.448,0.87,0.448c0.473,0,0.811-0.177,1.015-0.532v-2.447
		c-0.207-0.355-0.542-0.532-1.004-0.532c-0.373,0-0.665,0.152-0.879,0.457C394.314,382.436,394.208,382.891,394.208,383.497z"/>
	<path style="fill:#26A6DB;" d="M401.835,386.438c-0.852,0-1.546-0.262-2.081-0.784s-0.803-1.22-0.803-2.089v-0.15
		c0-0.584,0.112-1.106,0.338-1.566s0.546-0.814,0.959-1.063c0.414-0.249,0.886-0.373,1.415-0.373c0.795,0,1.421,0.251,1.878,0.752
		c0.456,0.501,0.685,1.212,0.685,2.132v0.635h-3.701c0.051,0.379,0.202,0.684,0.454,0.912c0.253,0.229,0.572,0.344,0.959,0.344
		c0.598,0,1.065-0.216,1.401-0.649l0.763,0.854c-0.232,0.329-0.548,0.586-0.945,0.771S402.318,386.438,401.835,386.438z
		 M401.658,381.662c-0.309,0-0.558,0.104-0.749,0.313c-0.192,0.209-0.314,0.507-0.368,0.896h2.159v-0.124
		c-0.008-0.346-0.101-0.612-0.279-0.801C402.241,381.757,401.987,381.662,401.658,381.662z"/>
	<path style="fill:#26A6DB;" d="M410.343,383.479c0,0.931-0.198,1.656-0.596,2.178c-0.397,0.521-0.953,0.781-1.665,0.781
		c-0.631,0-1.134-0.242-1.51-0.725l-0.069,0.617h-1.396v-8.25h1.552v2.959c0.358-0.418,0.829-0.628,1.413-0.628
		c0.709,0,1.265,0.261,1.667,0.781c0.403,0.521,0.604,1.255,0.604,2.2V383.479z M408.791,383.366c0-0.587-0.094-1.016-0.279-1.286
		c-0.187-0.271-0.464-0.405-0.833-0.405c-0.494,0-0.834,0.202-1.021,0.606v2.294c0.19,0.408,0.534,0.611,1.031,0.611
		c0.502,0,0.831-0.246,0.988-0.74C408.753,384.209,408.791,383.849,408.791,383.366z"/>
	<path style="fill:#26A6DB;" d="M413.974,386.438c-0.852,0-1.546-0.262-2.081-0.784s-0.803-1.22-0.803-2.089v-0.15
		c0-0.584,0.112-1.106,0.338-1.566s0.546-0.814,0.959-1.063c0.414-0.249,0.886-0.373,1.415-0.373c0.795,0,1.421,0.251,1.878,0.752
		c0.456,0.501,0.685,1.212,0.685,2.132v0.635h-3.701c0.051,0.379,0.202,0.684,0.454,0.912c0.253,0.229,0.572,0.344,0.959,0.344
		c0.598,0,1.065-0.216,1.401-0.649l0.763,0.854c-0.232,0.329-0.548,0.586-0.945,0.771S414.457,386.438,413.974,386.438z
		 M413.797,381.662c-0.309,0-0.558,0.104-0.749,0.313c-0.192,0.209-0.314,0.507-0.368,0.896h2.159v-0.124
		c-0.008-0.346-0.101-0.612-0.279-0.801C414.38,381.757,414.126,381.662,413.797,381.662z"/>
	<path style="fill:#26A6DB;" d="M420.511,381.975c-0.212-0.029-0.397-0.043-0.559-0.043c-0.588,0-0.973,0.198-1.155,0.596v3.803
		h-1.552v-5.812h1.466l0.043,0.692c0.312-0.533,0.743-0.8,1.295-0.8c0.172,0,0.333,0.023,0.483,0.069L420.511,381.975z"/>
	<path style="fill:#26A6DB;" d="M425.452,380.519l0.048,0.649c0.412-0.504,0.969-0.757,1.671-0.757c0.748,0,1.262,0.296,1.541,0.886
		c0.408-0.59,0.99-0.886,1.746-0.886c0.63,0,1.099,0.184,1.407,0.551c0.308,0.367,0.462,0.919,0.462,1.657v3.711h-1.558v-3.706
		c0-0.329-0.064-0.57-0.193-0.723s-0.356-0.228-0.683-0.228c-0.465,0-0.787,0.222-0.967,0.666l0.006,3.99h-1.553v-3.701
		c0-0.336-0.066-0.58-0.198-0.73c-0.133-0.15-0.358-0.225-0.677-0.225c-0.44,0-0.76,0.182-0.956,0.547v4.109h-1.553v-5.812H425.452z
		"/>
	<path style="fill:#26A6DB;" d="M433.509,379.015c0-0.232,0.077-0.425,0.233-0.575c0.155-0.15,0.368-0.225,0.637-0.225
		c0.265,0,0.476,0.074,0.634,0.225c0.157,0.15,0.236,0.343,0.236,0.575c0,0.236-0.08,0.43-0.239,0.58s-0.37,0.226-0.631,0.226
		c-0.262,0-0.472-0.075-0.632-0.226C433.588,379.445,433.509,379.251,433.509,379.015z M435.157,386.33H433.6v-5.812h1.558V386.33z"
		/>
	<path style="fill:#26A6DB;" d="M438.294,379.09v1.429h0.994v1.139h-0.994v2.9c0,0.215,0.041,0.369,0.124,0.462
		c0.082,0.093,0.239,0.14,0.473,0.14c0.172,0,0.324-0.013,0.456-0.038v1.177c-0.304,0.093-0.617,0.14-0.939,0.14
		c-1.089,0-1.644-0.55-1.665-1.648v-3.132h-0.849v-1.139h0.849v-1.429H438.294z"/>
</g>
<g style="enable-background:new    ;">
	<path style="fill:#26A6DB;" d="M364.903,391.709l2.009,5.672l1.998-5.672h2.116v7.82h-1.616v-2.138l0.161-3.69l-2.111,5.828h-1.106
		l-2.105-5.822l0.161,3.685v2.138h-1.611v-7.82H364.903z"/>
	<path style="fill:#26A6DB;" d="M375.007,399.637c-0.853,0-1.546-0.262-2.082-0.784c-0.535-0.522-0.803-1.22-0.803-2.089v-0.15
		c0-0.584,0.113-1.106,0.339-1.566s0.545-0.814,0.958-1.063c0.414-0.249,0.886-0.373,1.416-0.373c0.795,0,1.42,0.251,1.877,0.752
		c0.456,0.501,0.685,1.212,0.685,2.132v0.635h-3.7c0.05,0.379,0.201,0.684,0.453,0.912c0.253,0.229,0.572,0.344,0.959,0.344
		c0.599,0,1.065-0.216,1.402-0.649l0.763,0.854c-0.233,0.329-0.548,0.586-0.945,0.771S375.49,399.637,375.007,399.637z
		 M374.829,394.862c-0.308,0-0.558,0.104-0.749,0.313s-0.314,0.507-0.368,0.896h2.159v-0.124c-0.007-0.346-0.1-0.612-0.279-0.801
		C375.413,394.956,375.159,394.862,374.829,394.862z"/>
	<path style="fill:#26A6DB;" d="M379.792,394.352c0.412-0.494,0.93-0.741,1.553-0.741c1.26,0,1.899,0.732,1.917,2.196v3.723h-1.552
		v-3.68c0-0.332-0.072-0.579-0.215-0.738c-0.144-0.159-0.382-0.238-0.715-0.238c-0.454,0-0.784,0.175-0.988,0.525v4.131h-1.552
		v-8.25h1.552V394.352z"/>
	<path style="fill:#26A6DB;" d="M387.698,395.174c-0.211-0.029-0.397-0.043-0.559-0.043c-0.587,0-0.972,0.198-1.154,0.596v3.803
		h-1.553v-5.812h1.467l0.043,0.692c0.312-0.533,0.743-0.8,1.294-0.8c0.172,0,0.333,0.023,0.483,0.069L387.698,395.174z"/>
	<path style="fill:#26A6DB;" d="M393.682,396.678c0,0.931-0.198,1.656-0.596,2.178c-0.397,0.521-0.953,0.781-1.665,0.781
		c-0.631,0-1.134-0.242-1.51-0.725l-0.069,0.617h-1.396v-8.25h1.552v2.959c0.358-0.418,0.829-0.628,1.413-0.628
		c0.709,0,1.265,0.261,1.667,0.781c0.403,0.521,0.604,1.255,0.604,2.2V396.678z M392.13,396.565c0-0.587-0.094-1.016-0.279-1.286
		c-0.187-0.271-0.464-0.405-0.833-0.405c-0.494,0-0.834,0.202-1.021,0.606v2.294c0.19,0.408,0.534,0.611,1.031,0.611
		c0.502,0,0.831-0.246,0.988-0.74C392.092,397.409,392.13,397.048,392.13,396.565z"/>
	<path style="fill:#26A6DB;" d="M397.312,399.637c-0.852,0-1.546-0.262-2.081-0.784s-0.803-1.22-0.803-2.089v-0.15
		c0-0.584,0.112-1.106,0.338-1.566s0.546-0.814,0.959-1.063c0.414-0.249,0.886-0.373,1.415-0.373c0.795,0,1.421,0.251,1.878,0.752
		c0.456,0.501,0.685,1.212,0.685,2.132v0.635h-3.701c0.051,0.379,0.202,0.684,0.454,0.912c0.253,0.229,0.572,0.344,0.959,0.344
		c0.598,0,1.065-0.216,1.401-0.649l0.763,0.854c-0.232,0.329-0.548,0.586-0.945,0.771S397.796,399.637,397.312,399.637z
		 M397.136,394.862c-0.309,0-0.558,0.104-0.749,0.313c-0.192,0.209-0.314,0.507-0.368,0.896h2.159v-0.124
		c-0.008-0.346-0.101-0.612-0.279-0.801C397.719,394.956,397.465,394.862,397.136,394.862z"/>
	<path style="fill:#26A6DB;" d="M400.342,396.58c0-0.905,0.203-1.627,0.609-2.164c0.407-0.537,0.963-0.806,1.668-0.806
		c0.566,0,1.033,0.211,1.402,0.634v-2.965h1.558v8.25h-1.402l-0.075-0.617c-0.387,0.482-0.884,0.725-1.493,0.725
		c-0.684,0-1.232-0.27-1.646-0.809C400.549,398.289,400.342,397.54,400.342,396.58z M401.895,396.697
		c0,0.545,0.095,0.963,0.284,1.253c0.19,0.291,0.466,0.436,0.827,0.436c0.48,0,0.818-0.202,1.016-0.607v-2.297
		c-0.193-0.405-0.528-0.607-1.005-0.607C402.269,394.873,401.895,395.481,401.895,396.697z"/>
	<path style="fill:#26A6DB;" d="M410.149,399.53c-0.071-0.14-0.123-0.313-0.155-0.521c-0.376,0.42-0.865,0.629-1.467,0.629
		c-0.569,0-1.041-0.165-1.415-0.494s-0.562-0.745-0.562-1.246c0-0.616,0.229-1.089,0.685-1.418c0.457-0.329,1.117-0.496,1.979-0.5
		h0.715v-0.332c0-0.27-0.069-0.484-0.207-0.645c-0.138-0.162-0.355-0.242-0.652-0.242c-0.262,0-0.467,0.062-0.615,0.188
		c-0.148,0.126-0.223,0.298-0.223,0.516h-1.553c0-0.336,0.104-0.647,0.312-0.934c0.208-0.287,0.502-0.512,0.881-0.675
		c0.38-0.163,0.806-0.244,1.278-0.244c0.717,0,1.285,0.18,1.705,0.54c0.421,0.359,0.632,0.865,0.632,1.518v2.519
		c0.003,0.552,0.08,0.969,0.23,1.251v0.092H410.149z M408.866,398.45c0.229,0,0.44-0.051,0.634-0.152
		c0.193-0.103,0.336-0.239,0.43-0.411v-0.999h-0.58c-0.777,0-1.19,0.269-1.241,0.806l-0.005,0.091c0,0.193,0.067,0.354,0.204,0.479
		C408.443,398.387,408.63,398.45,408.866,398.45z"/>
</g>
<g style="enable-background:new    ;">
	<path style="fill:#26A6DB;" d="M415.941,395.174c-0.211-0.029-0.397-0.043-0.559-0.043c-0.587,0-0.972,0.198-1.154,0.596v3.803
		h-1.553v-5.812h1.467l0.043,0.692c0.312-0.533,0.743-0.8,1.294-0.8c0.172,0,0.333,0.023,0.483,0.069L415.941,395.174z"/>
</g>
<g style="enable-background:new    ;">
	<path style="fill:#26A6DB;" d="M417.221,399.53v-4.673h-0.865v-1.139h0.865v-0.494c0-0.651,0.187-1.157,0.562-1.518
		c0.374-0.359,0.897-0.54,1.57-0.54c0.215,0,0.479,0.036,0.79,0.107l-0.017,1.203c-0.129-0.031-0.286-0.048-0.473-0.048
		c-0.583,0-0.875,0.274-0.875,0.821v0.468h1.154v1.139h-1.154v4.673H417.221z"/>
</g>
<g style="enable-background:new    ;">
	<path style="fill:#26A6DB;" d="M2.804,338.91l2.009,5.672l1.998-5.672h2.116v7.82H7.31v-2.138l0.161-3.69L5.36,346.73H4.254
		l-2.105-5.822l0.161,3.685v2.138H0.698v-7.82H2.804z"/>
	<path style="fill:#26A6DB;" d="M10.221,339.414c0-0.232,0.078-0.425,0.234-0.575c0.155-0.15,0.368-0.225,0.636-0.225
		c0.265,0,0.476,0.074,0.634,0.225s0.236,0.343,0.236,0.575c0,0.236-0.08,0.43-0.239,0.58c-0.16,0.15-0.37,0.226-0.631,0.226
		s-0.472-0.075-0.631-0.226C10.301,339.844,10.221,339.651,10.221,339.414z M11.87,346.73h-1.558v-5.812h1.558V346.73z"/>
	<path style="fill:#26A6DB;" d="M15.007,339.49v1.429H16v1.139h-0.994v2.9c0,0.215,0.041,0.369,0.124,0.462s0.24,0.14,0.473,0.14
		c0.172,0,0.324-0.013,0.457-0.038v1.177c-0.304,0.093-0.618,0.14-0.94,0.14c-1.088,0-1.644-0.55-1.665-1.648v-3.132h-0.849v-1.139
		h0.849v-1.429H15.007z"/>
	<path style="fill:#26A6DB;" d="M20.233,346.73c-0.072-0.14-0.124-0.313-0.156-0.521c-0.376,0.42-0.865,0.629-1.466,0.629
		c-0.569,0-1.041-0.165-1.415-0.494c-0.375-0.329-0.562-0.745-0.562-1.246c0-0.616,0.229-1.089,0.685-1.418
		c0.457-0.329,1.117-0.496,1.979-0.5h0.714v-0.332c0-0.27-0.069-0.484-0.207-0.645c-0.138-0.162-0.355-0.242-0.653-0.242
		c-0.261,0-0.466,0.062-0.615,0.188c-0.149,0.126-0.223,0.298-0.223,0.516h-1.552c0-0.336,0.104-0.647,0.312-0.934
		c0.208-0.287,0.501-0.512,0.881-0.675s0.806-0.244,1.278-0.244c0.716,0,1.285,0.18,1.705,0.54c0.421,0.359,0.631,0.865,0.631,1.518
		v2.519c0.003,0.552,0.081,0.969,0.231,1.251v0.092H20.233z M18.949,345.65c0.229,0,0.44-0.051,0.634-0.152
		c0.193-0.103,0.336-0.239,0.43-0.411v-0.999h-0.58c-0.777,0-1.19,0.269-1.241,0.806l-0.005,0.091c0,0.193,0.068,0.354,0.204,0.479
		S18.713,345.65,18.949,345.65z"/>
	<path style="fill:#26A6DB;" d="M26.028,342.374c-0.211-0.029-0.397-0.043-0.559-0.043c-0.587,0-0.972,0.198-1.155,0.596v3.803
		h-1.552v-5.812h1.466l0.043,0.692c0.312-0.533,0.743-0.8,1.294-0.8c0.172,0,0.333,0.023,0.483,0.069L26.028,342.374z"/>
	<path style="fill:#26A6DB;" d="M32.012,343.878c0,0.931-0.199,1.656-0.596,2.178c-0.397,0.521-0.953,0.781-1.665,0.781
		c-0.63,0-1.133-0.242-1.509-0.725l-0.07,0.617h-1.396v-8.25h1.552v2.959c0.358-0.418,0.829-0.628,1.413-0.628
		c0.709,0,1.265,0.261,1.667,0.781c0.403,0.521,0.604,1.255,0.604,2.2V343.878z M30.459,343.765c0-0.587-0.093-1.016-0.279-1.286
		s-0.464-0.405-0.833-0.405c-0.494,0-0.834,0.202-1.021,0.606v2.294c0.19,0.408,0.534,0.611,1.031,0.611
		c0.501,0,0.831-0.246,0.988-0.74C30.422,344.609,30.459,344.248,30.459,343.765z"/>
	<path style="fill:#26A6DB;" d="M35.643,346.837c-0.852,0-1.546-0.262-2.082-0.784c-0.535-0.522-0.803-1.22-0.803-2.089v-0.15
		c0-0.584,0.113-1.106,0.338-1.566s0.545-0.814,0.958-1.063c0.414-0.249,0.886-0.373,1.416-0.373c0.795,0,1.42,0.251,1.877,0.752
		c0.456,0.501,0.685,1.212,0.685,2.132v0.635h-3.701c0.05,0.379,0.202,0.684,0.454,0.912c0.253,0.229,0.572,0.344,0.959,0.344
		c0.598,0,1.065-0.216,1.402-0.649l0.763,0.854c-0.233,0.329-0.548,0.586-0.945,0.771S36.126,346.837,35.643,346.837z
		 M35.465,342.062c-0.308,0-0.558,0.104-0.749,0.313c-0.192,0.209-0.314,0.507-0.368,0.896h2.159v-0.124
		c-0.007-0.346-0.1-0.612-0.279-0.801C36.049,342.157,35.795,342.062,35.465,342.062z"/>
	<path style="fill:#26A6DB;" d="M38.903,339.414c0-0.232,0.078-0.425,0.234-0.575c0.155-0.15,0.368-0.225,0.636-0.225
		c0.265,0,0.476,0.074,0.634,0.225s0.236,0.343,0.236,0.575c0,0.236-0.08,0.43-0.239,0.58c-0.16,0.15-0.37,0.226-0.631,0.226
		s-0.472-0.075-0.631-0.226C38.982,339.844,38.903,339.651,38.903,339.414z M40.552,346.73h-1.558v-5.812h1.558V346.73z"/>
	<path style="fill:#26A6DB;" d="M43.688,339.49v1.429h0.994v1.139h-0.994v2.9c0,0.215,0.041,0.369,0.124,0.462s0.24,0.14,0.473,0.14
		c0.172,0,0.324-0.013,0.457-0.038v1.177c-0.304,0.093-0.618,0.14-0.94,0.14c-1.088,0-1.644-0.55-1.665-1.648v-3.132h-0.849v-1.139
		h0.849v-1.429H43.688z"/>
	<path style="fill:#26A6DB;" d="M48.222,346.837c-0.852,0-1.546-0.262-2.082-0.784c-0.535-0.522-0.803-1.22-0.803-2.089v-0.15
		c0-0.584,0.113-1.106,0.338-1.566s0.545-0.814,0.958-1.063c0.414-0.249,0.886-0.373,1.416-0.373c0.795,0,1.42,0.251,1.877,0.752
		c0.456,0.501,0.685,1.212,0.685,2.132v0.635h-3.701c0.05,0.379,0.202,0.684,0.454,0.912c0.253,0.229,0.572,0.344,0.959,0.344
		c0.598,0,1.065-0.216,1.402-0.649l0.763,0.854c-0.233,0.329-0.548,0.586-0.945,0.771S48.705,346.837,48.222,346.837z
		 M48.044,342.062c-0.308,0-0.558,0.104-0.749,0.313c-0.192,0.209-0.314,0.507-0.368,0.896h2.159v-0.124
		c-0.007-0.346-0.1-0.612-0.279-0.801C48.628,342.157,48.374,342.062,48.044,342.062z"/>
	<path style="fill:#26A6DB;" d="M54.758,342.374c-0.211-0.029-0.397-0.043-0.559-0.043c-0.587,0-0.972,0.198-1.155,0.596v3.803
		h-1.552v-5.812h1.466l0.043,0.692c0.312-0.533,0.743-0.8,1.294-0.8c0.172,0,0.333,0.023,0.483,0.069L54.758,342.374z"/>
</g>
<g style="enable-background:new    ;">
	<path style="fill:#26A6DB;" d="M5.65,357.819l0.763-3.7h1.499l-1.482,5.812h-1.3l-1.101-3.658l-1.101,3.658H1.633l-1.482-5.812
		h1.499l0.757,3.695l1.063-3.695h1.123L5.65,357.819z"/>
	<path style="fill:#26A6DB;" d="M11.354,360.037c-0.852,0-1.546-0.262-2.082-0.784c-0.535-0.522-0.803-1.22-0.803-2.089v-0.15
		c0-0.584,0.113-1.106,0.338-1.566s0.545-0.814,0.958-1.063c0.414-0.249,0.886-0.373,1.416-0.373c0.795,0,1.42,0.251,1.877,0.752
		c0.456,0.501,0.685,1.212,0.685,2.132v0.635h-3.701c0.05,0.379,0.202,0.684,0.454,0.912c0.253,0.229,0.572,0.344,0.959,0.344
		c0.598,0,1.065-0.216,1.402-0.649l0.763,0.854c-0.233,0.329-0.548,0.586-0.945,0.771S11.838,360.037,11.354,360.037z
		 M11.177,355.262c-0.308,0-0.558,0.104-0.749,0.313c-0.192,0.209-0.314,0.507-0.368,0.896h2.159v-0.124
		c-0.007-0.346-0.1-0.612-0.279-0.801C11.761,355.357,11.507,355.262,11.177,355.262z"/>
	<path style="fill:#26A6DB;" d="M17.042,358.785c0.287,0,0.519-0.078,0.698-0.236c0.179-0.157,0.272-0.366,0.279-0.628h1.456
		c-0.003,0.394-0.111,0.755-0.322,1.082c-0.211,0.328-0.5,0.582-0.867,0.763c-0.367,0.181-0.773,0.271-1.217,0.271
		c-0.831,0-1.486-0.264-1.966-0.792s-0.72-1.258-0.72-2.188v-0.103c0-0.896,0.238-1.609,0.714-2.144c0.476-0.533,1.13-0.8,1.96-0.8
		c0.727,0,1.31,0.207,1.748,0.62c0.439,0.414,0.662,0.965,0.669,1.652H18.02c-0.007-0.303-0.1-0.549-0.279-0.737
		c-0.179-0.189-0.416-0.284-0.709-0.284c-0.362,0-0.635,0.133-0.819,0.396c-0.185,0.264-0.277,0.691-0.277,1.283v0.161
		c0,0.6,0.091,1.029,0.274,1.291C16.393,358.656,16.67,358.785,17.042,358.785z"/>
	<path style="fill:#26A6DB;" d="M21.876,354.752c0.412-0.494,0.929-0.741,1.552-0.741c1.26,0,1.899,0.732,1.917,2.196v3.723h-1.552
		v-3.68c0-0.332-0.072-0.579-0.215-0.738s-0.381-0.238-0.714-0.238c-0.455,0-0.784,0.175-0.988,0.525v4.131h-1.552v-8.25h1.552
		V354.752z"/>
	<path style="fill:#26A6DB;" d="M29.665,358.325c0-0.19-0.094-0.34-0.282-0.449c-0.188-0.109-0.49-0.207-0.905-0.293
		c-1.382-0.289-2.073-0.877-2.073-1.762c0-0.516,0.214-0.945,0.642-1.291c0.428-0.346,0.988-0.519,1.679-0.519
		c0.738,0,1.328,0.174,1.77,0.521c0.442,0.348,0.664,0.799,0.664,1.354h-1.552c0-0.222-0.072-0.405-0.215-0.55
		c-0.143-0.146-0.367-0.218-0.671-0.218c-0.261,0-0.464,0.059-0.607,0.178c-0.143,0.117-0.215,0.268-0.215,0.451
		c0,0.172,0.082,0.311,0.244,0.416c0.163,0.105,0.438,0.196,0.825,0.273s0.712,0.164,0.978,0.261c0.82,0.301,1.23,0.821,1.23,1.563
		c0,0.529-0.228,0.958-0.682,1.286c-0.455,0.327-1.042,0.491-1.762,0.491c-0.487,0-0.919-0.087-1.297-0.261
		c-0.377-0.174-0.674-0.411-0.889-0.714s-0.322-0.63-0.322-0.98h1.472c0.014,0.275,0.116,0.487,0.306,0.634s0.444,0.22,0.763,0.22
		c0.297,0,0.522-0.056,0.674-0.169C29.588,358.655,29.665,358.506,29.665,358.325z"/>
	<path style="fill:#26A6DB;" d="M34.848,360.037c-0.852,0-1.546-0.262-2.082-0.784c-0.535-0.522-0.803-1.22-0.803-2.089v-0.15
		c0-0.584,0.113-1.106,0.338-1.566s0.545-0.814,0.958-1.063c0.414-0.249,0.886-0.373,1.416-0.373c0.795,0,1.42,0.251,1.877,0.752
		c0.456,0.501,0.685,1.212,0.685,2.132v0.635h-3.701c0.05,0.379,0.202,0.684,0.454,0.912c0.253,0.229,0.572,0.344,0.959,0.344
		c0.598,0,1.065-0.216,1.402-0.649l0.763,0.854c-0.233,0.329-0.548,0.586-0.945,0.771S35.331,360.037,34.848,360.037z
		 M34.67,355.262c-0.308,0-0.558,0.104-0.749,0.313c-0.192,0.209-0.314,0.507-0.368,0.896h2.159v-0.124
		c-0.007-0.346-0.1-0.612-0.279-0.801C35.254,355.357,35,355.262,34.67,355.262z"/>
	<path style="fill:#26A6DB;" d="M39.757,359.93h-1.558v-8.25h1.558V359.93z"/>
	<path style="fill:#26A6DB;" d="M42.464,354.118l0.048,0.671c0.416-0.519,0.972-0.778,1.67-0.778c0.616,0,1.074,0.181,1.375,0.542
		c0.301,0.362,0.455,0.902,0.462,1.623v3.754h-1.552v-3.717c0-0.329-0.072-0.568-0.215-0.717s-0.381-0.223-0.714-0.223
		c-0.437,0-0.765,0.186-0.983,0.559v4.098h-1.552v-5.812H42.464z"/>
	<path style="fill:#26A6DB;" d="M54.989,357.819l0.763-3.7h1.499l-1.482,5.812h-1.3l-1.101-3.658l-1.101,3.658h-1.294l-1.482-5.812
		h1.499l0.757,3.695l1.063-3.695h1.123L54.989,357.819z"/>
	<path style="fill:#26A6DB;" d="M58.008,352.615c0-0.232,0.078-0.425,0.234-0.575c0.155-0.15,0.368-0.225,0.636-0.225
		c0.265,0,0.476,0.074,0.634,0.225s0.236,0.343,0.236,0.575c0,0.236-0.08,0.43-0.239,0.58c-0.16,0.15-0.37,0.226-0.631,0.226
		s-0.472-0.075-0.631-0.226C58.087,353.044,58.008,352.851,58.008,352.615z M59.657,359.93h-1.558v-5.812h1.558V359.93z"/>
	<path style="fill:#26A6DB;" d="M63.61,360.037c-0.852,0-1.546-0.262-2.082-0.784c-0.535-0.522-0.803-1.22-0.803-2.089v-0.15
		c0-0.584,0.113-1.106,0.338-1.566s0.545-0.814,0.958-1.063c0.414-0.249,0.886-0.373,1.416-0.373c0.795,0,1.42,0.251,1.877,0.752
		c0.456,0.501,0.685,1.212,0.685,2.132v0.635h-3.701c0.05,0.379,0.202,0.684,0.454,0.912c0.253,0.229,0.572,0.344,0.959,0.344
		c0.598,0,1.065-0.216,1.402-0.649l0.763,0.854c-0.233,0.329-0.548,0.586-0.945,0.771S64.093,360.037,63.61,360.037z
		 M63.433,355.262c-0.308,0-0.558,0.104-0.749,0.313c-0.192,0.209-0.314,0.507-0.368,0.896h2.159v-0.124
		c-0.007-0.346-0.1-0.612-0.279-0.801C64.016,355.357,63.762,355.262,63.433,355.262z"/>
	<path style="fill:#26A6DB;" d="M66.639,356.981c0-0.905,0.203-1.627,0.609-2.164c0.407-0.537,0.962-0.806,1.668-0.806
		c0.566,0,1.033,0.211,1.402,0.634v-2.965h1.558v8.25h-1.402l-0.075-0.617c-0.387,0.482-0.884,0.725-1.493,0.725
		c-0.684,0-1.232-0.27-1.646-0.809C66.846,358.69,66.639,357.941,66.639,356.981z M68.191,357.097c0,0.545,0.095,0.963,0.285,1.253
		c0.19,0.291,0.465,0.436,0.827,0.436c0.48,0,0.818-0.202,1.015-0.607v-2.297c-0.193-0.405-0.528-0.607-1.004-0.607
		C68.565,355.274,68.191,355.881,68.191,357.097z"/>
	<path style="fill:#26A6DB;" d="M75.754,360.037c-0.852,0-1.546-0.262-2.082-0.784c-0.535-0.522-0.803-1.22-0.803-2.089v-0.15
		c0-0.584,0.113-1.106,0.338-1.566s0.545-0.814,0.958-1.063c0.414-0.249,0.886-0.373,1.416-0.373c0.795,0,1.42,0.251,1.877,0.752
		c0.456,0.501,0.685,1.212,0.685,2.132v0.635h-3.701c0.05,0.379,0.202,0.684,0.454,0.912c0.253,0.229,0.572,0.344,0.959,0.344
		c0.598,0,1.065-0.216,1.402-0.649l0.763,0.854c-0.233,0.329-0.548,0.586-0.945,0.771S76.237,360.037,75.754,360.037z
		 M75.577,355.262c-0.308,0-0.558,0.104-0.749,0.313c-0.192,0.209-0.314,0.507-0.368,0.896h2.159v-0.124
		c-0.007-0.346-0.1-0.612-0.279-0.801C76.16,355.357,75.906,355.262,75.577,355.262z"/>
	<path style="fill:#26A6DB;" d="M82.291,355.575c-0.211-0.029-0.397-0.043-0.559-0.043c-0.587,0-0.972,0.198-1.155,0.596v3.803
		h-1.552v-5.812h1.466l0.043,0.692c0.312-0.533,0.743-0.8,1.294-0.8c0.172,0,0.333,0.023,0.483,0.069L82.291,355.575z"/>
</g>
<g style="enable-background:new    ;">
	<path style="fill:#26A6DB;" d="M2.379,371.878h2.841v1.252H0.397v-0.945l2.734-3.615H0.478v-1.251h4.657v0.914L2.379,371.878z"/>
	<path style="fill:#26A6DB;" d="M9.673,372.539c-0.383,0.466-0.913,0.698-1.59,0.698c-0.623,0-1.098-0.179-1.426-0.537
		c-0.327-0.358-0.495-0.883-0.502-1.574v-3.808h1.552v3.759c0,0.605,0.276,0.908,0.827,0.908c0.526,0,0.888-0.183,1.085-0.548
		v-4.119h1.558v5.812H9.716L9.673,372.539z"/>
	<path style="fill:#26A6DB;" d="M15.614,368.775c-0.211-0.029-0.397-0.043-0.559-0.043c-0.587,0-0.972,0.198-1.155,0.596v3.803
		h-1.552v-5.812h1.466l0.043,0.692c0.312-0.533,0.743-0.8,1.294-0.8c0.172,0,0.333,0.023,0.483,0.069L15.614,368.775z"/>
	<path style="fill:#26A6DB;" d="M19.841,372.539c-0.383,0.466-0.913,0.698-1.59,0.698c-0.623,0-1.098-0.179-1.426-0.537
		c-0.327-0.358-0.495-0.883-0.502-1.574v-3.808h1.552v3.759c0,0.605,0.276,0.908,0.827,0.908c0.526,0,0.888-0.183,1.085-0.548
		v-4.119h1.558v5.812h-1.461L19.841,372.539z M18.272,365.796c0,0.19-0.07,0.352-0.209,0.482s-0.319,0.197-0.537,0.197
		c-0.222,0-0.401-0.067-0.537-0.2s-0.204-0.293-0.204-0.479c0-0.188,0.068-0.348,0.204-0.482s0.315-0.203,0.537-0.203
		s0.402,0.068,0.54,0.203C18.204,365.449,18.272,365.609,18.272,365.796z M19.4,365.796c0-0.194,0.073-0.357,0.217-0.488
		c0.146-0.131,0.322-0.197,0.529-0.197c0.211,0,0.388,0.067,0.529,0.2c0.141,0.133,0.212,0.295,0.212,0.485
		c0,0.187-0.068,0.348-0.204,0.482s-0.315,0.202-0.537,0.202s-0.402-0.067-0.54-0.202C19.469,366.144,19.4,365.983,19.4,365.796z"/>
	<path style="fill:#26A6DB;" d="M24.933,371.986c0.287,0,0.519-0.078,0.698-0.236c0.179-0.157,0.272-0.366,0.279-0.628h1.456
		c-0.003,0.394-0.111,0.755-0.322,1.082c-0.211,0.328-0.5,0.582-0.867,0.763c-0.367,0.181-0.773,0.271-1.217,0.271
		c-0.831,0-1.486-0.264-1.966-0.792s-0.72-1.258-0.72-2.188v-0.103c0-0.896,0.238-1.609,0.714-2.144c0.476-0.533,1.13-0.8,1.96-0.8
		c0.727,0,1.31,0.207,1.748,0.62c0.439,0.414,0.662,0.965,0.669,1.652H25.91c-0.007-0.303-0.1-0.549-0.279-0.737
		c-0.179-0.189-0.416-0.284-0.709-0.284c-0.362,0-0.635,0.133-0.819,0.396c-0.185,0.264-0.277,0.691-0.277,1.283v0.161
		c0,0.6,0.091,1.029,0.274,1.291C24.283,371.856,24.56,371.986,24.933,371.986z"/>
	<path style="fill:#26A6DB;" d="M30.363,370.799l-0.559,0.559v1.772h-1.552v-8.25h1.552v4.57l0.301-0.387l1.488-1.745h1.864
		l-2.1,2.423l2.283,3.389h-1.783L30.363,370.799z"/>
	<path style="fill:#26A6DB;" d="M38.65,371.878h2.841v1.252h-4.823v-0.945l2.734-3.615h-2.653v-1.251h4.657v0.914L38.65,371.878z"/>
	<path style="fill:#26A6DB;" d="M45.944,372.539c-0.383,0.466-0.913,0.698-1.59,0.698c-0.623,0-1.098-0.179-1.426-0.537
		c-0.327-0.358-0.495-0.883-0.502-1.574v-3.808h1.552v3.759c0,0.605,0.276,0.908,0.827,0.908c0.526,0,0.888-0.183,1.085-0.548
		v-4.119h1.558v5.812h-1.461L45.944,372.539z"/>
	<path style="fill:#26A6DB;" d="M51.348,365.815c0-0.232,0.078-0.425,0.234-0.575c0.155-0.15,0.368-0.225,0.636-0.225
		c0.265,0,0.476,0.074,0.634,0.225s0.236,0.343,0.236,0.575c0,0.236-0.08,0.43-0.239,0.58c-0.16,0.15-0.37,0.226-0.631,0.226
		s-0.472-0.075-0.631-0.226C51.427,366.244,51.348,366.051,51.348,365.815z M52.997,373.13h-1.558v-5.812h1.558V373.13z"/>
	<path style="fill:#26A6DB;" d="M55.79,367.952c0.412-0.494,0.929-0.741,1.552-0.741c1.26,0,1.899,0.732,1.917,2.196v3.723h-1.552
		v-3.68c0-0.332-0.072-0.579-0.215-0.738s-0.381-0.238-0.714-0.238c-0.455,0-0.784,0.175-0.988,0.525v4.131h-1.552v-8.25h1.552
		V367.952z"/>
</g>
<g style="enable-background:new    ;">
	<path style="fill:#26A6DB;" d="M63.692,368.775c-0.211-0.029-0.397-0.043-0.559-0.043c-0.587,0-0.972,0.198-1.155,0.596v3.803
		h-1.552v-5.812h1.466l0.043,0.692c0.312-0.533,0.743-0.8,1.294-0.8c0.172,0,0.333,0.023,0.483,0.069L63.692,368.775z"/>
</g>
<g style="enable-background:new    ;">
	<path style="fill:#26A6DB;" d="M67.011,373.238c-0.852,0-1.546-0.262-2.082-0.784c-0.535-0.522-0.803-1.22-0.803-2.089v-0.15
		c0-0.584,0.113-1.106,0.338-1.566s0.545-0.814,0.958-1.063c0.414-0.249,0.886-0.373,1.416-0.373c0.795,0,1.42,0.251,1.877,0.752
		c0.456,0.501,0.685,1.212,0.685,2.132v0.635h-3.701c0.05,0.379,0.202,0.684,0.454,0.912c0.253,0.229,0.572,0.344,0.959,0.344
		c0.598,0,1.065-0.216,1.402-0.649l0.763,0.854c-0.233,0.329-0.548,0.586-0.945,0.771S67.495,373.238,67.011,373.238z
		 M66.834,368.462c-0.308,0-0.558,0.104-0.749,0.313c-0.192,0.209-0.314,0.507-0.368,0.896h2.159v-0.124
		c-0.007-0.346-0.1-0.612-0.279-0.801C67.417,368.557,67.164,368.462,66.834,368.462z"/>
	<path style="fill:#26A6DB;" d="M71.738,367.319l0.048,0.649c0.412-0.504,0.969-0.757,1.67-0.757c0.749,0,1.262,0.296,1.542,0.886
		c0.408-0.59,0.99-0.886,1.746-0.886c0.63,0,1.099,0.184,1.407,0.551s0.462,0.919,0.462,1.657v3.711h-1.558v-3.706
		c0-0.329-0.064-0.57-0.193-0.723s-0.356-0.228-0.682-0.228c-0.465,0-0.788,0.222-0.967,0.666l0.005,3.99h-1.552v-3.701
		c0-0.336-0.066-0.58-0.199-0.73s-0.358-0.225-0.677-0.225c-0.44,0-0.759,0.182-0.956,0.547v4.109h-1.552v-5.812H71.738z"/>
</g>
<g style="enable-background:new    ;">
	<path style="fill:#26A6DB;" d="M4.077,385.74c-0.383,0.466-0.913,0.698-1.59,0.698c-0.623,0-1.098-0.179-1.426-0.537
		c-0.327-0.358-0.495-0.883-0.502-1.574v-3.808h1.552v3.759c0,0.605,0.276,0.908,0.827,0.908c0.526,0,0.888-0.183,1.085-0.548
		v-4.119h1.558v5.812H4.12L4.077,385.74z"/>
	<path style="fill:#26A6DB;" d="M10.017,381.975c-0.211-0.029-0.397-0.043-0.559-0.043c-0.587,0-0.972,0.198-1.155,0.596v3.803
		H6.751v-5.812h1.466l0.043,0.692c0.312-0.533,0.743-0.8,1.294-0.8c0.172,0,0.333,0.023,0.483,0.069L10.017,381.975z"/>
	<path style="fill:#26A6DB;" d="M13.911,384.725c0-0.19-0.094-0.34-0.282-0.449c-0.188-0.109-0.49-0.207-0.905-0.293
		c-1.382-0.289-2.073-0.877-2.073-1.762c0-0.516,0.214-0.945,0.642-1.291c0.428-0.346,0.988-0.519,1.679-0.519
		c0.738,0,1.328,0.174,1.77,0.521c0.442,0.348,0.664,0.799,0.664,1.354h-1.552c0-0.222-0.072-0.405-0.215-0.55
		c-0.143-0.146-0.367-0.218-0.671-0.218c-0.261,0-0.464,0.059-0.607,0.178c-0.143,0.117-0.215,0.268-0.215,0.451
		c0,0.172,0.082,0.311,0.244,0.416c0.163,0.105,0.438,0.196,0.825,0.273s0.712,0.164,0.978,0.261c0.82,0.301,1.23,0.821,1.23,1.563
		c0,0.529-0.228,0.958-0.682,1.286c-0.455,0.327-1.042,0.491-1.762,0.491c-0.487,0-0.919-0.087-1.297-0.261
		c-0.377-0.174-0.674-0.411-0.889-0.714s-0.322-0.63-0.322-0.98h1.472c0.014,0.275,0.116,0.487,0.306,0.634s0.444,0.22,0.763,0.22
		c0.297,0,0.522-0.056,0.674-0.169C13.835,385.055,13.911,384.907,13.911,384.725z"/>
	<path style="fill:#26A6DB;" d="M21.651,383.479c0,0.895-0.203,1.611-0.61,2.15c-0.406,0.539-0.955,0.809-1.646,0.809
		c-0.587,0-1.062-0.204-1.423-0.612v2.739h-1.552v-8.046h1.439l0.054,0.569c0.376-0.451,0.867-0.677,1.472-0.677
		c0.716,0,1.273,0.265,1.67,0.795s0.596,1.261,0.596,2.191V383.479z M20.099,383.366c0-0.541-0.096-0.958-0.287-1.252
		c-0.192-0.293-0.47-0.439-0.835-0.439c-0.487,0-0.822,0.186-1.004,0.559v2.379c0.19,0.383,0.528,0.574,1.015,0.574
		C19.728,385.186,20.099,384.579,20.099,383.366z"/>
	<path style="fill:#26A6DB;" d="M25.878,381.975c-0.211-0.029-0.397-0.043-0.559-0.043c-0.587,0-0.972,0.198-1.155,0.596v3.803
		h-1.552v-5.812h1.466l0.043,0.692c0.312-0.533,0.743-0.8,1.294-0.8c0.172,0,0.333,0.023,0.483,0.069L25.878,381.975z"/>
	<path style="fill:#26A6DB;" d="M30.105,385.74c-0.383,0.466-0.913,0.698-1.59,0.698c-0.623,0-1.098-0.179-1.426-0.537
		c-0.327-0.358-0.495-0.883-0.502-1.574v-3.808h1.552v3.759c0,0.605,0.276,0.908,0.827,0.908c0.526,0,0.888-0.183,1.085-0.548
		v-4.119h1.558v5.812h-1.461L30.105,385.74z M28.537,378.996c0,0.19-0.07,0.352-0.209,0.482s-0.319,0.197-0.537,0.197
		c-0.222,0-0.401-0.067-0.537-0.2s-0.204-0.293-0.204-0.479c0-0.188,0.068-0.348,0.204-0.482s0.315-0.203,0.537-0.203
		s0.402,0.068,0.54,0.203C28.468,378.649,28.537,378.809,28.537,378.996z M29.665,378.996c0-0.194,0.073-0.357,0.217-0.488
		c0.146-0.131,0.322-0.197,0.529-0.197c0.211,0,0.388,0.067,0.529,0.2c0.141,0.133,0.212,0.295,0.212,0.485
		c0,0.187-0.068,0.348-0.204,0.482s-0.315,0.202-0.537,0.202s-0.402-0.067-0.54-0.202C29.733,379.344,29.665,379.183,29.665,378.996
		z"/>
	<path style="fill:#26A6DB;" d="M34.208,380.519l0.048,0.671c0.416-0.519,0.972-0.778,1.67-0.778c0.616,0,1.074,0.181,1.375,0.542
		c0.301,0.362,0.455,0.902,0.462,1.623v3.754h-1.552v-3.717c0-0.329-0.072-0.568-0.215-0.717s-0.381-0.223-0.714-0.223
		c-0.437,0-0.765,0.186-0.983,0.559v4.098h-1.552v-5.812H34.208z"/>
	<path style="fill:#26A6DB;" d="M38.715,383.381c0-0.891,0.212-1.609,0.636-2.153c0.425-0.544,0.997-0.816,1.716-0.816
		c0.637,0,1.133,0.219,1.488,0.655l0.064-0.548h1.407v5.618c0,0.509-0.115,0.951-0.347,1.326c-0.23,0.377-0.556,0.663-0.975,0.859
		c-0.419,0.197-0.91,0.296-1.472,0.296c-0.426,0-0.841-0.085-1.246-0.255s-0.711-0.39-0.918-0.658l0.688-0.945
		c0.387,0.434,0.856,0.65,1.407,0.65c0.412,0,0.732-0.11,0.961-0.331c0.229-0.22,0.344-0.532,0.344-0.937v-0.312
		c-0.358,0.405-0.829,0.607-1.413,0.607c-0.698,0-1.263-0.273-1.695-0.819c-0.431-0.546-0.647-1.271-0.647-2.173V383.381z
		 M40.267,383.497c0,0.527,0.105,0.94,0.317,1.24c0.211,0.299,0.501,0.448,0.87,0.448c0.473,0,0.811-0.177,1.015-0.532v-2.447
		c-0.208-0.355-0.542-0.532-1.004-0.532c-0.373,0-0.665,0.152-0.878,0.457C40.374,382.436,40.267,382.891,40.267,383.497z"/>
	<path style="fill:#26A6DB;" d="M46.857,386.33H45.3v-8.25h1.558V386.33z"/>
	<path style="fill:#26A6DB;" d="M48.125,379.015c0-0.232,0.078-0.425,0.234-0.575c0.155-0.15,0.368-0.225,0.636-0.225
		c0.265,0,0.476,0.074,0.634,0.225s0.236,0.343,0.236,0.575c0,0.236-0.08,0.43-0.239,0.58c-0.16,0.15-0.37,0.226-0.631,0.226
		s-0.472-0.075-0.631-0.226C48.205,379.445,48.125,379.251,48.125,379.015z M49.774,386.33h-1.558v-5.812h1.558V386.33z"/>
	<path style="fill:#26A6DB;" d="M53.469,385.186c0.287,0,0.519-0.078,0.698-0.236c0.179-0.157,0.272-0.366,0.279-0.628h1.456
		c-0.003,0.394-0.111,0.755-0.322,1.082c-0.211,0.328-0.5,0.582-0.867,0.763c-0.367,0.181-0.773,0.271-1.217,0.271
		c-0.831,0-1.486-0.264-1.966-0.792s-0.72-1.258-0.72-2.188v-0.103c0-0.896,0.238-1.609,0.714-2.144c0.476-0.533,1.13-0.8,1.96-0.8
		c0.727,0,1.31,0.207,1.748,0.62c0.439,0.414,0.662,0.965,0.669,1.652h-1.456c-0.007-0.303-0.1-0.549-0.279-0.737
		c-0.179-0.189-0.416-0.284-0.709-0.284c-0.362,0-0.635,0.133-0.819,0.396c-0.185,0.264-0.277,0.691-0.277,1.283v0.161
		c0,0.6,0.091,1.029,0.274,1.291C52.819,385.056,53.097,385.186,53.469,385.186z"/>
	<path style="fill:#26A6DB;" d="M58.303,381.153c0.412-0.494,0.929-0.741,1.552-0.741c1.26,0,1.899,0.732,1.917,2.196v3.723h-1.552
		v-3.68c0-0.332-0.072-0.579-0.215-0.738s-0.381-0.238-0.714-0.238c-0.455,0-0.784,0.175-0.988,0.525v4.131h-1.552v-8.25h1.552
		V381.153z"/>
	<path style="fill:#26A6DB;" d="M65.619,386.438c-0.852,0-1.546-0.262-2.082-0.784c-0.535-0.522-0.803-1.22-0.803-2.089v-0.15
		c0-0.584,0.113-1.106,0.338-1.566s0.545-0.814,0.958-1.063c0.414-0.249,0.886-0.373,1.416-0.373c0.795,0,1.42,0.251,1.877,0.752
		c0.456,0.501,0.685,1.212,0.685,2.132v0.635h-3.701c0.05,0.379,0.202,0.684,0.454,0.912c0.253,0.229,0.572,0.344,0.959,0.344
		c0.598,0,1.065-0.216,1.402-0.649l0.763,0.854c-0.233,0.329-0.548,0.586-0.945,0.771S66.102,386.438,65.619,386.438z
		 M65.441,381.662c-0.308,0-0.558,0.104-0.749,0.313c-0.192,0.209-0.314,0.507-0.368,0.896h2.159v-0.124
		c-0.007-0.346-0.1-0.612-0.279-0.801C66.025,381.757,65.771,381.662,65.441,381.662z"/>
	<path style="fill:#26A6DB;" d="M70.318,380.519l0.048,0.671c0.416-0.519,0.972-0.778,1.67-0.778c0.616,0,1.074,0.181,1.375,0.542
		c0.301,0.362,0.455,0.902,0.462,1.623v3.754h-1.552v-3.717c0-0.329-0.072-0.568-0.215-0.717s-0.381-0.223-0.714-0.223
		c-0.437,0-0.765,0.186-0.983,0.559v4.098h-1.552v-5.812H70.318z"/>
</g>
<g style="enable-background:new    ;">
	<path style="fill:#26A6DB;" d="M5.113,397.918H2.288l-0.537,1.611H0.038l2.911-7.82h1.493l2.927,7.82H5.656L5.113,397.918z
		 M2.723,396.614h1.955l-0.983-2.928L2.723,396.614z"/>
	<path style="fill:#26A6DB;" d="M11.263,395.174c-0.211-0.029-0.397-0.043-0.559-0.043c-0.587,0-0.972,0.198-1.155,0.596v3.803
		H7.998v-5.812h1.466l0.043,0.692c0.312-0.533,0.743-0.8,1.294-0.8c0.172,0,0.333,0.023,0.483,0.069L11.263,395.174z"/>
	<path style="fill:#26A6DB;" d="M17.247,396.678c0,0.931-0.199,1.656-0.596,2.178c-0.397,0.521-0.953,0.781-1.665,0.781
		c-0.63,0-1.133-0.242-1.509-0.725l-0.07,0.617H12.01v-8.25h1.552v2.959c0.358-0.418,0.829-0.628,1.413-0.628
		c0.709,0,1.265,0.261,1.667,0.781c0.403,0.521,0.604,1.255,0.604,2.2V396.678z M15.694,396.565c0-0.587-0.093-1.016-0.279-1.286
		s-0.464-0.405-0.833-0.405c-0.494,0-0.834,0.202-1.021,0.606v2.294c0.19,0.408,0.534,0.611,1.031,0.611
		c0.501,0,0.831-0.246,0.988-0.74C15.657,397.409,15.694,397.048,15.694,396.565z"/>
	<path style="fill:#26A6DB;" d="M20.877,399.637c-0.852,0-1.546-0.262-2.082-0.784c-0.535-0.522-0.803-1.22-0.803-2.089v-0.15
		c0-0.584,0.113-1.106,0.338-1.566s0.545-0.814,0.958-1.063c0.414-0.249,0.886-0.373,1.416-0.373c0.795,0,1.42,0.251,1.877,0.752
		c0.456,0.501,0.685,1.212,0.685,2.132v0.635h-3.701c0.05,0.379,0.202,0.684,0.454,0.912c0.253,0.229,0.572,0.344,0.959,0.344
		c0.598,0,1.065-0.216,1.402-0.649l0.763,0.854c-0.233,0.329-0.548,0.586-0.945,0.771S21.361,399.637,20.877,399.637z M20.7,394.862
		c-0.308,0-0.558,0.104-0.749,0.313c-0.192,0.209-0.314,0.507-0.368,0.896h2.159v-0.124c-0.007-0.346-0.1-0.612-0.279-0.801
		C21.284,394.956,21.03,394.862,20.7,394.862z"/>
	<path style="fill:#26A6DB;" d="M24.138,392.214c0-0.232,0.078-0.425,0.234-0.575c0.155-0.15,0.368-0.225,0.636-0.225
		c0.265,0,0.476,0.074,0.634,0.225s0.236,0.343,0.236,0.575c0,0.236-0.08,0.43-0.239,0.58c-0.16,0.15-0.37,0.226-0.631,0.226
		s-0.472-0.075-0.631-0.226C24.217,392.644,24.138,392.451,24.138,392.214z M25.787,399.53h-1.558v-5.812h1.558V399.53z"/>
	<path style="fill:#26A6DB;" d="M28.923,392.289v1.429h0.994v1.139h-0.994v2.9c0,0.215,0.041,0.369,0.124,0.462
		s0.24,0.14,0.473,0.14c0.172,0,0.324-0.013,0.457-0.038v1.177c-0.304,0.093-0.618,0.14-0.94,0.14c-1.088,0-1.644-0.55-1.665-1.648
		v-3.132h-0.849v-1.139h0.849v-1.429H28.923z"/>
	<path style="fill:#26A6DB;" d="M30.556,396.58c0-0.891,0.212-1.609,0.636-2.153c0.425-0.544,0.997-0.816,1.716-0.816
		c0.637,0,1.133,0.219,1.488,0.655l0.064-0.548h1.407v5.618c0,0.509-0.115,0.951-0.347,1.326c-0.23,0.377-0.556,0.663-0.975,0.859
		c-0.419,0.197-0.91,0.296-1.472,0.296c-0.426,0-0.841-0.085-1.246-0.255s-0.711-0.39-0.918-0.658l0.688-0.945
		c0.387,0.434,0.856,0.65,1.407,0.65c0.412,0,0.732-0.11,0.961-0.331c0.229-0.22,0.344-0.532,0.344-0.937v-0.312
		c-0.358,0.405-0.829,0.607-1.413,0.607c-0.698,0-1.263-0.273-1.695-0.819c-0.431-0.546-0.647-1.271-0.647-2.173V396.58z
		 M32.108,396.697c0,0.527,0.105,0.94,0.317,1.24c0.211,0.299,0.501,0.448,0.87,0.448c0.473,0,0.811-0.177,1.015-0.532v-2.447
		c-0.208-0.355-0.542-0.532-1.004-0.532c-0.373,0-0.665,0.152-0.878,0.457C32.215,395.635,32.108,396.09,32.108,396.697z"/>
	<path style="fill:#26A6DB;" d="M39.735,399.637c-0.852,0-1.546-0.262-2.082-0.784c-0.535-0.522-0.803-1.22-0.803-2.089v-0.15
		c0-0.584,0.113-1.106,0.338-1.566s0.545-0.814,0.958-1.063c0.414-0.249,0.886-0.373,1.416-0.373c0.795,0,1.42,0.251,1.877,0.752
		c0.456,0.501,0.685,1.212,0.685,2.132v0.635h-3.701c0.05,0.379,0.202,0.684,0.454,0.912c0.253,0.229,0.572,0.344,0.959,0.344
		c0.598,0,1.065-0.216,1.402-0.649l0.763,0.854c-0.233,0.329-0.548,0.586-0.945,0.771S40.219,399.637,39.735,399.637z
		 M39.558,394.862c-0.308,0-0.558,0.104-0.749,0.313c-0.192,0.209-0.314,0.507-0.368,0.896H40.6v-0.124
		c-0.007-0.346-0.1-0.612-0.279-0.801C40.142,394.956,39.888,394.862,39.558,394.862z"/>
	<path style="fill:#26A6DB;" d="M48.243,396.678c0,0.931-0.199,1.656-0.596,2.178c-0.397,0.521-0.953,0.781-1.665,0.781
		c-0.63,0-1.133-0.242-1.509-0.725l-0.07,0.617h-1.396v-8.25h1.552v2.959c0.358-0.418,0.829-0.628,1.413-0.628
		c0.709,0,1.265,0.261,1.667,0.781c0.403,0.521,0.604,1.255,0.604,2.2V396.678z M46.691,396.565c0-0.587-0.093-1.016-0.279-1.286
		s-0.464-0.405-0.833-0.405c-0.494,0-0.834,0.202-1.021,0.606v2.294c0.19,0.408,0.534,0.611,1.031,0.611
		c0.501,0,0.831-0.246,0.988-0.74C46.653,397.409,46.691,397.048,46.691,396.565z"/>
	<path style="fill:#26A6DB;" d="M51.874,399.637c-0.852,0-1.546-0.262-2.082-0.784c-0.535-0.522-0.803-1.22-0.803-2.089v-0.15
		c0-0.584,0.113-1.106,0.338-1.566s0.545-0.814,0.958-1.063c0.414-0.249,0.886-0.373,1.416-0.373c0.795,0,1.42,0.251,1.877,0.752
		c0.456,0.501,0.685,1.212,0.685,2.132v0.635h-3.701c0.05,0.379,0.202,0.684,0.454,0.912c0.253,0.229,0.572,0.344,0.959,0.344
		c0.598,0,1.065-0.216,1.402-0.649l0.763,0.854c-0.233,0.329-0.548,0.586-0.945,0.771S52.357,399.637,51.874,399.637z
		 M51.697,394.862c-0.308,0-0.558,0.104-0.749,0.313c-0.192,0.209-0.314,0.507-0.368,0.896h2.159v-0.124
		c-0.007-0.346-0.1-0.612-0.279-0.801C52.28,394.956,52.026,394.862,51.697,394.862z"/>
	<path style="fill:#26A6DB;" d="M58.411,395.174c-0.211-0.029-0.397-0.043-0.559-0.043c-0.587,0-0.972,0.198-1.155,0.596v3.803
		h-1.552v-5.812h1.466l0.043,0.692c0.312-0.533,0.743-0.8,1.294-0.8c0.172,0,0.333,0.023,0.483,0.069L58.411,395.174z"/>
</g>
</svg>
