<svg xmlns="http://www.w3.org/2000/svg" xmlns:xlink="http://www.w3.org/1999/xlink" viewBox="0 0 181.42 181.42"><defs><path id="a" d="M10.69 10.15h160.04v161.12H10.69z"/></defs><clipPath id="b"><use xlink:href="#a" overflow="visible"/></clipPath><path d="M167.98 155.23L130 117.26a9.38 9.38 0 00-8.4-2.58l-14.12-14.12a54.92 54.92 0 10-7.58 7.37l14.23 14.22a9.38 9.38 0 002.58 8.4l37.97 37.97a9.37 9.37 0 0013.29 0 9.4 9.4 0 000-13.29M65.6 114.01a49 49 0 01-48.94-48.95A49 49 0 0165.6 16.12a49 49 0 0148.95 48.94 49 49 0 01-48.95 48.95" clip-path="url(#b)" fill="#d91760"/><path d="M65.6 20.82a44.3 44.3 0 00-44.24 44.24 44.3 44.3 0 0044.24 44.25 44.3 44.3 0 0044.25-44.25A44.3 44.3 0 0065.6 20.82M86.25 39.5a7.45 7.45 0 11-.01 14.9 7.45 7.45 0 01.01-14.9M65.64 50.98a7.45 7.45 0 010 14.88 7.45 7.45 0 010-14.88M44.98 39.5a7.45 7.45 0 11-.02 14.9 7.45 7.45 0 01.02-14.9m-.01 39.65c-10.09 0-16.11-1.75-16.75-2.77a16.81 16.81 0 0116.75-16.47c6.76 0 12.64 4.09 15.27 9.92a19.25 19.25 0 00-11.38 9.23c-1.22.05-2.52.09-3.9.09m20.67 11.48c-10.08 0-16.1-1.76-16.75-2.77a16.81 16.81 0 0116.75-16.47c9.1 0 16.59 7.38 16.75 16.47-.65 1.01-6.67 2.77-16.75 2.77m20.61-11.48c-1.35 0-2.63-.03-3.84-.1a19.27 19.27 0 00-11.42-9.23c2.63-5.82 8.5-9.9 15.26-9.9 9.1 0 16.6 7.37 16.75 16.47-.64 1-6.67 2.76-16.75 2.76" clip-path="url(#b)" fill="#d91760"/></svg>
