<?xml version="1.0" encoding="iso-8859-1"?>
<!-- Generator: Adobe Illustrator 24.1.2, SVG Export Plug-In . SVG Version: 6.00 Build 0)  -->
<svg version="1.1" id="Layer_1" xmlns="http://www.w3.org/2000/svg" xmlns:xlink="http://www.w3.org/1999/xlink" x="0px" y="0px"
	 width="181.417px" height="181.417px" viewBox="0 0 181.417 181.417" style="enable-background:new 0 0 181.417 181.417;"
	 xml:space="preserve">
<g>
	<defs>
		<rect id="SVGID_1_" x="10.688" y="10.147" width="160.041" height="161.124"/>
	</defs>
	<clipPath id="SVGID_2_">
		<use xlink:href="#SVGID_1_"  style="overflow:visible;"/>
	</clipPath>
	<path style="clip-path:url(#SVGID_2_);fill:#D91760;" d="M167.978,155.234l-37.973-37.973c-2.282-2.28-5.446-3.141-8.395-2.583
		l-14.117-14.117c8.122-9.573,13.029-21.958,13.029-35.499c0-30.33-24.588-54.915-54.918-54.915
		c-30.33,0-54.918,24.585-54.918,54.915s24.588,54.92,54.918,54.92c12.987,0,24.909-4.518,34.311-12.054l14.221,14.221
		c-0.558,2.949,0.301,6.115,2.585,8.397l37.973,37.973c1.836,1.833,4.236,2.752,6.641,2.752c2.405,0,4.81-0.919,6.643-2.752
		C171.646,164.851,171.646,158.903,167.978,155.234 M65.604,114.009c-26.988,0-48.946-21.956-48.946-48.946
		c0-26.988,21.958-48.944,48.946-48.944c26.988,0,48.946,21.956,48.946,48.944C114.55,92.053,92.592,114.009,65.604,114.009"/>
	<path style="clip-path:url(#SVGID_2_);fill:#D91760;" d="M65.604,20.816c-24.398,0-44.248,19.85-44.248,44.248
		c0,24.4,19.85,44.247,44.248,44.247c24.4,0,44.25-19.847,44.25-44.247C109.854,40.666,90.004,20.816,65.604,20.816 M86.254,39.502
		c4.104,0,7.441,3.337,7.441,7.441c0,4.104-3.338,7.441-7.441,7.441c-4.104,0-7.441-3.338-7.441-7.441
		C78.813,42.839,82.151,39.502,86.254,39.502 M65.638,50.977c4.104,0,7.441,3.34,7.441,7.444c0,4.101-3.338,7.439-7.441,7.439
		s-7.441-3.338-7.441-7.439C58.197,54.317,61.535,50.977,65.638,50.977 M44.979,39.502c4.104,0,7.439,3.337,7.439,7.441
		c0,4.104-3.335,7.441-7.439,7.441c-4.104,0-7.441-3.338-7.441-7.441C37.537,42.839,40.875,39.502,44.979,39.502 M44.967,79.15
		c-10.082,0-16.107-1.754-16.748-2.766c0.153-9.092,7.65-16.473,16.748-16.473c6.765,0,12.64,4.088,15.271,9.92
		c-4.886,1.451-8.976,4.814-11.381,9.224C47.636,79.115,46.342,79.15,44.967,79.15 M65.627,90.626
		c-10.08,0-16.105-1.754-16.746-2.766c0.153-9.089,7.647-16.473,16.746-16.473c9.099,0,16.593,7.383,16.748,16.473
		C81.732,88.871,75.709,90.626,65.627,90.626 M86.243,79.15c-1.356,0-2.634-0.034-3.84-0.092c-2.414-4.421-6.52-7.791-11.427-9.237
		c2.634-5.826,8.504-9.909,15.267-9.909c9.099,0,16.593,7.381,16.748,16.473C102.347,77.396,96.323,79.15,86.243,79.15"/>
</g>
<g>
</g>
<g>
</g>
<g>
</g>
<g>
</g>
<g>
</g>
<g>
</g>
</svg>
