<svg xmlns="http://www.w3.org/2000/svg" viewBox="0 0 256 256"><g transform="translate(-373.64 -318.34)"><path fill="#1D8CB5" d="M583.66 328.85H419.63a35.49 35.49 0 00-35.5 35.49v164.01a35.49 35.49 0 0035.5 35.49h164.03a35.49 35.49 0 0035.49-35.49V364.34a35.49 35.49 0 00-35.5-35.5z"/><linearGradient id="a" gradientUnits="userSpaceOnUse" x1="-808.87" y1="199.89" x2="-860.57" y2="49.2" gradientTransform="rotate(180 -17.27 206.27) scale(.5915)"><stop offset="0" stop-color="#fff"/><stop offset="1" stop-color="#fff" stop-opacity="0"/></linearGradient><path opacity=".78" fill="url(#a)" d="M557.06 338.9H446.23c-29.34 0-52.96 23.8-52.96 53.38v108.13c.95 23.08 4.6 8.49 11.56-17.08 8.08-29.71 34.4-55.68 66.44-75.14 24.46-14.86 51.84-24.34 101.68-25.25 28.27-.5 25.77-36.68-15.9-44.05z"/></g><g fill="#FFF"><path d="M81.6 207.76V101.5H46.28v106.27H81.6zM63.95 86.98c12.3 0 19.98-8.16 19.98-18.36-.23-10.43-7.67-18.36-19.75-18.36-12.09 0-19.98 7.93-19.98 18.36 0 10.2 7.66 18.36 19.52 18.36h.23zM101.15 207.76h35.33v-59.34c0-3.18.23-6.36 1.16-8.63 2.55-6.35 8.37-12.92 18.12-12.92 12.78 0 17.9 9.75 17.9 24.04v56.85h35.31v-60.94c0-32.64-17.42-47.83-40.66-47.83-19.06 0-27.42 10.65-32.07 17.9h.24v-15.4h-35.33c.47 9.97 0 106.27 0 106.27z"/></g></svg>
