<svg id="Ebene_1" data-name="Ebene 1" xmlns="http://www.w3.org/2000/svg" viewBox="0 0 595.28 595.28"><defs><style>.cls-1{fill:#26a6db}</style></defs><path class="cls-1" d="M78.8 313.88V146.44L3.56 221.68A11.86 11.86 0 000 230.13a11.59 11.59 0 004.28 9.05zM591 239.3a12.28 12.28 0 004.28-9.29 11.51 11.51 0 00-3.45-8.33l-75.49-75.4V314l73.34-73.34zM480.61 0H114.52a12 12 0 00-11.91 11.91v320.85a12.3 12.3 0 003.45 8.45l183 183.23a12 12 0 008.45 3.45 11.81 11.81 0 008.46-3.45l183.1-183.23a11.76 11.76 0 003.46-8.45V11.91A11.87 11.87 0 00480.61 0zM296.67 96.43h116.08a11.91 11.91 0 010 23.82H296.67a11.91 11.91 0 010-23.82zM158 71.43a11.87 11.87 0 0111.91-11.9h73.57a11.87 11.87 0 0111.91 11.9v73.7A11.86 11.86 0 01243.45 157h-73.57A11.86 11.86 0 01158 145.13zm267.49 278.83H169.76a11.91 11.91 0 110-23.81h255.73a11.91 11.91 0 010 23.81zm0-69.41H169.76a11.91 11.91 0 110-23.81h255.73a11.91 11.91 0 010 23.81zm0-69.53H169.76a11.91 11.91 0 110-23.81h255.73a11.91 11.91 0 010 23.81z"/><path class="cls-1" d="M322.8 541.26a35.42 35.42 0 01-25.3 10.44 36 36 0 01-25.29-10.43l-169.6-169.82-11.33-11.35-2.07-2.1L0 268.6v314.77a11.86 11.86 0 0011.9 11.91h571.46a11.79 11.79 0 0011.9-11.91V268.69l-98.08 98.08z"/><rect x="157.91" y="59.53" width="97.51" height="97.51" rx="3.25" ry="3.25" fill="#db2567"/></svg>
