<svg id="Ebene_1" data-name="Ebene 1" xmlns="http://www.w3.org/2000/svg" viewBox="0 0 595.28 595.28"><defs><style>.cls-1{fill:#26a6db;}.cls-2{fill:#db2567;}</style></defs><title>Materialien</title><path class="cls-1" d="M78.8,313.88V146.44L3.56,221.68A11.86,11.86,0,0,0,0,230.13a11.59,11.59,0,0,0,4.28,9.05Z"/><path class="cls-1" d="M591,239.3a12.28,12.28,0,0,0,4.28-9.29,11.51,11.51,0,0,0-3.45-8.33l-75.49-75.4V314l73.34-73.34Z"/><path class="cls-1" d="M480.61,0H114.52a12,12,0,0,0-11.91,11.91V332.76a12.3,12.3,0,0,0,3.45,8.45l183,183.23a12,12,0,0,0,8.45,3.45,11.81,11.81,0,0,0,8.46-3.45l183.1-183.23a11.76,11.76,0,0,0,3.46-8.45V11.91A11.87,11.87,0,0,0,480.61,0ZM296.67,96.43H412.75a11.91,11.91,0,0,1,0,23.82H296.67a11.91,11.91,0,0,1,0-23.82ZM158,71.43a11.87,11.87,0,0,1,11.91-11.9h73.57a11.87,11.87,0,0,1,11.91,11.9v73.7A11.86,11.86,0,0,1,243.45,157H169.88A11.86,11.86,0,0,1,158,145.13ZM425.49,350.26H169.76a11.91,11.91,0,1,1,0-23.81H425.49a11.91,11.91,0,0,1,0,23.81Zm0-69.41H169.76a11.91,11.91,0,1,1,0-23.81H425.49a11.91,11.91,0,0,1,0,23.81Zm0-69.53H169.76a11.91,11.91,0,1,1,0-23.81H425.49a11.91,11.91,0,0,1,0,23.81Z"/><path class="cls-1" d="M322.8,541.26a35.42,35.42,0,0,1-25.3,10.44,36,36,0,0,1-25.29-10.43L102.61,371.45h0L91.28,360.1,89.21,358h0L0,268.6V583.37a11.86,11.86,0,0,0,11.9,11.91H583.36a11.79,11.79,0,0,0,11.9-11.91V268.69l-98.08,98.08Z"/><rect class="cls-2" x="157.91" y="59.53" width="97.51" height="97.51" rx="3.25" ry="3.25"/></svg>