<svg id="Ebene_1" data-name="Ebene 1" xmlns="http://www.w3.org/2000/svg" viewBox="0 0 595.28 487.57"><defs><style>.cls-1{fill:#26a6db}</style></defs><path class="cls-1" d="M173.73 211.11a17 17 0 00-29.54 0L2.22 462.26A17 17 0 0017 487.57h109.34l104-176.27z"/><path d="M368.52 131.27a17 17 0 0129.22 0l.43.73V86.79h124.36a17 17 0 0017-17V17a17 17 0 00-17-17H385.05a17 17 0 00-17 17v115z" fill="#db2567"/><path class="cls-1" d="M368.52 131.27l-210.26 356.3h420A17 17 0 00592.9 462L397.74 131.27a17 17 0 00-29.22 0z"/></svg>
