<svg id="Ebene_1" data-name="Ebene 1" xmlns="http://www.w3.org/2000/svg" viewBox="0 0 595.28 487.57"><defs><style>.cls-1{fill:#26a6db;}.cls-2{fill:#db2567;}</style></defs><title>Mission</title><path class="cls-1" d="M173.73,211.11a17,17,0,0,0-29.54,0L2.22,462.26A17,17,0,0,0,17,487.57H126.34l104-176.27Z" transform="translate(0)"/><path class="cls-2" d="M368.52,131.27a17,17,0,0,1,29.22,0l.43.73V86.79H522.53a17,17,0,0,0,17-17V17a17,17,0,0,0-17-17H385.05a17,17,0,0,0-17,17V132Z" transform="translate(0)"/><path class="cls-1" d="M368.52,131.27,158.26,487.57h420A17,17,0,0,0,592.9,462L397.74,131.27A17,17,0,0,0,368.52,131.27Z" transform="translate(0)"/></svg>