<svg xmlns="http://www.w3.org/2000/svg" viewBox="0 0 496.6 495.6"><path d="M266.2 297.6V486c0 3.8 2.8 7.1 6.5 7.6a196.3 196.3 0 00223.9-194.3v-1.8c0-4.2-3.5-7.6-7.7-7.6h-215a7.7 7.7 0 00-7.7 7.7z" fill="#db2567"/><path d="M219.5.3a230.4 230.4 0 0010.9 460.5l7.5-.2c5-.2 8.9-4.3 8.9-9.3V280.7c0-5.1 4.1-9.2 9.2-9.2h195.9a6 6 0 006-5.1A230.3 230.3 0 00219.5.3zm140.7 114.2L239.6 234.7a13.1 13.1 0 01-18.4.1L157 171.2a9.6 9.6 0 01-.1-13.5 9.6 9.6 0 0113.5-.1l59.9 59.3 116.3-116a9.6 9.6 0 0113.6 13.6z" fill="#26a6db"/></svg>
