<svg id="Ebene_1" data-name="Ebene 1" xmlns="http://www.w3.org/2000/svg" viewBox="0 0 595.28 392.67"><defs><style>.cls-1{fill:#26a6db;}.cls-2{fill:#db2567;}</style></defs><title>Kooperationspartner</title><path class="cls-1" d="M259.07,311.74,339.7,381c7.24,6.21,16.56,8.67,24.58,6.6,3.89-1.17,11.52-3.37,10.61-19.41L293.24,300a12.67,12.67,0,0,1-1.68-18.12,12.81,12.81,0,0,1,18.24-1.68l102.49,85.54a18.26,18.26,0,0,0,23.94-27.57L335.68,247.3a13.07,13.07,0,0,1-.9-18.38A12.9,12.9,0,0,1,353,228l100.55,91a42.87,42.87,0,0,1,7.25,8.8c3.88,1.29,10.48,1.42,14.24-2.59,4.27-4.53,13.07-16.43,3.49-31.57C471.69,282.89,370.88,172.5,303.33,99.51l-52.41,44.26A53.65,53.65,0,0,1,177,66.26c9.32-10.1,20.45-21.87,31.58-33.39H78.16V229.44L243.8,376.58c12.69,11.38,29,17.21,44.39,15.91,9.32-.77,14.37-3.62,17.47-6.73l-63.41-54.35a12.94,12.94,0,0,1,16.82-19.67Z"/><path class="cls-2" d="M196.31,122A28.1,28.1,0,0,0,234.23,124l61.85-52.28a13,13,0,0,1,17.86,1.17c24.07,26,126.56,137,168.75,185.44,4.4-3.63,8.8-9.06,12.94-14.24,6.47-8,13.07-16.17,21.48-21V33.52c-24.07.51-74.54-1-115.82-19.8-48.14-22-119.44-15.4-141.83,5.3-1.81,1.69-3.88,3.5-5.82,5.44-3,3.05-4.95,4.69-7.89,7.63-16.31,16-35.2,36.11-49.83,51.77A27.85,27.85,0,0,0,196.31,122Z"/><path class="cls-1" d="M11.91,0A11.88,11.88,0,0,0,0,11.91V233.45a11.88,11.88,0,0,0,11.91,11.91H40.38a11.87,11.87,0,0,0,11.9-11.91V11.91A11.87,11.87,0,0,0,40.38,0Z"/><path class="cls-2" d="M543,11.91V233.45a11.87,11.87,0,0,0,11.9,11.91h28.47a11.88,11.88,0,0,0,11.91-11.91V11.91A11.88,11.88,0,0,0,583.37,0H554.9A11.87,11.87,0,0,0,543,11.91Z"/></svg>