<svg version="1.1" id="Ebene_1" xmlns="http://www.w3.org/2000/svg" x="0" y="0" viewBox="0 0 496.6 327.4" xml:space="preserve"><style>.st0{fill:#26a6db}.st1{fill:#db2567}</style><path class="st0" d="M216.1 260.1l67.3 57.8c6 5.2 13.8 7.2 20.5 5.5 3.2-1 9.6-2.8 8.9-16.2l-68.1-56.9a10.6 10.6 0 01-1.4-15.1 10.7 10.7 0 0115.2-1.4l85.5 71.4a15.3 15.3 0 0020-23l-84-75.9a11 11 0 01-.8-15.3c4-4.4 10.8-4.7 15.2-.8l83.9 75.9c2.4 2.2 4.3 4.6 6 7.3 3.2 1.1 8.7 1.2 11.9-2.2 3.6-3.8 10.9-13.7 2.9-26.3-5.7-9-89.8-101-146.2-161.9l-43.7 36.9a44.7 44.7 0 01-61.6-64.6l26.3-27.9H65.2v164l138.2 122.7a50 50 0 0037 13.3c7.8-.6 12-3 14.6-5.6l-52.9-45.3a10.8 10.8 0 1114-16.4z"/><path class="st1" d="M163.8 101.8a23.4 23.4 0 0031.6 1.6L247 59.8c4.4-3.7 11-3.2 14.9 1C282 82.5 367.5 175.1 402.7 215.5c3.7-3 7.3-7.6 10.8-11.9a69 69 0 0117.9-17.5V28c-20.1.4-62.2-.9-96.6-16.5-40.2-18.4-99.6-12.8-118.3 4.4l-4.9 4.5c-1.1 3-3.5 5.3-6.6 6.4A1497.8 1497.8 0 00163.4 70a23.1 23.1 0 00.4 31.8z"/><path class="st0" d="M9.9 0A9.9 9.9 0 000 9.9v184.8c0 5.5 4.4 9.9 9.9 9.9h23.7c5.5 0 9.9-4.4 9.9-9.9V9.9c0-5.5-4.4-9.9-9.9-9.9H9.9z"/><path class="st1" d="M453 9.9v184.8c0 5.5 4.4 9.9 9.9 9.9h23.7c5.5 0 9.9-4.4 9.9-9.9V9.9c0-5.5-4.4-9.9-9.9-9.9h-23.7a9.9 9.9 0 00-9.9 9.9z"/></svg>
