<svg width="14" height="18" viewBox="0 0 14 18" fill="none" xmlns="http://www.w3.org/2000/svg">
<path fill-rule="evenodd" clip-rule="evenodd" d="M10.536 3.42253C11.0004 3.94648 11.3689 4.56853 11.6202 5.25318C11.8716 5.93781 12.0009 6.67163 12.0009 7.4127C12.0009 8.15377 11.8716 8.88757 11.6202 9.57221C11.3689 10.2569 11.0004 10.8789 10.536 11.4029L7 15.3908L3.464 11.4017C2.99965 10.8778 2.6313 10.2557 2.38 9.57103C2.12869 8.88639 1.99934 8.1526 1.99934 7.41157C1.99934 6.67052 2.12869 5.93674 2.38 5.25211C2.6313 4.56747 2.99965 3.94539 3.464 3.4214C3.92836 2.8974 4.47963 2.48175 5.08633 2.19816C5.69304 1.91457 6.34331 1.76862 7 1.76862C7.6567 1.76862 8.30696 1.91457 8.91367 2.19816C9.5204 2.48175 10.0716 2.8974 10.536 3.4214V3.42253ZM11.596 12.599C12.5051 11.5732 13.1242 10.2663 13.3751 8.84345C13.6259 7.42061 13.4972 5.94577 13.0053 4.60546C12.5133 3.26516 11.6802 2.11958 10.6113 1.31358C9.5423 0.50759 8.2856 0.0773926 7 0.0773926C5.7144 0.0773926 4.45767 0.50759 3.38874 1.31358C2.31981 2.11958 1.48669 3.26516 0.99473 4.60546C0.50278 5.94577 0.37409 7.42061 0.62494 8.84345C0.87579 10.2663 1.49491 11.5732 2.404 12.599L5.939 16.5892C6.0783 16.7465 6.2437 16.8713 6.42576 16.9564C6.60781 17.0416 6.80294 17.0853 7 17.0853C7.19707 17.0853 7.3922 17.0416 7.57425 16.9564C7.7563 16.8713 7.9217 16.7465 8.061 16.5892L11.596 12.599ZM7 9.66958C7.53044 9.66958 8.03914 9.43179 8.41422 9.00855C8.78929 8.5853 9 8.01125 9 7.4127C9 6.81413 8.78929 6.24009 8.41422 5.81683C8.03914 5.39359 7.53044 5.15582 7 5.15582C6.46957 5.15582 5.96086 5.39359 5.58579 5.81683C5.21072 6.24009 5 6.81413 5 7.4127C5 8.01125 5.21072 8.5853 5.58579 9.00855C5.96086 9.43179 6.46957 9.66958 7 9.66958Z" fill="black"/>
</svg>
