<svg id="Ebene_1" data-name="Ebene 1" xmlns="http://www.w3.org/2000/svg" viewBox="0 0 595.28 551.18"><defs><style>.cls-1{fill:#26a6db;}.cls-2{fill:#db2567;}</style></defs><title>Pressemitteilung_Zeichenfläche 1</title><path class="cls-1" d="M421,475.12V11A11,11,0,0,0,410,0H11A11,11,0,0,0,0,11V475a76.23,76.23,0,0,0,76.06,76.17h381.2A98.07,98.07,0,0,1,421,475.12ZM45.64,62a11.05,11.05,0,0,1,11-11h84.77a11.06,11.06,0,0,1,11,11v84.66a11.06,11.06,0,0,1-11,11H56.66a11.06,11.06,0,0,1-11-11Zm318.69,438.3H56.66a11,11,0,0,1,0-22.05H364.33a11,11,0,0,1,0,22.05Zm0-72.2H56.66a11,11,0,0,1,0-22.05H364.33a11,11,0,0,1,0,22.05Zm0-72.1H56.66a11,11,0,0,1,0-22H364.33a11,11,0,1,1,0,22Zm0-72.09H56.66a11,11,0,0,1,0-22.05H364.33a11,11,0,0,1,0,22.05Zm0-72.1H56.66a11,11,0,0,1,0-22H364.33a11,11,0,1,1,0,22Zm0-70.33H179.68a11,11,0,0,1,0-22H364.33a11,11,0,1,1,0,22Zm0-52.36H179.68a11,11,0,0,1,0-22H364.33a11,11,0,0,1,0,22Z"/><path class="cls-1" d="M595.28,319.35V475.12a76.12,76.12,0,0,1-152.24,0V319.35a11,11,0,0,1,11-11H584.25A11,11,0,0,1,595.28,319.35Z"/><rect class="cls-2" x="45.69" y="50.93" width="106.71" height="106.71" rx="11.56" ry="11.56"/></svg>