<svg id="Ebene_1" data-name="Ebene 1" xmlns="http://www.w3.org/2000/svg" viewBox="0 0 595.28 551.18"><defs><style>.cls-1{fill:#26a6db}</style></defs><path class="cls-1" d="M421 475.12V11a11 11 0 00-11-11H11A11 11 0 000 11v464a76.23 76.23 0 0076.06 76.17h381.2A98.07 98.07 0 01421 475.12zM45.64 62a11.05 11.05 0 0111-11h84.77a11.06 11.06 0 0111 11v84.66a11.06 11.06 0 01-11 11H56.66a11.06 11.06 0 01-11-11zm318.69 438.3H56.66a11 11 0 010-22.05h307.67a11 11 0 010 22.05zm0-72.2H56.66a11 11 0 010-22.05h307.67a11 11 0 010 22.05zm0-72.1H56.66a11 11 0 010-22h307.67a11 11 0 110 22zm0-72.09H56.66a11 11 0 010-22.05h307.67a11 11 0 010 22.05zm0-72.1H56.66a11 11 0 010-22h307.67a11 11 0 110 22zm0-70.33H179.68a11 11 0 010-22h184.65a11 11 0 110 22zm0-52.36H179.68a11 11 0 010-22h184.65a11 11 0 010 22z"/><path class="cls-1" d="M595.28 319.35v155.77a76.12 76.12 0 01-152.24 0V319.35a11 11 0 0111-11h130.21a11 11 0 0111.03 11z"/><rect x="45.69" y="50.93" width="106.71" height="106.71" rx="11.56" ry="11.56" fill="#db2567"/></svg>
