<svg id="Ebene_1" data-name="Ebene 1" xmlns="http://www.w3.org/2000/svg" viewBox="0 0 430.66 577.67"><defs><style>.cls-1{fill:#fff}.cls-2{fill:#26a6db}</style></defs><path class="cls-1" d="M36.18 224c1.08-10.62 2-21.25 2.53-31.89a244.36 244.36 0 0110.58-59.94c15.23-48.83 49.07-92.09 104.05-110C175.57 14.89 199.38 12 223 12c72 0 131 35.48 156 96.26 27.74 67.54 13.28 140.32 2.83 209.35-9.34 61.69-20.68 117.21-77.26 159.23C252.4 515.62 231 527 184.19 527c-33.34 0-66.23-25.15-89.42-43.89-29.7-24-49.95-50.23-59.18-85.46-15.16-57.89-5.28-115.47.59-173.65z"/><path class="cls-2" d="M29.34 383.5C-1.63 373.8-.3 344.16.2 333c.48-10.95 0-71.69 0-72.3v-.5l.06-.49c1.91-16.31 7.6-26.25 16.91-29.54 14.32-5.07 29.2 9 30.85 10.56l-11.17 11.38 5.57-5.69-5.55 5.71c-3.73-3.61-11-8.17-14.42-6.94-2.22.79-5 5.39-6.33 15.89.05 6.34.47 61.68 0 72.63-.65 14.45.21 29 18 34.59zM368.2 412.09l-5.25-15c9.27-3.24 19.57-16.45 26.11-27.73 6.44-11.1 12.92-26.09 19.83-45.84 6.31-18 7.72-42.41-4.07-53.35-2.27-2.11-9.69 1.62-17.26 8.67l-10.86-11.7c21.74-20.27 34.48-12.83 38.95-8.69 19.59 18.16 14.42 52.73 8.28 70.29-7.25 20.71-14.14 36.6-21.09 48.57-4.96 8.55-18.27 29.06-34.64 34.78z"/><path class="cls-2" d="M33.5 369.32l31.39 11.79a4 4 0 012.46 2.73l5.12 19.81a3 3 0 005.52.51l6.77-14.53a2.72 2.72 0 00.19-.47c.77-2.54 9-27.08 37.05-22 26.39 4.76 43.47 12.72 46.86 14.38a3.64 3.64 0 001.37.38l40.69 3.58a3.86 3.86 0 00.76 0l35.7-3.64s46.3-2.67 58.85 18.21a4.46 4.46 0 01.49 1.22l3.35 14a3 3 0 005.3 1l9.45-13.2a11.82 11.82 0 014.61-3.83l26-12.21a3.94 3.94 0 014 .36l11.36 8.11a4 4 0 011.54 4.22c-2.84 11-14.15 53.09-24.19 69.08-11.61 18.5-23.14 36.18-43.58 52.78s-64 50.69-97.38 54.84c-51.83 6.43-72.67-13.5-92.54-30.71s-49.3-47.81-55.58-58.08-26.73-53.56-29-87l-1.88-27.3a4 4 0 015.32-4.03z"/><path class="cls-1" d="M116.76 406.08s135.91 19.42 162 16.86c0 0-36.05 40.81-83.85 38.3s-78.15-55.16-78.15-55.16z"/><path class="cls-2" d="M379 108C354 39.81 294.93 0 223 0c-23.6 0-47.41 3.2-69.64 11.34C98.36 31.49 64.52 80 49.3 134.82a307.28 307.28 0 00-10.89 76.54c-.08 4.6-.93 9.15-1.18 13.74a5.62 5.62 0 005.61 5.9 5.66 5.66 0 004.61-2.4l18.36-26.2a5.63 5.63 0 001-3.23v-65.66A5.21 5.21 0 0167 132c2.91-10 36.2-116.24 153.3-108.59 0 0 80.75 5.51 119.36 69.21 36.91 60.86 23.43 93.33 22.16 96.1l-.19.49-6.18 18.55a5.68 5.68 0 00.3 4.3l8.91 17.79a5.66 5.66 0 01.6 2.52V324.16l-7.91 63.58a5.63 5.63 0 004.05 6.11l5.75 1.63a5.64 5.64 0 007.09-4.31c3-15.61 5.39-31.73 7.62-48.25C392.27 265.47 406.73 183.8 379 108z"/><path class="cls-2" d="M74.52 243.35a8 8 0 01-5.61-13.62c.45-.44 45.76-44.23 105-5a8 8 0 11-8.8 13.27c-48.54-32.16-83.49 1.58-85 3a8 8 0 01-5.59 2.35zM219.8 292.17a8 8 0 01-7.75-9.83c3.38-14 8.12-25.59 14.1-34.49 18.9-28.11 63.62-32.24 92-18.38a85.66 85.66 0 0134.68 31.13 8 8 0 01-13.57 8.4 70.41 70.41 0 00-28.17-25.24c-22.38-10.95-57.81-7.75-71.72 13-4.92 7.33-8.9 17.2-11.83 29.34a8 8 0 01-7.74 6.07zM146.74 280.93a8 8 0 01-8-8 8.09 8.09 0 10-16.17 0 8 8 0 01-15.93 0 24 24 0 0148 0 8 8 0 01-7.9 8z"/><path class="cls-2" d="M295.83 292.17a8 8 0 01-8-8 8.09 8.09 0 00-16.17 0 8 8 0 11-15.93 0 24 24 0 0148 0 8 8 0 01-7.9 8zM200.11 383.86h-4.2c-6.65.1-12.25-1.82-16-5.57a25 25 0 01-4.14-5.85c-.28-.52-.56-1-.87-1.51a9.33 9.33 0 00-5.85-4.48 6.47 6.47 0 00-5.18 1.39 8 8 0 01-9.49-12.84 22.42 22.42 0 0117.62-4.2 25.22 25.22 0 0116.38 11.66c.46.73.88 1.47 1.29 2.22a13.94 13.94 0 001.46 2.3c.47.47 1.95 1 4.54.95h2.78c2.75 0 7.87.06 9.21-1.06a13.83 13.83 0 001.86-2.78c.39-.69.78-1.37 1.19-2a18.37 18.37 0 0116.39-9 18.13 18.13 0 0115.36 10.22 8 8 0 11-14.19 7.25c-.29-.56-.91-1.52-1.86-1.56a3 3 0 00-2.19 1.52c-.31.49-.59 1-.88 1.51a24.73 24.73 0 01-5.47 7.09c-5.26 4.36-12.21 4.74-17.76 4.74zM27.7 367.14l9.7-146.03 18.68-4.81-13.66 156.37-10.7 3.23-4.02-8.76zM214.75 446.31c-45.13 0-81.74-19.59-83.78-20.7l-4.15-2.27v-18.77h15.93v9.09c14.13 6.57 62 25.9 109 11.29v-3.33h15.93v14.59l-5.21 1.92a137.86 137.86 0 01-47.72 8.18z"/></svg>
