<svg id="Ebene_1" data-name="Ebene 1" xmlns="http://www.w3.org/2000/svg" viewBox="0 0 430.66 577.67"><defs><style>.cls-1{fill:#fff;}.cls-2{fill:#26a6db;}</style></defs><title>Pressekontakt</title><path class="cls-1" d="M36.18,224c1.08-10.62,2-21.25,2.53-31.89a244.36,244.36,0,0,1,10.58-59.94c15.23-48.83,49.07-92.09,104.05-110C175.57,14.89,199.38,12,223,12c72,0,131,35.48,156,96.26,27.74,67.54,13.28,140.32,2.83,209.35-9.34,61.69-20.68,117.21-77.26,159.23C252.4,515.62,231,527,184.19,527c-33.34,0-66.23-25.15-89.42-43.89-29.7-24-49.95-50.23-59.18-85.46C20.43,339.76,30.31,282.18,36.18,224Z"/><path class="cls-2" d="M29.34,383.5C-1.63,373.8-.3,344.16.2,333c.48-10.95,0-71.69,0-72.3v-.5l.06-.49c1.91-16.31,7.6-26.25,16.91-29.54,14.32-5.07,29.2,9,30.85,10.56L36.85,252.11l5.57-5.69-5.55,5.71c-3.73-3.61-11-8.17-14.42-6.94-2.22.79-5,5.39-6.33,15.89.05,6.34.47,61.68,0,72.63-.65,14.45.21,29,18,34.59Z"/><path class="cls-2" d="M368.2,412.09l-5.25-15c9.27-3.24,19.57-16.45,26.11-27.73,6.44-11.1,12.92-26.09,19.83-45.84,6.31-18,7.72-42.41-4.07-53.35-2.27-2.11-9.69,1.62-17.26,8.67L376.7,267.14c21.74-20.27,34.48-12.83,38.95-8.69,19.59,18.16,14.42,52.73,8.28,70.29-7.25,20.71-14.14,36.6-21.09,48.57C397.88,385.86,384.57,406.37,368.2,412.09Z"/><path class="cls-2" d="M33.5,369.32l31.39,11.79a4,4,0,0,1,2.46,2.73l5.12,19.81a3,3,0,0,0,5.52.51l6.77-14.53a2.72,2.72,0,0,0,.19-.47c.77-2.54,9-27.08,37.05-22,26.39,4.76,43.47,12.72,46.86,14.38a3.64,3.64,0,0,0,1.37.38l40.69,3.58a3.86,3.86,0,0,0,.76,0l35.7-3.64s46.3-2.67,58.85,18.21a4.46,4.46,0,0,1,.49,1.22l3.35,14a3,3,0,0,0,5.3,1l9.45-13.2a11.82,11.82,0,0,1,4.61-3.83l26-12.21a3.94,3.94,0,0,1,4,.36l11.36,8.11a4,4,0,0,1,1.54,4.22c-2.84,11-14.15,53.09-24.19,69.08C336.53,487.32,325,505,304.56,521.6s-64,50.69-97.38,54.84c-51.83,6.43-72.67-13.5-92.54-30.71s-49.3-47.81-55.58-58.08-26.73-53.56-29-87l-1.88-27.3A4,4,0,0,1,33.5,369.32Z"/><path class="cls-1" d="M116.76,406.08s135.91,19.42,162,16.86c0,0-36.05,40.81-83.85,38.3S116.76,406.08,116.76,406.08Z"/><path class="cls-2" d="M379,108C354,39.81,294.93,0,223,0c-23.6,0-47.41,3.2-69.64,11.34C98.36,31.49,64.52,80,49.3,134.82a307.28,307.28,0,0,0-10.89,76.54c-.08,4.6-.93,9.15-1.18,13.74A5.62,5.62,0,0,0,42.84,231h0a5.66,5.66,0,0,0,4.61-2.4L65.81,202.4a5.63,5.63,0,0,0,1-3.23V133.51A5.21,5.21,0,0,1,67,132C69.91,122,103.2,15.76,220.3,23.41c0,0,80.75,5.51,119.36,69.21,36.91,60.86,23.43,93.33,22.16,96.1-.07.17-.13.32-.19.49l-6.18,18.55a5.68,5.68,0,0,0,.3,4.3l8.91,17.79a5.66,5.66,0,0,1,.6,2.52v91.1c0,.23,0,.46,0,.69l-7.91,63.58a5.63,5.63,0,0,0,4.05,6.11l5.75,1.63a5.64,5.64,0,0,0,7.09-4.31c3-15.61,5.39-31.73,7.62-48.25C392.27,265.47,406.73,183.8,379,108Z"/><path class="cls-2" d="M74.52,243.35a8,8,0,0,1-5.61-13.62c.45-.44,45.76-44.23,105-5a8,8,0,1,1-8.8,13.27c-48.54-32.16-83.49,1.58-85,3A8,8,0,0,1,74.52,243.35Z"/><path class="cls-2" d="M219.8,292.17a8,8,0,0,1-7.75-9.83c3.38-14,8.12-25.59,14.1-34.49,18.9-28.11,63.62-32.24,92-18.38a85.66,85.66,0,0,1,34.68,31.13A8,8,0,0,1,339.26,269a70.41,70.41,0,0,0-28.17-25.24c-22.38-10.95-57.81-7.75-71.72,13-4.92,7.33-8.9,17.2-11.83,29.34A8,8,0,0,1,219.8,292.17Z"/><path class="cls-2" d="M146.74,280.93a8,8,0,0,1-8-8,8.09,8.09,0,1,0-16.17,0,8,8,0,0,1-15.93,0,24,24,0,0,1,48,0A8,8,0,0,1,146.74,280.93Z"/><path class="cls-2" d="M295.83,292.17a8,8,0,0,1-8-8,8.09,8.09,0,0,0-16.17,0,8,8,0,1,1-15.93,0,24,24,0,0,1,48,0A8,8,0,0,1,295.83,292.17Z"/><path class="cls-2" d="M200.11,383.86h-1.8c-.85,0-1.66,0-2.4,0-6.65.1-12.25-1.82-16-5.57a25,25,0,0,1-4.14-5.85c-.28-.52-.56-1-.87-1.51a9.33,9.33,0,0,0-5.85-4.48,6.47,6.47,0,0,0-5.18,1.39A8,8,0,0,1,154.38,355,22.42,22.42,0,0,1,172,350.8a25.22,25.22,0,0,1,16.38,11.66c.46.73.88,1.47,1.29,2.22a13.94,13.94,0,0,0,1.46,2.3c.47.47,1.95,1,4.54.95.88,0,1.81,0,2.78,0,2.75,0,7.87.06,9.21-1.06a13.83,13.83,0,0,0,1.86-2.78c.39-.69.78-1.37,1.19-2a18.37,18.37,0,0,1,16.39-9,18.13,18.13,0,0,1,15.36,10.22,8,8,0,1,1-14.19,7.25c-.29-.56-.91-1.52-1.86-1.56a3,3,0,0,0-2.19,1.52c-.31.49-.59,1-.88,1.51a24.73,24.73,0,0,1-5.47,7.09C212.61,383.48,205.66,383.86,200.11,383.86Z"/><polygon class="cls-2" points="27.7 367.14 37.4 221.11 56.08 216.3 42.42 372.67 31.72 375.9 27.7 367.14"/><path class="cls-2" d="M214.75,446.31c-45.13,0-81.74-19.59-83.78-20.7l-4.15-2.27V404.57h15.93v9.09c14.13,6.57,62,25.9,109,11.29v-3.33h15.93v14.59l-5.21,1.92A137.86,137.86,0,0,1,214.75,446.31Z"/></svg>