<svg id="Ebene_1" data-name="Ebene 1" xmlns="http://www.w3.org/2000/svg" viewBox="0 0 595.29 595.28"><defs><style>.cls-1{fill:#db2567}.cls-2{fill:#26a6db}</style></defs><path class="cls-1" d="M126.9 468.5a18.4 18.4 0 00-26.45.08L42 527.07a18.6 18.6 0 1026.19 26.23l58.49-58.49a18.61 18.61 0 00.22-26.31zM156.76 506.47A18.54 18.54 0 00144 512.1l-33.65 33.5A18.6 18.6 0 10136 572.5c.18-.17.36-.34.53-.53l33.65-33.64a18.6 18.6 0 00-13.45-31.86zM65.7 274.4l6.51-6.51 47.06-47.05 76.6-76.57A264.85 264.85 0 006.1 213.78a18.6 18.6 0 00-1.27 26.28l.58.61 47 47zM49.13 485.46c.18-.18.36-.35.53-.54l33.5-33.49a18.6 18.6 0 10-26.23-26.38l-33.65 33.64a18.61 18.61 0 0025.85 26.77z"/><path class="cls-2" d="M85.59 378.58a18.61 18.61 0 000 26.31L190.41 509.7a18.6 18.6 0 0026.3 0l2.54-2.54L88.13 376zM567 28.24C547.76 9 521.85.35 493.23 0c-17.17-.2-35.34 2.58-53.59 7.85C391 21.92 339 53.72 292.82 99.92L92 300.8a18.6 18.6 0 00-.11 26.3l176.27 176.35a18.58 18.58 0 0026.3-.11l200.91-200.91c46.2-46.2 78-98.14 92.06-146.81S597.83 59.06 567 28.24zM443.8 246.9c-27.56 40.66-87.22 40.6-114.6-.3a68.81 68.81 0 11114.6.3z"/><path class="cls-1" d="M451.05 399.4L349.42 501l-41.86 41.86 47 47a18.6 18.6 0 0026.31-.05l.61-.64a264.79 264.79 0 0069.57-189.77z"/></svg>
