<svg xmlns="http://www.w3.org/2000/svg" xmlns:xlink="http://www.w3.org/1999/xlink" viewBox="0 0 181.42 181.42"><defs><path id="a" d="M24.5 13.05h132.42v155.32H24.5z"/></defs><clipPath id="b"><use xlink:href="#a" overflow="visible"/></clipPath><path d="M82.82 107.88a10.47 10.47 0 01-9.5-6.07 6.58 6.58 0 00-6.58-3.9c-3.75.4-7.41-1.23-9.66-4.4-1.52-2.13-1.94-4.8-1.8-7.42a6.38 6.38 0 00-3.79-6.18c-3.56-1.58-5.97-5-6.2-9.05-.13-2.48.85-4.84 2.2-6.92a6.38 6.38 0 00-.12-7.12c-1-1.46-1.81-3.07-2.01-4.83a10.52 10.52 0 016.13-10.97 6.46 6.46 0 003.77-6.52c-.44-4.1 1.55-8.1 5.33-10.26 1.93-1.1 4.2-1.35 6.41-1.2a6.39 6.39 0 006.26-3.79 10.47 10.47 0 0110.1-6.2c2.1.08 4.06 1 5.82 2.16a6.38 6.38 0 007.18-.08c1.44-1 3.06-1.81 4.8-2.01a10.52 10.52 0 0110.99 6.12 6.47 6.47 0 006.52 3.77c3.75-.4 7.4 1.23 9.65 4.39 1.53 2.15 1.94 4.83 1.8 7.46a6.38 6.38 0 003.8 6.16c3.56 1.58 5.96 4.99 6.2 9.03.13 2.49-.85 4.85-2.2 6.94a6.38 6.38 0 00.07 7.05c1.2 1.79 2.1 3.82 2.14 5.97.08 4.42-2.4 8.2-6.22 9.9a6.45 6.45 0 00-3.76 6.51c.4 3.75-1.22 7.4-4.38 9.66-2.14 1.52-4.82 1.94-7.45 1.8a6.39 6.39 0 00-6.17 3.8c-1.58 3.56-5 5.96-9.04 6.19a11.3 11.3 0 01-6.84-2.13 6.38 6.38 0 00-7.33.14 10.4 10.4 0 01-6.12 2m-15.4-14.05c4.1 0 7.84 2.39 9.53 6.2a6.37 6.37 0 009.61 2.57 10.42 10.42 0 0112.29 0 6.38 6.38 0 009.6-2.57 10.4 10.4 0 0110.65-6.15 6.39 6.39 0 007.03-7.03c-.48-4.52 1.99-8.79 6.14-10.64a6.37 6.37 0 002.57-9.6 10.42 10.42 0 010-12.3 6.37 6.37 0 00-2.57-9.6 10.42 10.42 0 01-6.14-10.64 6.37 6.37 0 00-7.03-7.03c-4.53.48-8.8-2-10.64-6.14a6.37 6.37 0 00-9.61-2.58 10.42 10.42 0 01-12.29 0 6.37 6.37 0 00-9.6 2.58 10.41 10.41 0 01-10.65 6.14 6.38 6.38 0 00-7.03 7.03c.48 4.52-1.99 8.8-6.14 10.64a6.36 6.36 0 00-2.58 9.6 10.42 10.42 0 010 12.3 6.37 6.37 0 002.58 9.6 10.42 10.42 0 016.14 10.64 6.37 6.37 0 007.03 7.03c.38-.03.75-.05 1.11-.05M154.59 111.03s-7.1-3.74-14.52 2.2l-26.08 21.34s-1.07 1.01-3.42 1.01h-22.3s-2.8-.47-2.8-2.9c0 0 0-2.92 3-2.92h19.47s6-.57 6-5.35c0 0 .53-5.49-6.3-5.49l-38.3-.64s-14.04-.17-25.7 7.08L24.5 140.32l28.63 28.05 7.48-7.45s1.08-1.7 3.11-1.7h45.86s9.57-.34 15.09-6.59l31.46-35.43s2.57-3.4-1.54-6.17" clip-path="url(#b)" fill="#31a5dd"/><path d="M130.94 53.54a4.1 4.1 0 00-1.66-6.2 11.74 11.74 0 01-6.92-12 4.11 4.11 0 00-4.54-4.53c-5.1.53-9.91-2.25-12-6.92a4.1 4.1 0 00-6.2-1.67 11.74 11.74 0 01-13.84 0 4.12 4.12 0 00-6.2 1.67 11.73 11.73 0 01-12 6.92 4.12 4.12 0 00-4.53 4.54c.54 5.09-2.24 9.9-6.92 11.99a4.1 4.1 0 00-1.67 6.2 11.74 11.74 0 010 13.85 4.1 4.1 0 001.67 6.2 11.74 11.74 0 016.92 11.99 4.11 4.11 0 004.54 4.54 11.74 11.74 0 0112 6.92 4.11 4.11 0 006.19 1.66 11.75 11.75 0 0113.85 0 4.1 4.1 0 006.2-1.66 11.75 11.75 0 0111.99-6.92 4.11 4.11 0 004.54-4.54 11.74 11.74 0 016.92-12 4.12 4.12 0 001.66-6.2c-3-4.13-3-9.7 0-13.84m-21.46-14.21a6.08 6.08 0 011.93 11.81 6.07 6.07 0 11-1.93-11.82M92.7 48.68a6.08 6.08 0 011.92 11.82 6.06 6.06 0 11-1.92-11.82M75.9 39.33a6.08 6.08 0 011.91 11.82 6.06 6.06 0 11-1.92-11.82m0 32.27c-8.21 0-13.11-1.43-13.64-2.25a13.69 13.69 0 0113.64-13.41c5.5 0 10.28 3.33 12.43 8.08a15.68 15.68 0 00-9.27 7.5c-1 .05-2.04.08-3.16.08m16.81 9.34c-8.2 0-13.1-1.43-13.63-2.25A13.69 13.69 0 0192.7 65.28c7.4 0 13.51 6.01 13.64 13.4-.52.83-5.43 2.26-13.64 2.26m16.79-9.34c-1.1 0-2.15-.03-3.13-.07a15.67 15.67 0 00-9.3-7.52 13.69 13.69 0 0112.43-8.07c7.4 0 13.5 6.01 13.63 13.4-.52.83-5.43 2.26-13.63 2.26" clip-path="url(#b)" fill="#31a5dd"/></svg>
