<svg id="Ebene_1" data-name="Ebene 1" xmlns="http://www.w3.org/2000/svg" viewBox="0 0 524.5 595.28"><defs><style>.cls-1{fill:#26a6db;}.cls-2{fill:#db2567;}</style></defs><title>Support</title><path class="cls-1" d="M498.29,0H223.44a26.22,26.22,0,0,0-26.22,26.21v164a26.22,26.22,0,0,0,26.22,26.22h43.05l-15.47,69a7,7,0,0,0,12,6.22l67.75-75.24H498.29a26.22,26.22,0,0,0,26.21-26.22v-164A26.22,26.22,0,0,0,498.29,0ZM359.47,176.69a16.82,16.82,0,1,1,16.82-16.82A16.78,16.78,0,0,1,359.47,176.69Zm20.84-61.79c-5.67,4.39-7.13,8.59-7.13,12.62v5.3H345.76v-8c0-7.31,1.83-12.06,6.4-16.45,13.53-13,23.4-19,23.4-27.42,0-8-5.67-12.79-13.17-12.79-11.33,0-17.36,7.31-18.09,16.27l-28.15-1.83c2.56-25.77,20.29-39.67,45.7-39.67,22.3,0,41.12,12.43,41.12,36C403,92.79,397.67,101.19,380.31,114.9Z" transform="translate(0)"/><path class="cls-2" d="M255.29,569.11,235.34,433.69c0-23.17-18.8-40-42-40H62.19c-23.19,0-42,16.82-42,40L.25,569.11a22.84,22.84,0,0,0,22.59,26.17H232.69A22.84,22.84,0,0,0,255.29,569.11Z" transform="translate(0)"/><circle class="cls-2" cx="127.76" cy="295.17" r="70.4"/></svg>