<?xml version="1.0" encoding="iso-8859-1"?>
<!-- Generator: Adobe Illustrator 24.1.2, SVG Export Plug-In . SVG Version: 6.00 Build 0)  -->
<svg version="1.1" id="Layer_1" xmlns="http://www.w3.org/2000/svg" xmlns:xlink="http://www.w3.org/1999/xlink" x="0px" y="0px"
	 width="181.417px" height="181.417px" viewBox="0 0 181.417 181.417" style="enable-background:new 0 0 181.417 181.417;"
	 xml:space="preserve">
<g>
	<defs>
		<rect id="SVGID_1_" x="24.498" y="13.05" width="132.421" height="155.317"/>
	</defs>
	<clipPath id="SVGID_2_">
		<use xlink:href="#SVGID_1_"  style="overflow:visible;"/>
	</clipPath>
	<path style="clip-path:url(#SVGID_2_);fill:#31A5DD;" d="M82.816,107.876c-0.909,0-1.821-0.117-2.722-0.359
		c-3.013-0.806-5.475-2.884-6.778-5.712c-1.17-2.539-3.797-4.193-6.576-3.894c-3.746,0.404-7.41-1.231-9.658-4.392
		c-1.519-2.135-1.94-4.81-1.8-7.427c0.142-2.64-1.35-5.095-3.788-6.182c-3.566-1.584-5.972-5.002-6.195-9.05
		c-0.137-2.479,0.836-4.839,2.187-6.922c1.412-2.176,1.374-4.98-0.112-7.122c-1.008-1.452-1.819-3.071-2.017-4.827
		c-0.551-4.875,2.019-9.142,6.134-10.973c2.507-1.115,4.054-3.792,3.765-6.52c-0.434-4.102,1.555-8.102,5.337-10.258
		c1.926-1.099,4.194-1.344,6.407-1.202c2.667,0.171,5.16-1.322,6.257-3.783c1.72-3.872,5.597-6.376,10.103-6.204
		c2.105,0.08,4.061,0.996,5.817,2.16c2.183,1.447,5.018,1.421,7.18-0.083c1.445-1.005,3.059-1.808,4.807-2.009
		c4.876-0.559,9.152,2.011,10.985,6.127c1.116,2.505,3.792,4.059,6.519,3.77c3.754-0.399,7.404,1.227,9.653,4.386
		c1.527,2.145,1.934,4.832,1.805,7.462c-0.129,2.63,1.359,5.07,3.789,6.153c3.56,1.583,5.966,4.993,6.196,9.039
		c0.141,2.486-0.842,4.848-2.194,6.939c-1.391,2.152-1.367,4.915,0.071,7.046c1.207,1.789,2.097,3.816,2.139,5.973
		c0.085,4.419-2.401,8.205-6.214,9.899c-2.502,1.112-4.049,3.786-3.76,6.509c0.396,3.745-1.224,7.408-4.384,9.659
		c-2.14,1.524-4.823,1.943-7.447,1.806c-2.63-0.137-5.086,1.352-6.171,3.788c-1.583,3.564-4.994,5.969-9.041,6.195
		c-2.445,0.136-4.808-0.764-6.841-2.129c-2.229-1.496-5.143-1.449-7.326,0.137C87.134,107.192,84.992,107.876,82.816,107.876
		 M67.425,93.825c4.095,0,7.836,2.393,9.53,6.202c0.788,1.771,2.315,3.077,4.19,3.579c1.871,0.5,3.848,0.136,5.418-1.005
		c3.672-2.67,8.609-2.672,12.284,0c1.57,1.139,3.542,1.507,5.418,1.005c1.875-0.502,3.402-1.808,4.19-3.579
		c1.847-4.149,6.106-6.622,10.64-6.143c1.923,0.201,3.822-0.466,5.195-1.838c1.371-1.371,2.04-3.265,1.836-5.195
		c-0.474-4.517,1.994-8.791,6.143-10.638c1.771-0.788,3.077-2.315,3.579-4.19c0.502-1.873,0.136-3.848-1.005-5.418
		c-2.67-3.673-2.67-8.612,0-12.286c1.141-1.568,1.507-3.545,1.005-5.418c-0.502-1.873-1.808-3.399-3.579-4.188
		c-4.149-1.847-6.617-6.121-6.143-10.641c0.204-1.929-0.466-3.822-1.836-5.192c-1.373-1.373-3.265-2.044-5.195-1.838
		c-4.528,0.476-8.796-1.994-10.64-6.143c-0.788-1.773-2.315-3.077-4.19-3.579c-1.875-0.502-3.848-0.136-5.418,1.005
		c-3.675,2.67-8.612,2.67-12.284,0c-1.57-1.141-3.545-1.507-5.418-1.005c-1.875,0.502-3.402,1.806-4.19,3.579
		c-1.845,4.149-6.119,6.622-10.64,6.143c-1.923-0.204-3.822,0.465-5.195,1.836c-1.371,1.373-2.04,3.265-1.836,5.194
		c0.474,4.519-1.994,8.794-6.141,10.641c-1.776,0.788-3.079,2.315-3.581,4.19c-0.502,1.873-0.136,3.848,1.005,5.415
		c2.672,3.675,2.672,8.614,0,12.286c-1.141,1.57-1.507,3.545-1.005,5.418c0.502,1.873,1.806,3.4,3.579,4.19
		c4.149,1.847,6.617,6.121,6.143,10.638c-0.204,1.929,0.466,3.824,1.836,5.195c1.373,1.371,3.274,2.04,5.195,1.838
		C66.686,93.845,67.057,93.825,67.425,93.825"/>
	<path style="clip-path:url(#SVGID_2_);fill:#31A5DD;" d="M154.59,111.031c0,0-7.109-3.739-14.521,2.204l-26.075,21.339
		c0,0-1.074,1.007-3.426,1.007H88.268c0,0-2.791-0.47-2.791-2.908c0,0,0-2.913,2.99-2.913h19.471c0,0,6.011-0.569,6.011-5.346
		c0,0,0.524-5.493-6.305-5.493l-38.303-0.641c0,0-14.04-0.173-25.694,7.076l-19.15,14.96l28.63,28.05l7.486-7.444
		c0,0,1.074-1.706,3.109-1.706h45.86c0,0,9.571-0.338,15.088-6.585l31.456-35.434C156.125,117.198,158.698,113.792,154.59,111.031"
		/>
	<path style="clip-path:url(#SVGID_2_);fill:#31A5DD;" d="M130.943,53.539c0.736-1.013,0.972-2.287,0.647-3.497
		c-0.325-1.208-1.167-2.194-2.308-2.702c-4.679-2.081-7.462-6.901-6.925-11.992c0.13-1.245-0.301-2.466-1.187-3.352
		c-0.886-0.886-2.111-1.317-3.352-1.187c-5.097,0.533-9.911-2.246-11.992-6.923c-0.511-1.146-1.494-1.986-2.704-2.31
		c-1.21-0.323-2.484-0.087-3.495,0.647c-4.142,3.012-9.705,3.012-13.847,0c-1.013-0.734-2.289-0.97-3.495-0.647
		c-1.21,0.325-2.196,1.165-2.704,2.31c-2.079,4.677-6.894,7.462-11.992,6.923c-1.241-0.13-2.466,0.301-3.352,1.187
		c-0.886,0.885-1.316,2.107-1.187,3.352c0.537,5.091-2.245,9.911-6.923,11.992c-1.145,0.509-1.988,1.494-2.31,2.702
		c-0.325,1.21-0.089,2.484,0.647,3.497c3.012,4.142,3.012,9.707,0,13.847c-0.736,1.013-0.972,2.287-0.647,3.497
		c0.323,1.208,1.165,2.193,2.31,2.702c4.677,2.081,7.46,6.901,6.923,11.992c-0.13,1.245,0.301,2.469,1.187,3.352
		c0.886,0.886,2.109,1.319,3.352,1.187c0.418-0.045,0.836-0.065,1.249-0.065c4.617,0,8.832,2.696,10.742,6.99
		c0.509,1.143,1.494,1.983,2.704,2.308c1.206,0.325,2.484,0.089,3.495-0.647c4.142-3.01,9.707-3.01,13.847,0
		c1.013,0.736,2.287,0.972,3.495,0.647c1.21-0.325,2.193-1.165,2.704-2.31c2.081-4.677,6.907-7.459,11.992-6.923
		c1.241,0.132,2.466-0.301,3.352-1.187c0.886-0.885,1.317-2.107,1.187-3.352c-0.537-5.091,2.245-9.911,6.925-11.992
		c1.141-0.509,1.983-1.494,2.308-2.702c0.325-1.21,0.089-2.486-0.647-3.497C127.933,63.246,127.933,57.681,130.943,53.539
		 M109.484,39.326c3.966,0,7.054,3.83,5.759,7.983c-0.562,1.804-2.029,3.271-3.833,3.833c-4.153,1.295-7.983-1.793-7.983-5.759
		C103.428,42.043,106.146,39.326,109.484,39.326 M92.705,48.667c3.968,0,7.059,3.839,5.753,7.997
		c-0.566,1.801-2.034,3.265-3.838,3.823c-4.151,1.284-7.973-1.801-7.973-5.763C86.647,51.384,89.364,48.667,92.705,48.667
		 M75.885,39.326c3.97,0,7.059,3.837,5.756,7.994c-0.565,1.803-2.035,3.267-3.839,3.826c-4.153,1.285-7.973-1.8-7.973-5.763
		C69.829,42.043,72.544,39.326,75.885,39.326 M75.876,71.6c-8.207,0-13.111-1.427-13.633-2.252
		c0.126-7.399,6.227-13.41,13.633-13.41c5.506,0,10.288,3.328,12.431,8.077c-3.978,1.182-7.306,3.919-9.265,7.509
		C78.048,71.572,76.996,71.6,75.876,71.6 M92.694,80.941c-8.204,0-13.109-1.427-13.633-2.252c0.126-7.399,6.227-13.41,13.633-13.41
		c7.405,0,13.507,6.011,13.633,13.41C105.806,79.514,100.899,80.941,92.694,80.941 M109.476,71.6c-1.104,0-2.144-0.028-3.127-0.073
		c-1.964-3.601-5.307-6.345-9.302-7.52c2.146-4.744,6.923-8.068,12.429-8.068c7.405,0,13.507,6.011,13.633,13.41
		C122.587,70.173,117.682,71.6,109.476,71.6"/>
</g>
<g>
</g>
<g>
</g>
<g>
</g>
<g>
</g>
<g>
</g>
<g>
</g>
</svg>
