<svg id="Ebene_1" data-name="Ebene 1" xmlns="http://www.w3.org/2000/svg" viewBox="0 0 593.57 590.28"><defs><style>.cls-1{fill:#db2567;}.cls-2{fill:#26a6db;}</style></defs><title>Team</title><path class="cls-1" d="M587.46,93.47,500.1,6.11a20.85,20.85,0,0,0-29.5,0L453,23.72l-.07-.08-19.09,19.1-29.74-1.26A55.86,55.86,0,0,0,356.76,57.3l-60.82,60.82L232.36,54.54a42.43,42.43,0,0,0-42.63-10,40,40,0,0,1-39.9-10l-9.43-9.43-.25.24L123,8.15a20.87,20.87,0,0,0-29.5,0L6.11,95.52a20.85,20.85,0,0,0,0,29.5L23.29,142.2l-.09.09,19.09,19.09L41,191.12a55.9,55.9,0,0,0,15.82,47.32L163.06,344.66a55.11,55.11,0,0,1,18.69-36l-33.1-33.09,7.82-7.82L191,302.31a54.37,54.37,0,0,1,15.72-6V255.52l-19-19,7.81-7.81,11.22,11.21V180.78a39.89,39.89,0,0,1,34.72-40.06,38.66,38.66,0,0,1,10.95.5l-13.58-13.59,7.81-7.81,19.85,19.85a39.12,39.12,0,0,1,37.6-21.09A39.73,39.73,0,0,1,330.32,133l12-12,7.82,7.81-14,14a39.58,39.58,0,0,1,3,12.65,39.29,39.29,0,0,1,20.17-3.67,40,40,0,0,1,35.24,40.48V230a55.1,55.1,0,0,1,12.27,4.23l19.87-19.87,7.82,7.81-17.93,17.93a55.23,55.23,0,0,1,20.14,29.95l30.81-30.81,7.82,7.82-36.64,36.63c0,.15,0,.29,0,.44v36.69a43.82,43.82,0,0,0,26.29-12.47l75.58-75.58a42.41,42.41,0,0,0,10-42.63,40,40,0,0,1,10-39.9l9.44-9.44-.26-.26L587.46,123A20.85,20.85,0,0,0,587.46,93.47Z" transform="translate(0)"/><path class="cls-2" d="M394.59,241.42V374.74h-11V192.21a29,29,0,0,0-25.15-29.48,27.56,27.56,0,0,0-24.57,11v186.5H322.77V141.47a28.82,28.82,0,0,0-19.63-11.89,27.58,27.58,0,0,0-24.57,11v207.9H267.52V162.74a27.53,27.53,0,0,0-23.45-11.14q-.75,0-1.5.12a28.7,28.7,0,0,0-24.77,29.05V418.38H206.75V307.72a44.17,44.17,0,0,0-33.15,42.75V457.36a42.41,42.41,0,0,0,23,37.24,40,40,0,0,1,21.16,35.27v13.35H218v26.2a20.86,20.86,0,0,0,20.86,20.86H362.45a20.86,20.86,0,0,0,20.86-20.86v-26.2h.23v-27l21.92-20.14a55.88,55.88,0,0,0,22.28-44.65V284.17A44.17,44.17,0,0,0,394.59,241.42Z" transform="translate(0)"/></svg>