<svg data-name="Ebene 1" xmlns="http://www.w3.org/2000/svg" viewBox="0 0 593.57 590.28"><path d="M587.46 93.47L500.1 6.11a20.85 20.85 0 00-29.5 0L453 23.72l-.07-.08-19.09 19.1-29.74-1.26a55.86 55.86 0 00-47.34 15.82l-60.82 60.82-63.58-63.58a42.43 42.43 0 00-42.63-10 40 40 0 01-39.9-10l-9.43-9.43-.25.24L123 8.15a20.87 20.87 0 00-29.5 0L6.11 95.52a20.85 20.85 0 000 29.5l17.18 17.18-.09.09 19.09 19.09L41 191.12a55.9 55.9 0 0015.82 47.32l106.24 106.22a55.11 55.11 0 0118.69-36l-33.1-33.09 7.82-7.82L191 302.31a54.37 54.37 0 0115.72-6v-40.79l-19-19 7.81-7.81 11.22 11.21v-59.14a39.89 39.89 0 0134.72-40.06 38.66 38.66 0 0110.95.5l-13.58-13.59 7.81-7.81 19.85 19.85a39.12 39.12 0 0137.6-21.09A39.73 39.73 0 01330.32 133l12-12 7.82 7.81-14 14a39.58 39.58 0 013 12.65 39.29 39.29 0 0120.17-3.67 40 40 0 0135.24 40.48V230a55.1 55.1 0 0112.27 4.23l19.87-19.87 7.82 7.81-17.93 17.93a55.23 55.23 0 0120.14 29.95l30.81-30.81 7.82 7.82-36.64 36.63V320.82A43.82 43.82 0 00465 308.35l75.58-75.58a42.41 42.41 0 0010-42.63 40 40 0 0110-39.9l9.44-9.44-.26-.26 17.7-17.54a20.85 20.85 0 000-29.53z" fill="#db2567"/><path d="M394.59 241.42v133.32h-11V192.21a29 29 0 00-25.15-29.48 27.56 27.56 0 00-24.57 11v186.5h-11.1V141.47a28.82 28.82 0 00-19.63-11.89 27.58 27.58 0 00-24.57 11v207.9h-11.05V162.74a27.53 27.53 0 00-23.45-11.14q-.75 0-1.5.12a28.7 28.7 0 00-24.77 29.05v237.61h-11.05V307.72a44.17 44.17 0 00-33.15 42.75v106.89a42.41 42.41 0 0023 37.24 40 40 0 0121.16 35.27v13.35h.24v26.2a20.86 20.86 0 0020.86 20.86h123.59a20.86 20.86 0 0020.86-20.86v-26.2h.23v-27l21.92-20.14a55.88 55.88 0 0022.28-44.65V284.17a44.17 44.17 0 00-33.15-42.75z" fill="#26a6db"/></svg>
