<svg xmlns="http://www.w3.org/2000/svg" viewBox="0 0 624.8 495.6"><path d="M613.6 228.6s-34.1-17.9-69.6 10.6L419 341.5s-5.1 4.8-16.4 4.8H295.7s-13.4-2.2-13.4-13.9c0 0 0-14 14.3-14H390s28.8-2.7 28.8-25.6c0 0 2.5-26.3-30.2-26.3L205 263.4s-67.3-.8-123.2 33.9l-74.2 58c-9.3 7.2-10 21-1.6 29.3L113.5 490a19.5 19.5 0 0027.4-.1l22.3-22.1s5.1-8.2 14.9-8.2h219.8s45.9-1.6 72.4-31.6L621 258.2c-.1 0 12.3-16.3-7.4-29.6z" fill="#23a7dd"/><path d="M357.1 0a38.8 38.8 0 110 77.7A38.8 38.8 0 01357 0zm-82.7 38.8a38.8 38.8 0 110 77.7 38.8 38.8 0 010-77.7zM190.8 0a38.8 38.8 0 110 77.7 38.8 38.8 0 010-77.7zm12.5 199.1H133c-2.2 0-4.3-.9-5.7-2.6a7 7 0 01-1.7-6l11-74.6.1-.8c0-9.7 7.7-17 18.1-17H227c10.3 0 18.1 7.3 18.1 17l1.7 11.7h-8.6c-15.7 0-28 11.7-28.2 26.7l-6.7 45.6zm134.5 36.1a7.5 7.5 0 01-5.7 2.6H216.5c-2.2 0-4.3-.9-5.7-2.6a7 7 0 01-1.7-6l4.5-30.2 6.5-44.4.1-.8c0-9.7 7.7-17 18.1-17h72.3c10.3 0 18.1 7.3 18.1 17l11 75.4c.2 2.2-.4 4.4-1.9 6zm82.8-38.8a7.5 7.5 0 01-5.7 2.6h-69.5l-6.7-45.5a27.4 27.4 0 00-28.2-26.7h-9.2l1.6-10.9.1-.8c0-9.7 7.7-17 18.1-17h72.2c10.3 0 18.1 7.3 18.1 17l11 75.3c.3 2.2-.3 4.4-1.8 6z" fill="#db2567"/></svg>
