<svg version="1.1" id="Ebene_1" xmlns="http://www.w3.org/2000/svg" x="0" y="0" viewBox="0 0 624.8 595.3" xml:space="preserve"><style>.st1{fill:#db2567}</style><path d="M587.7 56.8H497V18.5C497 8.3 488.7 0 478.5 0h-48.6a18.5 18.5 0 00-18.5 18.5v38.3H212.9V18.5c0-10.2-8.3-18.5-18.5-18.5h-48.6a18.5 18.5 0 00-18.5 18.5v38.3H37.1A37 37 0 000 93.9v464.3a37 37 0 0037.1 37.1h550.6a37 37 0 0037.1-37.1V93.9a37 37 0 00-37.1-37.1zm.1 462.5a37.1 37.1 0 01-37.2 37.1H74.2A37.2 37.2 0 0137 519.3V163.4h550.7v355.9z" fill="#26a6db"/><path class="st1" d="M514.1 401.5h-94.3a4.2 4.2 0 01-4.2-4.2v-71.9c0-2.3 1.9-4.2 4.2-4.2h94.3c2.3 0 4.2 1.9 4.2 4.2v71.9c0 2.3-1.9 4.2-4.2 4.2zM360.5 401.5h-94.3a4.2 4.2 0 01-4.2-4.2v-71.9c0-2.3 1.9-4.2 4.2-4.2h94.3c2.3 0 4.2 1.9 4.2 4.2v71.9c0 2.3-1.9 4.2-4.2 4.2zM205.7 401.5h-94.3a4.2 4.2 0 01-4.2-4.2v-71.9c0-2.3 1.9-4.2 4.2-4.2h94.3c2.3 0 4.2 1.9 4.2 4.2v71.9a4.1 4.1 0 01-4.2 4.2zM514.4 295.4h-94.3a4.2 4.2 0 01-4.2-4.2v-71.9c0-2.3 1.9-4.2 4.2-4.2h94.3c2.3 0 4.2 1.9 4.2 4.2v71.9a4.1 4.1 0 01-4.2 4.2zM360.8 295.4h-94.3a4.2 4.2 0 01-4.2-4.2v-71.9c0-2.3 1.9-4.2 4.2-4.2h94.3c2.3 0 4.2 1.9 4.2 4.2v71.9c0 2.3-1.9 4.2-4.2 4.2zM206.1 295.4h-94.3a4.2 4.2 0 01-4.2-4.2v-71.9c0-2.3 1.9-4.2 4.2-4.2h94.3c2.3 0 4.2 1.9 4.2 4.2v71.9c0 2.3-1.9 4.2-4.2 4.2zM514.1 507.5h-94.3a4.2 4.2 0 01-4.2-4.2v-71.9c0-2.3 1.9-4.2 4.2-4.2h94.3c2.3 0 4.2 1.9 4.2 4.2v71.9c0 2.3-1.9 4.2-4.2 4.2zM360.5 507.5h-94.3a4.2 4.2 0 01-4.2-4.2v-71.9c0-2.3 1.9-4.2 4.2-4.2h94.3c2.3 0 4.2 1.9 4.2 4.2v71.9c0 2.3-1.9 4.2-4.2 4.2zM205.7 507.5h-94.3a4.2 4.2 0 01-4.2-4.2v-71.9c0-2.3 1.9-4.2 4.2-4.2h94.3c2.3 0 4.2 1.9 4.2 4.2v71.9a4.1 4.1 0 01-4.2 4.2z"/></svg>
