<svg id="Ebene_1" data-name="Ebene 1" xmlns="http://www.w3.org/2000/svg" viewBox="0 0 595.26 595.28"><defs><style>.cls-2{fill:#db2567}</style></defs><path d="M591.42 84.94A11 11 0 00573 80l-73.7 73.7-57.72-57.8 73.71-73.64a11 11 0 00-5-18.4C470.77-6.63 428.5 4.63 400 33.2c-27 27-38.56 66.37-30.79 104.06l-231.6 231.56c-37.68-7.77-77.07 3.78-104.09 30.8a114.64 114.64 0 00162.11 162.14c27-27 38.54-66.4 30.81-104.09L458 226.11c37.77 7.74 77-3.8 104.09-30.8 28.54-28.56 39.78-70.84 29.33-110.37zm-417.34 385l-13.35 49.82a10 10 0 01-7.08 7.09l-49.84 13.35a10 10 0 01-9.68-2.59l-36.48-36.47a10 10 0 01-2.59-9.68l13.35-49.86a10 10 0 017.08-7.09l49.84-13.35a10 10 0 019.68 2.6l36.48 36.5a10 10 0 012.59 9.68z" fill="#26a6db"/><path class="cls-2" d="M249.62 228.17l-1.46-1.45 1.46 1.45 15.53-15.53-122-122L138.51 63a10.94 10.94 0 00-5.06-7.51l-67.89-42A11 11 0 0052 15L15.37 51.67a11 11 0 00-1.57 13.54l42 67.9a10.93 10.93 0 007.53 5.07L91 142.81l122 122zM122.06 97.75a10.88 10.88 0 001 3.13 10.3 10.3 0 01-1-3.13zm1.13 3.3a10.64 10.64 0 001.94 2.64 10.71 10.71 0 01-1.94-2.64zM562.1 472.92L401 311.79l-88.83 88.83 161.1 161.13a62.81 62.81 0 0088.83-88.83z"/></svg>
