<svg id="Ebene_1" data-name="Ebene 1" xmlns="http://www.w3.org/2000/svg" viewBox="0 0 595.26 595.28"><defs><style>.cls-1{fill:#26a6db;}.cls-2{fill:#db2567;}</style></defs><title>Tipps</title><path class="cls-1" d="M591.42,84.94A11,11,0,0,0,573,80l-73.7,73.7L441.58,95.9l73.71-73.64a11,11,0,0,0-5-18.4C470.77-6.63,428.5,4.63,400,33.2c-27,27-38.56,66.37-30.79,104.06L137.61,368.82c-37.68-7.77-77.07,3.78-104.09,30.8A114.64,114.64,0,0,0,195.63,561.76c27-27,38.54-66.4,30.81-104.09L458,226.11c37.77,7.74,77-3.8,104.09-30.8C590.63,166.75,601.87,124.47,591.42,84.94Zm-417.34,385-13.35,49.82a10,10,0,0,1-7.08,7.09L103.81,540.2a10,10,0,0,1-9.68-2.59L57.65,501.14a10,10,0,0,1-2.59-9.68L68.41,441.6a10,10,0,0,1,7.08-7.09l49.84-13.35a10,10,0,0,1,9.68,2.6l36.48,36.5A10,10,0,0,1,174.08,469.94Z" transform="translate(0 0)"/><path class="cls-2" d="M249.62,228.17l-1.46-1.45,1.46,1.45,15.53-15.53-122-122L138.51,63a10.94,10.94,0,0,0-5.06-7.51l-67.89-42A11,11,0,0,0,52,15L15.37,51.67A11,11,0,0,0,13.8,65.21l42,67.9a10.93,10.93,0,0,0,7.53,5.07L91,142.81l122,122ZM122.06,97.75a10.88,10.88,0,0,0,1,3.13A10.3,10.3,0,0,1,122.06,97.75Zm1.13,3.3a10.64,10.64,0,0,0,1.94,2.64A10.71,10.71,0,0,1,123.19,101.05Z" transform="translate(0 0)"/><path class="cls-2" d="M562.1,472.92,401,311.79l-88.83,88.83L473.27,561.75a62.81,62.81,0,0,0,88.83-88.83Z" transform="translate(0 0)"/></svg>