<svg xmlns="http://www.w3.org/2000/svg" xmlns:xlink="http://www.w3.org/1999/xlink" viewBox="0 0 146 146" enable-background="new 0 0 146 146"><path d="M73 74.9c18.7 0 33.9-15.2 33.9-33.9S91.7 7.1 73 7.1 39.1 22.3 39.1 41 54.3 74.9 73 74.9z" fill="none" stroke="#da2566" stroke-width="7.76"/><defs><path id="a" d="M23 95.4h99v47.3H23z"/></defs><clipPath id="b"><use xlink:href="#a" overflow="visible"/></clipPath><g clip-path="url(#b)"><defs><filter id="c" filterUnits="userSpaceOnUse" x="17.4" y="89.8" width="109.7" height="52.5"><feColorMatrix values="1 0 0 0 0 0 1 0 0 0 0 0 1 0 0 0 0 0 1 0"/></filter></defs><mask maskUnits="userSpaceOnUse" x="17.4" y="89.8" width="109.7" height="52.5" id="d"><path d="M25.2 142.2s0-44.7 47.1-44.7 47.1 44.7 47.1 44.7" fill="#fff" filter="url(#c)"/></mask><path d="M25.2 142.2H33v-.2c0-.2 0-.6.1-1.1.1-1 .2-2.5.5-4.3.6-3.6 1.9-8.4 4.4-13.1 2.4-4.6 6-9.1 11.3-12.4 5.2-3.3 12.6-5.8 23.1-5.8V89.8c-13 0-23.4 3.1-31.4 8.2-8 5-13.3 11.8-16.7 18.3a60.4 60.4 0 00-6.6 23.4c-.1.7-.1 1.3-.1 1.7V142.2h7.6zm47-36.9c10.5 0 17.8 2.5 23.1 5.8 5.3 3.3 8.8 7.8 11.3 12.4 2.5 4.7 3.7 9.4 4.4 13.1.3 1.8.5 3.3.5 4.3 0 .5.1.9.1 1.1v.2h15.6v-.1-.2-.5c0-.4 0-1-.1-1.7a60.4 60.4 0 00-6.6-23.4c-3.4-6.5-8.7-13.2-16.7-18.3-8-5.1-18.3-8.2-31.4-8.2v15.5z" mask="url(#d)" fill="#da2566"/></g></svg>
