<svg width="51" height="72" viewBox="0 0 51 72" fill="none" xmlns="http://www.w3.org/2000/svg">
<path d="M25.7772 37.0761C35.4211 37.0761 43.2391 29.2581 43.2391 19.6141C43.2391 9.97016 35.4211 2.15218 25.7772 2.15218C16.1332 2.15218 8.31522 9.97016 8.31522 19.6141C8.31522 29.2581 16.1332 37.0761 25.7772 37.0761Z" stroke="#DA2566" stroke-width="4"/>
<mask id="path-3-inside-1" fill="white">
<path d="M1.10867 71.7228C1.10867 71.7228 1.10867 48.7174 25.3614 48.7174C49.6141 48.7174 49.6141 71.7228 49.6141 71.7228"/>
</mask>
<path d="M1.10867 71.7228C5.10867 71.7228 5.10867 71.7248 5.10867 71.7267C5.10867 71.7272 5.10867 71.729 5.10867 71.73C5.10866 71.7321 5.10866 71.7338 5.10865 71.7352C5.10864 71.738 5.10863 71.7395 5.10863 71.7396C5.10862 71.7399 5.10866 71.7349 5.10884 71.7248C5.10918 71.7047 5.11004 71.6643 5.11213 71.6049C5.1163 71.4862 5.12534 71.2925 5.14475 71.0347C5.18368 70.5177 5.26371 69.7513 5.42727 68.8204C5.75755 66.9407 6.41092 64.4906 7.67878 62.0853C8.93618 59.6998 10.771 57.4047 13.4782 55.6927C16.1704 53.9902 19.9563 52.7174 25.3614 52.7174V44.7174C18.6402 44.7174 13.3313 46.3202 9.20238 48.9313C5.0885 51.5328 2.37594 54.989 0.601747 58.3549C-1.16198 61.701 -2.02441 65.0023 -2.45203 67.436C-2.66742 68.6619 -2.77686 69.6928 -2.83267 70.434C-2.86062 70.8052 -2.87527 71.1058 -2.88294 71.324C-2.88677 71.4332 -2.88887 71.5219 -2.89001 71.5888C-2.89058 71.6223 -2.89091 71.6503 -2.89109 71.6727C-2.89119 71.6839 -2.89125 71.6937 -2.89128 71.702C-2.8913 71.7062 -2.89131 71.71 -2.89132 71.7135C-2.89132 71.7152 -2.89132 71.7176 -2.89132 71.7184C-2.89133 71.7207 -2.89133 71.7228 1.10867 71.7228ZM25.3614 52.7174C30.7665 52.7174 34.5524 53.9902 37.2446 55.6927C39.9518 57.4047 41.7866 59.6998 43.044 62.0853C44.3119 64.4906 44.9652 66.9407 45.2955 68.8204C45.4591 69.7513 45.5391 70.5177 45.578 71.0347C45.5974 71.2925 45.6065 71.4862 45.6107 71.6049C45.6127 71.6643 45.6136 71.7047 45.6139 71.7248C45.6141 71.7349 45.6142 71.7399 45.6142 71.7396C45.6142 71.7395 45.6141 71.738 45.6141 71.7352C45.6141 71.7338 45.6141 71.7321 45.6141 71.73C45.6141 71.729 45.6141 71.7272 45.6141 71.7267C45.6141 71.7248 45.6141 71.7228 49.6141 71.7228C53.6141 71.7228 53.6141 71.7207 53.6141 71.7184C53.6141 71.7176 53.6141 71.7152 53.6141 71.7135C53.6141 71.71 53.6141 71.7062 53.6141 71.702C53.614 71.6937 53.614 71.6839 53.6139 71.6727C53.6137 71.6503 53.6134 71.6223 53.6128 71.5888C53.6117 71.5219 53.6096 71.4332 53.6057 71.324C53.5981 71.1058 53.5834 70.8052 53.5555 70.434C53.4996 69.6928 53.3902 68.6619 53.1748 67.436C52.7472 65.0023 51.8848 61.701 50.121 58.3549C48.3468 54.989 45.6343 51.5328 41.5204 48.9313C37.3915 46.3202 32.0826 44.7174 25.3614 44.7174V52.7174Z" fill="#DA2566" mask="url(#path-3-inside-1)"/>
</svg>
