<?xml version="1.0" encoding="utf-8"?>
<!-- Generator: Adobe Illustrator 24.1.0, SVG Export Plug-In . SVG Version: 6.00 Build 0)  -->
<svg version="1.1" id="Layer_1" xmlns="http://www.w3.org/2000/svg" xmlns:xlink="http://www.w3.org/1999/xlink" x="0px" y="0px"
	 viewBox="0 0 146 146" style="enable-background:new 0 0 146 146;" xml:space="preserve">
<style type="text/css">
	.st0{fill:none;stroke:#DA2566;stroke-width:7.7647;}
	.st1{clip-path:url(#SVGID_2_);}
	.st2{fill:#FFFFFF;filter:url(#Adobe_OpacityMaskFilter);}
	.st3{mask:url(#path-3-inside-1_1_);fill:#DA2566;}
</style>
<path class="st0" d="M73,74.9c18.7,0,33.9-15.2,33.9-33.9c0-18.7-15.2-33.9-33.9-33.9C54.3,7.1,39.1,22.3,39.1,41
	C39.1,59.7,54.3,74.9,73,74.9z"/>
<g>
	<defs>
		<rect id="SVGID_1_" x="23" y="95.4" width="99" height="47.3"/>
	</defs>
	<clipPath id="SVGID_2_">
		<use xlink:href="#SVGID_1_"  style="overflow:visible;"/>
	</clipPath>
	<g class="st1">
		<defs>
			<filter id="Adobe_OpacityMaskFilter" filterUnits="userSpaceOnUse" x="17.4" y="89.8" width="109.7" height="52.5">
				<feColorMatrix  type="matrix" values="1 0 0 0 0  0 1 0 0 0  0 0 1 0 0  0 0 0 1 0"/>
			</filter>
		</defs>
		<mask maskUnits="userSpaceOnUse" x="17.4" y="89.8" width="109.7" height="52.5" id="path-3-inside-1_1_">
			<path class="st2" d="M25.2,142.2c0,0,0-44.7,47.1-44.7s47.1,44.7,47.1,44.7"/>
		</mask>
		<path class="st3" d="M25.2,142.2c7.8,0,7.8,0,7.8,0c0,0,0,0,0,0c0,0,0,0,0,0c0,0,0,0,0,0c0,0,0,0,0,0c0,0,0-0.1,0-0.2
			c0-0.2,0-0.6,0.1-1.1c0.1-1,0.2-2.5,0.5-4.3c0.6-3.6,1.9-8.4,4.4-13.1c2.4-4.6,6-9.1,11.3-12.4c5.2-3.3,12.6-5.8,23.1-5.8V89.8
			c-13,0-23.4,3.1-31.4,8.2c-8,5-13.3,11.8-16.7,18.3c-3.4,6.5-5.1,12.9-5.9,17.6c-0.4,2.4-0.6,4.4-0.7,5.8
			c-0.1,0.7-0.1,1.3-0.1,1.7c0,0.2,0,0.4,0,0.5c0,0.1,0,0.1,0,0.2c0,0,0,0,0,0.1c0,0,0,0,0,0c0,0,0,0,0,0
			C17.4,142.2,17.4,142.2,25.2,142.2z M72.2,105.3c10.5,0,17.8,2.5,23.1,5.8c5.3,3.3,8.8,7.8,11.3,12.4c2.5,4.7,3.7,9.4,4.4,13.1
			c0.3,1.8,0.5,3.3,0.5,4.3c0,0.5,0.1,0.9,0.1,1.1c0,0.1,0,0.2,0,0.2c0,0,0,0,0,0c0,0,0,0,0,0c0,0,0,0,0,0c0,0,0,0,0,0
			c0,0,0,0,7.8,0c7.8,0,7.8,0,7.8,0c0,0,0,0,0,0c0,0,0,0,0,0c0,0,0,0,0-0.1c0,0,0-0.1,0-0.2c0-0.1,0-0.3,0-0.5c0-0.4,0-1-0.1-1.7
			c-0.1-1.4-0.3-3.4-0.7-5.8c-0.8-4.7-2.5-11.1-5.9-17.6c-3.4-6.5-8.7-13.2-16.7-18.3c-8-5.1-18.3-8.2-31.4-8.2V105.3z"/>
	</g>
</g>
</svg>
