<svg width="146" height="146" viewBox="0 0 146 146" fill="none" xmlns="http://www.w3.org/2000/svg">
<path d="M72.7772 72.9239C82.4211 72.9239 90.2391 65.1059 90.2391 55.462C90.2391 45.818 82.4211 38 72.7772 38C63.1332 38 55.3152 45.818 55.3152 55.462C55.3152 65.1059 63.1332 72.9239 72.7772 72.9239Z" stroke="#DA2566" stroke-width="4"/>
<g clip-path="url(#clip0)">
<mask id="path-3-inside-1" fill="white">
<path d="M48.1087 107.571C48.1087 107.571 48.1087 84.5652 72.3614 84.5652C96.6141 84.5652 96.6141 107.571 96.6141 107.571"/>
</mask>
<path d="M48.1087 107.571C52.1087 107.571 52.1087 107.573 52.1087 107.575C52.1087 107.575 52.1087 107.577 52.1087 107.578C52.1087 107.58 52.1087 107.582 52.1087 107.583C52.1086 107.586 52.1086 107.587 52.1086 107.587C52.1086 107.588 52.1087 107.583 52.1088 107.573C52.1092 107.553 52.11 107.512 52.1121 107.453C52.1163 107.334 52.1253 107.14 52.1447 106.882C52.1837 106.365 52.2637 105.599 52.4273 104.668C52.7576 102.788 53.4109 100.338 54.6788 97.9331C55.9362 95.5476 57.771 93.2525 60.4782 91.5405C63.1704 89.8381 66.9563 88.5652 72.3614 88.5652V80.5652C65.6402 80.5652 60.3313 82.168 56.2024 84.7791C52.0885 87.3806 49.3759 90.8369 47.6017 94.2028C45.838 97.5488 44.9756 100.85 44.548 103.284C44.3326 104.51 44.2231 105.541 44.1673 106.282C44.1394 106.653 44.1247 106.954 44.1171 107.172C44.1132 107.281 44.1111 107.37 44.11 107.437C44.1094 107.47 44.1091 107.498 44.1089 107.521C44.1088 107.532 44.1088 107.541 44.1087 107.55C44.1087 107.554 44.1087 107.558 44.1087 107.561C44.1087 107.563 44.1087 107.565 44.1087 107.566C44.1087 107.568 44.1087 107.571 48.1087 107.571ZM72.3614 88.5652C77.7665 88.5652 81.5524 89.8381 84.2446 91.5405C86.9518 93.2525 88.7866 95.5476 90.044 97.9331C91.3119 100.338 91.9652 102.788 92.2955 104.668C92.4591 105.599 92.5391 106.365 92.578 106.882C92.5975 107.14 92.6065 107.334 92.6107 107.453C92.6127 107.512 92.6136 107.553 92.6139 107.573C92.6141 107.583 92.6142 107.588 92.6142 107.587C92.6142 107.587 92.6141 107.586 92.6141 107.583C92.6141 107.582 92.6141 107.58 92.6141 107.578C92.6141 107.577 92.6141 107.575 92.6141 107.575C92.6141 107.573 92.6141 107.571 96.6141 107.571C100.614 107.571 100.614 107.568 100.614 107.566C100.614 107.565 100.614 107.563 100.614 107.561C100.614 107.558 100.614 107.554 100.614 107.55C100.614 107.541 100.614 107.532 100.614 107.521C100.614 107.498 100.613 107.47 100.613 107.437C100.612 107.37 100.61 107.281 100.606 107.172C100.598 106.954 100.583 106.653 100.555 106.282C100.5 105.541 100.39 104.51 100.175 103.284C99.7472 100.85 98.8848 97.5488 97.121 94.2028C95.3468 90.8369 92.6343 87.3806 88.5204 84.7791C84.3915 82.168 79.0826 80.5652 72.3614 80.5652V88.5652Z" fill="#DA2566" mask="url(#path-3-inside-1)"/>
</g>
<defs>
<clipPath id="clip0">
<rect x="47" y="83.4565" width="51" height="24.3913" fill="white"/>
</clipPath>
</defs>
</svg>
