<svg id="Ebene_1" data-name="Ebene 1" xmlns="http://www.w3.org/2000/svg" viewBox="0 0 595.28 383.58"><defs><style>.cls-1{fill:#26a6db;}.cls-2{fill:#db2567;}.cls-3{fill:#fff;}</style></defs><title>Vision</title><path class="cls-1" d="M586.75,203.92h1.59L528.78,91.13a88.8,88.8,0,0,0-45.93-38.81,85.84,85.84,0,0,0-158.53,1.22,58.84,58.84,0,0,0-52.86,0,85.77,85.77,0,0,0-158.95,0,88.52,88.52,0,0,0-43.32,38L22.78,176.24a132.86,132.86,0,1,0,242.35,86.93,123.25,123.25,0,0,0,.61-12.59A134.9,134.9,0,0,0,263.13,224h0a130.89,130.89,0,0,0-4.57-16.12,43.44,43.44,0,0,1,78.11,0,133.55,133.55,0,0,0-4.56,16.18,134.91,134.91,0,0,0-2.62,26.59q0,6.09.61,12.16a132.86,132.86,0,1,0,256.65-58.88ZM132.82,339.7a89.12,89.12,0,1,1,85.72-114.61,87,87,0,0,1,3.77,25.49A89.38,89.38,0,0,1,132.82,339.7Zm329.59,0A89.36,89.36,0,0,1,373,250.58,87.39,87.39,0,0,1,376.7,225a89.83,89.83,0,0,1,85.71-63.63,88.81,88.81,0,0,1,64.85,28h.37l4.62,5.66A89.06,89.06,0,0,1,462.41,339.7Z" transform="translate(0)"/><circle class="cls-2" cx="133.16" cy="250.52" r="89.06"/><path class="cls-3" d="M133.16,351.74A101.23,101.23,0,1,1,234.39,250.52,101.34,101.34,0,0,1,133.16,351.74Zm0-178.11a76.89,76.89,0,1,0,76.9,76.89A77,77,0,0,0,133.16,173.63Z" transform="translate(0)"/><circle class="cls-2" cx="462.39" cy="250.52" r="89.06"/><path class="cls-3" d="M462.39,351.74A101.23,101.23,0,1,1,563.61,250.52,101.33,101.33,0,0,1,462.39,351.74Zm0-178.11a76.89,76.89,0,1,0,76.89,76.89A77,77,0,0,0,462.39,173.63Z" transform="translate(0)"/></svg>