<?xml version="1.0" encoding="utf-8"?>
<!-- Generator: Adobe Illustrator 24.1.0, SVG Export Plug-In . SVG Version: 6.00 Build 0)  -->
<svg version="1.1" id="Layer_1" xmlns="http://www.w3.org/2000/svg" xmlns:xlink="http://www.w3.org/1999/xlink" x="0px" y="0px"
	 viewBox="0 0 234 37" style="enable-background:new 0 0 234 37;" xml:space="preserve">
<style type="text/css">
	.st0{fill:none;stroke:#25A6DA;stroke-width:3.9513;}
	.st1{fill:none;stroke:#DA2566;stroke-width:3.9513;}
</style>
<circle class="st0" cx="18.7" cy="18.5" r="16.3"/>
<circle class="st1" cx="38.5" cy="18.5" r="16.3"/>
<g>
	<path d="M79.7,21.9h-3.8l-0.5,2.3h-3.4L76,10.3h3.7l4.1,13.9h-3.5L79.7,21.9z M79,18.9l-1.2-5l-1.2,5H79z"/>
	<path d="M84.9,24.2V10.3h5.6c1,0,1.8,0.1,2.4,0.3c0.6,0.2,1,0.6,1.3,1.3c0.3,0.6,0.5,1.4,0.5,2.2c0,0.8-0.1,1.4-0.4,2
		c-0.3,0.6-0.6,1-1.1,1.4c-0.3,0.2-0.7,0.4-1.2,0.5c0.4,0.2,0.7,0.3,0.9,0.5c0.1,0.1,0.3,0.4,0.5,0.7s0.4,0.7,0.5,0.9l1.6,4h-3.8
		L90,20c-0.2-0.5-0.4-0.9-0.6-1.1c-0.2-0.2-0.5-0.3-0.8-0.3h-0.3v5.6H84.9z M88.3,16h1.4c0.2,0,0.5-0.1,0.9-0.2
		c0.2-0.1,0.4-0.2,0.5-0.4s0.2-0.5,0.2-0.8c0-0.4-0.1-0.8-0.3-1s-0.6-0.4-1.3-0.4h-1.5V16z"/>
	<path d="M96.7,10.3h6.3c1.1,0,1.9,0.3,2.4,1s0.8,1.5,0.8,2.5c0,0.8-0.2,1.5-0.6,2.1c-0.3,0.4-0.7,0.7-1.2,0.9
		c0.8,0.2,1.4,0.7,1.7,1.2c0.4,0.6,0.6,1.3,0.6,2.2c0,0.7-0.1,1.4-0.4,1.9c-0.3,0.6-0.6,1-1.1,1.4c-0.3,0.2-0.7,0.4-1.3,0.5
		c-0.8,0.1-1.3,0.2-1.5,0.2h-5.8V10.3z M100.1,15.8h1.5c0.5,0,0.9-0.1,1.1-0.3s0.3-0.6,0.3-1c0-0.4-0.1-0.7-0.3-0.9
		s-0.6-0.3-1.1-0.3h-1.5V15.8z M100.1,21.2h1.7c0.6,0,1-0.1,1.2-0.4c0.2-0.3,0.4-0.6,0.4-1.1c0-0.4-0.1-0.7-0.4-1
		c-0.2-0.2-0.6-0.4-1.2-0.4h-1.7V21.2z"/>
	<path d="M108.6,10.3h9v3H112v2.2h5.3v2.8H112v2.7h5.8v3.1h-9.2V10.3z"/>
	<path d="M119.8,10.3h3.4v13.9h-3.4V10.3z"/>
	<path d="M124.8,10.3h10.3v3.4h-3.4v10.5h-3.4V13.8h-3.4V10.3z"/>
	<path d="M141.1,19.6l3.2-0.3c0.1,0.7,0.2,1.2,0.4,1.5c0.3,0.6,0.8,0.8,1.5,0.8c0.5,0,0.9-0.1,1.1-0.4s0.4-0.6,0.4-1
		c0-0.4-0.1-0.7-0.4-1c-0.2-0.3-0.8-0.6-1.7-0.8c-1.5-0.4-2.5-1-3.2-1.7c-0.6-0.7-1-1.6-1-2.7c0-0.7,0.2-1.4,0.5-2
		c0.3-0.6,0.8-1.1,1.5-1.5s1.5-0.5,2.7-0.5c1.4,0,2.5,0.3,3.2,1c0.7,0.7,1.2,1.7,1.3,3.2l-3.2,0.2c-0.1-0.6-0.3-1.1-0.5-1.4
		c-0.3-0.3-0.6-0.4-1.1-0.4c-0.4,0-0.7,0.1-0.9,0.3c-0.2,0.2-0.3,0.5-0.3,0.8c0,0.2,0.1,0.4,0.2,0.6c0.2,0.2,0.5,0.4,1.1,0.5
		c1.5,0.4,2.5,0.8,3.2,1.2c0.6,0.4,1.1,0.9,1.4,1.5c0.3,0.6,0.4,1.3,0.4,2.1c0,0.9-0.2,1.7-0.6,2.5c-0.4,0.8-0.9,1.3-1.6,1.7
		c-0.7,0.4-1.6,0.6-2.6,0.6c-1.9,0-3.1-0.5-3.9-1.4C141.6,22.2,141.2,21,141.1,19.6z"/>
	<path d="M160,18.5l3,1.1c-0.2,1.1-0.5,1.9-0.9,2.6c-0.4,0.7-1,1.2-1.6,1.6c-0.6,0.4-1.4,0.5-2.4,0.5c-1.2,0-2.2-0.2-2.9-0.7
		c-0.8-0.4-1.4-1.2-1.9-2.3c-0.5-1.1-0.8-2.5-0.8-4.2c0-2.3,0.5-4.1,1.4-5.3c1-1.2,2.3-1.9,4.1-1.9c1.4,0,2.5,0.4,3.2,1.1
		c0.8,0.7,1.4,1.8,1.8,3.3l-3,0.8c-0.1-0.4-0.2-0.7-0.3-0.9c-0.2-0.3-0.4-0.6-0.7-0.8c-0.3-0.2-0.6-0.3-0.9-0.3
		c-0.8,0-1.4,0.4-1.8,1.2c-0.3,0.6-0.5,1.5-0.5,2.7c0,1.5,0.2,2.6,0.6,3.2c0.4,0.6,0.9,0.9,1.6,0.9c0.6,0,1.1-0.2,1.5-0.7
		C159.6,20.1,159.8,19.4,160,18.5z"/>
	<path d="M164.6,10.3h3.4v4.9h3.7v-4.9h3.4v13.9h-3.4v-5.6H168v5.6h-3.4V10.3z"/>
	<path d="M184.4,10.3h3.4v8.3c0,0.8-0.1,1.6-0.3,2.3c-0.2,0.7-0.5,1.4-0.9,1.9c-0.4,0.5-0.9,0.9-1.4,1.1c-0.7,0.3-1.4,0.5-2.4,0.5
		c-0.5,0-1.1,0-1.7-0.1c-0.6-0.1-1.2-0.3-1.6-0.6c-0.4-0.3-0.8-0.7-1.2-1.2c-0.3-0.5-0.6-1.1-0.7-1.6c-0.2-0.9-0.3-1.7-0.3-2.3v-8.3
		h3.4v8.5c0,0.8,0.2,1.3,0.5,1.8c0.3,0.4,0.8,0.6,1.4,0.6c0.6,0,1-0.2,1.4-0.6c0.3-0.4,0.5-1,0.5-1.8V10.3z M180,7.1h1.9v2.4H180
		V7.1z M183.1,7.1h2v2.4h-2V7.1z"/>
	<path d="M189.2,10.3h10.3v3.4h-3.4v10.5h-3.4V13.8h-3.4V10.3z"/>
	<path d="M200.8,10.3h9.6v2.8l-6.1,8.1h6.4v3h-10.4v-2.9l6.1-8h-5.5V10.3z"/>
	<path d="M212,10.3h9v3h-5.7v2.2h5.3v2.8h-5.3v2.7h5.8v3.1H212V10.3z"/>
	<path d="M223.1,10.3h3.2l4.1,7.7v-7.7h3.2v13.9h-3.2l-4.1-7.6v7.6h-3.2V10.3z"/>
</g>
</svg>
