<svg width="234" height="37" viewBox="0 0 234 37" fill="none" xmlns="http://www.w3.org/2000/svg">
<path d="M76.5 22.68H77.4C78.08 22.68 78.6867 22.5733 79.22 22.36C79.7533 22.1467 80.2 21.8533 80.56 21.48C80.9333 21.1067 81.2133 20.6667 81.4 20.16C81.6 19.64 81.7 19.0733 81.7 18.46C81.7 17.86 81.6 17.3 81.4 16.78C81.2 16.26 80.9133 15.8133 80.54 15.44C80.18 15.0667 79.7333 14.7733 79.2 14.56C78.6667 14.3467 78.0667 14.24 77.4 14.24H76.5V22.68ZM72.58 10.92H78.38C79.4067 10.92 80.3667 11.1267 81.26 11.54C82.1667 11.9533 82.9533 12.5067 83.62 13.2C84.3 13.88 84.8333 14.68 85.22 15.6C85.6067 16.5067 85.8 17.46 85.8 18.46C85.8 19.4467 85.6067 20.4 85.22 21.32C84.8467 22.2267 84.32 23.0267 83.64 23.72C82.9733 24.4133 82.1867 24.9667 81.28 25.38C80.3867 25.7933 79.42 26 78.38 26H72.58V10.92ZM95.0227 10.92V26H91.1027V10.92H95.0227ZM109.253 14.78C108.826 14.4333 108.4 14.18 107.973 14.02C107.546 13.8467 107.133 13.76 106.733 13.76C106.226 13.76 105.813 13.88 105.493 14.12C105.173 14.36 105.013 14.6733 105.013 15.06C105.013 15.3267 105.093 15.5467 105.253 15.72C105.413 15.8933 105.62 16.0467 105.873 16.18C106.14 16.3 106.433 16.4067 106.753 16.5C107.086 16.5933 107.413 16.6933 107.733 16.8C109.013 17.2267 109.946 17.8 110.533 18.52C111.133 19.2267 111.433 20.1533 111.433 21.3C111.433 22.0733 111.3 22.7733 111.033 23.4C110.78 24.0267 110.4 24.5667 109.893 25.02C109.4 25.46 108.786 25.8 108.053 26.04C107.333 26.2933 106.513 26.42 105.593 26.42C103.686 26.42 101.92 25.8533 100.293 24.72L101.973 21.56C102.56 22.08 103.14 22.4667 103.713 22.72C104.286 22.9733 104.853 23.1 105.413 23.1C106.053 23.1 106.526 22.9533 106.833 22.66C107.153 22.3667 107.313 22.0333 107.313 21.66C107.313 21.4333 107.273 21.24 107.193 21.08C107.113 20.9067 106.98 20.7533 106.793 20.62C106.606 20.4733 106.36 20.34 106.053 20.22C105.76 20.1 105.4 19.9667 104.973 19.82C104.466 19.66 103.966 19.4867 103.473 19.3C102.993 19.1 102.56 18.84 102.173 18.52C101.8 18.2 101.493 17.8 101.253 17.32C101.026 16.8267 100.913 16.2067 100.913 15.46C100.913 14.7133 101.033 14.04 101.273 13.44C101.526 12.8267 101.873 12.3067 102.313 11.88C102.766 11.44 103.313 11.1 103.953 10.86C104.606 10.62 105.333 10.5 106.133 10.5C106.88 10.5 107.66 10.6067 108.473 10.82C109.286 11.02 110.066 11.32 110.813 11.72L109.253 14.78ZM122.52 14.24V26H118.6V14.24H115.38V10.92H125.74V14.24H122.52ZM134.204 17.66H134.944C135.717 17.66 136.311 17.5 136.724 17.18C137.137 16.86 137.344 16.4 137.344 15.8C137.344 15.2 137.137 14.74 136.724 14.42C136.311 14.1 135.717 13.94 134.944 13.94H134.204V17.66ZM142.824 26H137.944L134.204 20.2V26H130.284V10.92H136.384C137.224 10.92 137.957 11.0467 138.584 11.3C139.211 11.54 139.724 11.8733 140.124 12.3C140.537 12.7267 140.844 13.22 141.044 13.78C141.257 14.34 141.364 14.94 141.364 15.58C141.364 16.7267 141.084 17.66 140.524 18.38C139.977 19.0867 139.164 19.5667 138.084 19.82L142.824 26ZM151.184 10.92V26H147.264V10.92H151.184ZM161.054 22.96H161.914C162.901 22.96 163.607 22.8333 164.034 22.58C164.461 22.3267 164.674 21.92 164.674 21.36C164.674 20.8 164.461 20.3933 164.034 20.14C163.607 19.8867 162.901 19.76 161.914 19.76H161.054V22.96ZM161.054 16.84H161.774C163.001 16.84 163.614 16.3533 163.614 15.38C163.614 14.4067 163.001 13.92 161.774 13.92H161.054V16.84ZM157.134 10.92H162.974C164.361 10.92 165.414 11.2533 166.134 11.92C166.854 12.5867 167.214 13.5467 167.214 14.8C167.214 15.56 167.074 16.1933 166.794 16.7C166.527 17.1933 166.114 17.6133 165.554 17.96C166.114 18.0667 166.587 18.2333 166.974 18.46C167.374 18.6733 167.694 18.94 167.934 19.26C168.187 19.58 168.367 19.94 168.474 20.34C168.581 20.74 168.634 21.1667 168.634 21.62C168.634 22.3267 168.507 22.9533 168.254 23.5C168.014 24.0467 167.667 24.5067 167.214 24.88C166.774 25.2533 166.234 25.5333 165.594 25.72C164.954 25.9067 164.234 26 163.434 26H157.134V10.92ZM177.702 10.92V19.12C177.702 19.56 177.715 20.0133 177.742 20.48C177.782 20.9333 177.882 21.3467 178.042 21.72C178.215 22.0933 178.482 22.4 178.842 22.64C179.202 22.8667 179.708 22.98 180.362 22.98C181.015 22.98 181.515 22.8667 181.862 22.64C182.222 22.4 182.488 22.0933 182.662 21.72C182.835 21.3467 182.935 20.9333 182.962 20.48C183.002 20.0133 183.022 19.56 183.022 19.12V10.92H186.922V19.66C186.922 22.0067 186.382 23.72 185.302 24.8C184.235 25.88 182.588 26.42 180.362 26.42C178.135 26.42 176.482 25.88 175.402 24.8C174.322 23.72 173.782 22.0067 173.782 19.66V10.92H177.702ZM198.61 14.24V26H194.69V14.24H191.47V10.92H201.83V14.24H198.61ZM210.294 10.92V26H206.374V10.92H210.294ZM219.664 18.46C219.664 19.06 219.777 19.6133 220.004 20.12C220.231 20.6267 220.537 21.0667 220.924 21.44C221.311 21.8133 221.757 22.1067 222.264 22.32C222.784 22.52 223.331 22.62 223.904 22.62C224.477 22.62 225.017 22.52 225.524 22.32C226.044 22.1067 226.497 21.8133 226.884 21.44C227.284 21.0667 227.597 20.6267 227.824 20.12C228.051 19.6133 228.164 19.06 228.164 18.46C228.164 17.86 228.051 17.3067 227.824 16.8C227.597 16.2933 227.284 15.8533 226.884 15.48C226.497 15.1067 226.044 14.82 225.524 14.62C225.017 14.4067 224.477 14.3 223.904 14.3C223.331 14.3 222.784 14.4067 222.264 14.62C221.757 14.82 221.311 15.1067 220.924 15.48C220.537 15.8533 220.231 16.2933 220.004 16.8C219.777 17.3067 219.664 17.86 219.664 18.46ZM215.564 18.46C215.564 17.34 215.771 16.3 216.184 15.34C216.597 14.3667 217.171 13.52 217.904 12.8C218.637 12.08 219.511 11.52 220.524 11.12C221.551 10.7067 222.677 10.5 223.904 10.5C225.117 10.5 226.237 10.7067 227.264 11.12C228.291 11.52 229.171 12.08 229.904 12.8C230.651 13.52 231.231 14.3667 231.644 15.34C232.057 16.3 232.264 17.34 232.264 18.46C232.264 19.58 232.057 20.6267 231.644 21.6C231.231 22.56 230.651 23.4 229.904 24.12C229.171 24.84 228.291 25.4067 227.264 25.82C226.237 26.22 225.117 26.42 223.904 26.42C222.677 26.42 221.551 26.22 220.524 25.82C219.511 25.4067 218.637 24.84 217.904 24.12C217.171 23.4 216.597 22.56 216.184 21.6C215.771 20.6267 215.564 19.58 215.564 18.46Z" fill="black"/>
<circle cx="18.5" cy="18.5" r="16.5" stroke="#25A6DA" stroke-width="4"/>
<circle cx="38.5" cy="18.5" r="16.5" stroke="#DA2566" stroke-width="4"/>
</svg>
