<?xml version="1.0" encoding="iso-8859-1"?>
<!-- Generator: Adobe Illustrator 24.1.0, SVG Export Plug-In . SVG Version: 6.00 Build 0)  -->
<svg version="1.1" id="Ebene_1" xmlns="http://www.w3.org/2000/svg" xmlns:xlink="http://www.w3.org/1999/xlink" x="0px" y="0px"
	 viewBox="0 0 643.165 99.588" style="enable-background:new 0 0 643.165 99.588;" xml:space="preserve">
<g>
	<path style="fill:#DB2567;" d="M593.372,0c-27.502,0-49.794,22.292-49.794,49.794s22.292,49.794,49.794,49.794
		s49.794-22.292,49.794-49.794S620.873,0,593.372,0z M593.372,78.031c-15.595,0-28.237-12.642-28.237-28.237
		s12.642-28.237,28.237-28.237s28.237,12.642,28.237,28.237S608.967,78.031,593.372,78.031z"/>
	<path style="fill:#26A6DB;" d="M131.728,0c-27.502,0-49.794,22.292-49.794,49.794s22.292,49.794,49.794,49.794
		s49.794-22.292,49.794-49.794S159.23,0,131.728,0z M131.728,78.031c-15.595,0-28.237-12.642-28.237-28.237
		s12.642-28.237,28.237-28.237s28.237,12.642,28.237,28.237S147.323,78.031,131.728,78.031z"/>
	<path style="fill:#26A6DB;" d="M0,84.75l13.596-15.148c5.589,6.182,11.064,9.809,17.931,9.809c8.121,0,13.163-4.905,13.163-16.243
		V0h22.128V64.15c0,11.635-3.353,20.303-9.239,26.189c-6.023,6.023-14.851,9.102-25.505,9.102C16.813,99.441,6.73,92.734,0,84.75z"
		/>
	<path style="fill:#DB2567;" d="M427.643,0h23.611l26.183,42.101L503.619,0h23.611v99.587h-21.757V34.571l-28.036,42.541h-0.579
		l-27.735-42.124v64.6h-21.479V0z"/>
	<path style="fill:#26A6DB;" d="M296.225,99.588h-23.611l-26.183-42.101l-26.183,42.101h-23.611V0h21.757v65.017l28.036-42.541
		h0.579L274.746,64.6V0h21.479V99.588z"/>
	<g>
		<path style="fill:#26A6DB;" d="M336.16,61.33c-4.643-10.379-2.712-22.984,5.807-31.503c8.519-8.519,21.124-10.45,31.503-5.807
			l15.834-15.834c-19.325-12.742-45.572-10.609-62.58,6.398c-17.008,17.008-19.14,43.254-6.398,62.58L336.16,61.33z"/>
		<path style="fill:#DB2567;" d="M388.266,39.6c3.906,10.107,1.789,22.006-6.366,30.161c-8.155,8.155-20.054,10.272-30.161,6.366
			l-16.006,16.006c19.204,11.906,44.741,9.539,61.41-7.129c16.669-16.669,19.036-42.206,7.13-61.41L388.266,39.6z"/>
	</g>
</g>
</svg>
