<?xml version="1.0" encoding="utf-8"?>
<!-- Generator: Adobe Illustrator 22.1.0, SVG Export Plug-In . SVG Version: 6.00 Build 0)  -->
<svg version="1.1" id="Ebene_1" xmlns="http://www.w3.org/2000/svg" xmlns:xlink="http://www.w3.org/1999/xlink" x="0px" y="0px"
	 viewBox="0 0 643.2 132.5" style="enable-background:new 0 0 643.2 132.5;" xml:space="preserve">
<style type="text/css">
	.st0{fill:#DB2567;}
	.st1{fill:#26A6DB;}
	.st2{fill:none;}
</style>
<g>
	<path class="st0" d="M593.4,32.9c-27.5,0-49.8,22.3-49.8,49.8s22.3,49.8,49.8,49.8s49.8-22.3,49.8-49.8S620.9,32.9,593.4,32.9z
		 M593.4,110.9c-15.6,0-28.2-12.6-28.2-28.2s12.6-28.2,28.2-28.2s28.2,12.6,28.2,28.2S609,110.9,593.4,110.9z"/>
	<path class="st1" d="M131.7,32.9c-27.5,0-49.8,22.3-49.8,49.8s22.3,49.8,49.8,49.8s49.8-22.3,49.8-49.8S159.2,32.9,131.7,32.9z
		 M131.7,110.9c-15.6,0-28.2-12.6-28.2-28.2s12.6-28.2,28.2-28.2S160,67.1,160,82.7S147.3,110.9,131.7,110.9z"/>
	<path class="st1" d="M0,117.6l13.6-15.1c5.6,6.2,11.1,9.8,17.9,9.8c8.1,0,13.2-4.9,13.2-16.2V32.9h22.1V97
		c0,11.6-3.4,20.3-9.2,26.2c-6,6-14.9,9.1-25.5,9.1C16.8,132.3,6.7,125.6,0,117.6z"/>
	<path class="st0" d="M427.6,32.9h23.6L477.4,75l26.2-42.1h23.6v99.6h-21.8v-65l-28,42.5h-0.6l-27.7-42.1v64.6h-21.5V32.9z"/>
	<path class="st1" d="M296.2,132.5h-23.6l-26.2-42.1l-26.2,42.1h-23.6V32.9h21.8v65l28-42.5h0.6l27.7,42.1V32.9h21.5V132.5z"/>
	<g>
		<path class="st1" d="M336.2,94.2c-4.6-10.4-2.7-23,5.8-31.5c8.5-8.5,21.1-10.5,31.5-5.8l15.8-15.8c-19.3-12.7-45.6-10.6-62.6,6.4
			c-17,17-19.1,43.3-6.4,62.6L336.2,94.2z"/>
		<path class="st0" d="M388.3,72.5c3.9,10.1,1.8,22-6.4,30.2c-8.2,8.2-20.1,10.3-30.2,6.4l-16,16c19.2,11.9,44.7,9.5,61.4-7.1
			c16.7-16.7,19-42.2,7.1-61.4L388.3,72.5z"/>
	</g>
</g>
<g>
	<polygon class="st2" points="509.7,15.6 516.7,15.6 513.2,7 	"/>
	<path class="st2" d="M444.3,18.7L444.3,18.7c0-0.7-0.2-1.3-0.6-1.7l-4.6,4.6h1C442.7,21.6,444.3,20.7,444.3,18.7z"/>
	<path class="st0" d="M444.3,18.7L444.3,18.7c0,2-1.6,3-4.1,3h-1l-5.1,5.1h6.2c6,0,9.9-2.4,9.9-7.3v-0.1c0-2.8-1.2-4.5-3.1-5.6
		l-3.3,3.3C444.1,17.5,444.3,18,444.3,18.7z"/>
	<polygon class="st0" points="460.7,16 473.2,16 473.2,10.8 460.7,10.8 460.7,5.4 474.9,5.4 474.9,0.2 460.5,0.2 454.9,5.8 
		454.9,26.7 475.1,26.7 475.1,21.5 460.7,21.5 	"/>
	<polygon class="st0" points="500.4,0.2 478.4,0.2 478.4,5.6 486.5,5.6 486.5,26.7 492.3,26.7 492.3,5.6 500.4,5.6 	"/>
	<path class="st0" d="M516,0h-5.4l-11.4,26.7h6l2.4-6h11.2l2.4,6h6.1L516,0z M509.7,15.6l3.5-8.6l3.5,8.6H509.7z"/>
</g>
<g>
	<path class="st2" d="M442.8,8.1L442.8,8.1c0-1.8-1.4-2.8-3.8-2.8h-5.8v5.6h5.4C441.2,10.9,442.8,10.1,442.8,8.1z"/>
	<path class="st2" d="M439.9,15.8h-6.8v5.8h5.9l4.6-4.6C443.1,16.2,441.9,15.8,439.9,15.8z"/>
	<path class="st1" d="M433.2,21.6v-5.8h6.8c1.9,0,3.1,0.4,3.8,1.2l3.3-3.3c-0.6-0.3-1.2-0.6-1.9-0.9c1.9-1.1,3.5-2.7,3.5-5.7V7.1
		c0-1.8-0.6-3.3-1.8-4.5c-1.5-1.5-3.9-2.4-6.9-2.4h-12.3v26.6h6.5l5.1-5.1H433.2z M433.2,5.3h5.8c2.5,0,3.8,1,3.8,2.7v0.1
		c0,2-1.6,2.8-4.2,2.8h-5.4V5.3z"/>
	<polygon class="st1" points="454.9,0.2 454.9,5.8 460.5,0.2 	"/>
</g>
</svg>
