<svg width="216" height="162" viewBox="0 0 216 162" fill="none" xmlns="http://www.w3.org/2000/svg">
<rect x="105.154" width="3.24822" height="115.164" rx="1.62411" fill="#39738A"/>
<path d="M41.2388 161.23C41.2388 161.23 1 112 0.5 94C8.22517 105.201 30.2612 112.07 35.5 113C59 117.174 215.003 113.983 215.003 113.983L177.306 161.23C177.306 161.23 157.787 157.5 144.503 157.5C131.218 157.5 122.556 161.23 109.272 161.23C95.9878 161.23 87.4877 159.427 73.5027 159.5C60.8849 159.566 41.2388 161.23 41.2388 161.23Z" fill="#39738A"/>
<rect x="28.3779" y="125.204" width="36.321" height="6.20114" rx="3" fill="#C4C4C4"/>
<rect x="148.267" y="125.204" width="36.321" height="6.20114" rx="3" fill="#C4C4C4"/>
<rect x="86.8458" y="125.204" width="36.321" height="6.20114" rx="3" fill="#C4C4C4"/>
<path d="M147.676 49.0186C154.763 18.3082 124.545 8.07135 108.55 6.79175C128.63 18.7511 130.401 41.1933 127.301 56.2532C125.227 66.3243 112.536 99.1691 108.55 105.567C118.639 99.5136 140.589 79.729 147.676 49.0186Z" fill="#DA2566"/>
<path d="M29.1662 110.688L103.825 20.5228L83.5 100.5L29.1662 110.688Z" fill="#DA2566"/>
</svg>
