<svg xmlns="http://www.w3.org/2000/svg" width="32" height="23" viewBox="0 0 32 23" fill="none">
<path d="M15.8791 5.51237C18.6477 2.13369 26.5 1.99999 32 2.66969C27.5 -3 11.1918 2.64049 9.30814 3.40069C7.42445 4.16089 6.59212 2.66969 3.35043 2.66969C0.108738 2.66969 0.89426 4.44416 0.5 5.5C0.10574 6.55584 0.0211239 7.10421 0.678225 6.17508C1.33533 5.24594 10.5785 5.51237 4.4894 8.34202C-1.59972 11.1717 6.98639 25.687 6.98639 22.5617C6.98639 19.4364 5.5 11 11.1918 11.1294C12.8582 11.1673 18.1078 17.5432 19.7341 17.198C22.5816 16.5937 21.2236 14.7063 21.355 14.1572C21.4864 13.6082 24.3666 13.7886 23.3701 12.0033C22.5378 10.5121 13.1106 8.89105 15.8791 5.51237Z" fill="#767676"/>
</svg>
<path xmlns="http://www.w3.org/2000/svg" d="M15.8791 5.51237C18.6477 2.13369 26.5 1.99999 32 2.66969C27.5 -3 11.1918 2.64049 9.30814 3.40069C7.42445 4.16089 6.59212 2.66969 3.35043 2.66969C0.108738 2.66969 0.89426 4.44416 0.5 5.5C0.10574 6.55584 0.0211239 7.10421 0.678225 6.17508C1.33533 5.24594 10.5785 5.51237 4.4894 8.34202C-1.59972 11.1717 6.98639 25.687 6.98639 22.5617C6.98639 19.4364 5.5 11 11.1918 11.1294C12.8582 11.1673 18.1078 17.5432 19.7341 17.198C22.5816 16.5937 21.2236 14.7063 21.355 14.1572C21.4864 13.6082 24.3666 13.7886 23.3701 12.0033C22.5378 10.5121 13.1106 8.89105 15.8791 5.51237Z" fill="#767676"/>
<svg xmlns="http://www.w3.org/2000/svg" width="32" height="23" viewBox="0 0 32 23" fill="none">
<path d="M15.8791 5.51237C18.6477 2.13369 26.5 1.99999 32 2.66969C27.5 -3 11.1918 2.64049 9.30814 3.40069C7.42445 4.16089 6.59212 2.66969 3.35043 2.66969C0.108738 2.66969 0.89426 4.44416 0.5 5.5C0.10574 6.55584 0.0211239 7.10421 0.678225 6.17508C1.33533 5.24594 10.5785 5.51237 4.4894 8.34202C-1.59972 11.1717 6.98639 25.687 6.98639 22.5617C6.98639 19.4364 5.5 11 11.1918 11.1294C12.8582 11.1673 18.1078 17.5432 19.7341 17.198C22.5816 16.5937 21.2236 14.7063 21.355 14.1572C21.4864 13.6082 24.3666 13.7886 23.3701 12.0033C22.5378 10.5121 13.1106 8.89105 15.8791 5.51237Z" fill="#767676"/>
</svg>
