<svg width="220" height="162" viewBox="0 0 220 162" fill="none" xmlns="http://www.w3.org/2000/svg">
<rect x="104.654" width="3.24822" height="115.164" rx="1.62411" fill="#4596B7"/>
<path d="M40.7388 161.23C40.7388 161.23 0 117 0 94C7.72517 105.201 29.7612 112.069 35 113C54.2866 116.426 178.313 116.477 188.5 113C198.687 109.523 213.5 104 220 94C220 119.5 176.806 161.23 176.806 161.23C176.806 161.23 157.287 157.5 144.003 157.5C130.718 157.5 122.056 161.23 108.772 161.23C95.4878 161.23 86.9877 159.427 73.0027 159.5C60.3849 159.566 40.7388 161.23 40.7388 161.23Z" fill="#4596B7"/>
<rect x="27.8779" y="125.204" width="36.321" height="6.20114" rx="3" fill="#C4C4C4"/>
<rect x="147.767" y="125.204" width="36.321" height="6.20114" rx="3" fill="#C4C4C4"/>
<rect x="86.3458" y="125.204" width="36.321" height="6.20114" rx="3" fill="#C4C4C4"/>
<path d="M147.176 49.0185C154.263 18.3081 124.045 8.07132 108.05 6.79172C128.13 18.7511 129.901 41.1933 126.801 56.2532C124.727 66.3243 112.036 99.169 108.05 105.567C118.139 99.5135 140.089 79.729 147.176 49.0185Z" fill="#DA2566"/>
<path d="M28.6662 110.688L103.325 20.5228L83 100.5L28.6662 110.688Z" fill="#DA2566"/>
</svg>
