<?xml version="1.0" encoding="utf-8"?>
<!-- Generator: Adobe Illustrator 23.0.3, SVG Export Plug-In . SVG Version: 6.00 Build 0)  -->
<svg version="1.1" id="Ebene_1" xmlns="http://www.w3.org/2000/svg" xmlns:xlink="http://www.w3.org/1999/xlink" x="0px" y="0px"
	 viewBox="0 0 192.8 60" style="enable-background:new 0 0 192.8 60;" xml:space="preserve">
<style type="text/css">
	.st0{fill:#3FB4E5;}
</style>
<g>
	<polygon class="st0" points="40.4,15.1 89.2,15.1 89.2,0.3 40.4,0.3 40.4,15.1 	"/>
	<polygon class="st0" points="0,37.4 89.2,37.4 89.2,30 0,30 0,37.4 	"/>
	<polygon class="st0" points="15.3,59.7 89.2,59.7 89.2,48.6 15.3,48.6 15.3,59.7 	"/>
	<path d="M163.2,59.7h1.5l0.8-10.4c0.1-0.8,0-2.1,0-2.1h0c0,0,0.5,1.4,0.8,2.1l3.5,7.6h1.4l3.5-7.6c0.3-0.8,0.8-2.1,0.8-2.1h0
		c0,0,0,1.3,0,2.1l0.8,10.4h1.5l-1.2-14.9h-1.5l-3.9,8.7c-0.3,0.8-0.7,1.8-0.7,1.8h0c0,0-0.4-1.1-0.7-1.8l-3.9-8.7h-1.5L163.2,59.7
		L163.2,59.7z M145.1,59.7h1.5l0.8-10.4c0.1-0.8,0-2.1,0-2.1h0c0,0,0.5,1.4,0.8,2.1l3.5,7.6h1.4l3.5-7.6c0.3-0.8,0.8-2.1,0.8-2.1h0
		c0,0,0,1.3,0,2.1l0.8,10.4h1.5l-1.2-14.9h-1.5l-3.9,8.7c-0.3,0.8-0.7,1.8-0.7,1.8h0c0,0-0.4-1.1-0.7-1.8l-3.9-8.7h-1.5L145.1,59.7
		L145.1,59.7z M128.7,52.2c0-3.6,2.7-6.2,6-6.2c3.3,0,6,2.7,6,6.2c0,3.6-2.7,6.4-6,6.4C131.3,58.6,128.7,55.8,128.7,52.2
		 M127.1,52.2c0,4.4,3.4,7.8,7.6,7.8c4.2,0,7.6-3.4,7.6-7.8c0-4.3-3.4-7.6-7.6-7.6C130.5,44.6,127.1,47.9,127.1,52.2 M116.3,52.2v-6
		h3c1.1,0,1.7,0.1,2.1,0.4c0.9,0.5,1.4,1.4,1.4,2.6c0,1.9-1.1,3-2.9,3H116.3L116.3,52.2z M114.9,59.7h1.5v-6.3h3.7l3.4,6.3h1.7
		l-3.2-6c-0.2-0.4-0.4-0.6-0.4-0.6v0c1.7-0.5,2.8-2,2.8-4c0-1.8-0.8-3.2-2.2-3.8c-0.6-0.3-1.3-0.4-2.8-0.4h-4.4V59.7L114.9,59.7z
		 M104,59.7h1.5v-6.7h5.5v-1.3h-5.5v-5.6h6.4v-1.3H104V59.7L104,59.7z"/>
	<path d="M184,29.9v-6h3c1.1,0,1.7,0.1,2.1,0.4c0.9,0.5,1.4,1.4,1.4,2.6c0,1.9-1.1,3-2.9,3H184L184,29.9z M182.6,37.4h1.5v-6.3h3.7
		l3.4,6.3h1.7l-3.2-6c-0.2-0.4-0.4-0.6-0.4-0.6v0c1.7-0.5,2.8-2,2.8-4c0-1.8-0.8-3.2-2.2-3.8c-0.6-0.3-1.3-0.4-2.8-0.4h-4.4V37.4
		L182.6,37.4z M170.5,37.4h8.8v-1.3H172v-5.5h5.6v-1.3H172v-5.4h6.9v-1.3h-8.4V37.4L170.5,37.4z M158.7,29.9v-6h3
		c1.1,0,1.7,0.1,2.1,0.4c0.9,0.5,1.4,1.4,1.4,2.6c0,1.9-1.1,3-2.9,3H158.7L158.7,29.9z M157.2,37.4h1.5v-6.3h3.7l3.4,6.3h1.7l-3.2-6
		c-0.2-0.4-0.4-0.6-0.4-0.6v0c1.7-0.5,2.8-2,2.8-4c0-1.8-0.8-3.2-2.2-3.8c-0.6-0.3-1.3-0.4-2.8-0.4h-4.4V37.4L157.2,37.4z
		 M145.2,37.4h8.8v-1.3h-7.3v-5.5h5.6v-1.3h-5.6v-5.4h6.9v-1.3h-8.4V37.4L145.2,37.4z M133.4,36.1v-5.8h3.8c1.7,0,2.9,1.2,2.9,2.9
		s-1.1,2.9-2.9,2.9H133.4L133.4,36.1z M133.4,29v-5.1h3.6c1.6,0,2.5,1,2.5,2.5c0,1.5-1,2.6-2.5,2.6H133.4L133.4,29z M131.9,37.4h5.2
		c2.5,0,4.5-1.5,4.5-4.2c0-1.8-1-3.3-2.5-3.7v0c1.1-0.6,1.9-1.7,1.9-3.2c0-2.3-1.7-3.7-4-3.7h-5.1V37.4L131.9,37.4z M119.9,37.4h8.8
		v-1.3h-7.3v-5.5h5.6v-1.3h-5.6v-5.4h6.9v-1.3h-8.4V37.4L119.9,37.4z M104,37.4h1.5v-6.8h8.6v6.8h1.5V22.6h-1.5v6.8h-8.6v-6.8H104
		V37.4L104,37.4z"/>
	<path d="M143.9,15.1h8.8v-1.3h-7.3V8.3h5.6V7h-5.6V1.6h6.9V0.3h-8.4V15.1L143.9,15.1z M131.5,13.5c0,0,1.7,1.9,4.7,1.9
		c2.8,0,4.5-1.8,4.5-4c0-4.9-7.4-3.9-7.4-7.4c0-1.3,1.2-2.6,3.1-2.6c1.9,0,3.3,1.3,3.3,1.3l0.7-1.2c0,0-1.4-1.4-4-1.4
		c-2.7,0-4.6,1.9-4.6,4c0,4.6,7.4,3.7,7.4,7.4c0,1.6-1.3,2.6-3,2.6c-2.3,0-3.9-1.6-3.9-1.6L131.5,13.5L131.5,13.5z M117.1,10
		c0,3.3,2.3,5.4,5.7,5.4c3.4,0,5.7-2.1,5.7-5.4V0.3H127v9.6c0,2.6-1.7,4.1-4.2,4.1c-2.6,0-4.2-1.5-4.2-4.1V0.3h-1.5V10L117.1,10z
		 M105.5,13.8V8h3.8c1.7,0,2.9,1.2,2.9,2.9s-1.1,2.9-2.9,2.9H105.5L105.5,13.8z M105.5,6.7V1.6h3.6c1.6,0,2.5,1,2.5,2.5
		c0,1.5-1,2.6-2.5,2.6H105.5L105.5,6.7z M104,15.1h5.2c2.5,0,4.5-1.5,4.5-4.2c0-1.8-1-3.3-2.5-3.7v0c1.1-0.6,1.9-1.7,1.9-3.2
		c0-2.3-1.7-3.7-4-3.7H104V15.1L104,15.1z"/>
</g>
</svg>
