<svg version="1.1" id="Ebene_1" xmlns="http://www.w3.org/2000/svg" x="0" y="0" viewBox="0 0 142.38 60" xml:space="preserve"><style>.st0{fill:#40b4e5}</style><path class="st0" d="M40.81 15.02h48.83V.12H40.81v14.9zM.29 37.35h89.35v-7.44H.29v7.44zM15.59 59.69h74.05V48.52H15.59v11.17zM104.43 59.69h4.04c2.06 0 3.85-1.01 3.85-3.24 0-1.13-.58-2.26-1.81-2.63v-.03a2.64 2.64 0 001.35-2.39c0-1.84-1.43-2.88-3.44-2.88h-4v11.17h.01zm2.03-6.61v-2.82h1.93c.94 0 1.42.58 1.42 1.38 0 .8-.5 1.43-1.38 1.43h-1.97v.01zm0 4.86v-3.22h2.17c1.02 0 1.62.68 1.62 1.6 0 .94-.58 1.62-1.62 1.62h-2.17zM114.49 55.68c0 2.5 1.81 4.2 4.51 4.2 2.69 0 4.5-1.7 4.5-4.2v-7.16h-2.03v7.14c0 1.51-.99 2.36-2.49 2.36-1.49 0-2.47-.85-2.47-2.34v-7.16h-2.03v7.16h.01zM125.46 58.35s1.37 1.53 3.85 1.53c2.33 0 3.68-1.49 3.68-3.27 0-3.57-5.25-3.08-5.25-5.06 0-.79.74-1.34 1.68-1.34 1.4 0 2.47.98 2.47.98l.88-1.65s-1.13-1.2-3.33-1.2c-2.14 0-3.74 1.38-3.74 3.24 0 3.43 5.27 3.08 5.27 5.08 0 .91-.77 1.35-1.62 1.35-1.57 0-2.78-1.18-2.78-1.18l-1.11 1.52zM135.15 59.69h6.93v-1.75h-4.9v-3h3.75v-1.75h-3.75v-2.92h4.65v-1.75h-6.68v11.17z"/></svg>
